<?xml version="1.0" encoding="utf-8"?>
<!-- Generator: Adobe Illustrator 23.0.3, SVG Export Plug-In . SVG Version: 6.00 Build 0)  -->
<svg version="1.1" id="Layer_1" xmlns="http://www.w3.org/2000/svg" xmlns:xlink="http://www.w3.org/1999/xlink" x="0px" y="0px"
	 viewBox="0 0 2500 984" style="enable-background:new 0 0 2500 984;" xml:space="preserve">
<style type="text/css">
	.st0{fill:#FFFFFF;}
</style>
<title>stanley-steemer-wordmark</title>
<g>
	<path class="st0" d="M1440.4,70.7c14.7,1.5,29.5,3,44.2,4.6c99.8,11,192.1,44.3,278.9,93.8c41.5,23.6,80.7,50.6,118.1,80.1
		c1.3,1,2.5,2.1,3.2,4.1c-0.9-0.3-1.8-0.6-2.6-1c-122.1-61.9-251.3-100-387.3-114.6c-145.5-15.6-287.4,0-424.8,51.6
		c-44.9,16.9-88.2,37.4-129.8,61.2c-1.8,1-3.7,2-6.5,1.8c2.1-1.9,4.2-3.8,6.4-5.5c110.6-89,235-147.3,375.9-168.7
		c17.9-2.7,36.1-3.8,54.2-5.6c4.1-0.4,8.1-1.1,12.2-1.7C1401.9,70.7,1421.1,70.7,1440.4,70.7z"/>
	<path class="st0" d="M12.3,634.9c1.9-1.2,3.6-3.1,5.6-3.6c4.5-1.1,9.3-1.2,13.9-2.1c24-4.9,40.4-21.6,43.7-45.7
		c1.8-13.6,2.7-27.4,2.8-41.2c0.3-77.4,0.2-154.8,0-232.2c0-13.2-0.8-26.5-2.6-39.5c-3.7-27.3-20.8-44-47.8-48.2
		c-2.2-0.3-4.5-0.3-6.5-1.1c-2.9-1.1-5.5-2.7-8.3-4.1c2.8-0.9,5.6-2.6,8.4-2.6c73.5-0.1,147.1,0,220.6,0c20.3,0,40.2,2.2,59.1,10
		c35.3,14.5,54.6,41,56.6,79.1c2.1,40.1-13.1,71.4-49.7,90.5c-8.2,4.3-17,7.5-27,11.8c3.1,1,4.6,1.7,6.3,2.1
		c7.3,1.6,14.5,3.2,21.8,4.7c84.4,17.9,105.7,111.6,74.6,169.1c-17,31.4-44.7,47.2-79,51.8c-18.8,2.5-37.8,3.7-56.8,3.8
		c-75.5,0.4-150.9,0.2-226.4,0.2c-2.7,0-5.4-0.3-8.1-0.4C13.1,636.6,12.7,635.7,12.3,634.9z M146.1,418.9c-0.1,2.1-0.5,4.5-0.5,6.9
		c0,41.9-0.1,83.7,0.1,125.6c0.1,9.3,0.7,18.7,2.2,27.9c4.6,29.1,21.9,45.8,51.1,48.6c12,1.1,24.2,1,36.2-0.3
		c42.9-4.6,75.7-31.7,83.9-71.5c3.3-15.9,4.2-33.1,2-49.1c-8.1-58.4-36.8-80.8-82.4-86.1c-29.9-3.5-60.4-2.2-90.6-3
		C147.6,417.9,147.1,418.4,146.1,418.9z M146.4,223.4c0,62.4,0,123.5,0,185c26.6,0.5,52.4,0.5,77.8-5.2c28.9-6.5,48-24.1,56.7-51.9
		c10.7-34.3,5.4-67-14.9-96.8c-9.5-14-23-22.9-39.4-26.8C200.4,221.7,173.7,223.5,146.4,223.4z"/>
	<path class="st0" d="M2392.2,401.3c0.2-4.2,0.4-6.7,0.4-9.1c0-35.8,0.2-71.6-0.1-107.4c-0.1-9.6-1.1-19.3-3.1-28.6
		c-4.6-21-16.3-30.8-37.6-33.6c-2.6-0.3-4.9-2.6-7.3-4c2.4-1.3,4.6-3.4,7.1-3.8c25.1-3.4,50.2-6.6,75.4-9.8
		c3.5-0.4,7.1-0.6,11.7-1.1c0,3.8,0,7,0,10.2c0,114.3-0.1,228.6,0.1,342.9c0,12.6,1,25.4,3.5,37.7c4.2,20.6,16.4,30.4,37.1,33
		c2.6,0.3,4.9,2.7,7.3,4.1c-2.3,1.4-4.4,3.6-6.8,4c-25,3.9-50.1,7.6-75.1,11.3c-2.4,0.3-4.8,0.3-8.2,0.6
		c-1.1-10.5-2.1-20.5-3.3-31.7c-3.7,2.1-6.7,3.8-9.7,5.5c-33.9,20.3-70.2,27.2-108.8,18.2c-50.9-11.9-86.6-55-91.9-110.5
		c-3.4-35.5,2.1-69.2,21-100.1c33-54,93.5-67.9,140.5-55c13.1,3.6,24.9,12.5,37.1,19.3C2384.8,395.4,2387.6,398,2392.2,401.3z
		 M2394.2,503.7c-0.6,0-1.2-0.1-1.9-0.1c0-9.1,0.8-18.3-0.2-27.2c-2-18-2.6-36.6-7.8-53.7c-13.6-44.6-65.7-59.3-102.2-30.2
		c-13.2,10.5-22.7,23.9-29.9,39c-16,33.6-20.7,68.8-14.3,105.4c5.1,29.5,15.2,57,37,78.6c32.7,32.3,84.4,23.4,104.5-17.9
		c3.8-7.8,7.1-16.4,8.2-24.9C2390.5,549.7,2392.1,526.7,2394.2,503.7z"/>
	<path class="st0" d="M1331.6,634.7c2.1-1.2,4-2.9,6.3-3.4c28-5.9,36.1-14.5,38.6-43c1.2-13.1,1.5-26.4,1.5-39.6
		c0.1-89.8,0-179.5-0.3-269.3c0-10.1-0.9-20.4-3.1-30.3c-3.6-16.2-13.6-26.6-30.9-29c-2.8-0.4-5.4-2.5-8-3.8
		c2.8-1.4,5.5-3.7,8.5-4.1c23.5-3.2,47-6,70.4-8.9c2.7-0.3,5.4-0.4,9.5-0.6c0,70.3,0,139.9,0,211.5c3.1-2.9,4.6-4,5.7-5.4
		c26.3-32.5,61.5-41.9,101.3-38c11.9,1.2,23.9,4.4,35,8.7c27.2,10.6,38.2,32.6,38.9,60.5c0.5,21.5,0.3,42.9,0.5,64.4
		c0.2,27-0.1,54,1,80.9c1.2,29.5,8.7,37.8,37.1,45.5c2.5,0.7,4.6,2.4,6.9,3.7c-0.4,0.8-0.7,1.7-1.1,2.5c-45.2,0-90.3,0-135.5,0
		c-0.3-0.8-0.6-1.6-1-2.4c2.1-1.1,4.1-3.1,6.3-3.3c25.5-3,37.6-15.9,38.3-42.4c1.3-51.4,1.8-102.9,0.1-154.3
		c-0.9-29.2-16.8-46.4-41-52.4c-28.7-7.1-56.9,2.9-72.3,25.7c-13.2,19.6-18.4,42-19,65c-1.1,38-1,76-0.4,113.9
		c0.4,26.7,9.3,36.6,35.3,43.5c3,0.8,5.7,2.6,8.5,3.9c-0.3,0.9-0.7,1.8-1,2.8c-45.1,0-90.3,0-135.4,0
		C1332.3,636.3,1331.9,635.5,1331.6,634.7z"/>
	<path class="st0" d="M924,375.1c29.4,0,58.8,0,89.5,0c0,3.4,0,6.6,0,9.8c0.1,59.8,0.1,119.5,0.3,179.3c0,8.5,0.6,17.1,1.8,25.5
		c2.8,21,13.6,32,33.9,36c2.4,0.5,4.6,2.5,6.9,3.8c-2.2,1.1-4.3,2.9-6.7,3.2c-23.2,3.3-46.4,6.1-69.5,9.7c-7.6,1.2-9.8-1.7-10.3-8.4
		c-0.7-9-1.8-17.9-2.8-28.5c-3.2,2.6-5.6,4.6-7.9,6.6c-32.4,27.7-69.6,36.7-111,28.4c-37.8-7.5-57.5-31.7-57.7-70.3
		c-0.3-43.8-0.3-87.6-0.5-131.4c0-4.4-0.1-8.8-0.3-13.2c-1.1-26.4-9.7-36.8-35.4-43.4c-3.2-0.8-9.4,0.4-7.4-7.1
		c29.6,0,59.2,0,89.8,0c0,3.8,0,7,0,10.2c0,53.7-0.2,107.4,0.3,161.1c0.1,14.2,1.1,28.7,3.7,42.7c4.3,23,20.2,36.8,43.5,40.2
		c44.6,6.5,79.4-19,81.5-63.8c2.3-48.9,1.2-98,0.4-147c-0.3-20.6-11.1-30.3-34.3-36.2c-3.2-0.8-6-2.8-9-4.2
		C923,377.2,923.5,376.1,924,375.1z"/>
	<path class="st0" d="M438.8,506.2c0.3-57.4,44.1-112.8,103.1-130.4c69.2-20.6,144.5,13.1,175.4,78.5c23.5,49.9,11.9,107-30.2,148.3
		c-71.3,70-196,47.5-236.9-42.8C442.4,542.8,438.4,525,438.8,506.2z M673.4,507.7c-0.6-29-7-56.1-20.2-81.4
		c-7.3-14.1-16.8-26.5-29.6-36.1c-27.6-20.7-63.4-18.6-88.3,5.2c-12.7,12.2-22.5,26.5-28.7,42.9c-18,47.5-16.7,94.9,3.5,141.5
		c7,16.1,17.3,30.1,31,41.3c26.3,21.7,59.8,22,86.6,0.9c12.4-9.7,21.3-22.3,27.9-36.4C667.2,560.8,672.7,534.6,673.4,507.7z"/>
	<path class="st0" d="M1828.7,608c-6.6,5.4-12.4,10.4-18.4,15.1c-28.7,22.7-61,25.8-94.5,14.7c-51.4-17-47.9-78.5-19.5-100.9
		c9.7-7.7,21.4-13.5,33.1-17.8c17-6.2,35-9.8,52.3-15.2c38.8-12.1,48.9-26.8,45.9-67.5c-0.8-10.8-2.9-22-6.8-32
		c-7.7-19.9-28.3-31-49.3-28c-14.1,2-24.4,9.6-30.7,22.4c-3.1,6.4-5.7,13.1-8.7,19.6c-5,10.9-12.4,15.2-24.3,14.4
		c-9.9-0.7-18-6.9-20.9-16c-3.2-10-0.5-19.1,8.6-26.4c14.5-11.7,32.1-15.3,49.8-18.3c31.2-5.2,61.4-1.2,90.8,10
		c25.7,9.8,39.3,27.5,38.9,55.9c-0.6,41.3-0.2,82.6,0,123.9c0.1,11.5,0.5,23.1,1.5,34.6c1.1,12.3,4.9,23.7,18.3,27.7
		c13.2,3.9,24.3,0.3,33-10.8c1.3-1.7,4.2-2,6.4-3c-0.1,2.2,0.3,4.7-0.5,6.6c-8.2,18.4-28.4,28.2-53.4,26.3
		c-19.8-1.5-35.2-9.9-45.8-26.8C1832.7,613.9,1830.9,611.3,1828.7,608z M1827.2,486.8c-3.4,2.5-6.7,5.2-10.4,7.4
		c-17.2,10.3-34.7,20.2-51.7,30.9c-23.9,15-37.2,36.3-35.5,65.3c2,34,31.5,52.2,61.2,37.9c10.7-5.2,19.6-12.7,24.7-23.4
		c4.3-9.1,9.1-18.9,9.8-28.6c2.1-29,2.4-58.2,3.3-87.3C1828.6,488.5,1828.1,488,1827.2,486.8z"/>
	<path class="st0" d="M1205.5,643.5c-44.7-1.4-83.1-16.2-107.2-55.8c-29.6-48.6-26.7-99-1.3-148.1c24-46.4,65.1-67.4,116-69.1
		c17.3-0.6,35.1,2.6,52,6.5c9.7,2.3,18.8,8.8,27.2,14.9c4.9,3.5,8.8,9.3,11.4,14.8c5.5,11.6,1.3,24.5-8.8,30.4
		c-9.6,5.6-23.3,3.4-30-7c-6-9.3-9.9-20.1-14-30.5c-6.2-15.5-16.5-23-33.3-23.5c-12.5-0.4-24.6,2.1-34.3,9.8
		c-9.4,7.4-19.6,15.3-25.4,25.4c-30.5,52.2-36.8,106.6-9.9,162.4c11.7,24.3,29.3,43.3,55.4,52.8c39.6,14.3,75.5-0.7,93.2-38.7
		c0.6-1.2,0.9-2.7,1.8-3.7c1.1-1.2,2.7-1.9,4.1-2.8c0.4,1.8,1.7,3.8,1.2,5.2c-8.7,23.9-23,43.2-48.3,50.4c-16,4.5-32.8,5.9-49.3,8.7
		C1205.7,644.8,1205.6,644.1,1205.5,643.5z"/>
	<path class="st0" d="M2033.3,370c1.9,15.5,3.7,29.9,5.8,46.2c2.5-3.5,4.3-6,6.1-8.5c19.7-28,59.1-43.9,91.6-35.9
		c7.5,1.8,15.2,6.8,20.6,12.4c7.9,8.2,6.6,21.4-0.8,28.4c-7.5,7-20.2,7.2-28.8-0.1c-4.4-3.7-8.1-8.3-12-12.5
		c-19.6-20.7-44.9-17.6-58.4,7.4c-11.1,20.7-14.3,43.4-14.7,66.3c-0.6,37.4-0.7,74.9,0.5,112.3c0.9,28.8,9.1,37.4,36.8,44.8
		c2.5,0.7,4.8,2.3,7.2,3.5c-0.3,0.9-0.7,1.8-1,2.7c-45.2,0-90.3,0-135.5,0c-0.4-0.8-0.8-1.5-1.1-2.3c2.5-1.2,4.8-3.1,7.5-3.6
		c25.5-4.9,35.2-15.6,37.4-41.6c0.3-3.3,0.9-6.6,0.9-9.9c-0.2-50.4,0.4-100.7-0.9-151.1c-0.6-25.6-11.1-35.7-36.3-41.4
		c-1.7-0.4-3.1-2.3-4.7-3.5c1.3-1.1,2.6-3,4.1-3.2C1982.3,377,2007,373.6,2033.3,370z"/>
	<path class="st0" d="M2120.3,909.3c-25.3,0-50.6,0-76,0c-0.1-0.6-0.3-1.2-0.4-1.8c2-0.7,4-1.6,6.1-2c10.2-1.9,15.8-8.2,17.7-18.2
		c0.6-3.2,1.1-6.5,1.1-9.8c0.1-26.7,0.5-53.4-0.2-80.1c-0.6-22.4-11.4-33.7-31.5-34.9c-22.3-1.4-41.4,10.9-42.6,31.2
		c-1.9,30.9-1,62.1-0.8,93.1c0.1,8.5,5.9,13.9,13.7,16.9c3.2,1.2,6.6,2.3,9.6,5c-25.5,0-51.1,0-76.6,0c-0.1-0.4-0.2-0.8-0.4-1.1
		c1.8-0.7,3.6-1.5,5.5-2c12.7-3.1,18-8.2,19.1-21.3c1.1-12.3,1.3-24.7,1.4-37.1c0.2-16,0.1-31.9-0.1-47.9
		c-0.3-23.1-3.3-27.4-24-37.3c15.7-2.1,31.3-4.2,48.1-6.5c1.1,7.1,2,13.5,3.2,21.1c2.7-2.1,5-3.8,7.3-5.6
		c20-15.4,42.3-19.3,66.3-12.6c19.6,5.4,29.1,18.5,29.2,38.9c0.1,25.9,0,51.8,0.1,77.6c0.1,20.7,2.7,24.2,22.2,31.1
		c0.9,0.3,1.7,1.1,2.6,1.7C2120.7,908.3,2120.5,908.8,2120.3,909.3z"/>
	<path class="st0" d="M1109.3,907.4c2.1-0.6,4.2-1.5,6.4-1.9c10.6-2,16.2-8.6,17.9-18.9c0.5-3.3,1.2-6.5,1.2-9.8
		c0.1-25.9,0.5-51.8-0.1-77.6c-0.6-24.1-11.5-35.6-32.5-36.7c-23-1.1-40.8,11.5-42.2,33.7c-1.9,29.6-1.1,59.4-0.8,89.1
		c0.1,9.8,6.2,16.1,15.7,19.1c2.8,0.9,5.5,1.9,8,4.5c-25.4,0-50.7,0-76.1,0c-0.2-0.3-0.4-0.6-0.6-1c1.7-0.7,3.4-1.7,5.2-2.2
		c13.3-3.4,18.6-9,19.4-22.9c0.9-14.3,1.1-28.6,1.2-42.9c0.2-13.5,0.3-27-0.2-40.5c-0.9-24.2-2.7-26.7-23.9-37.4
		c15.7-2.1,31.4-4.2,47.9-6.4c1.2,7.2,2.2,13.6,3.4,21.2c2.9-2.3,5.1-4.1,7.4-5.9c19.8-15.1,41.9-18.9,65.6-12.5
		c19.8,5.4,29.3,18,29.4,38.6c0.2,26.7-0.2,53.4,0.4,80.1c0.4,19.5,3.3,22.7,21.8,28.9c1,0.3,1.8,1,5,2.9c-28,0-53.6,0-79.1,0
		C1109.5,908.4,1109.4,907.9,1109.3,907.4z"/>
	<path class="st0" d="M1511.5,913c-0.9-7.6-1.7-13.8-2.7-21.5c-3.1,2.4-5.3,4.1-7.6,5.9c-19.7,15.1-41.7,19.4-65.5,12.8
		c-18.8-5.3-28.3-18.1-28.5-37.6c-0.3-24.2-0.1-48.4-0.2-72.7c0-5.5-0.4-11-0.8-16.5c-0.7-10.2-6.1-16.8-15.9-19.8
		c-2.8-0.9-5.6-1.8-8.2-4.3c16.7,0,33.4,0,51.3,0c0,2.7,0,5.6,0,8.5c0,30-0.1,60,0.1,90c0,7.1,0.6,14.3,1.6,21.4
		c2.5,16.1,12.8,25.2,29.1,26.4c25.5,1.8,43.3-13.3,44.1-39.1c0.8-25.8,0.6-51.7,0.3-77.6c-0.2-16.8-4-21.1-20.4-26.4
		c-1.5-0.5-2.8-1.3-4-3.3c16.7,0,33.5,0,51.3,0c0,3.3,0,6.5,0,9.7c0.1,35.2,0,70.5,0.6,105.7c0.1,6.6,1.7,14.3,5.4,19.4
		c3.8,5.2,11.2,7.8,18.3,12.3C1543.9,908.5,1528.3,910.6,1511.5,913z"/>
	<path class="st0" d="M958.6,909.2c-31.9,0-63.8,0-95.7,0c-0.1-0.5-0.2-1-0.3-1.4c2.1-0.6,4.3-1.3,6.4-1.7
		c15.3-3.2,22.9-11.5,24.4-26.9c0.3-3.3,0.5-6.6,0.5-9.9c0-43.2,0.1-86.5,0-129.7c0-4.7-0.2-9.4-1-14c-2.1-12.6-10-20.6-22.5-23.3
		c-2.5-0.5-5.1-0.9-7.5-2.9c32,0,63.9,0,95.9,0c0.1,0.4,0.1,0.8,0.2,1.2c-1.7,0.4-3.3,1-5,1.3c-15.4,2.6-23.3,10.4-25.6,25.9
		c-0.8,5.7-0.9,11.5-0.9,17.3c-0.1,39.4,0,78.8,0,118.1c0,4.1,0.1,8.3,0.4,12.4c1.5,19.2,8,26.7,26.9,31c1.3,0.3,2.5,0.7,3.8,1.1
		C958.8,908.2,958.7,908.7,958.6,909.2z"/>
	<path class="st0" d="M1909.5,895.3c-2.2,8.4-8.1,13.5-16.3,16c-16.8,5.2-28.6,0.5-45.2-18.2c-2.9,2.3-5.8,4.6-8.7,7
		c-15.4,13-33.1,15.5-52,10.8c-13.5-3.3-23.2-11.4-25.8-25.9c-2.9-15.8,2.9-29.9,16.5-37.5c8.1-4.4,17.3-6.8,26.1-9.8
		c8.8-3,18-5.2,26.7-8.6c11.4-4.4,17.8-13.1,17.5-25.4c-0.2-8.7-0.9-17.7-3.2-26c-3.1-11.6-13.6-18.7-25.3-19.1
		c-10.7-0.3-18.6,5.3-23.8,17c-1.3,3-1.9,7-4.2,8.8c-3.7,3-8.8,6.7-12.9,6.3c-4.2-0.4-10-4.6-11.4-8.4c-1.3-3.9,0.8-10.1,3.6-13.9
		c2.5-3.4,7.5-5.6,11.8-7.1c24.1-8.6,48.1-7.7,71.7,2c13.3,5.5,20.4,15.1,20.4,29.9c-0.1,25.3,0,50.7,0.2,76c0,6,0.5,12.1,1.1,18.1
		c0.7,6.6,3.2,12.6,10.2,14.6c7.1,2.1,13.7,0.9,18.6-5.3c0.8-1.1,1.2-2.5,1.8-3.7C1907.7,893.8,1908.6,894.6,1909.5,895.3z
		 M1849.5,822.5c-13.6,8-25.1,14.7-36.6,21.5c-2.4,1.4-4.6,3-6.7,4.8c-11.8,10.1-17.2,22.7-14.2,38.2c3.6,18.1,20.6,25.7,36.6,16.5
		c11.8-6.8,17.2-17.9,18.4-30.6C1848.6,856.7,1848.7,840.5,1849.5,822.5z"/>
	<path class="st0" d="M2480.8,812.3c-34.1,0-68.4,0-102.4,0c-10.1,36.6,12.8,80,46,88.4c25.5,6.5,45-2.6,56.9-26.6
		c0.5-1.1,1.4-2,3.7-2.4c-0.6,2.5-0.9,5-1.7,7.4c-6.6,18.8-20.6,29.4-39.6,32c-13.2,1.7-27.1,1.8-40.1-0.4
		c-29.8-5.2-50.1-26.9-55.8-56.8c-7-36.8,5.3-68.7,33.9-86.5c20.6-12.9,42.8-15.6,65.7-7.1C2469.7,768.6,2483.9,790.7,2480.8,812.3z
		 M2455.7,805.7c-0.9-17.7-4.8-33.1-20.5-42.4c-11.4-6.8-23.3-6.5-34.3,1c-14.2,9.7-21.1,23.8-22.2,41.4
		C2404.5,805.7,2429.4,805.7,2455.7,805.7z"/>
	<path class="st0" d="M2293,877.7c-0.8,16.4-14.5,30.8-33.1,33.3c-12.9,1.7-26.6,1.9-39.3-0.4c-33.1-6.2-53.4-32-55.6-67.7
		c-3.5-58,48.6-100.2,104.4-84.1c7.8,2.3,15.2,7.5,21.8,12.6c4.9,3.8,7.1,10.6,3.6,16.4c-2.1,3.5-6.7,6.9-10.6,7.6
		c-6.6,1.2-11.3-3.4-14.2-9.2c-2-4.2-3.5-8.7-5.1-13c-3.9-10.3-11.4-15.1-22.5-14.2c-13.7,1.1-24.3,8.1-31.1,19.4
		c-19,32-22.5,65.3-4,98.9c9.6,17.3,24,28.6,44.9,29.1c17,0.3,29.7-6.7,37.4-22.2C2290.6,881.8,2291.9,879.7,2293,877.7z"/>
	<path class="st0" d="M1676.1,909.1c-25.4,0-50.9,0-76.3,0c-0.1-0.5-0.2-1-0.2-1.5c1.9-0.7,3.8-1.5,5.8-2c12.1-3,18.2-8.5,18.5-20.9
		c0.7-32.7,0.7-65.4,0.2-98.2c-0.2-11.6-6.7-17.7-17.8-20.8c-1.7-0.5-3.2-1.3-4.8-3.7c14.7-2.1,29.4-4.1,44.9-6.3
		c1.2,8.7,2.3,16.5,3.6,25.9c2.6-3.1,4.1-5.1,5.8-7.1c12.4-14.7,28.5-20,47.2-18.6c3.5,0.3,7.8,1,10,3.3c3.5,3.7,6.7,8.6,7.6,13.5
		c0.5,2.7-3.4,7.4-6.5,9.1c-5.4,2.9-10.7,0.4-14.8-4c-0.6-0.6-1.1-1.2-1.7-1.8c-16.6-17.6-33.1-14.2-40.3,9.1
		c-3.3,10.6-4.7,22.1-5.2,33.3c-0.8,19.2-0.3,38.5-0.1,57.8c0.2,19.3,3.6,23.7,21.8,29.8c1,0.3,1.8,1,2.7,1.5
		C1676.2,908,1676.1,908.5,1676.1,909.1z"/>
	<path class="st0" d="M1237.4,911c0-18.4,0-34,0-49.6c0.5-0.2,1-0.4,1.6-0.6c0.9,2.5,1.5,5.2,2.8,7.5c5.9,10.4,11.3,21.3,18.4,30.9
		c5.8,7.7,15.1,11.1,24.9,10.6c11.5-0.5,21.1-5.2,25.5-16.4c4.8-12.3,3.1-24.1-6.1-33.8c-4.6-4.9-10.7-8.5-16.6-12.1
		c-9.6-5.9-19.8-10.9-29.2-17.1c-19.7-13.2-25.7-33.2-16.3-52.2c9.2-18.5,31.9-27.2,53.1-20.3c1,0.3,2.1,0.6,3.1,1.1
		c6.7,3.2,13.3,6.3,19.2-2.9c0.4,0.6,0.8,1.2,1.3,1.8c0.7,12.8,1.3,25.6,2,38.4c-0.8,0.2-1.6,0.3-2.3,0.5c-1.2-3.2-2.3-6.3-3.5-9.5
		c-5.6-14.5-15.2-24.8-31-27.9c-10.3-2-20,2.7-25.3,11.7c-5.5,9.3-5.3,20.8,2.4,28.3c6,5.8,13.5,10.2,20.9,14.4
		c10.7,6.1,22.7,10.3,32.8,17.2c17,11.7,22.1,28.9,17.6,48.8c-3.8,17.2-18.3,30.8-37.4,32.3c-11.4,0.8-23.3-1.9-34.6-4.5
		C1252.8,905.5,1245.4,902,1237.4,911z"/>
</g>
</svg>
