<?xml version="1.0" encoding="utf-8"?>
<!-- Generator: Adobe Illustrator 23.0.4, SVG Export Plug-In . SVG Version: 6.00 Build 0)  -->
<svg version="1.1" id="Layer_1" xmlns="http://www.w3.org/2000/svg" xmlns:xlink="http://www.w3.org/1999/xlink" x="0px" y="0px"
	 viewBox="0 0 175.2 175" style="enable-background:new 0 0 175.2 175;" xml:space="preserve">
<style type="text/css">
	.st0{fill:#FFFFFF;}
	.st1{fill:#57575D;}
</style>
<g transform="translate(328.539 -1182.5) rotate(90)">
	<circle class="st0" cx="1270" cy="240.8" r="87.5"/>
</g>
<g>
	<path class="st1" d="M-113,27.8c-42.9,0-77.7,34.8-77.7,77.7s34.8,77.7,77.7,77.7s77.7-34.8,77.7-77.7S-70,27.8-113,27.8z"/>
	<path class="st0" d="M-60.5,117.5L-60.5,117.5L-60.5,117.5C-60.6,117.5-60.6,117.5-60.5,117.5h-0.1c-0.1,0-0.2,0-0.2-0.1
		c-0.2,0-0.4-0.1-0.6-0.1c-0.7-0.1-1.4-0.2-2-0.2c-0.3,0-0.6,0-1-0.1h-0.1c-2.2-0.2-4-0.4-5.6-0.9c-0.7-0.3-0.9-0.7-1.1-1.1
		c0-0.1-0.1-0.1-0.1-0.2l0,0l-1.4-0.4c0.6-4.8,0.4-9.8-0.7-14.7c-1.1-4.9-3.1-9.5-5.8-13.6l1-0.9v-0.2c0-0.5,0.1-1,0.5-1.6
		c1.3-1.1,2.8-2.1,4.7-3.2l0,0c0.3-0.2,0.6-0.3,0.9-0.5c0.6-0.3,1.1-0.6,1.8-1c0.1-0.1,0.3-0.2,0.5-0.4c0.1-0.1,0.2-0.1,0.2-0.2l0,0
		c1.5-1.3,1.8-3.3,0.7-4.7c-0.5-0.7-1.5-1.1-2.4-1.1c-0.8,0-1.6,0.3-2.3,0.8l0,0l0,0c-0.1,0.1-0.1,0.1-0.2,0.2
		c-0.2,0.1-0.3,0.3-0.5,0.4c-0.5,0.5-0.9,0.9-1.4,1.5c-0.2,0.2-0.4,0.5-0.7,0.7l0,0c-1.5,1.6-2.8,2.8-4.2,3.8
		c-0.3,0.2-0.6,0.3-0.9,0.3c-0.2,0-0.4,0-0.6-0.1h-0.2l0,0l-1.3,0.8c-1.4-1.5-2.8-2.7-4.3-4c-6.3-4.9-13.9-7.9-21.8-8.6l-0.1-1.4
		c-0.1-0.1-0.1-0.1-0.2-0.2c-0.3-0.3-0.7-0.6-0.8-1.4c-0.1-1.7,0.1-3.5,0.3-5.6v-0.1c0-0.3,0.1-0.7,0.2-1c0.1-0.6,0.2-1.3,0.3-2
		v-0.6v-0.3l0,0l0,0c0-1.9-1.5-3.4-3.2-3.4c-0.8,0-1.7,0.4-2.3,1s-0.9,1.5-0.9,2.4l0,0l0,0v0.2V56c0,0.7,0.1,1.4,0.3,2
		c0.1,0.3,0.1,0.6,0.2,1v0.1c0.2,2.1,0.5,4,0.3,5.6c-0.1,0.7-0.5,1-0.8,1.4c-0.1,0.1-0.1,0.1-0.2,0.2l0,0l-0.1,1.4
		c-1.9,0.2-3.8,0.4-5.6,0.8c-8,1.8-15.1,5.8-20.6,11.7l-1-0.7h-0.2c-0.2,0-0.4,0.1-0.6,0.1c-0.3,0-0.6-0.1-0.9-0.3
		c-1.4-0.9-2.7-2.3-4.2-3.9l0,0c-0.2-0.2-0.4-0.5-0.7-0.7c-0.4-0.5-0.8-0.9-1.4-1.5c-0.1-0.1-0.3-0.2-0.5-0.4
		c-0.1-0.1-0.2-0.1-0.2-0.2l0,0c-0.6-0.5-1.5-0.8-2.3-0.8c-0.9,0-1.9,0.4-2.4,1.1c-1,1.4-0.7,3.4,0.7,4.7l0,0l0,0
		c0.1,0,0.1,0.1,0.2,0.1c0.2,0.1,0.3,0.3,0.5,0.4c0.6,0.4,1.1,0.7,1.8,1c0.3,0.1,0.6,0.3,0.9,0.5l0,0c1.9,1.1,3.4,2.1,4.7,3.2
		c0.5,0.5,0.5,1,0.5,1.6v0.2l0,0l1,0.9c-0.2,0.3-0.4,0.5-0.5,0.8c-5.2,8.2-7.2,17.9-5.8,27.5l-1.4,0.4c0,0.1-0.1,0.1-0.1,0.2
		c-0.2,0.4-0.5,0.8-1.1,1.1c-1.6,0.5-3.4,0.7-5.6,0.9h-0.1c-0.3,0-0.7,0-1,0.1c-0.6,0-1.3,0.1-2,0.2c-0.2,0-0.4,0.1-0.6,0.1
		c-0.1,0-0.2,0-0.3,0.1l0,0l0,0c-1.9,0.4-3,2.2-2.7,3.9c0.3,1.5,1.7,2.4,3.3,2.4c0.3,0,0.5,0,0.8-0.1l0,0l0,0c0.1,0,0.2,0,0.2-0.1
		c0.2,0,0.4-0.1,0.6-0.1c0.7-0.2,1.3-0.4,1.9-0.7c0.3-0.1,0.6-0.3,0.9-0.4h0.1c2-0.7,3.8-1.4,5.4-1.6h0.2c0.6,0,1,0.3,1.4,0.5
		c0.1,0,0.1,0.1,0.2,0.1l0,0l1.5-0.2c2.5,7.7,7.3,14.6,13.6,19.6c1.5,1.1,2.9,2.1,4.5,3l-0.6,1.4c0,0.1,0.1,0.1,0.1,0.2
		c0.2,0.4,0.4,0.9,0.2,1.7c-0.6,1.6-1.6,3.1-2.7,4.9v0.1c-0.2,0.3-0.4,0.5-0.6,0.8c-0.4,0.5-0.7,1-1.1,1.7c-0.1,0.1-0.2,0.3-0.3,0.5
		c0,0.1-0.1,0.2-0.1,0.2l0,0l0,0c-0.8,1.8-0.2,3.8,1.4,4.5c0.4,0.2,0.8,0.3,1.3,0.3c1.3,0,2.5-0.8,3.1-2l0,0l0,0
		c0-0.1,0.1-0.2,0.1-0.2c0.1-0.2,0.2-0.4,0.3-0.5c0.3-0.7,0.4-1.3,0.6-1.9c0.1-0.3,0.2-0.6,0.3-0.9l0,0c0.7-2.1,1.3-3.8,2.2-5.2
		c0.4-0.6,0.9-0.7,1.4-0.9c0.1,0,0.1,0,0.2-0.1l0,0l0.7-1.4c4.6,1.8,9.6,2.7,14.6,2.7c3,0,6.1-0.3,9.1-1c1.9-0.4,3.6-0.9,5.4-1.6
		l0.6,1.1c0.1,0,0.1,0,0.2,0.1c0.5,0.1,0.9,0.3,1.4,0.9c0.8,1.5,1.5,3.2,2.2,5.2v0.1c0.1,0.3,0.2,0.6,0.3,0.9
		c0.2,0.6,0.3,1.3,0.6,1.9c0.1,0.2,0.2,0.3,0.3,0.5c0,0.1,0.1,0.2,0.1,0.2l0,0l0,0c0.6,1.3,1.9,2,3.1,2c0.4,0,0.8-0.1,1.3-0.3
		c0.7-0.4,1.4-1,1.6-1.9s0.2-1.8-0.2-2.6l0,0l0,0c0-0.1-0.1-0.1-0.1-0.2c-0.1-0.2-0.2-0.4-0.3-0.5c-0.3-0.6-0.7-1.1-1.1-1.7
		c-0.2-0.3-0.4-0.5-0.6-0.8v-0.1c-1.1-1.8-2.2-3.3-2.7-4.9c-0.2-0.7,0-1.1,0.1-1.7c0-0.1,0.1-0.1,0.1-0.2l0,0l-0.5-1.3
		c5.5-3.2,10.2-7.8,13.8-13.4c1.9-2.9,3.3-6.1,4.4-9.4l1.3,0.2c0.1,0,0.1-0.1,0.2-0.1c0.4-0.2,0.7-0.5,1.4-0.5h0.2
		c1.7,0.2,3.4,0.8,5.4,1.6h0.1c0.3,0.1,0.6,0.3,0.9,0.4c0.6,0.3,1.1,0.5,1.9,0.7c0.2,0,0.4,0.1,0.6,0.1c0.1,0,0.2,0,0.3,0.1l0,0
		c0.3,0.1,0.5,0.1,0.8,0.1c1.6,0,2.9-1,3.3-2.4C-57.5,119.7-58.6,118-60.5,117.5L-60.5,117.5z M-108.7,112.4l-4.6,2.2l-4.6-2.2
		l-1.1-4.9l3.1-4h5.1l3.1,4L-108.7,112.4L-108.7,112.4z M-81.5,101.6c0.8,3.5,1,7.1,0.7,10.5l-15.9-4.6c-1.5-0.4-2.3-1.9-2-3.3
		c0.1-0.4,0.3-0.8,0.6-1.1l12.6-11.4C-83.7,94.6-82.4,97.9-81.5,101.6L-81.5,101.6z M-90.5,85.4l-13.6,9.7c-1.1,0.7-2.7,0.5-3.6-0.6
		c-0.3-0.3-0.4-0.7-0.5-1.1l-0.9-17C-102.1,77.2-95.5,80.4-90.5,85.4L-90.5,85.4z M-120.7,76.9c1.1-0.2,2.2-0.4,3.3-0.6l-0.9,16.7
		c-0.1,1.5-1.3,2.7-2.8,2.7c-0.4,0-0.9-0.1-1.3-0.3l-13.9-9.9C-132,81.1-126.6,78.2-120.7,76.9L-120.7,76.9z M-141.2,91.7l12.4,11
		c1.1,0.9,1.3,2.7,0.3,3.9c-0.3,0.4-0.7,0.7-1.3,0.8l-16.1,4.7C-146.5,105-145,97.8-141.2,91.7L-141.2,91.7z M-144,119.9l16.6-2.8
		c1.4-0.1,2.6,0.8,2.9,2.2c0.1,0.6,0.1,1.1-0.1,1.7l0,0l-6.4,15.3C-136.9,132.5-141.5,126.8-144,119.9L-144,119.9z M-106,140.6
		c-2.4,0.5-4.8,0.8-7.3,0.8c-3.6,0-7.2-0.6-10.5-1.7l8.2-14.9c0.8-0.9,2.2-1.4,3.3-0.7c0.5,0.3,0.9,0.7,1.3,1.1l0,0l8,14.5
		C-103.9,140.1-105,140.3-106,140.6L-106,140.6z M-85.7,126.2c-2.6,4.2-6,7.5-10,10.1l-6.6-15.7c-0.3-1.3,0.2-2.6,1.5-3.2
		c0.4-0.2,0.9-0.3,1.5-0.3l16.7,2.8C-83.3,122.1-84.3,124.2-85.7,126.2L-85.7,126.2z"/>
</g>
<g>
	<path class="st1" d="M32.2,285.2c-6.8,0-12.3,5.5-12.3,12.3l0,0v6.9h24.5v-6.9C44.4,290.7,39,285.2,32.2,285.2z"/>
	<path class="st1" d="M-12.4,264.7c-6.2,0-11.1,5-11.1,11.1v5.8h22.3v-5.8C-1.3,269.7-6.3,264.8-12.4,264.7z"/>
	<path class="st1" d="M32.2,317.4c-3.6,0-6.5,2.8-6.6,6.4c0,2.5,1.4,4.8,3.7,5.9v10.2h5.5v-10.2c3.2-1.5,4.6-5.4,3.1-8.6
		c-1.1-2.3-3.4-3.7-5.9-3.7H32.2z"/>
	<path class="st1" d="M9.9,229.4c-42.9,0-77.7,34.8-77.7,77.7s34.8,77.7,77.7,77.7s77.7-34.8,77.7-77.7S52.8,229.4,9.9,229.4z
		 M-3.3,332.6h-32.9c-4.8,0-8.6-3.9-8.6-8.6v-42.3h10.7v-5.8c0-11.9,9.7-21.6,21.6-21.6c11.9,0,21.6,9.7,21.6,21.6c0,0,0,0,0,0v5.8
		h4c-0.6,0.7-1.2,1.5-1.7,2.3H7v-8.1c0-10.7-8.6-19.3-19.3-19.3s-19.3,8.6-19.3,19.3v8.2h-10.8V324c0.1,3.4,2.8,6.1,6.2,6.2h32.9
		V332.6z M1,284.1h-26.9V276c0-7.4,6-13.4,13.4-13.4c7.4,0,13.4,6,13.4,13.4V284.1z M63.3,343.8c0,5.1-4.2,9.3-9.3,9.3c0,0,0,0,0,0
		H10.3c-5.1,0-9.3-4.2-9.3-9.3l0,0v-39.4h10.7v-6.9c0-11.3,9.2-20.4,20.4-20.4s20.4,9.2,20.4,20.4v6.9h10.7L63.3,343.8z"/>
</g>
<g>
	<path class="st1" d="M87.6,9.8C44.7,9.8,9.9,44.6,9.9,87.5s34.8,77.7,77.7,77.7s77.7-34.8,77.7-77.7S130.5,9.8,87.6,9.8z
		 M44.1,115.2c-9.7-1.6-16.8-9.9-16.8-19.7c0-10.8,8.7-19.7,19.6-19.7c1.1,0,2.2,0.1,3.3,0.2c0.5-9.7,8.5-17.2,18.2-17.3
		c2,0,3.9,0.3,5.8,0.9c4.1-13.1,18-20.4,31.2-16.3c8.5,2.7,14.9,9.6,16.9,18.3c14.8,0.6,26.3,13.1,25.8,27.9
		c-0.2,4.4-1.4,8.7-3.6,12.4c-0.5-0.4-1-0.7-1.5-1.1c5-6.2,3.9-15.3-2.3-20.2c-6.2-5-15.3-3.9-20.2,2.3c-0.9,1.1-1.6,2.3-2.1,3.6
		c-1.9-9.5-11.1-15.7-20.7-13.8C90.4,74,84.9,79.8,83.7,87c-2.8-7.4-11.1-11.2-18.6-8.4s-11.2,11.1-8.4,18.6
		c0.5,1.3,1.2,2.6,2.1,3.7c-5.1,3.3-8.6,8.5-9.8,14.4L44.1,115.2z M118.9,100.8c-0.8,0.5-1.5,1-2.2,1.6c-0.7-0.5-1.4-1-2.2-1.4
		c1.1-1.3,1.9-2.7,2.6-4.3C117.5,98.2,118.1,99.6,118.9,100.8L118.9,100.8z M87.3,101.1c-0.8,0.5-1.6,1-2.4,1.5
		c-0.8-0.6-1.6-1.2-2.4-1.8c0.9-1.4,1.6-2.9,2-4.6C85.2,98,86.1,99.7,87.3,101.1L87.3,101.1z M52.7,119.5L52.7,119.5
		c0-8.4,5.9-15.6,14.1-17.3c-5.1-2-7.7-7.8-5.7-12.9c2-5.1,7.8-7.7,12.9-5.7c5.1,2,7.7,7.8,5.7,12.9c-1,2.6-3.1,4.7-5.7,5.7
		c2.6,0.6,5.1,1.7,7.2,3.4c-3.9,3.8-6.6,8.7-7.7,14.1L52.7,119.5z M124.5,125.5H77.4l0,0c0-10.4,6.8-19.5,16.8-22.5
		c0.7-0.2,1.3-0.4,2-0.5c-6.8-2.7-10.2-10.3-7.5-17.1c2.7-6.8,10.3-10.2,17.1-7.5c6.8,2.7,10.2,10.3,7.5,17.1
		c-1.3,3.5-4.1,6.2-7.5,7.5c2,0.4,3.9,1.1,5.8,2c0.6,0.3,1.2,0.6,1.7,0.9C120.3,109.7,124.5,117.4,124.5,125.5L124.5,125.5z
		 M128.1,119.6c-1.2-5.4-3.9-10.4-7.9-14.2c2.1-1.6,4.5-2.7,7.1-3.3c-5.1-2-7.7-7.8-5.7-12.9c2-5.1,7.8-7.7,12.9-5.7
		c5.1,2,7.7,7.8,5.7,12.9c-1,2.6-3.1,4.7-5.7,5.7c8.2,1.7,14.1,8.9,14.1,17.3l0,0L128.1,119.6z"/>
</g>
</svg>
