<?xml version="1.0" encoding="utf-8"?>
<!-- Generator: Adobe Illustrator 23.0.3, SVG Export Plug-In . SVG Version: 6.00 Build 0)  -->
<svg version="1.1" id="Layer_1" xmlns="http://www.w3.org/2000/svg" xmlns:xlink="http://www.w3.org/1999/xlink" x="0px" y="0px"
	 viewBox="0 0 175 175" style="enable-background:new 0 0 175 175;" xml:space="preserve">
<style type="text/css">
	.st0{fill:#FFFFFF;}
	.st1{fill:#57575D;}
</style>
<g transform="translate(328.539 -1182.5) rotate(90)">
	<circle class="st0" cx="1270.3" cy="241" r="87.5"/>
</g>
<path class="st1" d="M462.7,10.1c-42.9,0-77.7,34.8-77.7,77.7s34.8,77.7,77.7,77.7s77.7-34.8,77.7-77.7S505.6,10.1,462.7,10.1z
	 M469.9,131.7v9.6c0,2.5-2,4.5-4.5,4.5h-4.1c-2.5,0-4.5-2-4.5-4.5v-9c-6.7-0.8-14.5-3.4-20.5-7.7c-2-1.4-2.4-4.1-1.1-6.1l3.9-6
	c1.4-2.1,4.2-2.7,6.3-1.3c5.4,3.5,10.3,5.3,15.6,5.3c7.6,0,11-3.1,11-9.4c0-14-35.8-13.7-35.8-38.1c0-13.3,7.9-22.5,20.6-25.1v-9.4
	c0-2.5,2-4.5,4.5-4.5h4.1c2.5,0,4.5,2,4.5,4.5v9.2c7,1,12.4,4,17,8c1.8,1.6,2,4.5,0.3,6.3l-4.2,4.7c-1.6,1.8-4.3,2.2-6.2,0.7
	c-3.7-2.7-7.2-4.1-11.6-4.1c-6.5,0-10,2.6-10,8.7c0,12.9,35.8,11.8,35.8,37.7C491,118.7,483.9,128.7,469.9,131.7z"/>
<path class="st1" d="M-136.6,9.8c-42.9,0-77.7,34.8-77.7,77.7s34.8,77.7,77.7,77.7s77.7-34.8,77.7-77.7S-93.7,9.8-136.6,9.8z"/>
<path class="st0" d="M-86.7,115.3L-86.7,115.3V49c0-1.1-0.9-2-1.9-2h-96.1c-1.1,0-1.9,0.9-1.9,2v66.3c0,1.1,0.9,1.9,1.9,1.9h36.5
	V129h-15.4c-1.1,0-1.9,0.9-1.9,2c0,1.1,0.9,2,1.9,2h0h53.8c1.1,0,1.9-0.9,1.9-2c0-1.1-0.9-2-1.9-2h-15.4v-11.7h36.5
	C-87.5,117.3-86.7,116.4-86.7,115.3"/>
<rect x="-182.8" y="51" class="st1" width="92.2" height="62.4"/>
<path class="st0" d="M-140.3,83.6c0-1.8-0.6-3.4-1.9-4.7c-1.3-1.3-2.8-1.9-4.7-1.9s-3.4,0.6-4.7,1.9c-1.3,1.3-1.9,2.8-1.9,4.7
	c0,1.8,0.6,3.4,1.9,4.7s2.8,1.9,4.7,1.9s3.4-0.6,4.7-1.9C-140.9,87-140.3,85.5-140.3,83.6z M-120.5,96.8c0-0.9-0.3-1.7-1-2.3
	s-1.4-1-2.3-1s-1.7,0.3-2.3,1s-1,1.4-1,2.3c0,0.9,0.3,1.7,1,2.3s1.4,1,2.3,1c0.9,0,1.7-0.3,2.3-1S-120.5,97.7-120.5,96.8z
	 M-120.5,70.5c0-0.9-0.3-1.7-1-2.3s-1.4-1-2.3-1s-1.7,0.3-2.3,1s-1,1.4-1,2.3c0,0.9,0.3,1.7,1,2.3c0.6,0.6,1.4,1,2.3,1
	c0.9,0,1.7-0.3,2.3-1C-120.9,72.1-120.5,71.4-120.5,70.5z M-130.4,81.3v4.8c0,0.2-0.1,0.3-0.2,0.5s-0.3,0.3-0.4,0.3l-4,0.6
	c-0.2,0.6-0.5,1.3-0.8,2c0.6,0.8,1.4,1.8,2.3,3c0.1,0.2,0.2,0.3,0.2,0.5c0,0.2-0.1,0.4-0.2,0.5c-0.4,0.5-1.1,1.3-2.1,2.3
	c-1,1-1.7,1.5-2,1.5c-0.2,0-0.4-0.1-0.5-0.2l-3-2.3c-0.6,0.3-1.3,0.6-2,0.8c-0.2,1.9-0.4,3.2-0.6,4c-0.1,0.4-0.4,0.6-0.8,0.6h-4.8
	c-0.2,0-0.4-0.1-0.5-0.2c-0.2-0.1-0.2-0.3-0.3-0.5l-0.6-3.9c-0.6-0.2-1.2-0.4-1.9-0.8l-3,2.3c-0.1,0.1-0.3,0.2-0.5,0.2
	c-0.2,0-0.4-0.1-0.5-0.2c-2.5-2.3-3.7-3.7-3.7-4.1c0-0.2,0.1-0.3,0.2-0.5c0.2-0.2,0.5-0.7,1.1-1.4c0.5-0.7,0.9-1.2,1.2-1.6
	c-0.4-0.8-0.7-1.5-0.9-2.1l-3.9-0.6c-0.2,0-0.3-0.1-0.4-0.2c-0.1-0.1-0.2-0.3-0.2-0.5v-4.8c0-0.2,0.1-0.3,0.2-0.5s0.3-0.3,0.4-0.3
	l4-0.6c0.2-0.6,0.5-1.3,0.8-2c-0.6-0.8-1.4-1.8-2.3-3c-0.1-0.2-0.2-0.4-0.2-0.5c0-0.2,0.1-0.4,0.2-0.5c0.4-0.5,1.1-1.3,2.1-2.3
	c1-1,1.7-1.5,2-1.5c0.2,0,0.4,0.1,0.5,0.2l3,2.3c0.6-0.3,1.2-0.6,2-0.8c0.2-1.9,0.4-3.2,0.6-4c0.1-0.4,0.4-0.6,0.8-0.6h4.8
	c0.2,0,0.4,0.1,0.5,0.2c0.2,0.1,0.2,0.3,0.3,0.5l0.6,3.9c0.6,0.2,1.2,0.4,1.9,0.8l3-2.3c0.1-0.1,0.3-0.2,0.5-0.2
	c0.2,0,0.4,0.1,0.5,0.2c2.5,2.3,3.7,3.7,3.7,4.1c0,0.2-0.1,0.3-0.2,0.5c-0.2,0.3-0.6,0.7-1.1,1.4s-0.9,1.2-1.2,1.5
	c0.4,0.8,0.7,1.5,0.9,2.1l3.9,0.6c0.2,0,0.3,0.1,0.4,0.3S-130.4,81.1-130.4,81.3z M-114,95v3.6c0,0.3-1.3,0.5-3.8,0.8
	c-0.2,0.5-0.5,0.9-0.8,1.3c0.9,1.9,1.3,3.1,1.3,3.5c0,0.1,0,0.1-0.1,0.2c-2.1,1.2-3.2,1.8-3.2,1.8c-0.1,0-0.5-0.4-1.2-1.2
	s-1.1-1.4-1.3-1.7c-0.3,0-0.6,0.1-0.8,0.1c-0.2,0-0.4,0-0.8-0.1c-0.2,0.4-0.7,0.9-1.3,1.7s-1,1.2-1.2,1.2c0,0-1.1-0.6-3.2-1.8
	c-0.1-0.1-0.1-0.1-0.1-0.2c0-0.4,0.4-1.6,1.3-3.5c-0.3-0.4-0.6-0.9-0.8-1.3c-2.6-0.3-3.8-0.5-3.8-0.8V95c0-0.3,1.3-0.5,3.8-0.8
	c0.2-0.5,0.5-0.9,0.8-1.3c-0.9-1.9-1.3-3.1-1.3-3.5c0-0.1,0-0.1,0.1-0.2c0.1,0,0.4-0.2,0.9-0.5c0.5-0.3,1-0.6,1.5-0.9
	s0.7-0.4,0.8-0.4c0.1,0,0.5,0.4,1.2,1.2s1.1,1.4,1.3,1.7c0.3,0,0.6-0.1,0.8-0.1c0.2,0,0.4,0,0.8,0.1c0.9-1.2,1.7-2.2,2.4-2.9
	l0.2-0.1c0.1,0,1.1,0.6,3.2,1.8c0.1,0.1,0.1,0.1,0.1,0.2c0,0.4-0.4,1.6-1.3,3.5c0.3,0.4,0.5,0.8,0.8,1.3
	C-115.2,94.5-114,94.7-114,95z M-114,68.7v3.6c0,0.3-1.3,0.5-3.8,0.8c-0.2,0.5-0.5,0.9-0.8,1.3c0.9,1.9,1.3,3.1,1.3,3.5
	c0,0.1,0,0.1-0.1,0.2c-2.1,1.2-3.2,1.8-3.2,1.8c-0.1,0-0.5-0.4-1.2-1.2s-1.1-1.4-1.3-1.7c-0.3,0-0.6,0.1-0.8,0.1
	c-0.2,0-0.4,0-0.8-0.1c-0.2,0.4-0.7,0.9-1.3,1.7s-1,1.2-1.2,1.2c0,0-1.1-0.6-3.2-1.8c-0.1-0.1-0.1-0.1-0.1-0.2
	c0-0.4,0.4-1.6,1.3-3.5c-0.3-0.4-0.6-0.9-0.8-1.3c-2.6-0.3-3.8-0.5-3.8-0.8v-3.6c0-0.3,1.3-0.5,3.8-0.8c0.2-0.5,0.5-0.9,0.8-1.3
	c-0.9-1.9-1.3-3.1-1.3-3.5c0-0.1,0-0.1,0.1-0.2c0.1,0,0.4-0.2,0.9-0.5c0.5-0.3,1-0.6,1.5-0.9s0.7-0.4,0.8-0.4c0.1,0,0.5,0.4,1.2,1.2
	s1.1,1.4,1.3,1.7c0.3,0,0.6-0.1,0.8-0.1c0.2,0,0.4,0,0.8,0.1c0.9-1.2,1.7-2.2,2.4-2.9l0.2-0.1c0.1,0,1.1,0.6,3.2,1.8
	c0.1,0.1,0.1,0.1,0.1,0.2c0,0.4-0.4,1.6-1.3,3.5c0.3,0.4,0.5,0.8,0.8,1.3C-115.2,68.1-114,68.4-114,68.7z"/>
<g>
	<path class="st1" d="M409.8,281.8c3.9,3.5,8,6.8,12.3,9.8l0,0l0,0c11.6-8.3,28-22.9,29.7-34.1c0,0,0-1.3,0-1.9v-12.9
		c0.1-0.8,0-1.5-0.4-2.2L409.8,281.8z"/>
	<path class="st1" d="M435.3,226c-0.9-1.5-2.5-2.5-4.2-2.5h-18c-1.8,0-3.4,1-4.2,2.5c-3.4,5.5-8.2,9.9-14,12.8
		c-1.6,0.7-2.6,2.3-2.6,4v13c0,0.6,0,1.1,0,1.7l0,0l0,0c0.7,3.3,2,6.4,3.9,9.1l39.9-39.4C435.8,226.7,435.6,226.3,435.3,226z"/>
	<path class="st1" d="M421.7,178.1c-44.3,0-80.2,35.9-80.2,80.2s35.9,80.2,80.2,80.2s80.2-35.9,80.2-80.2S466.1,178.1,421.7,178.1z
		 M472,255.2c0,25.1-37.8,52.1-47.8,58.9c-0.7,0.5-1.6,0.8-2.4,0.8c-0.9,0-1.7-0.3-2.4-0.7c-10-6.7-47.8-33.7-47.8-58.9v-27.5
		c0-1.6,1.3-3,3-3c10.6-2,19.3-9.6,22.6-19.9c0.3-1.6,1.6-2.9,3.3-3h43c1.7,0.1,3,1.3,3.3,3c3.2,10.4,12,18.2,22.8,20
		c1.6,0.1,2.8,1.4,2.8,3L472,255.2z"/>
</g>
<path class="st1" d="M87.5,9.8C44.6,9.8,9.8,44.6,9.8,87.5s34.8,77.7,77.7,77.7s77.7-34.8,77.7-77.7S130.4,9.8,87.5,9.8z"/>
<path class="st0" d="M140,99.4L140,99.4L140,99.4C139.9,99.4,139.9,99.4,140,99.4h-0.1c-0.1,0-0.2,0-0.2-0.1c-0.2,0-0.4-0.1-0.6-0.1
	c-0.7-0.1-1.4-0.2-2-0.2c-0.3,0-0.6,0-1-0.1h-0.1c-2.2-0.2-4-0.4-5.6-0.9c-0.7-0.3-0.9-0.7-1.1-1.1c0-0.1-0.1-0.1-0.1-0.2l0,0
	l-1.4-0.4c0.6-4.8,0.4-9.8-0.7-14.7c-1.1-4.9-3.1-9.5-5.8-13.6l1-0.9v-0.2c0-0.5,0.1-1,0.5-1.6c1.3-1.1,2.8-2.1,4.7-3.2l0,0
	c0.3-0.2,0.6-0.3,0.9-0.5c0.6-0.3,1.1-0.6,1.8-1c0.1-0.1,0.3-0.2,0.5-0.4c0.1-0.1,0.2-0.1,0.2-0.2l0,0c1.5-1.3,1.8-3.3,0.7-4.7
	c-0.5-0.7-1.5-1.1-2.4-1.1c-0.8,0-1.6,0.3-2.3,0.8l0,0l0,0c-0.1,0.1-0.1,0.1-0.2,0.2c-0.2,0.1-0.3,0.3-0.5,0.4
	c-0.5,0.5-0.9,0.9-1.4,1.5c-0.2,0.2-0.4,0.5-0.7,0.7l0,0c-1.5,1.6-2.8,2.8-4.2,3.8c-0.3,0.2-0.6,0.3-0.9,0.3c-0.2,0-0.4,0-0.6-0.1
	h-0.2l0,0l-1.3,0.8c-1.4-1.5-2.8-2.7-4.3-4c-6.3-4.9-13.9-7.9-21.8-8.6l-0.1-1.4c-0.1-0.1-0.1-0.1-0.2-0.2c-0.3-0.3-0.7-0.6-0.8-1.4
	c-0.1-1.7,0.1-3.5,0.3-5.6v-0.1c0-0.3,0.1-0.7,0.2-1c0.1-0.6,0.2-1.3,0.3-2v-0.6v-0.3l0,0l0,0c0-1.9-1.5-3.4-3.2-3.4
	c-0.8,0-1.7,0.4-2.3,1S84,36.2,84,37.1l0,0l0,0v0.2V38c0,0.7,0.1,1.4,0.3,2c0.1,0.3,0.1,0.6,0.2,1v0.1c0.2,2.1,0.5,4,0.3,5.6
	c-0.1,0.7-0.5,1-0.8,1.4c-0.1,0.1-0.1,0.1-0.2,0.2l0,0l-0.1,1.4c-1.9,0.2-3.8,0.4-5.6,0.8c-8,1.8-15.1,5.8-20.6,11.7l-1-0.7h-0.2
	c-0.2,0-0.4,0.1-0.6,0.1c-0.3,0-0.6-0.1-0.9-0.3c-1.4-0.9-2.7-2.3-4.2-3.9l0,0c-0.2-0.2-0.4-0.5-0.7-0.7c-0.4-0.5-0.8-0.9-1.4-1.5
	c-0.1-0.1-0.3-0.2-0.5-0.4c-0.1-0.1-0.2-0.1-0.2-0.2l0,0c-0.6-0.5-1.5-0.8-2.3-0.8c-0.9,0-1.9,0.4-2.4,1.1c-1,1.4-0.7,3.4,0.7,4.7
	l0,0l0,0c0.1,0,0.1,0.1,0.2,0.1c0.2,0.1,0.3,0.3,0.5,0.4c0.6,0.4,1.1,0.7,1.8,1c0.3,0.1,0.6,0.3,0.9,0.5l0,0
	c1.9,1.1,3.4,2.1,4.7,3.2c0.5,0.5,0.5,1,0.5,1.6v0.2l0,0l1,0.9c-0.2,0.3-0.4,0.5-0.5,0.8c-5.2,8.2-7.2,17.9-5.8,27.5l-1.4,0.4
	c0,0.1-0.1,0.1-0.1,0.2c-0.2,0.4-0.5,0.8-1.1,1.1c-1.6,0.5-3.4,0.7-5.6,0.9h-0.1c-0.3,0-0.7,0-1,0.1c-0.6,0-1.3,0.1-2,0.2
	c-0.2,0-0.4,0.1-0.6,0.1c-0.1,0-0.2,0-0.3,0.1l0,0l0,0c-1.9,0.4-3,2.2-2.7,3.9c0.3,1.5,1.7,2.4,3.3,2.4c0.3,0,0.5,0,0.8-0.1l0,0l0,0
	c0.1,0,0.2,0,0.2-0.1c0.2,0,0.4-0.1,0.6-0.1c0.7-0.2,1.3-0.4,1.9-0.7c0.3-0.1,0.6-0.3,0.9-0.4H40c2-0.7,3.8-1.4,5.4-1.6h0.2
	c0.6,0,1,0.3,1.4,0.5c0.1,0,0.1,0.1,0.2,0.1l0,0l1.5-0.2c2.5,7.7,7.3,14.6,13.6,19.6c1.5,1.1,2.9,2.1,4.5,3l-0.6,1.4
	c0,0.1,0.1,0.1,0.1,0.2c0.2,0.4,0.4,0.9,0.2,1.7c-0.6,1.6-1.6,3.1-2.7,4.9v0.1c-0.2,0.3-0.4,0.5-0.6,0.8c-0.4,0.5-0.7,1-1.1,1.7
	c-0.1,0.1-0.2,0.3-0.3,0.5c0,0.1-0.1,0.2-0.1,0.2l0,0l0,0c-0.8,1.8-0.2,3.8,1.4,4.5c0.4,0.2,0.8,0.3,1.3,0.3c1.3,0,2.5-0.8,3.1-2
	l0,0l0,0c0-0.1,0.1-0.2,0.1-0.2c0.1-0.2,0.2-0.4,0.3-0.5c0.3-0.7,0.4-1.3,0.6-1.9c0.1-0.3,0.2-0.6,0.3-0.9l0,0
	c0.7-2.1,1.3-3.8,2.2-5.2c0.4-0.6,0.9-0.7,1.4-0.9c0.1,0,0.1,0,0.2-0.1l0,0l0.7-1.4c4.6,1.8,9.6,2.7,14.6,2.7c3,0,6.1-0.3,9.1-1
	c1.9-0.4,3.6-0.9,5.4-1.6l0.6,1.1c0.1,0,0.1,0,0.2,0.1c0.5,0.1,0.9,0.3,1.4,0.9c0.8,1.5,1.5,3.2,2.2,5.2v0.1
	c0.1,0.3,0.2,0.6,0.3,0.9c0.2,0.6,0.3,1.3,0.6,1.9c0.1,0.2,0.2,0.3,0.3,0.5c0,0.1,0.1,0.2,0.1,0.2l0,0l0,0c0.6,1.3,1.9,2,3.1,2
	c0.4,0,0.8-0.1,1.3-0.3c0.7-0.4,1.4-1,1.6-1.9s0.2-1.8-0.2-2.6l0,0l0,0c0-0.1-0.1-0.1-0.1-0.2c-0.1-0.2-0.2-0.4-0.3-0.5
	c-0.3-0.6-0.7-1.1-1.1-1.7c-0.2-0.3-0.4-0.5-0.6-0.8v-0.1c-1.1-1.8-2.2-3.3-2.7-4.9c-0.2-0.7,0-1.1,0.1-1.7c0-0.1,0.1-0.1,0.1-0.2
	l0,0l-0.5-1.3c5.5-3.2,10.2-7.8,13.8-13.4c1.9-2.9,3.3-6.1,4.4-9.4l1.3,0.2c0.1,0,0.1-0.1,0.2-0.1c0.4-0.2,0.7-0.5,1.4-0.5h0.2
	c1.7,0.2,3.4,0.8,5.4,1.6h0.1c0.3,0.1,0.6,0.3,0.9,0.4c0.6,0.3,1.1,0.5,1.9,0.7c0.2,0,0.4,0.1,0.6,0.1c0.1,0,0.2,0,0.3,0.1l0,0
	c0.3,0.1,0.5,0.1,0.8,0.1c1.6,0,2.9-1,3.3-2.4C143,101.6,141.9,100,140,99.4L140,99.4z M91.7,94.3l-4.6,2.2l-4.6-2.2l-1.1-4.9l3.1-4
	h5.1l3.1,4L91.7,94.3L91.7,94.3z M118.9,83.5c0.8,3.5,1,7.1,0.7,10.5l-15.9-4.6c-1.5-0.4-2.3-1.9-2-3.3c0.1-0.4,0.3-0.8,0.6-1.1
	L115,73.6C116.7,76.5,118.1,79.8,118.9,83.5L118.9,83.5z M110,67.3L96.3,77c-1.1,0.7-2.7,0.5-3.6-0.6c-0.3-0.3-0.4-0.7-0.5-1.1
	l-0.9-17C98.4,59.1,105,62.3,110,67.3L110,67.3z M79.8,58.8c1.1-0.2,2.2-0.4,3.3-0.6l-0.9,16.7c-0.1,1.5-1.3,2.7-2.8,2.7
	c-0.4,0-0.9-0.1-1.3-0.3l-13.9-9.9C68.5,63.1,73.8,60.2,79.8,58.8L79.8,58.8z M59.2,73.6l12.4,11c1.1,0.9,1.3,2.7,0.3,3.9
	c-0.3,0.4-0.7,0.7-1.3,0.8L54.6,94C53.9,86.9,55.5,79.7,59.2,73.6L59.2,73.6z M56.4,101.8L73,99c1.4-0.1,2.6,0.8,2.9,2.2
	c0.1,0.6,0.1,1.1-0.1,1.7l0,0l-6.4,15.3C63.6,114.4,58.9,108.7,56.4,101.8L56.4,101.8z M94.5,122.6c-2.4,0.5-4.8,0.8-7.3,0.8
	c-3.6,0-7.2-0.6-10.5-1.7l8.2-14.9c0.8-0.9,2.2-1.4,3.3-0.7c0.5,0.3,0.9,0.7,1.3,1.1l0,0l8,14.5C96.5,122,95.5,122.2,94.5,122.6
	L94.5,122.6z M114.8,108.1c-2.6,4.2-6,7.5-10,10.1l-6.6-15.7c-0.3-1.3,0.2-2.6,1.5-3.2c0.4-0.2,0.9-0.3,1.5-0.3l16.7,2.8
	C117.2,104,116.1,106.1,114.8,108.1L114.8,108.1z"/>
</svg>
