<svg xmlns="http://www.w3.org/2000/svg" width="461.23" height="408.988" viewBox="0 0 461.23 408.988"><g transform="translate(3452.257 -6566.319)"><ellipse cx="194.991" cy="65.174" rx="194.991" ry="65.174" transform="translate(-3416.253 6703.124)" fill="#fff"/><ellipse cx="176.498" cy="67.36" rx="176.498" ry="67.36" transform="translate(-3400.609 6673.477)" fill="#dd151a"/><ellipse cx="176.498" cy="67.36" rx="176.498" ry="67.36" transform="translate(-3400.611 6669.944)" fill="#131211"/><path d="M-3221.705,6748.787c-127.151.057-230.574,42.021-230.552,93.543v.013l.05,112.232c.023,50.7,103.279,91.755,230.634,91.7s230.569-41.2,230.546-91.9l-.049-112.245C-2991.1,6790.6-3094.559,6748.73-3221.705,6748.787Zm147.615,124.037c-38.341,15.226-92.118,23.974-147.549,24s-109.215-8.676-147.575-23.868c-36.53-14.468-44.217-28.482-44.219-30.642s7.674-16.181,44.191-30.681c38.347-15.227,92.124-23.974,147.555-24s109.215,8.674,147.57,23.868c36.536,14.467,44.223,28.481,44.224,30.642S-3037.568,6858.322-3074.09,6872.823Z" transform="translate(0 -70.966)" fill="#131211"/><g transform="translate(-3440.73 6766.301)"><path d="M-3214.291,6980.891c-120.987.053-219.081-38.949-219.1-87.114l.051,115.676c.022,48.165,98.116,87.168,219.1,87.114s219.041-39.143,219.019-87.308l-.051-115.676C-2995.25,6941.748-3093.309,6980.837-3214.291,6980.891Z" transform="translate(3433.393 -6893.583)" fill="#dd151a"/></g><g transform="translate(-3441.249 6770.363)"><path d="M-2751.343,6937.844l.043,96.779c14.013-11.392,21.86-24.148,21.854-37.614l-.043-96.778C-2729.483,6913.7-2737.33,6926.451-2751.343,6937.844Z" transform="translate(3168.645 -6900.23)" fill="#131211"/><path d="M-3434.242,6900.549l.043,96.779c0,11.076,5.385,21.668,15.187,31.413l-.043-96.78C-3428.857,6922.217-3434.237,6911.625-3434.242,6900.549Z" transform="translate(3434.242 -6900.354)" fill="#131211"/><path d="M-3380.143,6975.378l.043,96.778q2.132,1.375,4.387,2.715l-.042-96.779Q-3378.01,6976.752-3380.143,6975.378Z" transform="translate(3413.201 -6929.457)" fill="#131211"/><path d="M-3393.308,6966.142l.043,96.779q2.075,1.591,4.306,3.144l-.043-96.779Q-3391.234,6967.733-3393.308,6966.142Z" transform="translate(3418.322 -6925.865)" fill="#131211"/><path d="M-2764.633,6970.3l.043,96.779q1.7-1.167,3.312-2.356l-.043-96.779Q-2762.932,6969.135-2764.633,6970.3Z" transform="translate(3173.814 -6926.566)" fill="#131211"/><path d="M-3188.407,7016.947c-73.588.033-138.705-14.384-178.439-36.522l.043,96.779c39.733,22.139,104.851,36.555,178.438,36.522,78.369-.035,147.119-16.45,185.822-41.1l-.043-96.779C-3041.288,7000.5-3110.038,7016.913-3188.407,7016.947Z" transform="translate(3408.03 -6929.64)" fill="#131211"/></g><path d="M-3214.214,7153.428c-120.987.053-219.081-38.949-219.1-87.114v3.532c.021,48.165,98.116,87.168,219.1,87.115s219.041-39.144,219.019-87.309l0-3.532C-2995.173,7114.285-3093.233,7153.375-3214.214,7153.428Z" transform="translate(-7.367 -194.386)" fill="#131211"/><g transform="translate(-3391.163 6874.16)"><path d="M-3326.677,7073.947q4.575,1.978,5.76,5.367t-.841,8.074l-2.167,5.016q-2.025,4.687-5.3,6.146t-7.855-.517l-2.866-1.238-6.264,14.5-6.064-2.621,16.673-38.583Zm-5.248,4.273-5.645,13.063,2.867,1.238a3.249,3.249,0,0,0,2.538.182,4.424,4.424,0,0,0,2.01-2.533l2.5-5.788a4.424,4.424,0,0,0,.467-3.2,3.254,3.254,0,0,0-1.872-1.724Z" transform="translate(3352.279 -7070.089)" fill="#fff"/><path d="M-3289.916,7086.693l-9.574,30.978a4.346,4.346,0,0,0-.051,3.316,3.425,3.425,0,0,0,2.115,1.6,3.429,3.429,0,0,0,2.646-.125,4.35,4.35,0,0,0,1.829-2.765l9.575-30.979,5.966,1.844-9.45,30.577q-1.508,4.877-4.695,6.751t-7.834.439q-4.646-1.438-6.221-4.783t-.067-8.223l9.451-30.577Z" transform="translate(3334.441 -7075.788)" fill="#fff"/><path d="M-3258.342,7106.891q1.118-4.978,4.09-7.113t7.717-1.067q4.745,1.065,6.52,4.265t.656,8.178l-.29,1.289-6.092-1.367.381-1.7a4.683,4.683,0,0,0-.146-3.326,3.172,3.172,0,0,0-2.168-1.441,3.17,3.17,0,0,0-2.577.375,4.68,4.68,0,0,0-1.553,2.944,7.445,7.445,0,0,0,.1,3.931,15.79,15.79,0,0,0,1.66,3.573q1.084,1.753,2.372,3.548a29.383,29.383,0,0,1,2.313,3.813,16.39,16.39,0,0,1,1.476,4.393,13.1,13.1,0,0,1-.208,5.308q-1.118,4.979-4.148,7.1t-7.775,1.054q-4.746-1.067-6.578-4.277t-.714-8.193l.565-2.518,6.094,1.368-.658,2.929a4.344,4.344,0,0,0,.21,3.309,3.431,3.431,0,0,0,2.234,1.425,3.439,3.439,0,0,0,2.629-.332,4.357,4.357,0,0,0,1.6-2.9,7.448,7.448,0,0,0-.1-3.93,15.906,15.906,0,0,0-1.66-3.573q-1.084-1.75-2.372-3.548a29.318,29.318,0,0,1-2.313-3.812,16.33,16.33,0,0,1-1.476-4.393A13.083,13.083,0,0,1-3258.342,7106.891Z" transform="translate(3317.84 -7081.083)" fill="#fff"/><path d="M-3215.974,7147.313l-6.526-1.017,6.468-41.531,6.526,1.016-2.772,17.8,7.417,1.154,2.771-17.8,6.646,1.035-6.468,41.532-6.646-1.035,2.772-17.8-7.416-1.154Z" transform="translate(3301.804 -7083.576)" fill="#fff"/><path d="M-3141.567,7113.844q5.15.366,7.287,2.926t1.791,7.411l-.106,1.5a12.232,12.232,0,0,1-1.4,5.259,6.484,6.484,0,0,1-3.456,2.883,6.6,6.6,0,0,1,3.568,3.6,13.041,13.041,0,0,1,.706,5.738l-.243,3.415q-.344,4.852-3.04,7.219t-7.667,2.013l-10.362-.735,2.976-41.926Zm-4.991,22.822-.914,12.877,3.774.268a3.393,3.393,0,0,0,2.609-.718,4.664,4.664,0,0,0,1.1-3.173l.26-3.653q.208-2.936-.7-4.083a4.266,4.266,0,0,0-3.188-1.311Zm1.211-17.07-.786,11.081,2.575.183a4.163,4.163,0,0,0,2.973-.752q1.115-.884,1.3-3.4l.166-2.336a5.338,5.338,0,0,0-.575-3.352,3.062,3.062,0,0,0-2.473-1.2Z" transform="translate(3275.352 -7086.832)" fill="#fff"/><path d="M-3101.541,7115.979l-.63,32.417a4.348,4.348,0,0,0,.869,3.2,3.431,3.431,0,0,0,2.474.949,3.43,3.43,0,0,0,2.509-.853,4.347,4.347,0,0,0,.992-3.163l.631-32.419,6.244.122-.623,32q-.1,5.1-2.644,7.786t-7.408,2.589q-4.862-.094-7.3-2.875t-2.338-7.883l.622-32Z" transform="translate(3257.572 -7087.887)" fill="#fff"/><path d="M-3068.766,7116.107l20.408-.56.164,6-6.9.189.987,36.015-6.6.181-.987-36.014-6.9.189Z" transform="translate(3242.014 -7087.769)" fill="#fff"/><path d="M-3031.08,7114.381l20.361-1.5.442,5.989-6.886.508,2.653,35.93-6.587.486-2.654-35.93-6.886.508Z" transform="translate(3227.357 -7086.73)" fill="#fff"/><path d="M-2989.43,7121.074q-.64-5.063,1.579-8.1t7.044-3.645q4.825-.61,7.729,1.776t3.544,7.45l2.742,21.685q.641,5.064-1.578,8.1t-7.044,3.644q-4.825.611-7.729-1.776t-3.544-7.451Zm9.348,21.272a4.457,4.457,0,0,0,1.326,3.071,3.362,3.362,0,0,0,2.589.611,3.363,3.363,0,0,0,2.355-1.236,4.461,4.461,0,0,0,.521-3.3l-2.847-22.517a4.465,4.465,0,0,0-1.327-3.071,3.365,3.365,0,0,0-2.589-.61,3.364,3.364,0,0,0-2.356,1.236,4.461,4.461,0,0,0-.521,3.3Z" transform="translate(3211.214 -7085.304)" fill="#fff"/><path d="M-2941.786,7114.515l5.719,29.9-5.839,1.116-7.9-41.283,8.139-1.557,11.391,23.438-4.726-24.712,5.78-1.105,7.9,41.283-6.665,1.274Z" transform="translate(3195.745 -7081.844)" fill="#fff"/><path d="M-2889.042,7091.221l9.967-3.133q4.755-1.494,7.867.3t4.643,6.659l6.374,20.279q1.531,4.869,0,8.118t-6.282,4.745l-9.967,3.132Zm8.1,3.747,9,28.642,3.552-1.116a3.33,3.33,0,0,0,2.079-1.6,4.447,4.447,0,0,0-.1-3.306l-6.554-20.851a4.45,4.45,0,0,0-1.813-2.767,3.326,3.326,0,0,0-2.619-.121Z" transform="translate(3172.114 -7076.825)" fill="#fff"/><path d="M-2820.252,7110.347c-.188-.222-.367-.428-.537-.615a5.9,5.9,0,0,1-.558-.738,10.915,10.915,0,0,1-.672-1.212q-.371-.755-.882-1.907l-2.689-6.033q-1.2-2.687-2.618-3.37a4.115,4.115,0,0,0-3.506.248l-2.084.929,6.965,15.63-6.033,2.688-17.108-38.393,9.1-4.058q4.717-2.1,7.806-.848t5.068,5.7l1.345,3.017q2.64,5.924-.479,9.549a5.916,5.916,0,0,1,4.51,1.637,15.067,15.067,0,0,1,3.135,4.75l2.64,5.923a26.855,26.855,0,0,0,1.221,2.447,8.752,8.752,0,0,0,1.514,1.922Zm-21.246-29.977,5.255,11.793,2.358-1.051a4.159,4.159,0,0,0,2.269-2.063q.567-1.3-.458-3.609l-1.687-3.784a5.344,5.344,0,0,0-2.084-2.688,3.068,3.068,0,0,0-2.747.107Z" transform="translate(3156.92 -7070.911)" fill="#fff"/></g><g transform="translate(-3323.074 6855.663)"><path d="M-3236.473,7041.081l13.109,2.525-.468,2.427-10.23-1.971-1.375,7.144,8.635,1.664-.474,2.462-8.636-1.663-1.589,8.253,10.578,2.037-.474,2.463-13.456-2.592Z" transform="translate(3240.854 -7040.31)" fill="#fff"/><path d="M-3197.619,7059.18l-4.706-11.949,3.22.442,2.307,6.306c.451,1.132.812,2.144,1.328,3.57l.14.019c.813-1.244,1.4-2.125,2.1-3.1l3.852-5.461,3.08.422-7.806,10.374,5.074,12.641-3.22-.441-2.509-6.656c-.441-1.2-.912-2.442-1.455-3.943l-.14-.019c-.857,1.308-1.611,2.382-2.325,3.424l-4.175,5.738-3.08-.424Z" transform="translate(3227.272 -7042.702)" fill="#fff"/><path d="M-3160.984,7052.344l6.581.57c5.173.449,8.508,2.476,8.068,7.543-.421,4.856-4.068,6.845-9.135,6.405l-3.8-.33-.794,9.15-2.92-.253Zm5.368,12.095c4.011.348,6.076-.962,6.359-4.235.291-3.343-1.656-4.611-5.7-4.962l-3.307-.286-.8,9.184Z" transform="translate(3210.569 -7044.69)" fill="#fff"/><path d="M-3120.216,7055.366l13.34.53-.1,2.47-10.412-.413-.289,7.27,8.788.35-.1,2.505-8.788-.35-.333,8.4,10.764.427-.1,2.506-13.693-.543Z" transform="translate(3194.292 -7045.866)" fill="#fff"/><path d="M-3081.817,7056.481l5.792-.04c7.135-.049,10.978,4.058,11.027,11.4.051,7.383-3.735,11.717-10.728,11.765l-5.934.041Zm5.721,20.73c5.4-.037,8.1-3.481,8.061-9.344-.039-5.828-2.781-9.06-8.185-9.022l-2.649.018.125,18.366Z" transform="translate(3179 -7046.284)" fill="#fff"/><path d="M-3038.732,7055.6l2.928-.131,1.038,23.145-2.929.132Z" transform="translate(3162.243 -7045.906)" fill="#fff"/><path d="M-3015.987,7053.782l13.309-1.085.2,2.464-10.386.848.591,7.252,8.767-.715.2,2.5-8.767.714.683,8.38,10.739-.875.2,2.5-13.661,1.114Z" transform="translate(3153.398 -7044.827)" fill="#fff"/><path d="M-2978.3,7049.633l3.01-.407,10.245,13.3,3.129,4.424.14-.019c-.452-2.292-1.012-4.854-1.339-7.269l-1.6-11.866,2.765-.374,3.106,22.96-3.011.407-10.285-13.329-3.125-4.389-.14.019c.488,2.286,1.029,4.708,1.355,7.124l1.624,12.005-2.766.374Z" transform="translate(3138.74 -7042.776)" fill="#fff"/><path d="M-2930.3,7044.163l-6.862,1.348-.477-2.426,16.635-3.266.476,2.426-6.862,1.348,3.987,20.308-2.911.571Z" transform="translate(3122.925 -7039.818)" fill="#fff"/></g><ellipse cx="133.795" cy="44.72" rx="133.795" ry="44.72" transform="translate(-3355.977 6586.205)" fill="#fff"/><g transform="translate(-3355.968 6605.985)" fill="#fff" stroke="#131211" stroke-miterlimit="10" stroke-width="14.45"><ellipse cx="133.795" cy="44.72" rx="133.795" ry="44.72" stroke="none"/><ellipse cx="133.795" cy="44.72" rx="126.57" ry="37.494" fill="none"/></g><ellipse cx="103.022" cy="43.074" rx="103.022" ry="43.074" transform="translate(-3325.189 6620.509)" fill="#131211"/><ellipse cx="53.518" cy="11.392" rx="53.518" ry="11.392" transform="translate(-3274.402 6626.733)" fill="#dd151a"/><path d="M-3049.212,6698.229c0,8.18-31.143,14.823-69.567,14.841-31.958.015-58.882-4.561-67.042-10.807l.021,46.495,137.135-.062-.022-50.467Z" transform="translate(-103.624 -51.304)" fill="#fff"/><path d="M-3177.766,6566.319c-89.006.04-161.4,29.415-161.386,65.48v.009l.035,78.563c.015,35.49,72.3,64.229,161.443,64.19s161.4-28.843,161.383-64.333l-.035-78.572C-3016.342,6595.59-3088.763,6566.28-3177.766,6566.319Zm103.33,86.826c-26.839,10.658-64.482,16.781-103.284,16.8s-76.45-6.073-103.3-16.707c-25.571-10.128-30.952-19.937-30.953-21.45s5.371-11.327,30.933-21.476c26.844-10.659,64.487-16.782,103.289-16.8s76.45,6.072,103.3,16.708c25.575,10.127,30.957,19.937,30.957,21.449S-3048.869,6642.994-3074.436,6653.145Z" transform="translate(-43.989)" fill="#131211"/><g transform="translate(-3375.07 6634.064)"><path d="M-3172.572,6738.3c-84.69.038-153.356-27.264-153.371-60.979l.032,73.821c.015,33.715,68.681,61.018,153.371,60.98s153.329-27.4,153.314-61.116l-.033-73.82C-3019.243,6710.9-3087.885,6738.26-3172.572,6738.3Z" transform="translate(3325.943 -6677.182)" fill="#dd151a"/></g><g transform="translate(-3370.032 6652.938)"><path d="M-3292.8,6809.493l11.192-.005-.031-70.582a103.4,103.4,0,0,1-11.2-6.7Z" transform="translate(3308.028 -6717.456)" fill="#131211"/><path d="M-3133.32,6854.357l23.721-.011-.032-73.175c-8.1-.246-16.023-.742-23.722-1.469Z" transform="translate(3246.002 -6735.928)" fill="#131211"/><path d="M-2893.569,6815.08l23.718-8.763-.034-75.966a117.153,117.153,0,0,1-23.716,12.9Z" transform="translate(3152.756 -6716.734)" fill="#131211"/><path d="M-3142.43,6854h2.911l-.033-74.917q-1.461-.149-2.911-.311Z" transform="translate(3249.546 -6735.565)" fill="#131211"/><path d="M-2916.951,6829.885l6.821,0-.033-73.667q-3.322,1.21-6.819,2.34Z" transform="translate(3161.85 -6726.793)" fill="#131211"/><path d="M-2955.479,6843.069l6.821,0-.033-75.311q-3.354.817-6.819,1.567Z" transform="translate(3176.835 -6731.282)" fill="#131211"/><path d="M-3317.7,6708.068l.038,83.8,11.192-.005-.032-72.006A51.821,51.821,0,0,1-3317.7,6708.068Z" transform="translate(3317.699 -6708.068)" fill="#131211"/><path d="M-3268.229,6821.289l5.6,0-.032-72.454q-2.884-1.239-5.6-2.539Z" transform="translate(3298.472 -6722.934)" fill="#131211"/></g><g transform="translate(-3426.014 6909.346)"><path d="M-3409.312,7127.669l0,6a86.828,86.828,0,0,0,7.478,6.813l0-6A86.791,86.791,0,0,1-3409.312,7127.669Z" transform="translate(3409.312 -7127.669)" fill="#131211"/><path d="M-3386.181,7153.006q1.818,1.264,3.739,2.5l0-6q-1.919-1.236-3.739-2.5Z" transform="translate(3400.317 -7135.189)" fill="#131211"/><path d="M-3372.884,7157.129l0,4.573q1.83,1.086,3.739,2.152l0-6q-1.685-.941-3.309-1.9A1.85,1.85,0,0,0-3372.884,7157.129Z" transform="translate(3395.145 -7138.669)" fill="#131211"/><path d="M-2757.376,7146.469q1.937-1.466,3.736-2.964l0-6q-1.8,1.5-3.736,2.965Z" transform="translate(3155.758 -7131.493)" fill="#131211"/><path d="M-2770.667,7155.993q1.919-1.221,3.736-2.471l0-6q-1.819,1.248-3.736,2.471Z" transform="translate(3160.927 -7135.39)" fill="#131211"/><path d="M-2978.315,7214.839a449.538,449.538,0,0,0,46.011-7.507l-.889-5.809a451.737,451.737,0,0,1-46.025,7.412Z" transform="translate(3242.037 -7156.394)" fill="#131211"/></g></g></svg>