<?xml version="1.0" encoding="utf-8"?>
<!-- Generator: Adobe Illustrator 23.0.3, SVG Export Plug-In . SVG Version: 6.00 Build 0)  -->
<svg version="1.1" id="Layer_1" xmlns="http://www.w3.org/2000/svg" xmlns:xlink="http://www.w3.org/1999/xlink" x="0px" y="0px"
	 viewBox="0 0 640.4 510.2" style="enable-background:new 0 0 640.4 510.2;" xml:space="preserve">
<style type="text/css">
	.st0{fill:none;stroke:#131312;stroke-width:19.819;stroke-miterlimit:10;}
	.st1{fill:#131312;}
	.st2{fill:#DC171B;}
	.st3{fill:none;stroke:#131312;stroke-width:31.651;stroke-miterlimit:10;}
	.st4{fill:#FFFFFF;}
	.st5{fill:#131311;}
	.st6{fill:none;}
	.st7{fill:none;stroke:#DC171B;stroke-width:1.994;stroke-miterlimit:10;}
	.st8{fill:#FFFFFF;stroke:#131311;stroke-width:5.983;stroke-miterlimit:10;}
</style>
<g transform="translate(-250.98 -3228.907)">
	<g transform="translate(-302.677 -3328.687)">
		<line class="st0" x1="695.2" y1="6877.8" x2="695.2" y2="6877.8"/>
		<g transform="translate(559.676 6612.75)">
			<path class="st1" d="M181.6,204.5c0,0.2,0,0.4,0,0.6c0,0.1,0,0.3,0,0.4c0,0.6,0,1.2,0.1,1.8c0,1.3,0.1,2.7,0.1,4
				c0,0.6,0.1,1.2,0.1,1.8c3.3,55.1,35.2,103.6,68.4,139.8L419,337.3c27.6-34.5,51.4-77.7,53.8-125.6c0-0.6,0.1-1.2,0.1-1.8
				c0.1-1.3,0.1-2.7,0.1-4c0-0.6,0-1.2,0-1.8c0-0.1,0-0.3,0-0.4c0-0.2,0-0.4,0-0.6h0c-0.4-23.7-7.6-46.8-20.9-66.5
				c-32.5-25.9-91.4-26.6-125.1-26.4c-77.5,0.4-89.3,7.7-139.7,58.4C183.5,180.1,181.6,192.3,181.6,204.5L181.6,204.5z"/>
			<path class="st1" d="M515.9,107c-5.5,0.5-11,1.4-16.4,2.7C486,41.2,426.2-6,354.7,0.6c-49.8,4.6-93.6,34.2-120,75.7
				c-8.3-1.9-16.7-2.4-25.2-1.6c-40,3.7-73.5,35.5-83.1,75.3c-4.5-0.2-9,0-13.5,0.4c-59.4,5.5-134.8-3.9-107,117.5
				c13.2,57.4,47.9,102.4,106.6,97.7l106-9.8c-20.5-30.1-36.3-65.1-38.6-103.3c0-0.6-0.1-1.2-0.1-1.8c-0.1-1.3-0.1-2.7-0.1-4.1
				c0-0.6-0.1-1.2-0.1-1.9c0-0.1,0-0.3,0-0.4l-0.3-68.1c2.7-2.7,5.3-5.4,7.8-7.9c17.4-55,73.1-95.4,139.4-95.7
				c53.2-0.3,99.8,25.3,125.5,63.8c13.8,11,22.8,26.5,23.1,48.5h0c0,0.2,0.3,57.8,0.3,58c0,0.1,0,0.3,0,0.4c0,0.6,0,1.2,0,1.9
				c0,1.4,0,2.7-0.1,4.1c0,0.6-0.1,1.2-0.1,1.8c-1.5,29.9-11.2,58-24.9,83.3l68.1-6.3c60.4-6.4,108.8-60.1,108.5-120.7
				C626.3,66.8,576.9,101.3,515.9,107z"/>
		</g>
		<path class="st1" d="M746,6859c0,0.1,0,0.2,0,0.4c0,0.6,0,1.2,0.1,1.8c0,1.3,0.1,2.6,0.1,3.9c0,0.6,0.1,1.2,0.1,1.7
			c6.9,115.2,142.9,200.9,142.9,200.9s133.6-87,139.3-202.4c0-0.6,0.1-1.2,0.1-1.7c0-1.3,0.1-2.6,0.1-3.9c0-0.6,0-1.2,0-1.8
			c0-0.1,0-0.2,0-0.4c0-0.2-0.3-55.2-0.3-55.4h0c-0.9-70.3-95.7-71.8-141.7-71.6c-77.7,0.4-86.3,8.1-141,63.3L746,6859z"/>
		<path class="st2" d="M751,6852.4c0,0.1,0,0.2,0,0.4c0,0.6,0,1.1,0.1,1.7c0,1.2,0.1,2.5,0.1,3.7c0,0.6,0.1,1.1,0.1,1.7
			c6.6,111.1,137.8,193.8,137.8,193.8s128.8-83.9,134.3-195.1c0-0.6,0.1-1.1,0.1-1.7c0-1.2,0.1-2.5,0.1-3.7c0-0.6,0-1.1,0-1.7
			c0-0.1,0-0.2,0-0.4c0-0.2-0.3-53.2-0.3-53.4h0c-0.9-67.8-92.3-69.2-136.6-69c-74.9,0.4-83.2,7.8-136,61.1L751,6852.4z"/>
		<path class="st1" d="M888.2,6812.6l1.2,241c4.1-2.7,128.8-85.7,134.2-195.1c0-0.6,0.1-1.1,0.1-1.7c0-1.2,0.1-2.5,0.1-3.7
			c0-0.6,0-1.1,0-1.7c0-0.1,0-0.2,0-0.4s-0.1-23.3-0.2-39.1L888.2,6812.6z"/>
		<path class="st3" d="M1062.6,6689.5c-5.3,0.5-10.5,1.4-15.6,2.6c-12.9-65.4-69.9-110.4-138.2-104.1
			c-47.5,4.4-89.3,32.6-114.4,72.2c-7.9-1.8-16-2.3-24-1.5c-38.2,3.5-70.1,33.8-79.3,71.8c-4.3-0.2-8.6,0-12.9,0.4
			c-56.7,5.2-102.4,55.5-102.1,112.1c0.3,56.2,45.7,97.7,101.7,93.3l76-7.1c-7.4-17.7-7.8-36.7-9-56.4c0-0.6-0.1-1.2-0.1-1.7
			c-0.1-1.3-0.1-2.6-0.1-3.9c0-0.6-0.1-1.2-0.1-1.8c0-0.1,0-0.2,0-0.4l-0.3-65.1c54.7-55.2,63.3-62.9,141-63.3
			c45.9-0.2,140.7,1.3,141.7,71.6h0c0,0.2,0.3,55.2,0.3,55.4c0,0.1,0,0.2,0,0.4c0,0.6,0,1.2,0,1.8c0,1.3,0,2.6-0.1,3.9
			c0,0.6-0.1,1.2-0.1,1.7c-0.6,11.2-2.3,22.3-5.2,33.1l43.3-4c57.6-6.1,103.8-57.3,103.5-115.1
			C1168.3,6727,1120.9,6684.1,1062.6,6689.5z"/>
		<g transform="translate(-6.19)">
			<path class="st4" d="M673.5,6943.5v-0.9c-57-2-101.4-47.6-101.7-105.4c-0.3-62.6,50.4-118.3,113-124.1c1.7-0.2,3.3-0.3,5-0.3
				c13.2-39.2,47.9-68.2,87.2-71.8c2.8-0.3,5.6-0.4,8.4-0.4c3.7,0,7.5,0.2,11.1,0.7c28.3-40.3,72.2-66.7,118.9-71
				c4.6-0.4,9.2-0.6,13.8-0.6c63.6,0,117.3,41.7,134.5,102.8c1.8-0.3,3.7-0.5,5.5-0.6c3.7-0.3,7.3-0.5,10.9-0.5
				c60.3,0,107.8,47.5,108.1,108.1c0.3,59.8-45.2,113.9-103.5,125.5v0.6l-10.9,1l-1.4,0.1l-385.9,35.7L673.5,6943.5z"/>
			<path class="st5" d="M677.3,6930.7c2.7,0,5.4-0.1,8.1-0.3v0l385.9-35.7h0h0l1.4-0.1v0c57.6-6.1,103.8-57.3,103.5-115.1
				c-0.3-55-42.5-96.2-96.2-96.2c-3.2,0-6.5,0.1-9.8,0.5c-5.3,0.5-10.5,1.4-15.6,2.6c-12.1-61.3-63-104.7-125.5-104.7
				c-4.2,0-8.4,0.2-12.7,0.6c-47.5,4.4-89.3,32.6-114.4,72.2c-5.4-1.2-11-1.9-16.8-1.9c-2.4,0-4.8,0.1-7.3,0.3
				c-38.2,3.5-70.1,33.8-79.3,71.8c-1.2,0-2.4-0.1-3.6-0.1c-3,0-6.1,0.1-9.2,0.4c-56.7,5.2-102.4,55.5-102.1,112.1
				C584,6890.6,625.1,6930.7,677.3,6930.7 M661.5,6956.6v-3.1c-57.9-7.5-101.4-55.9-101.7-116.4c-0.3-67.9,53.9-128.3,121.4-135.8
				c16.4-39.7,53.2-68.6,94.6-72.4c3.2-0.3,6.3-0.4,9.5-0.4c1.8,0,3.7,0,5.5,0.1c30.4-40,75.6-65.9,123.5-70.4
				c5-0.5,10-0.7,14.9-0.7c65.7,0,121.6,40.9,142.9,101.9c2.7-0.2,5.3-0.2,8-0.2c67,0,119.8,52.7,120.1,120.1
				c0.3,63.2-43.7,118.8-103.5,135v2l-21.7,2l-1.4,0.1l-385.9,35.7L661.5,6956.6z"/>
		</g>
		<path class="st1" d="M1037,6782.2c0-0.6,0-1.3,0-1.9c0-0.1,0-0.3,0-0.4c0-0.2,0-0.4,0-0.6h0c-1-74.6-68.2-134.7-150.8-134.2
			s-149.2,61.1-149.4,135.7h0c0,0.2,0,0.4,0,0.6c0,0.1,0,0.3,0,0.4c0,0.6,0,1.3,0.1,1.9c0,1.4,0.1,2.8,0.1,4.1
			c0,0.6,0.1,1.2,0.1,1.9c7.3,122.4,151.7,213.4,151.7,213.4s141.9-92.4,147.9-214.9c0-0.6,0.1-1.2,0.1-1.9
			C1036.9,6785,1036.9,6783.6,1037,6782.2z"/>
		<g transform="translate(895.631 6983.916)">
			<path class="st6" d="M2.4,18.4L2.4,18.4L2.4,18.4z"/>
			<path class="st2" d="M2.4,18.4L2.4,18.4C1.5,19,0.7,19.6,0,20.1l0,0l0.2,45.1c2.9-2.1,6.8-4.9,11.2-8.4l-0.2-45.1l0,0
				C7.9,14.3,4.9,16.5,2.4,18.4z"/>
			<path class="st2" d="M14.5,9.2L14.5,9.2l0.2,45.1c1-0.8,2.1-1.7,3.2-2.6L17.7,6.6l0,0C16.6,7.5,15.5,8.4,14.5,9.2z"/>
			<path class="st2" d="M22.5,2.7L22.5,2.7l0.2,45.1c1.1-0.9,2.1-1.8,3.2-2.7L25.7,0l0,0C24.6,0.9,23.5,1.8,22.5,2.7z"/>
		</g>
		<g transform="translate(801.764 6931.396)">
			<path class="st1" d="M14.6,16.4l0.3,54.8c4.5,3.4,8.4,6.2,11.3,8.3l-0.3-51.6C22.2,24.2,18.4,20.4,14.6,16.4z"/>
			<path class="st1" d="M8.4,66.1c1.1,0.9,2.2,1.7,3.2,2.5l-0.3-55.7c-1.1-1.2-2.2-2.4-3.2-3.6L8.4,66.1z"/>
			<path class="st1" d="M0.3,57.4c1.1,0.9,2.2,1.8,3.2,2.7L3.2,3.8C2.2,2.6,1.1,1.3,0,0L0.3,57.4z"/>
		</g>
		<path class="st2" d="M1025.6,6777.5c0-0.6,0-1.2,0-1.7c0-0.1,0-0.2,0-0.4c0-0.2,0-0.4,0-0.6h0c-0.9-68.2-62.4-123.1-137.8-122.7
			s-136.4,55.8-136.6,124.1h0c0,0.2,0,0.4,0,0.6c0,0.1,0,0.2,0,0.4c0,0.6,0,1.2,0.1,1.7c0,1.3,0.1,2.5,0.1,3.8
			c0,0.6,0.1,1.1,0.1,1.7c6.7,111.9,138.7,195.1,138.7,195.1s129.7-84.5,135.2-196.4c0-0.6,0.1-1.1,0.1-1.7
			C1025.5,6780,1025.5,6778.7,1025.6,6777.5z"/>
		<g transform="translate(-73.3 -32.576)">
			<path class="st6" d="M1075.3,6813.6c0-0.5,0-1,0-1.5c0-0.1,0-0.2,0-0.3c0-0.2,0-0.3,0-0.5h0c-0.7-57.2-52.3-103.3-115.6-102.9
				s-114.4,46.9-114.6,104.1h0c0,0.2,0,0.3,0,0.5c0,0.1,0,0.2,0,0.3c0,0.5,0,1,0,1.5c0,1.1,0.1,2.1,0.1,3.2c0,0.5,0.1,0.9,0.1,1.4
				c5.6,93.9,116.4,163.7,116.4,163.7s108.8-70.9,113.4-164.8c0-0.5,0.1-0.9,0.1-1.4C1075.3,6815.7,1075.3,6814.6,1075.3,6813.6z"/>
			<path class="st1" d="M960.3,6708.4l-0.6,10.4c-57.3,0.3-104.1,42.4-104.3,93.8l0,2l0,0l0.1,2.8l0.1,1.4
				c4.5,75.6,83.9,136.3,105.9,151.7c21.7-15.7,99.4-77.2,103.2-152.8l0.1-1.2l0.1-2.9l0-0.7l0-1.3c-0.7-51.1-47.6-92.7-104.6-92.7
				L960.3,6708.4 M960.3,6708.4c63,0,114.2,45.9,115,102.9h0c0,0.2,0,0.3,0,0.5c0,0.1,0,0.2,0,0.3c0,0.5,0,1,0,1.5
				c0,1.1,0,2.1-0.1,3.2c0,0.5,0,1-0.1,1.4c-4.7,93.9-113.4,164.8-113.4,164.8s-110.8-69.8-116.4-163.7c0-0.5-0.1-0.9-0.1-1.4
				c-0.1-1-0.1-2.1-0.1-3.2c0-0.5,0-1,0-1.5c0-0.1,0-0.2,0-0.3c0-0.2,0-0.3,0-0.5l0,0c0.2-57.2,51.3-103.8,114.6-104.1
				C959.9,6708.4,960.1,6708.4,960.3,6708.4z"/>
		</g>
		<path class="st2" d="M839.1,6887.6l-15.8,19.3l66.3,58.6l71.9-68.9l-23.8-17.7L839.1,6887.6z"/>
		<path class="st2" d="M790.4,6752.2l-26.7,0.2l18.3-48.1l82.4-43.4c0,0,50.4,4.6,53,4.9s73.9,37.8,73.9,37.8l26.6,47.1l-35.8,0.6
			L790.4,6752.2z"/>
		<g transform="translate(896.328 6884.132)">
			<path class="st4" d="M0,40.2l4.2-3.6c1-1,2.4-1.6,3.9-1.5c1.4,0.3,2.7,1.1,3.6,2.3l7.2,8.5c1,1,1.6,2.4,1.7,3.9
				c-0.1,1.4-0.9,2.7-2.1,3.6L14.3,57L0,40.2z M4.7,40.4l10.2,12l1.5-1.3c0.4-0.3,0.6-0.7,0.7-1.2c0-0.6-0.3-1.2-0.7-1.6l-7.4-8.7
				c-0.3-0.5-0.9-0.8-1.4-1c-0.5,0-0.9,0.1-1.3,0.5L4.7,40.4z"/>
			<path class="st4" d="M30.7,42.5c-0.1-0.1-0.3-0.1-0.4-0.2c-0.1-0.1-0.3-0.2-0.4-0.3c-0.2-0.2-0.4-0.3-0.5-0.5
				c-0.2-0.2-0.5-0.5-0.8-0.8l-2.4-2.5c-0.5-0.6-1.1-1-1.9-1.2c-0.6,0-1.3,0.2-1.7,0.7l-0.9,0.8l6.1,6.6l-2.5,2.4l-15-16.1l3.8-3.6
				c1-1.1,2.3-1.7,3.7-1.7c1.4,0.2,2.6,0.9,3.5,2l1.2,1.3c1.5,1.7,2,3.3,1.4,4.8c0.8-0.3,1.7-0.3,2.5,0c0.9,0.5,1.7,1.1,2.4,1.8
				l2.3,2.5c0.3,0.4,0.7,0.7,1,1c0.3,0.3,0.7,0.5,1.1,0.7L30.7,42.5z M15.1,31.2l4.6,5l1-0.9c0.4-0.4,0.7-0.9,0.8-1.4
				c0-0.7-0.3-1.3-0.8-1.7l-1.5-1.6c-0.4-0.5-0.9-0.8-1.5-1c-0.5-0.1-1,0.1-1.3,0.5L15.1,31.2z"/>
			<path class="st4" d="M43.8,29.5L41.4,32l-3.3-2.4l-3,3l2.4,3.2l-2.2,2.3l-13.2-18l3.6-3.6L43.8,29.5z M33.3,30.2l2.3-2.4
				l-9.1-6.6L33.3,30.2z"/>
			<path class="st4" d="M52,20.6l-2.4,2.6l-3.4-2.3l-2.9,3.1l2.5,3.1l-2.1,2.3L29.9,12.1l3.4-3.7L52,20.6z M41.5,21.7l2.3-2.5
				L34.4,13L41.5,21.7z"/>
			<path class="st4" d="M39.4,9.5c-1.2-0.9-2-2.2-2.3-3.6c0-2.9,2.1-5.4,4.9-5.8c1.5,0,2.9,0.6,4,1.7l0.5,0.4l-2.1,2.5L43.7,4
				c-0.4-0.4-1-0.7-1.6-0.7c-1,0.1-1.7,1-1.6,1.9c0.1,0.6,0.5,1.1,1,1.4c0.5,0.5,1.2,0.8,1.9,0.9c0.7,0.1,1.4,0.2,2.1,0.1
				c0.7-0.1,1.5-0.1,2.2-0.2c0.8-0.1,1.6-0.2,2.3-0.2c0.8,0,1.6,0.1,2.4,0.4c0.9,0.3,1.7,0.8,2.4,1.4c1.2,0.9,2,2.2,2.3,3.6
				c0,2.9-2.1,5.4-5,5.9c-1.5,0-2.9-0.6-4-1.7l-1-0.9l2.1-2.5l1.2,1c0.4,0.4,1,0.7,1.6,0.7c1-0.2,1.7-1,1.7-2
				c-0.1-0.6-0.5-1.1-1-1.4c-0.5-0.5-1.2-0.8-1.9-0.9c-0.7-0.1-1.4-0.1-2.1-0.1c-0.7,0.1-1.5,0.1-2.2,0.2c-0.8,0.1-1.6,0.2-2.3,0.2
				c-0.8,0-1.6-0.1-2.4-0.4C41,10.6,40.2,10.1,39.4,9.5z"/>
		</g>
		<g transform="translate(620.628 6602.226)">
			<path class="st5" d="M112.1,74.6c8.4-0.8,16.9-0.3,25.2,1.6c3.1-4.8,6.4-9.5,10-14.1c-1.4,0.1-2.8,0.1-4.2,0.3
				c-13.4,1.3-26.3,5.8-37.6,13.1C107.7,75.2,109.9,74.8,112.1,74.6z"/>
			<path class="st5" d="M28.9,150.1c1-4.1,2.2-8.1,3.7-12.1C21,141.2,10,146.2,0,153c5.1-1.2,10.2-2,15.3-2.5
				C19.8,150,24.4,149.9,28.9,150.1z"/>
			<path class="st5" d="M356.9,4.6c5.9,6.1,10.7,13.1,14.4,20.7c5.7-0.6,11.5-0.9,17.2-0.9c-0.9-1.1-1.8-2.1-2.8-3.1
				c-9.3-9.7-20.9-17-33.6-21.3C353.8,1.5,355.4,3,356.9,4.6z"/>
			<path class="st5" d="M435.5,101.3c8.5,0.4,16.8,2.2,24.7,5.2c3.8-4.4,7.7-8.5,11.9-12.5c-1.4-0.1-2.8-0.3-4.2-0.3
				c-13.4-0.6-26.8,2-39.1,7.6C431.1,101.2,433.3,101.2,435.5,101.3z"/>
		</g>
		<g transform="translate(771.358 6671.129)">
			<path class="st4" d="M2.9,68.1c-1.3-0.7-2.3-1.9-2.7-3.3c-0.4-2.9,1.4-5.7,4.2-6.6c1.5-0.2,3,0.2,4.2,1.1l9.7,6.2
				c1.3,0.7,2.3,1.9,2.7,3.3c0.4,2.9-1.4,5.7-4.2,6.6c-1.5,0.2-3-0.2-4.2-1.1L2.9,68.1z M14.6,71.5c0.5,0.4,1.1,0.6,1.7,0.5
				c0.9-0.3,1.5-1.2,1.4-2.2c-0.2-0.6-0.6-1-1.2-1.3l-10-6.4c-0.5-0.4-1.1-0.6-1.7-0.5c-0.9,0.3-1.5,1.2-1.4,2.2
				c0.2,0.6,0.6,1,1.2,1.3L14.6,71.5z"/>
			<path class="st4" d="M14.1,53.4l12.2,10.3l-2,2.4L7.4,51.8l2.8-3.3l12.4,5.8l-10.1-8.5l2-2.4l16.8,14.2L29,60.4L14.1,53.4z"/>
			<path class="st4" d="M24.8,46.4l4.6-4.3l2.2,2.3L27,48.7L24.8,46.4z"/>
			<path class="st4" d="M29.7,36.2c-1-1.1-1.5-2.5-1.5-4c0.6-2.9,3.1-4.8,6-4.7c1.4,0.4,2.7,1.2,3.5,2.5l0.4,0.5l-2.6,2l-0.6-0.7
				c-0.3-0.5-0.8-0.9-1.4-1c-1-0.1-1.8,0.6-2,1.6c0,0.6,0.3,1.2,0.7,1.6c0.4,0.6,1,1,1.6,1.3c0.6,0.3,1.3,0.4,2,0.5
				c0.7,0.1,1.5,0.2,2.2,0.2c0.8,0.1,1.6,0.2,2.3,0.3c0.8,0.2,1.6,0.5,2.3,0.9c0.8,0.5,1.5,1.1,2.1,1.9c1,1.1,1.5,2.6,1.5,4
				c-0.6,2.9-3.2,4.9-6.1,4.7c-1.4-0.3-2.7-1.2-3.5-2.4l-0.8-1.1l2.6-2l1,1.2c0.3,0.5,0.8,0.9,1.4,1c1,0,1.9-0.6,2.1-1.6
				c0-0.6-0.2-1.2-0.6-1.6c-0.4-0.6-1-1-1.6-1.3c-0.6-0.3-1.3-0.4-2-0.5c-0.7-0.1-1.5-0.2-2.2-0.2c-0.8-0.1-1.6-0.2-2.3-0.3
				c-0.8-0.2-1.6-0.5-2.3-0.9C31,37.6,30.3,36.9,29.7,36.2z"/>
			<path class="st4" d="M38.5,23.2l2.9-1.9l11.9,18.5l-2.9,1.9L38.5,23.2z"/>
			<path class="st4" d="M44.9,19.1l9.4-5l1.5,2.8l-3.2,1.7l8.9,16.7l-3.1,1.6l-8.9-16.7l-3.2,1.7L44.9,19.1z"/>
			<path class="st4" d="M65.2,19.5l4.4-1.8l1.2,2.9l-4.4,1.8l2.4,6l5.5-2.2l1.2,2.9l-8.8,3.5l-8.3-20.4l8.8-3.5l1.2,2.9l-5.5,2.2
				L65.2,19.5z"/>
			<path class="st4" d="M83.8,3.8c1.4-0.4,2.9-0.3,4.1,0.5C89,5.2,89.8,6.5,90,7.9l0.7,2.8c0.4,1.4,0.3,2.9-0.3,4.2
				c-0.8,1.2-2,2-3.5,2.2l-1.6,0.4l1.9,8.1l-3.4,0.8L78.8,5L83.8,3.8z M82.9,7.3l1.7,7.3l1.6-0.4c0.5-0.1,0.9-0.3,1.1-0.7
				c0.2-0.5,0.3-1.1,0.1-1.7l-0.8-3.2c-0.1-0.6-0.4-1.1-0.8-1.5c-0.4-0.2-0.9-0.3-1.3-0.1L82.9,7.3z"/>
			<path class="st4" d="M103.2,22.8c-0.1-0.1-0.1-0.3-0.2-0.4c-0.1-0.1-0.1-0.3-0.2-0.5c-0.1-0.2-0.1-0.5-0.2-0.7
				c0-0.3-0.1-0.7-0.2-1.1l-0.4-3.4c0-0.8-0.3-1.5-0.8-2.1c-0.5-0.4-1.2-0.6-1.8-0.4l-1.2,0.1l1.1,8.9L96,23.7L93.3,1.9l5.2-0.6
				c1.4-0.3,2.9,0,4,0.8c1,0.9,1.6,2.2,1.7,3.6l0.2,1.7c0.3,2.2-0.3,3.8-1.7,4.7c0.9,0.2,1.6,0.7,2,1.5c0.5,0.9,0.7,1.9,0.8,2.9
				l0.4,3.4c0.1,0.5,0.1,0.9,0.2,1.4c0.1,0.4,0.3,0.8,0.5,1.2L103.2,22.8z M97.2,4.5l0.8,6.7l1.3-0.2c0.6,0,1.1-0.3,1.5-0.7
				c0.4-0.6,0.5-1.2,0.3-1.9l-0.3-2.2c0-0.6-0.2-1.2-0.6-1.7c-0.4-0.3-0.9-0.5-1.4-0.4L97.2,4.5z"/>
			<path class="st4" d="M108.6,0.3l3.5-0.1l0.9,22l-3.5,0.1L108.6,0.3z"/>
			<path class="st4" d="M121.6,18.2L125,0.4l3.2,0.1l-4.3,21.9l-5.2-0.2L116.2,0l3.5,0.1L121.6,18.2z"/>
			<path class="st4" d="M140.7,24.4l-3.5-0.5v-4l-4.2-0.6l-1.2,3.9l-3.1-0.5l6.8-21.3l5,0.8L140.7,24.4z M133.9,16.3l3.3,0.5l0-11.3
				L133.9,16.3z"/>
			<path class="st4" d="M147.4,3.4l10.4,2.7l-0.8,3l-3.5-0.9l-4.8,18.3l-3.3-0.9l4.8-18.3l-3.5-0.9L147.4,3.4z"/>
			<path class="st4" d="M162.1,17.4l4.5,1.7l-1.1,2.9l-4.5-1.7l-2.3,6l5.6,2.1l-1.1,2.9l-8.8-3.3l7.7-20.6l8.8,3.3l-1.1,2.9
				l-5.6-2.1L162.1,17.4z"/>
			<path class="st4" d="M183.9,32.9l-1.4,2.5c-0.6,1.3-1.8,2.4-3.2,2.9c-2.9,0.6-5.7-1.1-6.7-3.8c-0.2-1.5,0.1-3,0.9-4.2l5.7-10
				c0.6-1.3,1.8-2.4,3.2-2.9c2.9-0.6,5.7,1.1,6.7,3.8c0.2,1.5-0.1,3-0.9,4.2l-1.1,1.9l-2.8-1.6l1.2-2.1c0.4-0.5,0.5-1.1,0.4-1.7
				c-0.3-0.9-1.3-1.5-2.3-1.3c-0.6,0.2-1,0.7-1.3,1.2l-5.9,10.3c-0.4,0.5-0.5,1.1-0.4,1.7c0.3,0.9,1.3,1.5,2.3,1.3
				c0.6-0.2,1-0.7,1.2-1.2l1.6-2.7L183.9,32.9z"/>
			<path class="st4" d="M195,23.7l2.8,2l-11,15.3l4.6,3.3l-1.8,2.6l-7.4-5.4L195,23.7z"/>
			<path class="st4" d="M202.3,35.8c0.9-1.2,2.3-1.9,3.8-2.1c2.9,0.1,5.4,2.3,5.8,5.2c-0.1,1.5-0.7,2.9-1.8,4l-7.7,8.5
				c-0.9,1.2-2.3,1.9-3.8,2.1c-2.9-0.1-5.4-2.3-5.8-5.2c0-1.5,0.7-2.9,1.8-4L202.3,35.8z M197,46.7c-0.5,0.4-0.7,1-0.8,1.6
				c0.1,1,0.9,1.7,1.9,1.8c0.6-0.1,1.1-0.4,1.5-0.9l8-8.8c0.5-0.4,0.7-1,0.8-1.6c-0.1-1-0.9-1.7-1.9-1.8c-0.6,0.1-1.1,0.4-1.5,0.9
				L197,46.7z"/>
			<path class="st4" d="M219.7,45.4l-12.9,11.1c-0.5,0.3-0.8,0.9-0.9,1.5c0,0.5,0.2,0.9,0.5,1.3c0.3,0.4,0.7,0.6,1.2,0.7
				c0.6,0,1.2-0.3,1.6-0.7L222,48.1l2.1,2.5l-12.7,10.9c-1.1,1-2.5,1.6-4,1.7c-2.9-0.4-5-2.9-5-5.8c0.3-1.5,1.1-2.8,2.3-3.7
				l12.7-10.9L219.7,45.4z"/>
			<path class="st4" d="M227.6,55.2l3,4.6c0.9,1.1,1.2,2.6,1,4c-0.5,1.4-1.4,2.6-2.7,3.3l-9.3,6.1c-1.2,0.9-2.6,1.3-4.1,1.2
				c-1.4-0.3-2.6-1.2-3.3-2.5l-3-4.6L227.6,55.2z M226.9,59.9l-13.2,8.6l1.1,1.6c0.2,0.4,0.6,0.7,1.1,0.8c0.6,0,1.2-0.1,1.7-0.5
				l9.6-6.3c0.5-0.3,0.9-0.7,1.1-1.3c0.1-0.5,0-1-0.3-1.3L226.9,59.9z"/>
		</g>
		<path class="st2" d="M951.2,6905.7l-18.3,19.7l-17.3-19.8l14.3-14.3L951.2,6905.7z"/>
		<g transform="translate(830.132 6890.318)">
			<path class="st4" d="M12.6,13.2l-9.3,7.3L0,17.1L14.1,0l2.3,2.4L5.3,15.8L18.9,4.9l2.3,2.4L9.9,20.8L23.7,9.9l2.1,2.2L8.3,25.6
				l-3.2-3.3L12.6,13.2z"/>
			<path class="st4" d="M27.7,13.8l2.5,2.4l-15.2,16l-2.5-2.4L27.7,13.8z"/>
			<path class="st4" d="M32.1,17.9l8,7.1l-2.1,2.3L35.2,25L22.7,39l-2.6-2.3l12.6-14.1L30,20.2L32.1,17.9z"/>
			<path class="st4" d="M30.6,45.8l-2.7-2.2l14-17l2.7,2.2l-6,7.3l3,2.5l6-7.3l2.7,2.2l-14,17l-2.7-2.2l6-7.3l-3-2.5L30.6,45.8z"/>
		</g>
		<g transform="translate(922.006 6897.597)">
			<path class="st4" d="M16.3,18l-1.9,1.9L12,18.1l-2.3,2.3l1.8,2.4l-1.7,1.7L0,10.9l2.7-2.7L16.3,18z M8.4,18.5l1.8-1.8l-6.8-5
				L8.4,18.5z"/>
			<path class="st4" d="M24.5,9.3l-1.8,1.9l-2.5-1.7L18,11.9l1.9,2.4L18.3,16L7.9,2.8L10.4,0L24.5,9.3z M16.6,10.1l1.7-1.8l-7-4.8
				L16.6,10.1z"/>
		</g>
		
			<rect x="883.3" y="6943.7" transform="matrix(0.7036 -0.7106 0.7106 0.7036 -4674.6509 2691.0691)" class="st1" width="10" height="10"/>
		<g transform="translate(804.036 6708.595)">
			<path class="st1" d="M167.3,76.4c0-0.4,0-0.7,0-1.1c0-0.1,0-0.1,0-0.2c0-0.1,0-0.2,0-0.3h0c-0.5-41.6-38-75-84-74.8
				S0.1,34,0,75.6h0c0,0.1,0,0.2,0,0.3c0,0.1,0,0.1,0,0.2c0,0.4,0,0.7,0,1.1c0,0.8,0,1.5,0.1,2.3c0,0.3,0,0.7,0.1,1
				c4.1,68.2,84.6,118.9,84.6,118.9s79.1-51.5,82.4-119.8c0-0.3,0-0.7,0.1-1C167.3,78,167.3,77.2,167.3,76.4z"/>
			<circle class="st7" cx="68.6" cy="77.8" r="59"/>
			<circle class="st7" cx="98.3" cy="77.6" r="59"/>
			<circle class="st7" cx="83.4" cy="77.7" r="59"/>
			<path class="st4" d="M117.4,66l-22.2,0L95,44l-23.5,0.2l0.2,22.1l-22.1,0.2l0.2,23.5l22.1-0.2l0.2,22.1l23.5-0.2l-0.2-22.1
				l22.2,0L117.4,66z"/>
			<path class="st8" d="M94.2,20.6c0,1.9-1.5,3.4-3.4,3.4c-1.9,0-3.4-1.5-3.4-3.4c0-1.9,1.5-3.4,3.4-3.4
				C92.7,17.2,94.2,18.7,94.2,20.6L94.2,20.6 M103.6,20.5l-8,8.2L93,26l5.4-5.5L93,15.1l2.6-2.7L103.6,20.5z M79.2,20.6
				c0,1.9-1.5,3.4-3.4,3.4c-1.9,0-3.4-1.5-3.4-3.4c0-1.9,1.5-3.4,3.4-3.4C77.7,17.2,79.2,18.7,79.2,20.6
				C79.2,20.6,79.2,20.6,79.2,20.6 M86.7,20.6c0,1.9-1.5,3.4-3.4,3.4c-1.9,0-3.4-1.5-3.4-3.4c0-1.9,1.5-3.4,3.4-3.4
				C85.2,17.2,86.7,18.7,86.7,20.6C86.7,20.6,86.7,20.6,86.7,20.6 M63.1,20.7l8-8.2l2.6,2.6l-5.4,5.5l5.4,5.4l-2.6,2.7L63.1,20.7z"
				/>
			<path class="st2" d="M94,20.3c0,1.9-1.5,3.4-3.4,3.4s-3.4-1.5-3.4-3.4c0-1.9,1.5-3.4,3.4-3.4C92.5,16.9,94,18.4,94,20.3
				 M103.4,20.3l-8,8.2l-2.6-2.6l5.4-5.5l-5.4-5.4l2.6-2.7L103.4,20.3z M79.1,20.4c0,1.9-1.5,3.4-3.4,3.4c-1.9,0-3.4-1.5-3.4-3.4
				c0-1.9,1.5-3.4,3.4-3.4C77.5,17,79.1,18.5,79.1,20.4C79.1,20.4,79.1,20.4,79.1,20.4 M86.5,20.3c0,1.9-1.5,3.4-3.4,3.4
				c-1.9,0-3.4-1.5-3.4-3.4c0-1.9,1.5-3.4,3.4-3.4C85,17,86.5,18.5,86.5,20.3L86.5,20.3 M62.9,20.5l8-8.2l2.6,2.6l-5.4,5.5l5.4,5.4
				l-2.6,2.7L62.9,20.5z"/>
		</g>
	</g>
</g>
</svg>
