<svg xmlns="http://www.w3.org/2000/svg" xmlns:xlink="http://www.w3.org/1999/xlink" width="175" height="175" viewBox="0 0 175 175"><defs><clipPath id="a"><rect width="157.078" height="157.078" fill="#57575d"/></clipPath></defs><g transform="translate(-761 -2076)"><g transform="translate(1089.539 893.5) rotate(90)"><circle cx="87.5" cy="87.5" r="87.5" transform="translate(1182.5 328.539) rotate(-90)" fill="#fff"/></g><g transform="translate(770 2085)"><g transform="translate(0 0)" clip-path="url(#a)"><path d="M78.539,17.952a63.179,63.179,0,0,1,6.981.394,7.4,7.4,0,0,0-13.963,0,63.131,63.131,0,0,1,6.981-.394M98.317,61.781l-11.973,20.7c-.269.464-.845.705-1.093.454L76.518,74.2c-.251-.248-.01-.824.454-1.093L97.678,61.142c.569-.332.967.066.639.639M80.56,87.629c.251.251.01.824-.454,1.093L59.4,100.694c-.569.332-.967-.07-.639-.639L70.734,79.349c.269-.464.845-.7,1.093-.454Zm25.331-6.709a3.012,3.012,0,0,1,3.009-3.012h13.725A44.248,44.248,0,0,0,81.548,36.833V50.555a3.009,3.009,0,1,1-6.018,0V36.833A44.248,44.248,0,0,0,34.452,77.907H48.178a3.011,3.011,0,0,1,0,6.021H34.452A44.254,44.254,0,0,0,75.53,125V111.281a3.009,3.009,0,0,1,6.018,0V125a44.254,44.254,0,0,0,41.078-41.074H108.9a3.011,3.011,0,0,1-3.009-3.009m22.867,0A50.22,50.22,0,1,1,78.539,30.7a50.276,50.276,0,0,1,50.22,50.223m6.726,0c0-.935-.024-1.861-.07-2.782-.014-.265-.038-.531-.052-.8-.042-.663-.087-1.326-.154-1.983-.024-.276-.059-.548-.091-.82q-.11-1-.251-1.983c-.035-.23-.073-.461-.112-.695-.115-.726-.241-1.449-.387-2.164-.028-.147-.056-.29-.087-.433A57.153,57.153,0,0,0,95.6,26.585c-.367-.115-.74-.216-1.11-.325-.429-.126-.859-.251-1.292-.367-.625-.164-1.253-.314-1.885-.461L90.76,25.3q-1.084-.236-2.185-.429a56.171,56.171,0,0,0-20.075,0q-1.1.194-2.182.429c-.188.042-.374.087-.562.129-.632.147-1.26.3-1.885.461-.429.115-.855.241-1.281.367-.374.108-.75.209-1.12.325A57.156,57.156,0,0,0,22.8,69.257c-.031.147-.059.293-.091.44-.143.716-.269,1.435-.384,2.161-.038.23-.077.464-.112.695-.1.656-.178,1.312-.251,1.976-.031.276-.066.552-.091.831-.066.656-.112,1.316-.154,1.976-.014.269-.038.534-.052.8-.045.922-.07,1.847-.07,2.782q0,1.471.073,2.925A56.947,56.947,0,0,0,135.485,80.92m5.941-3.044c.049,1.009.08,2.021.08,3.044a62.967,62.967,0,0,1-125.935,0c0-1.023.031-2.035.08-3.044.014-.293.038-.586.056-.88.045-.726.1-1.452.164-2.175.031-.3.066-.6.1-.908.08-.737.171-1.466.279-2.192.035-.248.073-.5.112-.74q.2-1.262.45-2.51c.021-.115.045-.23.066-.346A62.759,62.759,0,0,1,62.5,20.029c.785-.209,1.585-.394,2.384-.569.091-.021.178-.045.269-.066a13.461,13.461,0,0,1,26.766,0c.1.024.206.052.307.073.785.175,1.567.356,2.339.559A62.755,62.755,0,0,1,140.2,68.13c.021.112.042.223.066.335q.251,1.251.45,2.52c.038.244.077.485.112.73.108.73.2,1.466.279,2.2.035.3.07.6.1.9.066.723.119,1.449.164,2.175.017.293.042.586.056.88m15.652.663a78.539,78.539,0,1,0-78.539,78.539,78.541,78.541,0,0,0,78.539-78.539" transform="translate(0 0)" fill="#57575d"/></g></g></g></svg>