<?xml version="1.0" encoding="utf-8"?>
<!-- Generator: Adobe Illustrator 23.0.3, SVG Export Plug-In . SVG Version: 6.00 Build 0)  -->
<svg version="1.1" id="Layer_1" xmlns="http://www.w3.org/2000/svg" xmlns:xlink="http://www.w3.org/1999/xlink" x="0px" y="0px"
	 viewBox="0 0 175 175" style="enable-background:new 0 0 175 175;" xml:space="preserve">
<style type="text/css">
	.st0{fill:#FFFFFF;}
	.st1{fill:#57575D;}
	.st2{fill:#0995D3;}
	.st3{fill:#333132;}
	.st4{fill:url(#SVGID_1_);}
</style>
<g transform="translate(328.539 -1182.5) rotate(90)">
	<circle class="st0" cx="1270.3" cy="241" r="87.5"/>
</g>
<path class="st1" d="M87.5,10.1c-42.9,0-77.7,34.8-77.7,77.7s34.8,77.7,77.7,77.7s77.7-34.8,77.7-77.7S130.4,10.1,87.5,10.1z
	 M94.7,131.7v9.6c0,2.5-2,4.5-4.5,4.5h-4.1c-2.5,0-4.5-2-4.5-4.5v-9c-6.7-0.8-14.5-3.4-20.5-7.7c-2-1.4-2.4-4.1-1.1-6.1l3.9-6
	c1.4-2.1,4.2-2.7,6.3-1.3c5.4,3.5,10.3,5.3,15.6,5.3c7.6,0,11-3.1,11-9.4c0-14-35.8-13.7-35.8-38.1c0-13.3,7.9-22.5,20.6-25.1v-9.4
	c0-2.5,2-4.5,4.5-4.5h4.1c2.5,0,4.5,2,4.5,4.5v9.2c7,1,12.4,4,17,8c1.8,1.6,2,4.5,0.3,6.3l-4.2,4.7c-1.6,1.8-4.3,2.2-6.2,0.7
	c-3.7-2.7-7.2-4.1-11.6-4.1c-6.5,0-10,2.6-10,8.7c0,12.9,35.8,11.8,35.8,37.7C115.8,118.7,108.7,128.7,94.7,131.7z"/>
<path class="st1" d="M87.5,9.8C44.6,9.8,9.8,44.6,9.8,87.5s34.8,77.7,77.7,77.7s77.7-34.8,77.7-77.7S130.4,9.8,87.5,9.8z"/>
<path class="st0" d="M137.5,115.3L137.5,115.3V49c0-1.1-0.9-2-1.9-2H39.5c-1.1,0-1.9,0.9-1.9,2v66.3c0,1.1,0.9,1.9,1.9,1.9H76V129
	H60.6c-1.1,0-1.9,0.9-1.9,2c0,1.1,0.9,2,1.9,2h0h53.8c1.1,0,1.9-0.9,1.9-2c0-1.1-0.9-2-1.9-2H99v-11.7h36.5
	C136.6,117.3,137.5,116.4,137.5,115.3"/>
<rect x="41.4" y="51" class="st1" width="92.2" height="62.4"/>
<rect x="88.1" y="139.8" class="st0" width="86.7" height="34.8"/>
<path class="st0" d="M83.9,83.6c0-1.8-0.6-3.4-1.9-4.7c-1.3-1.3-2.8-1.9-4.7-1.9s-3.4,0.6-4.7,1.9c-1.3,1.3-1.9,2.8-1.9,4.7
	c0,1.8,0.6,3.4,1.9,4.7s2.8,1.9,4.7,1.9s3.4-0.6,4.7-1.9C83.2,87,83.9,85.5,83.9,83.6z M103.6,96.8c0-0.9-0.3-1.7-1-2.3
	s-1.4-1-2.3-1s-1.7,0.3-2.3,1c-0.7,0.7-1,1.4-1,2.3c0,0.9,0.3,1.7,1,2.3s1.4,1,2.3,1s1.7-0.3,2.3-1
	C103.3,98.5,103.6,97.7,103.6,96.8z M103.6,70.5c0-0.9-0.3-1.7-1-2.3s-1.4-1-2.3-1s-1.7,0.3-2.3,1c-0.7,0.7-1,1.4-1,2.3
	c0,0.9,0.3,1.7,1,2.3c0.6,0.6,1.4,1,2.3,1s1.7-0.3,2.3-1C103.3,72.1,103.6,71.4,103.6,70.5z M93.7,81.3v4.8c0,0.2-0.1,0.3-0.2,0.5
	c-0.1,0.2-0.3,0.3-0.4,0.3l-4,0.6c-0.2,0.6-0.5,1.3-0.8,2c0.6,0.8,1.4,1.8,2.3,3c0.1,0.2,0.2,0.3,0.2,0.5c0,0.2-0.1,0.4-0.2,0.5
	c-0.4,0.5-1.1,1.3-2.1,2.3c-1,1-1.7,1.5-2,1.5c-0.2,0-0.4-0.1-0.5-0.2l-3-2.3c-0.6,0.3-1.3,0.6-2,0.8c-0.2,1.9-0.4,3.2-0.6,4
	c-0.1,0.4-0.4,0.6-0.8,0.6h-4.8c-0.2,0-0.4-0.1-0.5-0.2c-0.2-0.1-0.2-0.3-0.3-0.5l-0.6-3.9c-0.6-0.2-1.2-0.4-1.9-0.8l-3,2.3
	c-0.1,0.1-0.3,0.2-0.5,0.2c-0.2,0-0.4-0.1-0.5-0.2c-2.5-2.3-3.7-3.7-3.7-4.1c0-0.2,0.1-0.3,0.2-0.5c0.2-0.2,0.5-0.7,1.1-1.4
	c0.5-0.7,0.9-1.2,1.2-1.6c-0.4-0.8-0.7-1.5-0.9-2.1l-3.9-0.6c-0.2,0-0.3-0.1-0.4-0.2c-0.1-0.1-0.2-0.3-0.2-0.5v-4.8
	c0-0.2,0.1-0.3,0.2-0.5s0.3-0.3,0.4-0.3l4-0.6c0.2-0.6,0.5-1.3,0.8-2c-0.6-0.8-1.4-1.8-2.3-3c-0.1-0.2-0.2-0.4-0.2-0.5
	c0-0.2,0.1-0.4,0.2-0.5c0.4-0.5,1.1-1.3,2.1-2.3c1-1,1.7-1.5,2-1.5c0.2,0,0.4,0.1,0.5,0.2l3,2.3c0.6-0.3,1.2-0.6,2-0.8
	c0.2-1.9,0.4-3.2,0.6-4c0.1-0.4,0.4-0.6,0.8-0.6h4.8c0.2,0,0.4,0.1,0.5,0.2c0.2,0.1,0.2,0.3,0.3,0.5l0.6,3.9
	c0.6,0.2,1.2,0.4,1.9,0.8l3-2.3c0.1-0.1,0.3-0.2,0.5-0.2c0.2,0,0.4,0.1,0.5,0.2c2.5,2.3,3.7,3.7,3.7,4.1c0,0.2-0.1,0.3-0.2,0.5
	c-0.2,0.3-0.6,0.7-1.1,1.4s-0.9,1.2-1.2,1.5c0.4,0.8,0.7,1.5,0.9,2.1l3.9,0.6c0.2,0,0.3,0.1,0.4,0.3C93.7,80.9,93.7,81.1,93.7,81.3z
	 M110.2,95v3.6c0,0.3-1.3,0.5-3.8,0.8c-0.2,0.5-0.5,0.9-0.8,1.3c0.9,1.9,1.3,3.1,1.3,3.5c0,0.1,0,0.1-0.1,0.2
	c-2.1,1.2-3.2,1.8-3.2,1.8c-0.1,0-0.5-0.4-1.2-1.2s-1.1-1.4-1.3-1.7c-0.3,0-0.6,0.1-0.8,0.1c-0.2,0-0.4,0-0.8-0.1
	c-0.2,0.4-0.7,0.9-1.3,1.7c-0.7,0.8-1,1.2-1.2,1.2c0,0-1.1-0.6-3.2-1.8c-0.1-0.1-0.1-0.1-0.1-0.2c0-0.4,0.4-1.6,1.3-3.5
	c-0.3-0.4-0.6-0.9-0.8-1.3c-2.6-0.3-3.8-0.5-3.8-0.8V95c0-0.3,1.3-0.5,3.8-0.8c0.2-0.5,0.5-0.9,0.8-1.3c-0.9-1.9-1.3-3.1-1.3-3.5
	c0-0.1,0-0.1,0.1-0.2c0.1,0,0.4-0.2,0.9-0.5c0.5-0.3,1-0.6,1.5-0.9c0.5-0.3,0.7-0.4,0.8-0.4c0.1,0,0.5,0.4,1.2,1.2
	c0.7,0.8,1.1,1.4,1.3,1.7c0.3,0,0.6-0.1,0.8-0.1c0.2,0,0.4,0,0.8,0.1c0.9-1.2,1.7-2.2,2.4-2.9l0.2-0.1c0.1,0,1.1,0.6,3.2,1.8
	c0.1,0.1,0.1,0.1,0.1,0.2c0,0.4-0.4,1.6-1.3,3.5c0.3,0.4,0.5,0.8,0.8,1.3C108.9,94.5,110.2,94.7,110.2,95z M110.2,68.7v3.6
	c0,0.3-1.3,0.5-3.8,0.8c-0.2,0.5-0.5,0.9-0.8,1.3c0.9,1.9,1.3,3.1,1.3,3.5c0,0.1,0,0.1-0.1,0.2c-2.1,1.2-3.2,1.8-3.2,1.8
	c-0.1,0-0.5-0.4-1.2-1.2s-1.1-1.4-1.3-1.7c-0.3,0-0.6,0.1-0.8,0.1c-0.2,0-0.4,0-0.8-0.1c-0.2,0.4-0.7,0.9-1.3,1.7
	c-0.7,0.8-1,1.2-1.2,1.2c0,0-1.1-0.6-3.2-1.8c-0.1-0.1-0.1-0.1-0.1-0.2c0-0.4,0.4-1.6,1.3-3.5c-0.3-0.4-0.6-0.9-0.8-1.3
	c-2.6-0.3-3.8-0.5-3.8-0.8v-3.6c0-0.3,1.3-0.5,3.8-0.8c0.2-0.5,0.5-0.9,0.8-1.3c-0.9-1.9-1.3-3.1-1.3-3.5c0-0.1,0-0.1,0.1-0.2
	c0.1,0,0.4-0.2,0.9-0.5s1-0.6,1.5-0.9C96.7,61.1,97,61,97,61c0.1,0,0.5,0.4,1.2,1.2c0.7,0.8,1.1,1.4,1.3,1.7c0.3,0,0.6-0.1,0.8-0.1
	c0.2,0,0.4,0,0.8,0.1c0.9-1.2,1.7-2.2,2.4-2.9l0.2-0.1c0.1,0,1.1,0.6,3.2,1.8c0.1,0.1,0.1,0.1,0.1,0.2c0,0.4-0.4,1.6-1.3,3.5
	c0.3,0.4,0.5,0.8,0.8,1.3C108.9,68.1,110.2,68.4,110.2,68.7z"/>
<g>
	<path class="st2" d="M96.2,163.8h1.1l0.3,3.1l2-3.1h1.1l-3,4.5h-0.9L96.2,163.8z"/>
	<path class="st2" d="M101.4,163.8h3.3l-0.2,0.9h-2.4l-0.3,0.9h2l-0.2,0.9h-2.1l-0.3,0.9h2.4l-0.2,0.9h-3.4L101.4,163.8z"/>
	<path class="st2" d="M106.9,166.9h-0.7l-0.4,1.4h-1l1.2-4.5h1.6c0.5,0,1,0.1,1.4,0.4c0.2,0.2,0.4,0.6,0.4,0.9
		c0,0.4-0.1,0.8-0.4,1.1c-0.3,0.3-0.6,0.5-1,0.5l0.8,1.5h-1.2L106.9,166.9z M107.3,166c0.3,0,0.6-0.1,0.9-0.3
		c0.1-0.1,0.2-0.3,0.2-0.4c0-0.1,0-0.3-0.1-0.4c-0.2-0.1-0.4-0.2-0.6-0.2h-0.8l-0.3,1.3L107.3,166L107.3,166z"/>
	<path class="st2" d="M110.9,163.8h1l-1.2,4.5h-1L110.9,163.8z"/>
	<path class="st2" d="M113.3,163.8h3.4l-0.3,0.9H114l-0.3,1h2.2l-0.2,0.9h-2.2l-0.5,1.7h-1L113.3,163.8z"/>
	<path class="st2" d="M117.8,163.8h1l-1.2,4.5h-1L117.8,163.8z"/>
	<path class="st2" d="M120.1,163.8h3.3l-0.2,0.9h-2.4l-0.3,0.9h2.1l-0.2,0.9h-2.1l-0.3,0.9h2.4l-0.2,0.9h-3.4L120.1,163.8z"/>
	<path class="st2" d="M124.6,163.8h1.3c0.6-0.1,1.3,0.2,1.8,0.6c0.3,0.4,0.5,0.8,0.5,1.3c0,0.7-0.3,1.3-0.7,1.8
		c-0.6,0.6-1.5,0.9-2.3,0.8h-1.7L124.6,163.8z M125.9,164.7h-0.5l-0.7,2.7h0.6c0.6,0,1.1-0.2,1.5-0.5c0.3-0.3,0.4-0.7,0.4-1.1
		c0-0.3-0.1-0.5-0.3-0.7C126.7,164.8,126.3,164.7,125.9,164.7z"/>
	<path class="st3" d="M110,150.9l-1.5-4.2c0-0.1-0.1-0.1-0.1-0.2c0-0.2,0.2-0.4,0.4-0.4c0,0,0,0,0,0c0.2,0,0.3,0.1,0.4,0.3l1.3,3.6
		l1.3-3.6c0.1-0.2,0.2-0.3,0.4-0.3h0.1c0.2,0,0.3,0.1,0.4,0.3l1.2,3.6l1.3-3.6c0.1-0.2,0.2-0.3,0.4-0.3c0.2,0,0.3,0.1,0.4,0.3
		c0,0,0,0,0,0.1c0,0.1,0,0.1-0.1,0.2l-1.5,4.2c-0.1,0.2-0.2,0.3-0.4,0.3l0,0c-0.2,0-0.3-0.1-0.4-0.3l-1.3-3.6l-1.2,3.6
		c-0.1,0.2-0.2,0.3-0.4,0.3h-0.1C110.2,151.2,110,151,110,150.9"/>
	<path class="st3" d="M121,146.5c0-0.2,0.1-0.4,0.4-0.4c0.2,0,0.4,0.1,0.4,0.3c0,0,0,0,0,0.1v0.9c0.3-0.7,0.9-1.1,1.7-1.2
		c0.2,0,0.4,0.2,0.4,0.4c0,0.2-0.1,0.4-0.3,0.4c-1,0.1-1.8,0.8-1.8,2.3v1.7c0,0.2-0.1,0.4-0.4,0.4c-0.2,0-0.4-0.1-0.4-0.3
		c0,0,0,0,0,0L121,146.5"/>
	<path class="st3" d="M126.2,151.2c-1.3,0-2.4-1.1-2.4-2.4c0-0.1,0-0.1,0-0.2v0c-0.1-1.3,0.9-2.5,2.3-2.6c0,0,0,0,0.1,0
		c1.4,0,2.2,1.2,2.2,2.5c0,0.2-0.2,0.4-0.4,0.4l0,0h-3.5c0,0.9,0.8,1.7,1.7,1.7c0.5,0,1-0.2,1.4-0.6c0-0.1,0.1-0.1,0.2-0.1
		c0.2,0,0.3,0.1,0.3,0.3c0,0,0,0,0,0.1c0,0.1,0,0.2-0.1,0.2C127.5,151,126.9,151.3,126.2,151.2 M127.6,148.4
		c-0.1-0.9-0.6-1.7-1.5-1.7c-0.9,0.1-1.6,0.8-1.6,1.7H127.6z"/>
	<path class="st3" d="M115.7,149.7L115.7,149.7c0-1.1,0.9-1.6,2.1-1.6c0.5,0,1,0.1,1.5,0.2v-0.2c0-0.9-0.6-1.3-1.5-1.3
		c-0.4,0-0.8,0.1-1.2,0.2c0,0-0.1,0-0.1,0c-0.2,0-0.3-0.2-0.3-0.3c0-0.1,0.1-0.2,0.2-0.3c0.5-0.2,1-0.3,1.5-0.3
		c0.6,0,1.2,0.2,1.6,0.5c0.4,0.4,0.5,0.9,0.5,1.4v2.7c0,0.2-0.2,0.4-0.4,0.4c-0.2,0-0.4-0.2-0.4-0.4c0,0,0,0,0,0v-0.5
		c-0.4,0.5-1.1,0.9-1.8,0.9C116.7,151.2,115.7,150.7,115.7,149.7 M119.4,149.3v-0.5c-0.5-0.1-1-0.2-1.4-0.2c-0.9,0-1.4,0.4-1.4,1v0
		c0,0.6,0.6,1,1.3,1C118.6,150.7,119.3,150.2,119.4,149.3C119.4,149.4,119.4,149.3,119.4,149.3L119.4,149.3z"/>
	<path class="st3" d="M96.6,146.4c-0.2-0.4-0.6-0.5-0.9-0.4c-0.3,0.1-0.5,0.5-0.4,0.9c0,0,0,0,0,0l1.6,3.4c0.3,0.6,0.5,0.8,1,0.8
		c0.5,0,0.7-0.3,1-0.8c0,0,1.4-3,1.4-3c0,0,0.1-0.1,0.2-0.1c0.1,0,0.2,0.1,0.2,0.2c0,0,0,0,0,0v2.9c0,0.4,0.3,0.8,0.7,0.8
		c0.4,0,0.8-0.3,0.8-0.7c0,0,0-0.1,0-0.1v-2.4c0-0.4,0.3-0.8,0.7-0.8c0,0,0,0,0,0c0.4,0,0.7,0.3,0.7,0.7c0,0,0,0.1,0,0.1v2.4
		c0,0.4,0.3,0.8,0.7,0.8c0.4,0,0.8-0.3,0.8-0.7c0,0,0-0.1,0-0.1v-2.4c0-0.4,0.3-0.8,0.7-0.8c0,0,0,0,0,0c0.4,0,0.7,0.3,0.7,0.7
		c0,0,0,0,0,0.1v2.4c0,0.4,0.3,0.8,0.7,0.8c0.4,0,0.8-0.3,0.8-0.7c0,0,0-0.1,0-0.1v-2.7c0-0.9-0.8-1.7-1.7-1.7c0,0-0.1,0-0.1,0
		c-0.6,0-1.2,0.2-1.6,0.7c-0.4-0.5-0.9-0.7-1.5-0.7c-0.6,0.1-1.1,0.3-1.5,0.7c-0.3-0.4-0.8-0.7-1.3-0.7c-0.7,0-1.4,0.4-1.6,1.1
		l-1,2.4L96.6,146.4"/>
	<path class="st3" d="M128.4,146.8L128.4,146.8c0-0.3,0.3-0.6,0.6-0.6s0.6,0.3,0.6,0.6l0,0c0,0.3-0.3,0.6-0.6,0.6
		S128.4,147.1,128.4,146.8 M129.5,146.8L129.5,146.8c0-0.2-0.2-0.5-0.4-0.5c-0.3,0-0.5,0.2-0.5,0.5l0,0c0,0.3,0.2,0.5,0.5,0.5
		C129.3,147.2,129.5,147.1,129.5,146.8C129.5,146.8,129.5,146.8,129.5,146.8L129.5,146.8z"/>
	<path class="st3" d="M128.8,146.5C128.8,146.5,128.8,146.5,128.8,146.5l0.3-0.1c0.1,0,0.1,0,0.2,0.1c0,0,0.1,0.1,0.1,0.1l0,0
		c0,0.1,0,0.2-0.1,0.2l0.1,0.1c0,0,0,0.1,0,0.1c0,0,0,0.1-0.1,0.1c0,0-0.1,0-0.1,0l-0.1-0.2h-0.1v0.1c0,0,0,0.1-0.1,0.1
		c0,0-0.1,0-0.1-0.1L128.8,146.5z M129,146.7C129.1,146.7,129.1,146.7,129,146.7L129,146.7c0.1-0.2,0-0.2,0-0.2h-0.1v0.2H129z"/>
	<path class="st3" d="M95.2,157.6L95.2,157.6c0-1.8,1.4-3.3,3.3-3.4c0,0,0.1,0,0.1,0c1,0,1.9,0.3,2.6,1l-0.7,0.9
		c-0.5-0.5-1.1-0.8-1.8-0.8c-1.2,0-2.2,1-2.2,2.2c0,0,0,0.1,0,0.1v0c-0.1,1.2,0.8,2.2,2.1,2.3c0,0,0.1,0,0.1,0
		c0.7,0,1.4-0.3,1.9-0.8l0.7,0.7c-1.2,1.4-3.4,1.6-4.8,0.3C95.6,159.5,95.2,158.6,95.2,157.6z"/>
	<path class="st3" d="M102.4,154.2h1.2v5.5h3.4v1.1h-4.6C102.5,160.8,102.4,154.2,102.4,154.2z"/>
	<path class="st3" d="M107.5,157.6L107.5,157.6c0-1.8,1.5-3.4,3.3-3.4c0,0,0.1,0,0.1,0c1.8-0.1,3.4,1.4,3.4,3.2c0,0,0,0.1,0,0.1v0
		c0,1.8-1.4,3.4-3.3,3.4c-0.1,0-0.1,0-0.2,0c-1.9,0-3.4-1.4-3.4-3.3C107.5,157.7,107.5,157.6,107.5,157.6z M113.2,157.6L113.2,157.6
		c0-1.2-0.9-2.3-2.2-2.3c0,0,0,0-0.1,0c-1.2,0-2.2,1-2.2,2.2c0,0,0,0.1,0,0.1v0c-0.1,1.2,0.9,2.3,2.1,2.3c1.2,0.1,2.3-0.9,2.3-2.1
		C113.2,157.7,113.2,157.6,113.2,157.6z"/>
	<path class="st3" d="M115.7,158v-3.8h1.2v3.8c0,1.2,0.6,1.9,1.7,1.9s1.6-0.6,1.6-1.8v-3.8h1.2v3.7c0,2-1.1,2.9-2.8,2.9
		S115.7,159.9,115.7,158z"/>
	<path class="st3" d="M122.9,154.2h2.4c1.8-0.1,3.4,1.3,3.5,3.1c0,0.1,0,0.1,0,0.2v0c0,1.8-1.4,3.3-3.2,3.3c-0.1,0-0.2,0-0.3,0h-2.4
		V154.2z M124,155.3v4.5h1.3c1.2,0.1,2.2-0.8,2.3-2c0-0.1,0-0.1,0-0.2v0c0-1.2-0.9-2.2-2.1-2.2c-0.1,0-0.1,0-0.2,0L124,155.3z"/>
	<path class="st3" d="M128.6,154.7h-0.3v-0.1h0.6v0.1H128.6l0.1,0.6h-0.1C128.5,155.3,128.6,154.7,128.6,154.7z"/>
	<path class="st3" d="M129.1,154.6h0.1l0.2,0.4l0.2-0.4h0.1v0.8h-0.1v-0.5l-0.2,0.4l0,0l-0.2-0.4v0.5h-0.1V154.6z"/>
	
		<linearGradient id="SVGID_1_" gradientUnits="userSpaceOnUse" x1="134.8168" y1="1109.0818" x2="166.3131" y2="1119.925" gradientTransform="matrix(1 0 0 1 0 -957.51)">
		<stop  offset="7.000000e-02" style="stop-color:#6DB344"/>
		<stop  offset="0.94" style="stop-color:#0995D3"/>
	</linearGradient>
	<path class="st4" d="M139.3,150.8l8.6-8.6h2.3l-8.5,8.5c-0.7-0.1-1.4-0.1-2.1,0C139.5,150.8,139.4,150.8,139.3,150.8z M161.1,152.7
		c-0.1-1-0.5-1.9-1-2.8l7.7-7.6h-2.3l-6.3,6.3c-3-3.5-8.2-3.9-11.6-0.9c-1.8,1.6-2.9,3.9-2.9,6.3c0,0.6,0.1,1.2,0.2,1.8l1-1
		c0.2-0.2,0.4-0.4,0.5-0.6V154c0-3.7,2.9-6.7,6.6-6.7c3,0,5.7,2,6.4,4.9c-0.3-0.1-0.6-0.1-1-0.1c-2.4-0.2-4.9,0.7-6.5,2.6l0,0
		c-0.9,1-6.1,6.3-7.6,7.7h2.3c2.1-2.1,5.6-5.8,6.4-6.6l0,0c1.3-1.5,3.2-2.3,5.2-2c3.9,0.3,6.7,3.1,6.7,6.6c0,3.7-3,6.6-6.6,6.6
		l-17.8,0.1c-3.7,0-6.6-3-6.6-6.6c0-3.7,3-6.6,6.6-6.6c0.7,0,1.5,0.1,2.1,0.3c0.1,0,0.2,0.1,0.4,0.1c0-0.6,0-1.1,0.1-1.7h0
		c-0.8-0.2-1.7-0.3-2.6-0.3c-4.6,0-8.3,3.7-8.3,8.3c0,3.7,2.5,7,6.1,8l-3.7,3.7h2.2l3.5-3.4h0.1l17.8-0.1c4.6,0,8.3-3.7,8.3-8.3
		C166.5,156.9,164.3,153.8,161.1,152.7z"/>
</g>
</svg>
