<svg xmlns="http://www.w3.org/2000/svg" xmlns:xlink="http://www.w3.org/1999/xlink" width="175" height="175" viewBox="0 0 175 175"><defs><clipPath id="a"><rect width="157.011" height="157.008" fill="none"/></clipPath></defs><g transform="translate(486.1 -1474.5) rotate(90)"><circle cx="87.5" cy="87.5" r="87.5" transform="translate(1474.5 486.099) rotate(-90)" fill="#fff"/><g transform="translate(1483.457 477.143) rotate(-90)"><path d="M9.185,71.654h93.949V102.97H9.185Zm0-31.313h93.949V71.657H9.185Zm0-31.32h93.949V40.337H9.185Z" transform="translate(22.918 22.507)" fill="none" stroke="#fff" stroke-linejoin="round" stroke-width="2"/><g transform="translate(0 0)"><g clip-path="url(#a)"><path d="M44.83,17.182,39.608,22.47,37.9,20.747l3.516-3.565L37.9,13.62,39.608,11.9Zm-15.413,0a2.2,2.2,0,1,1,2.2,2.219,2.212,2.212,0,0,1-2.2-2.219m4.872,0a2.2,2.2,0,1,1,2.2,2.219,2.212,2.212,0,0,1-2.2-2.219m-15.882,0L23.632,11.9l1.709,1.723-3.52,3.562,3.52,3.565L23.632,22.47Zm6.137,0a2.2,2.2,0,1,1,2.2,2.219,2.212,2.212,0,0,1-2.2-2.219" transform="translate(45.928 29.683)" fill="#fff"/><path d="M44.83,26.217,39.608,31.5,37.9,29.782l3.516-3.565L37.9,22.655l1.709-1.723Zm-15.413,0a2.2,2.2,0,1,1,2.2,2.219,2.212,2.212,0,0,1-2.2-2.219m4.872,0a2.2,2.2,0,1,1,2.2,2.219,2.212,2.212,0,0,1-2.2-2.219m-15.882,0,5.225-5.285,1.709,1.723-3.52,3.562,3.52,3.565L23.632,31.5Zm6.137,0a2.2,2.2,0,1,1,2.2,2.219,2.212,2.212,0,0,1-2.2-2.219" transform="translate(45.928 52.226)" fill="#fff"/><path d="M44.83,35.252,39.608,40.54,37.9,38.817l3.516-3.565L37.9,31.69l1.709-1.723Zm-15.413,0a2.2,2.2,0,1,1,2.2,2.219,2.212,2.212,0,0,1-2.2-2.219m4.872,0a2.2,2.2,0,1,1,2.2,2.219,2.212,2.212,0,0,1-2.2-2.219m-15.882,0,5.225-5.285,1.709,1.723-3.52,3.562,3.52,3.565L23.632,40.54Zm6.137,0a2.2,2.2,0,1,1,2.2,2.219,2.212,2.212,0,0,1-2.2-2.219" transform="translate(45.928 74.77)" fill="#fff"/></g></g><g transform="translate(1.044 0)"><path d="M51.189,38.015l-7.344-4.344a3.607,3.607,0,0,0-4.957,1.268A3.622,3.622,0,0,0,40.155,39.9l7.353,4.344a3.574,3.574,0,0,0,1.843.506,3.618,3.618,0,0,0,1.838-6.731Z" transform="translate(73.211 63.259)" fill="#57575d"/><path d="M39.863,40.171a3.618,3.618,0,1,0-6.243,3.661L37.932,51.2a3.629,3.629,0,0,0,4.954,1.291,3.621,3.621,0,0,0,1.288-4.952Z" transform="translate(63.19 73.218)" fill="#57575d"/><path d="M41.315,10.341a3.606,3.606,0,0,0-2.774-.189,3.559,3.559,0,0,0-2.073,1.808L32.644,19.6a3.619,3.619,0,0,0,6.475,3.233l3.815-7.641a3.618,3.618,0,0,0-1.62-4.85Z" transform="translate(61.546 18.999)" fill="#57575d"/><path d="M43.5,27.223,50.545,22.4a3.617,3.617,0,0,0-4.088-5.969l-7.048,4.824A3.618,3.618,0,0,0,43.5,27.223Z" transform="translate(72.189 30.143)" fill="#57575d"/><path d="M78.5,0a78.5,78.5,0,1,0,78.5,78.5A78.5,78.5,0,0,0,78.5,0ZM60.867,22.9c-4.521,5.487-8.289,12.819-11.025,21.484H31.172A58.27,58.27,0,0,1,60.867,22.9ZM55.435,51.618H74.823V74.89H52.24A106.9,106.9,0,0,1,55.435,51.618Zm-28.735,0H47.873A116.857,116.857,0,0,0,45,74.89H20.24A57.563,57.563,0,0,1,26.7,51.615ZM20.24,82.127H45.009A116.639,116.639,0,0,0,47.954,105.4H26.7A57.63,57.63,0,0,1,20.24,82.127Zm10.935,30.506H49.958c2.809,8.772,6.673,16.143,11.3,21.6A58.247,58.247,0,0,1,31.175,112.633Zm43.651,23.348c-6.751-3.2-12.875-11.549-17.082-23.348H74.826Zm0-30.582h-19.3a106.261,106.261,0,0,1-3.28-23.272h22.58Zm0-61.015h-17.2c4.2-11.973,10.386-20.478,17.2-23.65ZM82.06,136.7V84.427l26.116,4.635a3.617,3.617,0,0,0,3.608-5.632,3.578,3.578,0,0,0-2.338-1.489L86.613,77.885,106.873,49.3a3.615,3.615,0,1,0-5.914-4.161L82.06,71.8V20.3a58.312,58.312,0,0,1,0,116.4Z" fill="#57575d"/><path d="M52.562,25.756H44.028a3.618,3.618,0,0,0,0,7.237h8.534a3.618,3.618,0,1,0,0-7.237Z" transform="translate(77.092 49.131)" fill="#57575d"/></g></g></g></svg>