<?xml version="1.0" encoding="utf-8"?>
<!-- Generator: Adobe Illustrator 23.0.3, SVG Export Plug-In . SVG Version: 6.00 Build 0)  -->
<svg version="1.1" id="Layer_1" xmlns="http://www.w3.org/2000/svg" xmlns:xlink="http://www.w3.org/1999/xlink" x="0px" y="0px"
	 viewBox="0 0 461.2 466" style="enable-background:new 0 0 461.2 466;" xml:space="preserve">
<style type="text/css">
	.st0{fill:#191816;}
	.st1{fill:#FFFFFF;}
	.st2{fill:#ED1C24;}
	.st3{fill:#ED1C24;stroke:#191816;stroke-width:9.2572;stroke-miterlimit:10;}
	.st4{fill:none;stroke:#191816;stroke-width:9.2386;stroke-miterlimit:10;}
	.st5{fill:#FFFFFF;stroke:#191816;stroke-width:9.514;stroke-miterlimit:10;}
	.st6{fill:#FFFFFF;stroke:#191816;stroke-width:9.2386;stroke-miterlimit:10;}
	.st7{fill:#ED1C24;stroke:#191816;stroke-width:9.2547;stroke-miterlimit:10;}
	.st8{fill:#181715;}
	.st9{fill:#E62F25;}
</style>
<g>
	<g>
		<path class="st0" d="M15.8,214.1l0.1-0.9c6.3-47,38.8-85.1,81-96.7c0.4-30.4,11.6-56.1,32.4-74.5c19.5-17.2,46.7-26.8,76.5-26.9
			h0.5c26.9,0,50.9,6.8,69.3,19.8c15.8,11.1,27.2,26.4,33.7,45c11-3.9,22.6-6,34.2-6h0.3c28.3,0,54.4,11.5,73.5,32.3
			c20.5,22.3,30.5,53.6,27.7,85.7l-1.1,12.9h-5.5c0.7,3.7,1.2,7.7,0.3,11.8l-2.3,11.2l-196.1,0.7l-14.2,0.1L104.5,429.3l-88.9,1.3
			L15.8,214.1z"/>
		<g>
			<path class="st0" d="M206.5,29.1c46.6,0,85.4,22.4,93.5,70.4c13.1-7.4,27.9-11.6,43.7-11.7c0.1,0,0.2,0,0.3,0
				c52.5,0,92.2,45.9,87.2,102.7c0,0,0,0,0,0c-14.3,0-4.5,15.6-6.1,23.1l-173.8,0.6l-10.9,0l-22.1,0.1l-121.9,201l-59.1,0.9
				l-7.7,0.1L29.9,215c6.1-45.4,39.4-81.2,81.6-87.2c-0.3-3.1-0.4-6.2-0.4-9.4c-0.2-56.9,42.3-89.1,94.9-89.3
				C206.1,29.1,206.3,29.1,206.5,29.1 M206.5,0.9h-0.6c-33.3,0.1-63.7,10.9-85.8,30.4c-11.9,10.5-21.2,23.3-27.5,37.9
				c-4.9,11.4-8,23.7-9.2,36.8c-17.5,6.5-33.6,17.3-46.8,31.3C17.7,157.6,5.7,183.2,2,211.3l-0.2,1.8v1.9L1.5,416.3l0,28.6l28.6-0.4
				l7.7-0.1l59.1-0.9l15.6-0.2l8.1-13.3l113.7-187.5l6.3,0l10.9,0l173.8-0.6l22.8-0.1l4.7-22.4c0-0.2,0.1-0.4,0.1-0.6h4.2l2.3-25.7
				c1.6-18.3-0.4-36.1-5.9-52.9c-5.4-16.4-14-31.1-25.4-43.6c-21.8-23.8-51.6-36.9-83.9-36.9h-0.4c-8.7,0-17.5,1.1-26,3
				C298.6,23.9,258.5,0.9,206.5,0.9L206.5,0.9z"/>
		</g>
	</g>
	<g>
		<path class="st1" d="M36.1,208.7l0-0.2c6.1-48.8,39.2-87.6,81-95.6c-0.1-2.5-0.2-4.8-0.2-7.2c-0.1-29.6,9.8-54,28.7-70.5
			C163,20,187,12,215,11.9h0.6c25.6,0,46.7,5.5,62.9,16.5c17.2,11.6,28.2,29,32.8,51.8c12.8-6.8,26.9-10.4,41-10.5h0.3
			c54.1,0,98.3,50.8,98.5,113.2c0,8.4-0.8,16.9-2.4,25.3l-0.5,2.8l-220.2,0.7L36,266.3L36.1,208.7z"/>
		<g>
			<path class="st0" d="M215.6,15.4c46.4,0,85.1,18.9,93.2,70.2c13-7.9,27.8-12.4,43.5-12.4c0.1,0,0.2,0,0.3,0
				c52.3,0,94.8,49.1,95,109.8c0,8.5-0.8,16.7-2.3,24.6l-185,0.6l-10.8,0l-22,0.1L39.5,261.7l0.1-52.8c6-48.5,39.3-86.7,81.3-93.2
				c-0.3-3.3-0.4-6.6-0.4-10c-0.2-60.8,42.1-90.1,94.6-90.3C215.2,15.4,215.4,15.4,215.6,15.4 M215.6,8.4H215
				c-28.9,0.1-53.6,8.4-71.6,24.1c-19.7,17.2-30,42.5-29.9,73.1c0,1.4,0,2.9,0.1,4.4C94,114.5,75.7,125.7,61.5,142
				c-15.7,18-25.7,40.9-28.8,66l-0.1,0.4v0.4l-0.1,52.8l0,9.2l8.8-2.5l187-53.2l21-0.1l10.8,0l185-0.6l5.7,0l1.1-5.6
				c1.7-8.6,2.5-17.3,2.5-26c-0.1-31-10.6-60.2-29.6-82.2c-19.3-22.3-44.9-34.5-72.3-34.5h-0.3c-13.2,0-26.4,3.1-38.6,8.9
				C303,32,268.6,8.4,215.6,8.4L215.6,8.4z"/>
		</g>
	</g>
	<g>
		<g>
			<path class="st0" d="M192.4,30.6l2,7.9c9.9-3.9,20.7-6,31.9-6c13.2,0,25.8,3,37,8.2c-13.5-8.5-29.4-13.5-46.6-13.5
				C208.3,27.1,200.2,28.4,192.4,30.6z"/>
		</g>
		<g>
			<path class="st0" d="M350.9,83.7c0.8,2.8,1.4,5.6,1.9,8.5c9.2-2.2,19-2.2,28.7,0.2c8.5,2.1,16.2,5.9,22.8,10.9
				c-8-8.7-18.5-15.3-30.8-18.3C365.9,83.1,358.2,82.8,350.9,83.7z"/>
		</g>
	</g>
	<g>
		<path class="st0" d="M164.1,228.4v-15.5l137.2-82.1c0.4,27.2,1.7,116.3,2.1,140.9L164.1,228.4z"/>
		<path class="st0" d="M296.7,138.8c0.4,27.8,1.3,85.8,1.9,126.6L168.7,225v-9.5L296.7,138.8 M305.7,122.6
			C305.7,122.6,305.7,122.6,305.7,122.6l-146.3,87.6v21.6L308,278C308,278,305.8,122.6,305.7,122.6L305.7,122.6z"/>
	</g>
	<path class="st2" d="M305.7,134l-146.3,87.6v21.6L308,289.4C308,289.4,305.7,132.3,305.7,134z"/>
	<g>
		<polygon class="st0" points="291.9,145 145.6,232.6 145.6,254.2 291.9,299.6 		"/>
	</g>
	<polygon class="st3" points="154.2,185 7.9,251.2 7.9,411.3 154.2,411.3 451.4,411.3 451.4,297.4 	"/>
	<polygon class="st1" points="303,242.7 156.7,187 154.9,409 301.6,409.7 	"/>
	<line class="st4" x1="154.2" y1="409" x2="154.2" y2="187.7"/>
	<polyline class="st5" points="452.1,406.7 452.1,176.8 451.4,176 306.3,127.8 302,131.1 302,441.4 	"/>
	<line class="st4" x1="98.8" y1="409" x2="98.8" y2="210.8"/>
	<line class="st4" x1="52.6" y1="413.6" x2="52.6" y2="229.3"/>
	<line class="st4" x1="248.1" y1="409" x2="248.1" y2="220"/>
	<line class="st4" x1="198.3" y1="413.6" x2="198.3" y2="203.9"/>
	<line class="st4" x1="361.2" y1="443.7" x2="361.2" y2="143.5"/>
	<line class="st4" x1="302.1" y1="443.7" x2="302.1" y2="240.1"/>
	<line class="st4" x1="410.3" y1="443.7" x2="410.3" y2="160"/>
	<line class="st4" x1="156.1" y1="267.8" x2="450.5" y2="332.8"/>
	<line class="st4" x1="156.1" y1="338.9" x2="450.5" y2="373.7"/>
	<line class="st4" x1="154.6" y1="187.3" x2="449" y2="290.8"/>
	<path class="st6" d="M450.6,383.6"/>
	<path class="st6" d="M154.2,316.7"/>
	<g>
		<polygon class="st0" points="42.3,402.6 14.1,402.4 14.1,256.2 42.3,243.7 		"/>
	</g>
	<g>
		<polygon class="st0" points="88.6,402 59,402.4 59,236.1 88.6,222.3 		"/>
	</g>
	<g>
		<polygon class="st0" points="143.8,402.4 105.3,401.7 105.3,215.3 143.8,197.8 		"/>
	</g>
	<path class="st1" d="M131.4,217.2c0.3,1.3-0.5,2.7-1.9,3.2c-1.4,0.5-2.7-0.1-3-1.3s0.5-2.7,1.9-3.2
		C129.7,215.3,131.1,215.9,131.4,217.2 M138.2,214.5l-4.5,7.7l-2.3-1l3-5.2l-4.8-2.1l1.5-2.5L138.2,214.5z M120.5,221.4
		c0.3,1.3-0.5,2.7-1.9,3.2c-1.4,0.5-2.7-0.1-3-1.3c-0.3-1.3,0.5-2.7,1.9-3.2C118.9,219.6,120.2,220.2,120.5,221.4 M126,219.3
		c0.3,1.3-0.5,2.7-1.9,3.2c-1.4,0.5-2.7-0.1-3-1.3c-0.3-1.3,0.5-2.7,1.9-3.2C124.3,217.4,125.7,218,126,219.3 M108.8,226l4.5-7.7
		l2.3,1l-3,5.2l4.8,2.1l-1.5,2.5L108.8,226z"/>
	<path class="st7" d="M6.1,409.6v52.1h27.7c37-4.5,110.9-7.6,195.9-7.6s158.8,3.1,195.9,7.6h26.7v-52.1H6.1z"/>
	<g>
		<polygon class="st2" points="121.4,249.3 111.9,253.5 111.9,247.1 121.4,243 		"/>
		<polygon class="st2" points="121.4,312.7 111.9,316.9 111.9,302.1 121.4,298 		"/>
		<polygon class="st2" points="135.5,263.7 126,267.8 126,253.1 135.5,248.9 		"/>
		<polygon class="st2" points="121.6,291.8 112.1,296 112.1,274.3 121.6,270.2 		"/>
		<polygon class="st2" points="135.5,307 126,311.2 126,292.6 135.5,288.5 		"/>
		<polygon class="st2" points="121.4,334.7 111.9,338.8 111.9,324.1 121.4,320 		"/>
		<polygon class="st2" points="135.5,243.2 126,247.3 126,241 135.5,236.8 		"/>
	</g>
	<g>
		<polygon class="st2" points="30.2,314.1 38,310.7 38,341.2 30.2,344.6 		"/>
		<polygon class="st2" points="30.2,297.3 38,293.9 38,306 30.2,309.4 		"/>
		<polygon class="st2" points="18.7,293.1 26.4,289.7 26.4,305 18.7,308.4 		"/>
		<polygon class="st2" points="30.2,262.4 38,259 38,271.1 30.2,274.4 		"/>
	</g>
	<g>
		<polygon class="st2" points="71.8,259.7 63.5,263.4 63.5,257.8 71.8,254.1 		"/>
		<polygon class="st2" points="71.8,297.6 63.5,301.2 63.5,268.5 71.8,264.8 		"/>
		<polygon class="st2" points="71.8,315.7 63.5,319.3 63.5,306.3 71.8,302.7 		"/>
		<polygon class="st2" points="71.8,353.2 63.5,356.8 63.5,343.8 71.8,340.2 		"/>
	</g>
	<rect x="13.6" y="416.7" class="st8" width="430.6" height="40.9"/>
	<g>
		<g>
			<path class="st1" d="M55,433.7c1.8,0,2.7-0.1,4.6-0.1c0,1.2,0,1.8,0,3c-1.8,0.1-2.7,0.1-4.6,0.2c0,2.5,0,3.7,0,6.1
				c2.3-0.1,3.4-0.2,5.7-0.3c0,1.2,0,1.8,0,2.9c-3.6,0.2-5.4,0.3-9,0.5c0-8.4,0-12.7,0-21.1c3.6,0,5.4,0,9,0c0,1.2,0,1.8,0,2.9
				c-2.3,0-3.4,0-5.7,0C55,430.2,55,431.3,55,433.7z"/>
			<path class="st1" d="M77.2,424.8c-1.4,3.8-2.1,5.7-3.5,9.6c1.5,4,2.2,6,3.7,10c-1.4,0.1-2.1,0.1-3.5,0.2
				c-1.1-3.1-1.6-4.6-2.7-7.8c0,0,0,0-0.1,0c-1.1,3.2-1.6,4.8-2.7,8c-1.2,0.1-1.9,0.1-3.1,0.2c1.5-4.3,2.2-6.4,3.7-10.5
				c-1.4-3.9-2.1-5.8-3.5-9.8c1.4,0,2.1,0,3.4,0c1,3,1.5,4.4,2.5,7.4c0,0,0,0,0.1,0c1-3,1.5-4.4,2.5-7.4
				C75.3,424.8,76,424.8,77.2,424.8z"/>
			<path class="st1" d="M92.2,429.5c0,1,0,1.5,0,2.5c0,3-1.6,4.7-4.9,4.8c-0.6,0-0.9,0-1.6,0c0,2.9,0,4.3,0,7.2
				c-1.3,0.1-2,0.1-3.3,0.2c0-7.8,0-11.6,0-19.4c1.9,0,2.9,0,4.9,0C90.6,424.8,92.2,426.5,92.2,429.5z M85.7,427.6
				c0,2.6,0,3.9,0,6.5c0.6,0,0.9,0,1.6,0c1.1,0,1.6-0.5,1.6-1.8c0-1.1,0-1.7,0-2.9c0-1.4-0.6-1.8-1.6-1.8
				C86.6,427.6,86.3,427.6,85.7,427.6z"/>
			<path class="st1" d="M100.4,432.6c1.8,0,2.7,0,4.6-0.1c0,1,0,1.6,0,2.6c-1.8,0-2.7,0.1-4.6,0.1c0,2.2,0,3.2,0,5.4
				c2.3-0.1,3.4-0.1,5.7-0.2c0,1,0,1.6,0,2.6c-3.6,0.2-5.4,0.2-9,0.4c0-7.5,0-11.2,0-18.7c3.6,0,5.4,0,9,0c0,1,0,1.6,0,2.6
				c-2.3,0-3.4,0-5.7,0C100.4,429.5,100.4,430.6,100.4,432.6z"/>
			<path class="st1" d="M111.5,424.8c2.1,0,3.1,0,5.2,0c3.3,0,4.9,1.5,4.9,4.4c0,3.6,0,5.4,0,8.9c0,2.8-1.6,4.4-4.9,4.5
				c-2.1,0.1-3.1,0.1-5.2,0.2C111.4,435.6,111.5,432,111.5,424.8z M114.8,427.4c0,5.1,0,7.7,0,12.8c0.8,0,1.1,0,1.9-0.1
				c1.1,0,1.7-0.5,1.7-1.8c0-3.7,0-5.5,0-9.2c0-1.3-0.6-1.7-1.7-1.7C115.9,427.4,115.5,427.4,114.8,427.4z"/>
			<path class="st1" d="M127.1,424.8c1.3,0,2,0,3.3,0c0,6.9,0,10.4,0,17.3c-1.3,0-2,0.1-3.3,0.1
				C127.1,435.3,127.1,431.8,127.1,424.8z"/>
			<path class="st1" d="M139.4,432c1.8,0,2.7,0,4.6-0.1c0,1,0,1.5,0,2.4c-1.8,0-2.7,0-4.6,0.1c0,2,0,3,0,5c2.3-0.1,3.4-0.1,5.7-0.1
				c0,1,0,1.5,0,2.4c-3.6,0.1-5.4,0.2-9,0.3c0-6.9,0-10.3,0-17.1c3.6,0,5.4,0,9,0c0,1,0,1.5,0,2.4c-2.3,0-3.4,0-5.7,0
				C139.4,429.1,139.4,430.1,139.4,432z"/>
			<path class="st1" d="M153.5,429.4C153.5,429.4,153.5,429.4,153.5,429.4c-0.1,4.8-0.1,7.2-0.1,12c-1.2,0-1.8,0-3,0.1
				c0-6.7,0-10,0-16.7c1.7,0,2.5,0,4.2,0c1.3,4,2,6,3.3,9.9c0,0,0,0,0.1,0c0-4,0-5.9,0-9.9c1.2,0,1.8,0,2.9,0c0,6.6,0,9.9,0,16.4
				c-1.4,0-2,0-3.4,0.1C155.9,436.6,155.1,434.2,153.5,429.4z"/>
			<path class="st1" d="M165.7,424.8c4.1,0,6.1,0,10.2,0c0,0.9,0,1.4,0,2.3c-1.4,0-2.1,0-3.5,0c0,5.5,0,8.3,0,13.9
				c-1.3,0-2,0-3.3,0.1c0-5.6,0-8.4,0-13.9c-1.4,0-2.1,0-3.5,0C165.7,426.2,165.7,425.7,165.7,424.8z"/>
			<path class="st1" d="M192,431.5c1.8,0,2.7,0,4.5,0c0,0.9,0,1.4,0,2.3c-1.8,0-2.7,0-4.5,0c0,1.9,0,2.8,0,4.6c2.3,0,3.4,0,5.7-0.1
				c0,0.9,0,1.4,0,2.3c-3.6,0-5.4,0.1-9,0.1c0-6.4,0-9.5,0-15.9c3.6,0,5.4,0,9,0c0,0.9,0,1.4,0,2.3c-2.3,0-3.4,0-5.7,0
				C192,428.8,192,429.7,192,431.5z"/>
			<path class="st1" d="M206.1,429.1C206.1,429.1,206.1,429.1,206.1,429.1c-0.1,4.5-0.1,6.8-0.1,11.4c-1.2,0-1.8,0-3,0
				c0-6.3,0-9.5,0-15.8c1.7,0,2.5,0,4.2,0c1.3,3.8,2,5.6,3.3,9.4c0,0,0,0,0.1,0c0-3.8,0-5.6,0-9.4c1.2,0,1.8,0,3,0
				c0,6.3,0,9.4,0,15.7c-1.4,0-2,0-3.4,0C208.6,435.9,207.7,433.7,206.1,429.1z"/>
			<path class="st1" d="M218.3,424.8c4.1,0,6.1,0,10.2,0c0,0.9,0,1.3,0,2.2c-1.4,0-2.1,0-3.5,0c0,5.4,0,8,0,13.4c-1.3,0-2,0-3.3,0
				c0-5.4,0-8,0-13.4c-1.4,0-2.1,0-3.5,0C218.3,426.1,218.3,425.7,218.3,424.8z"/>
			<path class="st1" d="M236.6,431.4c1.8,0,2.7,0,4.5,0c0,0.9,0,1.3,0,2.2c-1.8,0-2.7,0-4.5,0c0,1.8,0,2.8,0,4.6c2.3,0,3.4,0,5.7,0
				c0,0.9,0,1.3,0,2.2c-3.6,0-5.4,0-9,0c0-6.2,0-9.4,0-15.6c3.6,0,5.4,0,9,0c0,0.9,0,1.3,0,2.2c-2.3,0-3.4,0-5.7,0
				C236.6,428.8,236.6,429.6,236.6,431.4z"/>
			<path class="st1" d="M254.7,440.5c-0.2-0.4-0.3-0.6-0.3-1.9c0-1,0-1.5,0-2.5c0-1.5-0.7-2-2.2-2c-0.5,0-0.7,0-1.1,0
				c0,2.6,0,3.8,0,6.4c-1.3,0-2,0-3.3,0c0-6.3,0-9.4,0-15.7c2,0,3,0,5,0c3.4,0,4.9,1.2,4.9,3.6c0,0.5,0,0.7,0,1.2
				c0,1.6-0.7,2.6-2.2,3.2c0,0,0,0,0,0c1.7,0.5,2.2,1.7,2.2,3.3c0,1,0,1.5,0,2.4c0,0.8,0,1.3,0.4,1.9
				C256.7,440.5,256,440.5,254.7,440.5z M251,427c0,1.9,0,2.9,0,4.8c0.5,0,0.8,0,1.3,0c1.2,0,2-0.4,2-1.6c0-0.6,0-0.9,0-1.5
				c0-1.1-0.5-1.6-1.7-1.6C252,427,251.7,427,251,427z"/>
			<path class="st1" d="M273,428.7c0,0.8,0,1.2,0,2.1c0,2.5-1.6,3.9-4.9,3.9c-0.6,0-0.9,0-1.6,0c0,2.4,0,3.6,0,6c-1.3,0-2,0-3.3,0
				c0-6.3,0-9.5,0-15.8c2,0,2.9,0,4.9,0C271.4,424.8,273,426.2,273,428.7z M266.5,427.1c0,2.1,0,3.2,0,5.4c0.6,0,0.9,0,1.6,0
				c1,0,1.6-0.4,1.6-1.5c0-1,0-1.4,0-2.4c0-1.1-0.6-1.5-1.6-1.5C267.4,427.1,267.1,427.1,266.5,427.1z"/>
			<path class="st1" d="M284.8,440.9c-0.2-0.4-0.3-0.7-0.3-2c0-1,0-1.5,0-2.5c0-1.5-0.7-2.1-2.2-2.1c-0.5,0-0.7,0-1.1,0
				c0,2.6,0,3.9,0,6.5c-1.3,0-2,0-3.3-0.1c0-6.4,0-9.6,0-16c2,0,3,0,5,0c3.4,0,4.9,1.2,4.9,3.7c0,0.5,0,0.8,0,1.3
				c0,1.7-0.7,2.7-2.2,3.2c0,0,0,0,0,0c1.7,0.5,2.2,1.8,2.2,3.5c0,1,0,1.5,0,2.5c0,0.8,0,1.4,0.4,2C286.8,441,286.1,441,284.8,440.9
				z M281.1,427.1c0,2,0,3,0,4.9c0.5,0,0.8,0,1.3,0c1.2,0,2-0.4,2-1.7c0-0.6,0-1,0-1.6c0-1.1-0.5-1.7-1.7-1.7
				C282.1,427.1,281.8,427.1,281.1,427.1z"/>
			<path class="st1" d="M293.3,424.8c1.3,0,2,0,3.3,0c0,6.5,0,9.8,0,16.4c-1.3,0-2,0-3.3-0.1C293.3,434.6,293.3,431.3,293.3,424.8z"
				/>
			<path class="st1" d="M306.7,424.6c3.2,0,4.9,1.5,4.9,4.2c0,0.2,0,0.3,0,0.5c-1.2,0-1.9,0-3.1,0c0-0.3,0-0.4,0-0.7
				c0-1.2-0.6-1.6-1.7-1.6s-1.7,0.4-1.6,1.6c0,1.2,0.7,2.1,2.8,3.6c2.8,2,3.6,3.4,3.7,5.3c0,2.7-1.7,4.2-4.9,4.1
				c-3.3-0.1-5-1.6-5-4.3c0-0.4,0-0.6,0-1c1.2,0,1.9,0,3.1,0.1c0,0.5,0,0.7,0,1.2c0,1.2,0.7,1.6,1.7,1.6s1.7-0.4,1.7-1.6
				c0-1.2-0.7-2.1-2.8-3.7c-2.8-2-3.6-3.3-3.7-5.2C301.9,426.1,303.5,424.6,306.7,424.6z"/>
			<path class="st1" d="M320.2,432c1.8,0,2.7,0,4.5,0.1c0,1,0,1.5,0,2.5c-1.8,0-2.7,0-4.5-0.1c0,2,0,3,0,5c2.3,0.1,3.4,0.1,5.7,0.2
				c0,1,0,1.5,0,2.5c-3.6-0.1-5.4-0.2-9-0.3c0-6.8,0-10.1,0-16.9c3.6,0,5.4,0,9,0c0,1,0,1.5,0,2.5c-2.3,0-3.4,0-5.7,0
				C320.2,429.1,320.2,430.1,320.2,432z"/>
			<path class="st1" d="M348.9,436.1c0,1,0,1.4,0,2.4c0,2.9-1.7,4.5-4.9,4.3s-4.9-1.8-5-4.6c0-3.7,0-5.5,0-9.2
				c0-2.8,1.7-4.4,4.9-4.4s4.9,1.6,5,4.5c0,0.7,0,1,0,1.8c-1.2,0-1.9,0-3.1,0c0-0.8,0-1.1,0-1.9c0-1.3-0.7-1.8-1.7-1.8
				s-1.7,0.5-1.7,1.7c0,3.8,0,5.8,0,9.6c0,1.3,0.7,1.8,1.7,1.8s1.7-0.4,1.7-1.7c0-1,0-1.5,0-2.6C347,436.1,347.6,436.1,348.9,436.1z
				"/>
			<path class="st1" d="M354.2,424.8c1.3,0,2,0,3.3,0c0,6.3,0,9.5,0,15.8c2.2,0.1,3.3,0.1,5.5,0.2c0,1.1,0,1.6,0,2.7
				c-3.5-0.2-5.3-0.2-8.8-0.4C354.2,435.8,354.2,432.1,354.2,424.8z"/>
			<path class="st1" d="M367.5,429.4c0-3,1.8-4.7,5-4.7c3.2,0,5,1.8,5,4.9c0,4,0,6,0,10.1c0,3.1-1.8,4.8-5,4.6s-5-2-5-5
				C367.5,435.2,367.5,433.3,367.5,429.4z M370.8,439.5c0,1.4,0.7,1.9,1.7,2s1.7-0.5,1.7-1.8c0-4.1,0-6.2,0-10.4
				c0-1.4-0.7-1.9-1.7-1.9s-1.7,0.5-1.7,1.9C370.8,433.3,370.8,435.4,370.8,439.5z"/>
			<path class="st1" d="M386.1,424.8c0,6.1,0,9.2,0,15.3c0,1.4,0.7,2,1.7,2c1,0,1.7-0.4,1.7-1.9c0-6.2,0-9.2,0-15.4
				c1.2,0,1.9,0,3.1,0c0,6.1,0,9.2,0,15.4c0,3.2-1.7,5-4.9,4.8s-4.9-2.1-4.9-5.2c0-6,0-9,0-15C384.1,424.8,384.8,424.8,386.1,424.8z
				"/>
			<path class="st1" d="M398.3,424.8c2.1,0,3.1,0,5.2,0c3.3,0,4.9,1.8,4.9,5.2c0,4.3,0,6.4,0,10.7c0,3.4-1.6,5.1-4.9,4.9
				c-2.1-0.1-3.1-0.2-5.2-0.3C398.3,437.1,398.3,433,398.3,424.8z M401.6,427.8c0,5.9,0,8.9,0,14.8c0.8,0,1.1,0.1,1.9,0.1
				c1,0,1.7-0.5,1.7-1.9c0-4.4,0-6.5,0-10.9c0-1.5-0.6-2-1.7-2C402.7,427.8,402.3,427.8,401.6,427.8z"/>
		</g>
	</g>
	<rect x="16.8" y="415.6" class="st2" width="10" height="40.4"/>
	<rect x="30.2" y="415.6" class="st2" width="2.9" height="40.4"/>
	<rect x="36.2" y="415.6" class="st2" width="2.9" height="39.1"/>
	<rect x="423.7" y="415.6" class="st2" width="2.9" height="40.4"/>
	<rect x="429.7" y="415.6" class="st2" width="2.9" height="40.4"/>
	<path class="st9" d="M227.7,449.6c-106.6,0-195.6,2.9-216.9,6.7v2c21.3-3.8,110.4-6.7,216.9-6.7c112.9,0,206.1,3.2,220,7.4v-2
		C433.7,452.8,340.5,449.6,227.7,449.6z"/>
</g>
</svg>
