<svg xmlns="http://www.w3.org/2000/svg" xmlns:xlink="http://www.w3.org/1999/xlink" width="200" height="200" viewBox="0 0 200 200"><defs><clipPath id="a"><rect width="200" height="200" fill="none"/></clipPath></defs><g clip-path="url(#a)"><circle cx="100" cy="100" r="100" fill="#fdfdfd"/><path d="M926.728,269.595a9.784,9.784,0,1,1,9.784,9.868,9.827,9.827,0,0,1-9.784-9.868m-27.269,0,23.208-23.489,7.6,7.659-15.633,15.83,15.633,15.837-7.6,7.659Zm70.571,0a9.788,9.788,0,1,1,9.784,9.868,9.827,9.827,0,0,1-9.784-9.868m-21.651,0a9.788,9.788,0,1,1,9.784,9.868,9.827,9.827,0,0,1-9.784-9.868m68.5,0-23.208,23.5-7.6-7.659,15.627-15.837-15.627-15.83,7.6-7.659Z" transform="translate(-857.733 -169.611)" fill="#f20505"/></g></svg>