<?xml version="1.0" encoding="utf-8"?>
<!-- Generator: Adobe Illustrator 23.0.4, SVG Export Plug-In . SVG Version: 6.00 Build 0)  -->
<svg version="1.1" id="Layer_1" xmlns="http://www.w3.org/2000/svg" xmlns:xlink="http://www.w3.org/1999/xlink" x="0px" y="0px"
	 viewBox="0 0 175.2 175" style="enable-background:new 0 0 175.2 175;" xml:space="preserve">
<style type="text/css">
	.st0{fill:#FFFFFF;}
	.st1{fill:#57575D;}
	.st2{fill:#EB2027;}
</style>
<g transform="translate(328.539 -1182.5) rotate(90)">
	<circle class="st0" cx="1270" cy="240.8" r="87.5"/>
</g>
<g>
	<path class="st1" d="M87.5,9.5C44.6,9.5,9.8,44.3,9.8,87.3S44.6,165,87.5,165s77.7-34.8,77.7-77.7S130.4,9.5,87.5,9.5z"/>
	<g>
		<path class="st2" d="M62.6,40.3L62.6,40.3L62.6,40.3c0-5,3.8-9,9-9c3.5,0,5.7,1.5,7.3,3.6l-3.6,2.8c-1-1.2-2.1-2-3.7-2
			c-2.4,0-4.1,2-4.1,4.5v0.1c0,2.6,1.7,4.6,4.1,4.6c1.8,0,2.8-0.8,3.9-2.1l3.6,2.5c-1.6,2.2-3.8,3.9-7.6,3.9
			C66.6,49.1,62.6,45.4,62.6,40.3z"/>
		<path class="st2" d="M79.9,31.6L79.9,31.6H88c2.6,0,4.4,0.7,5.6,1.9c1,1,1.5,2.3,1.5,4v0.1c0,2.6-1.4,4.4-3.5,5.3l4.1,6h-5.5
			l-3.4-5.2h-0.1h-2v5.2H80L79.9,31.6L79.9,31.6z M87.8,39.9L87.8,39.9c1.6,0,2.5-0.8,2.5-2l0,0c0-1.4-1-2-2.5-2h-3.1V40L87.8,39.9
			L87.8,39.9z"/>
		<polygon class="st2" points="96.3,31.6 96.3,31.6 100.8,31.6 107.8,40.7 107.8,31.6 112.6,31.6 112.6,48.8 108.3,48.8 101.1,39.4 
			101.1,48.8 96.3,48.8 		"/>
	</g>
</g>
<path class="st1" d="M305,8.4c-42.9,0-77.7,34.8-77.7,77.7s34.8,77.7,77.7,77.7s77.7-34.8,77.7-77.7S347.9,8.4,305,8.4z"/>
<g>
	<path class="st0" d="M44.3,71.5l1.6-2c0.9,0.8,2.1,1.3,3.1,1.3c1.2,0,1.8-0.5,1.8-1.2c0-0.8-0.7-1.1-1.8-1.5l-1.7-0.7
		c-1.3-0.5-2.6-1.6-2.6-3.5c0-2.1,1.9-3.8,4.5-3.8c1.5,0,3,0.6,4.1,1.7L52,63.7c-0.8-0.6-1.6-1-2.6-1c-1,0-1.6,0.4-1.6,1.2
		c0,0.8,0.8,1.1,1.9,1.5l1.6,0.7c1.5,0.6,2.5,1.7,2.5,3.4c0,2.1-1.8,3.9-4.8,3.9C47.3,73.4,45.6,72.7,44.3,71.5z"/>
	<path class="st0" d="M55.1,66.7c0-4.2,2.3-6.5,5.8-6.5c3.4,0,5.8,2.4,5.8,6.5c0,4.2-2.3,6.6-5.8,6.6C57.4,73.4,55.1,70.9,55.1,66.7
		z M63.7,66.7c0-2.5-1.1-4.1-2.8-4.1c-1.7,0-2.8,1.5-2.8,4.1c0,2.6,1.1,4.2,2.8,4.2C62.6,70.9,63.7,69.3,63.7,66.7z"/>
	<path class="st0" d="M68.8,60.4h2.9v10.3h5v2.4h-7.9V60.4z"/>
	<path class="st0" d="M78.5,67.2v-6.8h2.9v7.1c0,2.5,0.8,3.4,2.2,3.4c1.4,0,2.2-0.9,2.2-3.4v-7.1h2.8v6.8c0,4.3-1.7,6.1-5,6.1
		C80.3,73.4,78.5,71.5,78.5,67.2z"/>
	<path class="st0" d="M93.8,62.8h-3.5v-2.4h9.9v2.4h-3.5v10.3h-2.9V62.8z"/>
	<path class="st0" d="M101.9,60.4h2.9v12.7h-2.9V60.4z"/>
	<path class="st0" d="M106.9,66.7c0-4.2,2.3-6.5,5.8-6.5s5.8,2.4,5.8,6.5c0,4.2-2.3,6.6-5.8,6.6S106.9,70.9,106.9,66.7z M115.5,66.7
		c0-2.5-1.1-4.1-2.8-4.1c-1.7,0-2.8,1.5-2.8,4.1c0,2.6,1.1,4.2,2.8,4.2C114.4,70.9,115.5,69.3,115.5,66.7z"/>
	<path class="st0" d="M120.6,60.4h2.9l3.3,6.3l1.2,2.8h0.1c-0.1-1.3-0.4-3.1-0.4-4.6v-4.5h2.7v12.7h-2.9l-3.3-6.3l-1.2-2.8H123
		c0.1,1.4,0.4,3.1,0.4,4.6v4.5h-2.7V60.4z"/>
	<path class="st0" d="M45.9,77.8h4.4c2.8,0,5,1,5,4.1c0,3-2.3,4.3-5,4.3h-1.6v4.3h-2.9V77.8z M50.2,83.9c1.6,0,2.3-0.7,2.3-2
		c0-1.3-0.9-1.8-2.4-1.8h-1.3v3.8H50.2z"/>
	<path class="st0" d="M57.3,77.8h4.6c2.7,0,4.9,0.9,4.9,4c0,1.9-0.9,3.1-2.3,3.7l2.9,5.1h-3.2L61.7,86h-1.6v4.6h-2.9V77.8z
		 M61.6,83.7c1.5,0,2.3-0.6,2.3-1.9c0-1.2-0.8-1.7-2.3-1.7h-1.5v3.6H61.6z"/>
	<path class="st0" d="M68.4,84.1c0-4.2,2.3-6.5,5.8-6.5s5.8,2.4,5.8,6.5c0,4.2-2.3,6.6-5.8,6.6S68.4,88.3,68.4,84.1z M77,84.1
		c0-2.5-1.1-4.1-2.8-4.1c-1.7,0-2.8,1.5-2.8,4.1c0,2.6,1.1,4.2,2.8,4.2C75.9,88.3,77,86.7,77,84.1z"/>
	<path class="st0" d="M80.4,77.8h3l1.5,5.9c0.4,1.4,0.6,2.7,1,4.1h0.1c0.4-1.4,0.6-2.7,1-4.1l1.5-5.9h2.9l-3.8,12.7h-3.4L80.4,77.8z
		"/>
	<path class="st0" d="M92.6,77.8h2.9v12.7h-2.9V77.8z"/>
	<path class="st0" d="M98.3,77.8h3.6c3.9,0,6.4,1.9,6.4,6.3c0,4.4-2.5,6.4-6.2,6.4h-3.7V77.8z M101.7,88.2c2.2,0,3.6-1.1,3.6-4.1
		c0-3-1.4-4-3.6-4h-0.5v8.1H101.7z"/>
	<path class="st0" d="M110.4,77.8h8v2.4h-5.1v2.6h4.3v2.4h-4.3v2.9h5.3v2.4h-8.1V77.8z"/>
	<path class="st0" d="M120.8,77.8h4.6c2.7,0,4.9,0.9,4.9,4c0,1.9-0.9,3.1-2.3,3.7l2.9,5.1h-3.2l-2.4-4.6h-1.6v4.6h-2.9V77.8z
		 M125.2,83.7c1.5,0,2.3-0.6,2.3-1.9c0-1.2-0.8-1.7-2.3-1.7h-1.5v3.6H125.2z"/>
</g>
<g>
	<path class="st0" d="M-263.5,102h-17.2l-1,6.8c1-0.1,1.8-0.1,2.9-0.1c4.2,0,8.5,1,11.7,3.2c3.3,2.3,5.4,5.9,5.4,11.1
		c0,8.3-7.1,15.6-19.1,15.6c-5.4,0-9.9-1.2-12.4-2.5l1.8-7.8c2,1,6,2.2,10,2.2c4.3,0,8.9-2.1,8.9-6.8c0-4.6-3.6-7.4-12.5-7.4
		c-2.5,0-4.2,0.1-6,0.4l2.9-23.3h24.5V102z"/>
	<path class="st0" d="M-224.5,115.5c0,13.7-5.5,23.2-16.9,23.2c-11.5,0-16.5-10.3-16.6-22.9c0-12.8,5.5-23,16.9-23
		C-229.2,92.7-224.5,103.3-224.5,115.5z M-247.5,115.7c-0.1,10.2,2.4,15,6.4,15s6.2-5.1,6.2-15.2c0-9.8-2.1-15-6.3-15
		C-245,100.6-247.6,105.4-247.5,115.7z"/>
	<path class="st0" d="M-188.6,115.5c0,13.7-5.5,23.2-16.9,23.2c-11.5,0-16.5-10.3-16.6-22.9c0-12.8,5.5-23,16.9-23
		C-193.3,92.7-188.6,103.3-188.6,115.5z M-211.7,115.7c-0.1,10.2,2.4,15,6.4,15s6.2-5.1,6.2-15.2c0-9.8-2.1-15-6.3-15
		C-209.1,100.6-211.7,105.4-211.7,115.7z"/>
</g>
<g>
	<path class="st0" d="M67.8,103.7H52.7l-0.8,6c0.8-0.1,1.6-0.1,2.5-0.1c3.7,0,7.5,0.8,10.2,2.8c2.9,2,4.7,5.2,4.7,9.7
		c0,7.2-6.2,13.6-16.7,13.6c-4.7,0-8.7-1.1-10.8-2.2l1.6-6.8c1.7,0.8,5.3,1.9,8.8,1.9c3.8,0,7.8-1.8,7.8-5.9c0-4-3.2-6.5-10.9-6.5
		c-2.2,0-3.6,0.1-5.3,0.4l2.6-20.4h21.4C67.8,96.2,67.8,103.7,67.8,103.7z"/>
	<path class="st0" d="M101.9,115.5c0,12-4.8,20.3-14.8,20.3s-14.5-9-14.5-20c0-11.2,4.8-20.2,14.8-20.2
		C97.8,95.6,101.9,104.8,101.9,115.5z M81.8,115.7c-0.1,8.9,2.1,13.2,5.6,13.2s5.4-4.4,5.4-13.3c0-8.6-1.9-13.2-5.5-13.2
		C84.1,102.4,81.8,106.7,81.8,115.7z"/>
	<path class="st0" d="M133.4,115.5c0,12-4.8,20.3-14.8,20.3s-14.5-9-14.5-20c0-11.2,4.8-20.2,14.8-20.2
		C129.2,95.6,133.4,104.8,133.4,115.5z M113.1,115.7c-0.1,8.9,2.1,13.2,5.6,13.2s5.4-4.4,5.4-13.3c0-8.6-1.9-13.2-5.5-13.2
		C115.4,102.4,113.1,106.7,113.1,115.7z"/>
</g>
</svg>
