<svg xmlns="http://www.w3.org/2000/svg" width="175" height="175" viewBox="0 0 175 175"><g transform="translate(-761 -2608)"><g transform="translate(1089.539 1425.5) rotate(90)"><circle cx="87.5" cy="87.5" r="87.5" transform="translate(1182.5 328.539) rotate(-90)" fill="#fff"/></g><path d="M78.539,0a78.539,78.539,0,1,0,78.539,78.539A78.538,78.538,0,0,0,78.539,0Zm9.716,80.127a9.716,9.716,0,1,1-9.716-9.716,9.043,9.043,0,0,1,.977.1l26.709-18.073L88.147,79.15A8.438,8.438,0,0,1,88.255,80.127ZM125.7,114.545l-7.874-5.693a49.461,49.461,0,0,0,9.006-23.867h-4.581V75.27h4.611a48.324,48.324,0,0,0-10.739-25.86l-3.063,3.063-6.868-6.868,3.063-3.066A48.337,48.337,0,0,0,83.4,31.8V36.41H73.681V31.8a48.311,48.311,0,0,0-25.86,10.739l3.066,3.066-6.871,6.868L40.954,49.41A48.324,48.324,0,0,0,30.214,75.27h4.608v9.716H30.243a49.373,49.373,0,0,0,9.006,23.867l-7.874,5.693A59.2,59.2,0,0,1,20.251,80.127a58.288,58.288,0,1,1,116.575,0A59.181,59.181,0,0,1,125.7,114.545Z" transform="translate(770 2617)" fill="#57575d"/></g></svg>