<?xml version="1.0" encoding="utf-8"?>
<!-- Generator: Adobe Illustrator 23.0.3, SVG Export Plug-In . SVG Version: 6.00 Build 0)  -->
<svg version="1.1" id="Layer_1" xmlns="http://www.w3.org/2000/svg" xmlns:xlink="http://www.w3.org/1999/xlink" x="0px" y="0px"
	 viewBox="0 0 200 200" style="enable-background:new 0 0 200 200;" xml:space="preserve">
<style type="text/css">
	.st0{clip-path:url(#SVGID_2_);}
	.st1{fill:#FDFDFD;}
	.st2{fill-rule:evenodd;clip-rule:evenodd;fill:#F7841B;}
	.st3{fill-rule:evenodd;clip-rule:evenodd;fill:#FFFFFF;}
</style>
<g>
	<defs>
		<rect id="SVGID_1_" width="200" height="200"/>
	</defs>
	<clipPath id="SVGID_2_">
		<use xlink:href="#SVGID_1_"  style="overflow:visible;"/>
	</clipPath>
	<g class="st0">
		<circle class="st1" cx="100" cy="100" r="100"/>
		<g>
			<path class="st2" d="M-733.9,247.9l-95.1,105.8l-149.5-76.3V323l20,10.6v158.8l158.5,80.9l158.6-80.6v-153l20,10.1v-44.7
				L-733.9,247.9L-733.9,247.9z M-707.8,481.9v-72.3l-39.5,19.9v72.2l-52.4,26.3l-119.3-59.8v-116l98.9,50.5l95.7-105.4l53.4,27.4
				l0.2,138.8C-670.9,463.4-707.8,481.9-707.8,481.9z"/>
			<path class="st2" d="M-841.5,235.2v-41.2l-42-21.3l-26.5,29.5v47.1l38.6,19.5 M496.8,479.8c0,11.6-9.3,21-20.8,21
				c-11.5,0-20.9-9.4-20.9-21c0-11.6,9.3-21,20.9-21C487.5,458.8,496.8,468.2,496.8,479.8z"/>
			<path class="st3" d="M-560.5,261.1h40.9v93.5h106.2v-93.5h40.8v235h-40.9v-106h-106.2v106h-40.8 M-352.3,410.9
				c0-52,31-89.5,85.3-89.5s85.3,37.5,85.3,89.5c0,52.3-31,89.9-85.3,89.9S-352.3,463.2-352.3,410.9z M-219,410.9
				c0-29.3-14.7-59.9-48-59.9c-33.3,0-48,30.6-48,59.9c0,29.6,14.7,60.2,48,60.2C-233.7,471.1-219.1,440.5-219,410.9L-219,410.9z
				 M-160.6,325.9h35.3v23.7h1c11.1-16.8,25.2-28.3,52-28.3c20.6,0,39.9,8.9,47.4,28.3c12.4-17.5,28.4-28.3,52.9-28.3
				c35.6,0,56.5,15.8,56.5,57.3v117.5H47.2v-99.4c0-27-1.6-45.8-30.7-45.8c-25.2,0-36,16.8-36,45.4v99.8h-37.2V386.8
				c0-23.4-7.2-35.9-29.8-35.9c-19.3,0-36.9,15.8-36.9,44.1v101h-37.2L-160.6,325.9L-160.6,325.9z M142.9,420.7
				c0,26.7,14.4,50.4,45.4,50.4c21.5,0,34.6-9.5,41.2-28.3h35.3c-8.2,37.2-39.5,57.9-76.4,57.9c-52.9,0-82.7-37.2-82.7-89.5
				c0-48.4,31.3-89.9,81.7-89.9c53.2,0,85.9,48.4,79.7,99.4L142.9,420.7L142.9,420.7z M229.9,396c-1.3-23.7-17.3-45.1-42.5-45.1
				c-25.8,0-43.5,19.7-44.4,45.1H229.9z M313.8,441.5c2,21.7,18.3,29.6,38.2,29.6c14,0,38.5-3,37.6-22.4
				c-1-19.8-28.1-22.1-55.2-28.3c-27.5-5.9-54.2-15.8-54.2-50.4c0-37.2,39.9-48.7,70.6-48.7c34.6,0,66,14.5,70.6,52.3h-38.9
				c-3.3-17.8-18-22.7-34.3-22.7c-10.8,0-30.7,2.6-30.7,17.5c0,18.4,27.4,21.1,54.9,27.3c27.1,6.2,54.6,16.1,54.6,49.7
				c0,40.5-40.5,55.3-75.5,55.3c-42.5,0-74.1-19.1-74.8-59.2L313.8,441.5L313.8,441.5z M645.4,379.6c-5.6-25.3-20.9-40.8-47.6-40.8
				c-39.6,0-59.1,36.2-59.1,72.4c0,36.2,19.6,72.4,59.1,72.4c25.5,0,46.4-20,49-48.4h20.6c-5.6,40.8-32,65.8-69.6,65.8
				c-51.6,0-79.7-41.1-79.7-89.9c0-48.7,28.1-89.9,79.7-89.9c35.9,0,63.7,19.4,68.3,58.3L645.4,379.6L645.4,379.6z M837.2,411.2
				c0,48.7-28.1,89.9-79.7,89.9c-51.6,0-79.7-41.2-79.7-89.9c0-48.7,28.1-89.9,79.7-89.9C809.1,321.3,837.2,362.5,837.2,411.2
				L837.2,411.2z M698.4,411.2c0,36.2,19.6,72.4,59.1,72.4c39.6,0,59.1-36.2,59.1-72.4c0-36.2-19.6-72.4-59.1-72.4
				C718,338.8,698.4,375,698.4,411.2L698.4,411.2z M858.1,326.3H877v28.6h1c10.8-20.4,28.4-33.6,55.2-33.6
				c22.2,0,42.1,10.9,48.4,33.2c10.1-22.4,31.4-33.3,53.6-33.3c36.9,0,55.9,19.4,55.9,59.6v115.2h-20.6V381.9
				c0-28-10.4-43.1-39.9-43.1c-35.6,0-45.7,29.6-45.7,61.2v96.1h-20.6V380.9c0.3-23-9.1-42.1-35.3-42.1c-35.6,0-50,27-50.3,62.5
				v94.8h-20.6L858.1,326.3L858.1,326.3z M1137.2,321.8c-0.2,11.5-9.5,20.6-20.9,20.6c-11.4,0-20.7-9.1-20.9-20.6
				c0-11.5,9.3-20.5,21.1-20.5c5.5-0.1,10.7,2,14.6,5.9C1135,311,1137.2,316.3,1137.2,321.8L1137.2,321.8z M1100.6,321.8
				c0,9.1,6.8,16.4,15.9,16.4c8.8,0.1,15.5-7.2,15.5-16.2s-6.7-16.5-15.8-16.5C1107.4,305.4,1100.6,312.8,1100.6,321.8L1100.6,321.8
				z M1113.1,332.4h-4.7v-20.5c2.6-0.4,5.2-0.6,7.8-0.6c3.9,0,5.6,0.6,7,1.6c1.4,1,2.2,2.6,2.1,4.4c0,2.5-1.9,4.1-4.2,4.9v0.2
				c2,0.6,3,2.2,3.6,5c0.3,1.7,0.8,3.4,1.5,5h-5c-0.6-0.8-1-2.5-1.6-5c-0.4-2.1-1.6-3.1-4.2-3.1h-2.2V332.4L1113.1,332.4z
				 M1113.2,320.9h2.2c2.6,0,4.7-0.9,4.7-3c0-1.9-1.4-3.1-4.4-3.1c-0.9,0-1.7,0.1-2.6,0.2L1113.2,320.9L1113.2,320.9z"/>
		</g>
		<g id="iPzLG5.tif">
			
				<image style="overflow:visible;" width="225" height="205" id="Layer_0_1_" xlink:href="772B35CF56D0E920.png"  transform="matrix(1 0 0 1 -41 -257.333)">
			</image>
		</g>
	</g>
</g>
<g>
	<path class="st2" d="M118.2,65.6L92,94.7l-41.1-21v12.6l5.5,2.9v43.7l43.6,22.3l43.7-22.2V90.9l5.5,2.8V81.3L118.2,65.6L118.2,65.6
		z M125.3,130v-19.9l-10.9,5.5v19.9l-14.4,7.2l-32.8-16.5V94.3l27.2,13.9l26.3-29l14.7,7.5l0,38.2C135.5,124.9,125.3,130,125.3,130z
		"/>
	<path class="st2" d="M88.5,62.1V50.7L77,44.8L69.7,53v13l10.6,5.4"/>
</g>
</svg>
