<?xml version="1.0" encoding="utf-8"?>
<!-- Generator: Adobe Illustrator 23.0.3, SVG Export Plug-In . SVG Version: 6.00 Build 0)  -->
<svg version="1.1" id="homes-logo" xmlns="http://www.w3.org/2000/svg" xmlns:xlink="http://www.w3.org/1999/xlink" x="0px" y="0px"
	 viewBox="0 0 156 30" style="enable-background:new 0 0 156 30;" xml:space="preserve">
<style type="text/css">
	.st0{fill-rule:evenodd;clip-rule:evenodd;fill:#F7841B;}
	.st1{fill-rule:evenodd;clip-rule:evenodd;fill:#025EAA;}
</style>
<g>
	<path class="st0" d="M17.9,5.5l-7,7.8L0,7.7V11l1.5,0.8v11.6l11.6,5.9l11.6-5.9V12.3l1.5,0.7V9.7L17.9,5.5L17.9,5.5z M19.8,22.7
		v-5.3l-2.9,1.5v5.3l-3.8,1.9l-8.7-4.4v-8.5l7.2,3.7l7-7.7l3.9,2l0,10.2C22.5,21.3,19.8,22.7,19.8,22.7z"/>
	<path class="st0" d="M10,4.6v-3L7,0L5,2.2v3.5L7.8,7 M108.2,22.5c0,0.9-0.7,1.5-1.5,1.5c-0.8,0-1.5-0.7-1.5-1.5
		c0-0.9,0.7-1.5,1.5-1.5C107.5,21,108.2,21.7,108.2,22.5z"/>
	<path class="st1" d="M30.6,6.5h3v6.9h7.8V6.5h3v17.2h-3v-7.8h-7.8v7.8h-3 M45.9,17.5c0-3.8,2.3-6.6,6.3-6.6s6.3,2.8,6.3,6.6
		c0,3.8-2.3,6.6-6.3,6.6S45.9,21.3,45.9,17.5z M55.7,17.5c0-2.1-1.1-4.4-3.5-4.4c-2.4,0-3.5,2.2-3.5,4.4c0,2.2,1.1,4.4,3.5,4.4
		C54.6,21.9,55.7,19.6,55.7,17.5L55.7,17.5z M60,11.2h2.6V13h0.1c0.8-1.2,1.8-2.1,3.8-2.1c1.5,0,2.9,0.6,3.5,2.1
		c0.9-1.3,2.1-2.1,3.9-2.1c2.6,0,4.1,1.2,4.1,4.2v8.6h-2.7v-7.3c0-2-0.1-3.4-2.2-3.4c-1.8,0-2.6,1.2-2.6,3.3v7.3h-2.7v-8
		c0-1.7-0.5-2.6-2.2-2.6c-1.4,0-2.7,1.2-2.7,3.2v7.4H60L60,11.2L60,11.2z M82.2,18.2c0,2,1.1,3.7,3.3,3.7c1.6,0,2.5-0.7,3-2.1h2.6
		c-0.6,2.7-2.9,4.2-5.6,4.2c-3.9,0-6.1-2.7-6.1-6.6c0-3.5,2.3-6.6,6-6.6c3.9,0,6.3,3.5,5.8,7.3L82.2,18.2L82.2,18.2z M88.6,16.4
		c-0.1-1.7-1.3-3.3-3.1-3.3c-1.9,0-3.2,1.4-3.3,3.3H88.6z M94.7,19.7c0.1,1.6,1.3,2.2,2.8,2.2c1,0,2.8-0.2,2.8-1.6
		c-0.1-1.5-2.1-1.6-4-2.1c-2-0.4-4-1.2-4-3.7c0-2.7,2.9-3.6,5.2-3.6c2.5,0,4.8,1.1,5.2,3.8h-2.8c-0.2-1.3-1.3-1.7-2.5-1.7
		c-0.8,0-2.2,0.2-2.2,1.3c0,1.4,2,1.5,4,2c2,0.5,4,1.2,4,3.6c0,3-3,4.1-5.5,4.1c-3.1,0-5.4-1.4-5.5-4.3L94.7,19.7L94.7,19.7z
		 M119.1,15.2c-0.4-1.9-1.5-3-3.5-3c-2.9,0-4.3,2.7-4.3,5.3c0,2.7,1.4,5.3,4.3,5.3c1.9,0,3.4-1.5,3.6-3.5h1.5
		c-0.4,3-2.3,4.8-5.1,4.8c-3.8,0-5.8-3-5.8-6.6c0-3.6,2.1-6.6,5.8-6.6c2.6,0,4.7,1.4,5,4.3L119.1,15.2L119.1,15.2z M133.1,17.5
		c0,3.6-2.1,6.6-5.8,6.6c-3.8,0-5.8-3-5.8-6.6c0-3.6,2.1-6.6,5.8-6.6C131.1,10.9,133.1,13.9,133.1,17.5L133.1,17.5z M122.9,17.5
		c0,2.7,1.4,5.3,4.3,5.3c2.9,0,4.3-2.7,4.3-5.3c0-2.7-1.4-5.3-4.3-5.3C124.4,12.2,122.9,14.8,122.9,17.5L122.9,17.5z M134.6,11.3
		h1.4v2.1h0.1c0.8-1.5,2.1-2.5,4-2.5c1.6,0,3.1,0.8,3.5,2.4c0.7-1.6,2.3-2.4,3.9-2.4c2.7,0,4.1,1.4,4.1,4.4v8.4h-1.5v-8.4
		c0-2.1-0.8-3.2-2.9-3.2c-2.6,0-3.4,2.2-3.4,4.5v7h-1.5v-8.4c0-1.7-0.7-3.1-2.6-3.1c-2.6,0-3.7,2-3.7,4.6v6.9h-1.5L134.6,11.3
		L134.6,11.3z M155.1,10.9c0,0.8-0.7,1.5-1.5,1.5c-0.8,0-1.5-0.7-1.5-1.5c0-0.8,0.7-1.5,1.5-1.5c0.4,0,0.8,0.1,1.1,0.4
		C155,10.1,155.1,10.5,155.1,10.9L155.1,10.9z M152.4,10.9c0,0.7,0.5,1.2,1.2,1.2c0.6,0,1.1-0.5,1.1-1.2c0-0.7-0.5-1.2-1.2-1.2
		C152.9,9.7,152.4,10.3,152.4,10.9L152.4,10.9z M153.3,11.7H153v-1.5c0.2,0,0.4,0,0.6,0c0.3,0,0.4,0,0.5,0.1
		c0.1,0.1,0.2,0.2,0.2,0.3c0,0.2-0.1,0.3-0.3,0.4v0c0.1,0,0.2,0.2,0.3,0.4c0,0.1,0.1,0.2,0.1,0.4h-0.4c0-0.1-0.1-0.2-0.1-0.4
		c0-0.2-0.1-0.2-0.3-0.2h-0.2V11.7L153.3,11.7z M153.4,10.9h0.2c0.2,0,0.3-0.1,0.3-0.2c0-0.1-0.1-0.2-0.3-0.2c-0.1,0-0.1,0-0.2,0
		L153.4,10.9L153.4,10.9z"/>
</g>
</svg>
