<svg xmlns="http://www.w3.org/2000/svg" width="19.15" height="40.575" viewBox="0 0 19.15 40.575">
  <g id="Group_19" data-name="Group 19" transform="translate(76.575 -106.538)">
    <rect id="Rectangle_56" data-name="Rectangle 56" width="12.229" height="1.788" transform="translate(-73.115 112.976)" fill="#333132"/>
    <rect id="Rectangle_57" data-name="Rectangle 57" width="12.229" height="1.788" transform="translate(-73.115 116.225)" fill="#333132"/>
    <path id="Path_43" data-name="Path 43" d="M-73.115,111.515h12.23v-1.788h-12.23Zm6.15-1.566h5.854v.575h-5.854Zm0,.782h5.854v.575h-5.854Zm-.651-.752a.143.143,0,0,1,.142.142.142.142,0,0,1-.142.142.141.141,0,0,1-.142-.142A.142.142,0,0,1-67.616,109.979Zm-.214.545h.427v.254h-.427Zm0,.495h.427v.254h-.427Zm-.284-1.04a.142.142,0,0,1,.142.142.141.141,0,0,1-.142.142.141.141,0,0,1-.142-.142A.142.142,0,0,1-68.114,109.979Zm0,.53a.142.142,0,0,1,.142.142.141.141,0,0,1-.142.142.141.141,0,0,1-.142-.142A.142.142,0,0,1-68.114,110.509Zm0,.51a.141.141,0,0,1,.142.142.142.142,0,0,1-.142.142.142.142,0,0,1-.142-.142A.141.141,0,0,1-68.114,111.019Zm-.924-1.07h.284v1.344h-.284Zm-.545,0h.284v1.344h-.284Zm-.545,0h.284v1.344h-.284Zm-.546,0h.285v1.344h-.285Zm-.544,0h.284v1.344h-.284Zm-.546,0h.285v1.344h-.285Zm-.545,0h.285v1.344h-.285Zm-.545,0h.285v1.344h-.285Z" fill="#333132"/>
    <rect id="Rectangle_58" data-name="Rectangle 58" width="12.229" height="1.788" transform="translate(-73.115 119.474)" fill="#333132"/>
    <path id="Path_44" data-name="Path 44" d="M-73.115,127.761h12.23v-1.789h-12.23Zm6.133-1.573h5.854v.575h-5.854Zm0,.782h5.854v.575h-5.854Zm-.652-.752a.142.142,0,0,1,.142.142.141.141,0,0,1-.142.142.141.141,0,0,1-.142-.142A.142.142,0,0,1-67.634,126.218Zm-.213.545h.426v.254h-.426Zm0,.5h.426v.254h-.426Zm-.285-1.04a.143.143,0,0,1,.143.142.142.142,0,0,1-.143.142.142.142,0,0,1-.142-.142A.143.143,0,0,1-68.132,126.218Zm0,.53a.143.143,0,0,1,.143.142.142.142,0,0,1-.143.142.142.142,0,0,1-.142-.142A.143.143,0,0,1-68.132,126.748Zm0,.51a.142.142,0,0,1,.143.142.143.143,0,0,1-.143.142.143.143,0,0,1-.142-.142A.142.142,0,0,1-68.132,127.258Zm-.924-1.07h.284v1.344h-.284Zm-.545,0h.284v1.344H-69.6Zm-.545,0h.284v1.344h-.284Zm-.545,0h.284v1.344h-.284Zm-.545,0h.284v1.344h-.284Zm-.545,0h.284v1.344h-.284Zm-.546,0h.285v1.344h-.285Zm-.545,0h.285v1.344h-.285Z" fill="#333132"/>
    <rect id="Rectangle_59" data-name="Rectangle 59" width="12.229" height="1.788" transform="translate(-73.115 122.723)" fill="#333132"/>
    <rect id="Rectangle_60" data-name="Rectangle 60" width="12.229" height="1.788" transform="translate(-73.115 129.221)" fill="#333132"/>
    <rect id="Rectangle_61" data-name="Rectangle 61" width="12.229" height="1.788" transform="translate(-73.115 135.719)" fill="#333132"/>
    <rect id="Rectangle_62" data-name="Rectangle 62" width="12.229" height="1.788" transform="translate(-73.115 138.969)" fill="#333132"/>
    <rect id="Rectangle_63" data-name="Rectangle 63" width="12.229" height="1.788" transform="translate(-73.115 132.47)" fill="#333132"/>
    <path id="Path_45" data-name="Path 45" d="M-73.115,144.006h12.23v-1.788h-12.23Zm6.133-1.573h5.854v.575h-5.854Zm0,.782h5.854v.575h-5.854Zm-.652-.752a.142.142,0,0,1,.142.142.142.142,0,0,1-.142.143.142.142,0,0,1-.142-.143A.142.142,0,0,1-67.634,142.463Zm-.213.545h.426v.255h-.426Zm0,.5h.426v.254h-.426Zm-.285-1.04a.143.143,0,0,1,.143.142.143.143,0,0,1-.143.143.143.143,0,0,1-.142-.143A.143.143,0,0,1-68.132,142.463Zm0,.53a.143.143,0,0,1,.143.142.143.143,0,0,1-.143.143.143.143,0,0,1-.142-.143A.143.143,0,0,1-68.132,142.993Zm0,.51a.142.142,0,0,1,.143.142.142.142,0,0,1-.143.142.142.142,0,0,1-.142-.142A.142.142,0,0,1-68.132,143.5Zm-.924-1.07h.284v1.345h-.284Zm-.545,0h.284v1.345H-69.6Zm-.545,0h.284v1.345h-.284Zm-.545,0h.284v1.345h-.284Zm-.545,0h.284v1.345h-.284Zm-.545,0h.284v1.345h-.284Zm-.546,0h.285v1.345h-.285Zm-.545,0h.285v1.345h-.285Z" fill="#333132"/>
    <path id="Path_46" data-name="Path 46" d="M-76.575,147.113h19.15V106.538h-19.15Zm1.707-39.011h15.736V145.6H-74.868Z" fill="#333132"/>
    <path id="Path_47" data-name="Path 47" d="M-74.181,144.98h14.362V108.719H-74.181Zm.64-35.5h13.082v2.288H-73.541Zm0,3.249h13.082v2.288H-73.541Zm0,3.249h13.082v2.288H-73.541Zm0,3.249h13.082v2.288H-73.541Zm0,3.249h13.082v2.288H-73.541Zm0,3.249h13.082v2.288H-73.541Zm0,3.249h13.082v2.289H-73.541Zm0,3.25h13.082v2.288H-73.541Zm0,3.249h13.082v2.288H-73.541Zm0,3.249h13.082v2.288H-73.541Zm0,3.249h13.082v2.288H-73.541Z" fill="#333132"/>
  </g>
</svg>
