<svg xmlns="http://www.w3.org/2000/svg" width="41.876" height="36.486" viewBox="0 0 41.876 36.486">
  <g id="Group_21" data-name="Group 21" transform="translate(167.807 -269.738)">
    <g id="Group_20" data-name="Group 20" transform="translate(-167.807 269.738)">
      <path id="Path_48" data-name="Path 48" d="M-144.864,275.115a6.767,6.767,0,0,1-5.34-4.71.825.825,0,0,0-.766-.667h-10.078a.822.822,0,0,0-.768.665,6.867,6.867,0,0,1-5.322,4.709.71.71,0,0,0-.669.669v6.438c0,5.9,8.874,12.232,11.227,13.813a1.035,1.035,0,0,0,.57.172,1.023,1.023,0,0,0,.569-.172c2.359-1.581,11.229-7.914,11.229-13.813v-6.438A.7.7,0,0,0-144.864,275.115Zm-18.027,7.641c0-.006,0-.022-.006-.015v-.013a2.721,2.721,0,0,1-.032-.392v-3.042a1.07,1.07,0,0,1,.622-.941,8.272,8.272,0,0,0,3.276-3,1.188,1.188,0,0,1,1-.587h4.228a1.18,1.18,0,0,1,.99.6c.049.087.11.169.167.257l-9.322,9.281A5.692,5.692,0,0,1-162.891,282.756Zm13.994-.42c0,.132-.02.437-.02.437-.4,2.627-4.253,6.05-6.968,7.992-.008,0-.011.01-.019.012s-.014-.009-.02-.012a32.108,32.108,0,0,1-2.878-2.308l9.729-9.692a.95.95,0,0,1,.175.547Z" transform="translate(167.807 -269.738)" fill="#333132"/>
    </g>
    <path id="Path_49" data-name="Path 49" d="M-118.222,288.388c-.019-.155-.043-.309-.07-.463a1,1,0,0,0-.952-.819c-3.621-.154-7.074-.709-10.091-2.721a1.019,1.019,0,0,0-.515-.167v0h-.011a1.019,1.019,0,0,0-.515.167c-3.018,2.012-6.47,2.567-10.092,2.721a1,1,0,0,0-.951.819c-.027.154-.052.308-.07.463-1.008,8.4,1.717,17.263,11.007,22.03a1.555,1.555,0,0,0,.621.186h.011a1.555,1.555,0,0,0,.621-.186C-119.938,305.652-117.214,296.793-118.222,288.388Zm-4.527,5.684-9.09,8.731a.454.454,0,0,1-.637-.007l-4.493-4.493a.454.454,0,0,1,0-.643l1.362-1.362a.454.454,0,0,1,.643,0l2.5,2.5a.455.455,0,0,0,.635.008l7.119-6.788a.455.455,0,0,1,.643.015l1.33,1.4A.455.455,0,0,1-122.749,294.072Z" transform="translate(-7.907 -4.383)" fill="#333132"/>
  </g>
</svg>
