<?xml version="1.0" encoding="utf-8"?>
<!-- Generator: Adobe Illustrator 23.0.4, SVG Export Plug-In . SVG Version: 6.00 Build 0)  -->
<svg version="1.1" id="Layer_1" xmlns="http://www.w3.org/2000/svg" xmlns:xlink="http://www.w3.org/1999/xlink" x="0px" y="0px"
	 viewBox="0 0 175.2 175" style="enable-background:new 0 0 175.2 175;" xml:space="preserve">
<style type="text/css">
	.st0{fill:#FFFFFF;}
	.st1{fill:#57575D;}
</style>
<g transform="translate(328.539 -1182.5) rotate(90)">
	<circle class="st0" cx="1270" cy="240.8" r="87.5"/>
</g>
<g>
	<path class="st1" d="M87.5,9.5C44.6,9.5,9.8,44.3,9.8,87.3S44.6,165,87.5,165s77.7-34.8,77.7-77.7S130.4,9.5,87.5,9.5z"/>
	<path class="st0" d="M-63.3,20.2L-63.3,20.2L-63.3,20.2C-63.4,20.2-63.4,20.2-63.3,20.2h-0.1c-0.1,0-0.2,0-0.2-0.1
		c-0.2,0-0.4-0.1-0.6-0.1c-0.7-0.1-1.4-0.2-2-0.2c-0.3,0-0.6,0-1-0.1h-0.1c-2.2-0.2-4-0.4-5.6-0.9c-0.7-0.3-0.9-0.7-1.1-1.1
		c0-0.1-0.1-0.1-0.1-0.2l0,0l-1.4-0.4c0.6-4.8,0.4-9.8-0.7-14.7c-1.1-4.9-3.1-9.5-5.8-13.6l1-0.9v-0.2c0-0.5,0.1-1,0.5-1.6
		c1.3-1.1,2.8-2.1,4.7-3.2l0,0c0.3-0.2,0.6-0.3,0.9-0.5c0.6-0.3,1.1-0.6,1.8-1c0.1-0.1,0.3-0.2,0.5-0.4c0.1-0.1,0.2-0.1,0.2-0.2l0,0
		c1.5-1.3,1.8-3.3,0.7-4.7c-0.5-0.7-1.5-1.1-2.4-1.1c-0.8,0-1.6,0.3-2.3,0.8l0,0l0,0c-0.1,0.1-0.1,0.1-0.2,0.2
		c-0.2,0.1-0.3,0.3-0.5,0.4c-0.5,0.5-0.9,0.9-1.4,1.5c-0.2,0.2-0.4,0.5-0.7,0.7l0,0c-1.5,1.6-2.8,2.8-4.2,3.8
		c-0.3,0.2-0.6,0.3-0.9,0.3c-0.2,0-0.4,0-0.6-0.1h-0.2l0,0l-1.3,0.8c-1.4-1.5-2.8-2.7-4.3-4c-6.3-4.9-13.9-7.9-21.8-8.6l-0.1-1.4
		c-0.1-0.1-0.1-0.1-0.2-0.2c-0.3-0.3-0.7-0.6-0.8-1.4c-0.1-1.7,0.1-3.5,0.3-5.6v-0.1c0-0.3,0.1-0.7,0.2-1c0.1-0.6,0.2-1.3,0.3-2
		v-0.6v-0.3l0,0l0,0c0-1.9-1.5-3.4-3.2-3.4c-0.8,0-1.7,0.4-2.3,1s-0.9,1.5-0.9,2.4l0,0l0,0v0.2v0.6c0,0.7,0.1,1.4,0.3,2
		c0.1,0.3,0.1,0.6,0.2,1v0.1c0.2,2.1,0.5,4,0.3,5.6c-0.1,0.7-0.5,1-0.8,1.4c-0.1,0.1-0.1,0.1-0.2,0.2l0,0l-0.1,1.4
		c-1.9,0.2-3.8,0.4-5.6,0.8c-8,1.8-15.1,5.8-20.6,11.7l-1-0.7h-0.2c-0.2,0-0.4,0.1-0.6,0.1c-0.3,0-0.6-0.1-0.9-0.3
		c-1.4-0.9-2.7-2.3-4.2-3.9l0,0c-0.2-0.2-0.4-0.5-0.7-0.7c-0.4-0.5-0.8-0.9-1.4-1.5c-0.1-0.1-0.3-0.2-0.5-0.4
		c-0.1-0.1-0.2-0.1-0.2-0.2l0,0c-0.6-0.5-1.5-0.8-2.3-0.8c-0.9,0-1.9,0.4-2.4,1.1c-1,1.4-0.7,3.4,0.7,4.7l0,0l0,0
		c0.1,0,0.1,0.1,0.2,0.1c0.2,0.1,0.3,0.3,0.5,0.4c0.6,0.4,1.1,0.7,1.8,1c0.3,0.1,0.6,0.3,0.9,0.5l0,0c1.9,1.1,3.4,2.1,4.7,3.2
		c0.5,0.5,0.5,1,0.5,1.6v0.2l0,0l1,0.9c-0.2,0.3-0.4,0.5-0.5,0.8c-5.2,8.2-7.2,17.9-5.8,27.5l-1.4,0.4c0,0.1-0.1,0.1-0.1,0.2
		c-0.2,0.4-0.5,0.8-1.1,1.1c-1.6,0.5-3.4,0.7-5.6,0.9h-0.1c-0.3,0-0.7,0-1,0.1c-0.6,0-1.3,0.1-2,0.2c-0.2,0-0.4,0.1-0.6,0.1
		c-0.1,0-0.2,0-0.3,0.1l0,0l0,0c-1.9,0.4-3,2.2-2.7,3.9c0.3,1.5,1.7,2.4,3.3,2.4c0.3,0,0.5,0,0.8-0.1l0,0l0,0c0.1,0,0.2,0,0.2-0.1
		c0.2,0,0.4-0.1,0.6-0.1c0.7-0.2,1.3-0.4,1.9-0.7c0.3-0.1,0.6-0.3,0.9-0.4h0.1c2-0.7,3.8-1.4,5.4-1.6h0.2c0.6,0,1,0.3,1.4,0.5
		c0.1,0,0.1,0.1,0.2,0.1l0,0l1.5-0.2c2.5,7.7,7.3,14.6,13.6,19.6c1.5,1.1,2.9,2.1,4.5,3l-0.6,1.4c0,0.1,0.1,0.1,0.1,0.2
		c0.2,0.4,0.4,0.9,0.2,1.7c-0.6,1.6-1.6,3.1-2.7,4.9v0.1c-0.2,0.3-0.4,0.5-0.6,0.8c-0.4,0.5-0.7,1-1.1,1.7c-0.1,0.1-0.2,0.3-0.3,0.5
		c0,0.1-0.1,0.2-0.1,0.2l0,0l0,0c-0.8,1.8-0.2,3.8,1.4,4.5c0.4,0.2,0.8,0.3,1.3,0.3c1.3,0,2.5-0.8,3.1-2l0,0l0,0
		c0-0.1,0.1-0.2,0.1-0.2c0.1-0.2,0.2-0.4,0.3-0.5c0.3-0.7,0.4-1.3,0.6-1.9c0.1-0.3,0.2-0.6,0.3-0.9l0,0c0.7-2.1,1.3-3.8,2.2-5.2
		c0.4-0.6,0.9-0.7,1.4-0.9c0.1,0,0.1,0,0.2-0.1l0,0l0.7-1.4c4.6,1.8,9.6,2.7,14.6,2.7c3,0,6.1-0.3,9.1-1c1.9-0.4,3.6-0.9,5.4-1.6
		l0.6,1.1c0.1,0,0.1,0,0.2,0.1c0.5,0.1,0.9,0.3,1.4,0.9c0.8,1.5,1.5,3.2,2.2,5.2v0.1c0.1,0.3,0.2,0.6,0.3,0.9
		c0.2,0.6,0.3,1.3,0.6,1.9c0.1,0.2,0.2,0.3,0.3,0.5c0,0.1,0.1,0.2,0.1,0.2l0,0l0,0c0.6,1.3,1.9,2,3.1,2c0.4,0,0.8-0.1,1.3-0.3
		c0.7-0.4,1.4-1,1.6-1.9c0.2-0.8,0.2-1.8-0.2-2.6l0,0l0,0c0-0.1-0.1-0.1-0.1-0.2c-0.1-0.2-0.2-0.4-0.3-0.5c-0.3-0.6-0.7-1.1-1.1-1.7
		c-0.2-0.3-0.4-0.5-0.6-0.8v-0.1c-1.1-1.8-2.2-3.3-2.7-4.9c-0.2-0.7,0-1.1,0.1-1.7c0-0.1,0.1-0.1,0.1-0.2l0,0l-0.5-1.3
		c5.5-3.2,10.2-7.8,13.8-13.4c1.9-2.9,3.3-6.1,4.4-9.4l1.3,0.2c0.1,0,0.1-0.1,0.2-0.1c0.4-0.2,0.7-0.5,1.4-0.5h0.2
		c1.7,0.2,3.4,0.8,5.4,1.6h0.1c0.3,0.1,0.6,0.3,0.9,0.4c0.6,0.3,1.1,0.5,1.9,0.7c0.2,0,0.4,0.1,0.6,0.1c0.1,0,0.2,0,0.3,0.1l0,0
		C-64.2,26-64,26-63.6,26c1.6,0,2.9-1,3.3-2.4C-60.3,22.4-61.5,20.7-63.3,20.2L-63.3,20.2z M-111.6,15.1l-4.6,2.2l-4.6-2.2l-1.1-4.9
		l3.1-4h5.1l3.1,4L-111.6,15.1L-111.6,15.1z M-84.4,4.3c0.8,3.5,1,7.1,0.7,10.5l-15.9-4.6c-1.5-0.4-2.3-1.9-2-3.3
		c0.1-0.4,0.3-0.8,0.6-1.1l12.6-11.4C-86.6-2.7-85.2,0.6-84.4,4.3L-84.4,4.3z M-93.3-11.9L-107-2.2c-1.1,0.7-2.7,0.5-3.6-0.6
		c-0.3-0.3-0.4-0.7-0.5-1.1l-0.9-17C-104.9-20.1-98.3-16.9-93.3-11.9L-93.3-11.9z M-123.5-20.4c1.1-0.2,2.2-0.4,3.3-0.6l-0.9,16.7
		c-0.1,1.5-1.3,2.7-2.8,2.7c-0.4,0-0.9-0.1-1.3-0.3l-13.9-9.9C-134.8-16.1-129.5-19.1-123.5-20.4L-123.5-20.4z M-144.1-5.6l12.4,11
		c1.1,0.9,1.3,2.7,0.3,3.9c-0.3,0.4-0.7,0.7-1.3,0.8l-16.1,4.7C-149.4,7.7-147.8,0.5-144.1-5.6L-144.1-5.6z M-146.9,22.6l16.6-2.8
		c1.4-0.1,2.6,0.8,2.9,2.2c0.1,0.6,0.1,1.1-0.1,1.7l0,0l-6.4,15.3C-139.7,35.2-144.4,29.5-146.9,22.6L-146.9,22.6z M-108.9,43.3
		c-2.4,0.5-4.8,0.8-7.3,0.8c-3.6,0-7.2-0.6-10.5-1.7l8.2-14.9c0.8-0.9,2.2-1.4,3.3-0.7c0.5,0.3,0.9,0.7,1.3,1.1l0,0l8,14.5
		C-106.8,42.8-107.8,43-108.9,43.3L-108.9,43.3z M-88.5,28.9c-2.6,4.2-6,7.5-10,10.1l-6.6-15.7c-0.3-1.3,0.2-2.6,1.5-3.2
		c0.4-0.2,0.9-0.3,1.5-0.3l16.7,2.8C-86.1,24.8-87.2,26.9-88.5,28.9L-88.5,28.9z"/>
</g>
<path class="st1" d="M305,8.4c-42.9,0-77.7,34.8-77.7,77.7s34.8,77.7,77.7,77.7s77.7-34.8,77.7-77.7S347.9,8.4,305,8.4z"/>
<g>
	<path class="st0" d="M52.1,251L52.1,251c2,0,3.5,1,3.5,5.3h-7.6C48.4,252.2,50.1,251,52.1,251 M62.6,270.1L62.6,270.1l-1.7-4.9
		c-3.4,1.2-5.4,1.8-7.2,1.8c-3.9,0-5.4-2.5-5.5-6h14.6v-3.3c0-8.6-4.2-11.9-10.4-11.9c-6.6,0-11.8,4.2-11.8,13.2
		c0,7.7,3,13.7,12.3,13.7C56.3,272.6,59.5,271.7,62.6,270.1"/>
	<path class="st0" d="M117.2,251L117.2,251c0.7,0,1.4,0.2,2,0.3l-6.9,11.1c-0.2-0.9-0.3-2.1-0.3-3.3C112,253.1,114.2,251,117.2,251
		 M114.8,267L114.8,267c-0.5-0.3-0.8-0.7-1.2-1L114.8,267z M122.1,259.1L122.1,259.1c0,6.1-1.9,8.4-5,8.4c-0.8,0-1.5-0.2-2.2-0.5
		l6.9-11.4C121.9,256.5,122.1,257.7,122.1,259.1 M129.6,258.7L129.6,258.7c0-7.5-3.5-13-12.3-13s-13,5.3-13,13.5
		c0,7.9,3.5,13.3,12.3,13.3C125.4,272.6,129.6,267.1,129.6,258.7"/>
	<path class="st0" d="M105.4,270.7L105.4,270.7l-1.9-4.2c-0.3,0.2-0.8,0.2-1.2,0.3h-0.2c-0.7,0.2-1.4,0.2-2.2,0.2
		c-2.5,0-3.2-1-3.2-4v-0.3v-11.8v-0.3h7.2v-4.9h-6.9c-0.3,0-0.3-0.2-0.3-0.5v-5.8v-0.3h-4.7c-0.2,0.9-0.3,1.8-0.5,2.5
		c-0.8,2.6-2.7,3.9-5.9,4v0.7v3.3v1h0.3h1h2c0.5,0,0.5,0.2,0.5,0.5v0.3v12.8v0.3c0,5.8,2.2,8.1,7.9,8.1
		C100.2,272.6,103.2,271.7,105.4,270.7"/>
	<path class="st0" d="M38.7,270.3L38.7,270.3v-0.5v-8.3h-4.9l-0.8,4.9c0,0.5-0.2,0.5-0.7,0.5h-9.9l16.5-23.7v-4.4H22h-7.2H14h-0.2
		v10.7H14h0.8h4l0.8-4.9c0-0.5,0.2-0.5,0.7-0.5h9.4l-16.1,23.3v3.3v1.2h25.1L38.7,270.3L38.7,270.3z"/>
	<path class="st0" d="M77.9,270.7L77.9,270.7v-2.8l-2.2-0.2c-0.3-0.2-0.5-0.2-0.7-0.3c-0.2-0.2-0.2-0.3-0.2-0.7v-13.2l0.7-0.7
		c1-0.9,3.5-2.3,7.9-2.3h0.3v-1v-3.2v-0.9c-0.8,0-2-0.2-2.7-0.2c-3,0-5.2,1.9-6.9,4.6H74l-0.7-4h-8.4l-0.5,4l2.5,1
		c0.5,0.2,0.7,0.5,0.7,1v14.7c0,0.7-0.2,0.9-0.8,1l-2.2,0.2v4.2h13.3L77.9,270.7L77.9,270.7z"/>
</g>
<g>
	<g>
		<path class="st0" d="M147,79.6L147,79.6c0-0.7,0.6-1.3,1.3-1.3c0.8,0,1.3,0.6,1.3,1.3v0c0,0.7-0.6,1.3-1.3,1.3
			C147.5,80.9,147,80.3,147,79.6 M149.4,79.6L149.4,79.6c0-0.6-0.5-1.1-1.1-1.1c-0.6,0-1.1,0.5-1.1,1.1v0c0,0.6,0.5,1.1,1.1,1.1
			C148.9,80.7,149.4,80.2,149.4,79.6z"/>
		<g>
			<path class="st0" d="M147.8,79.1c0-0.1,0.1-0.1,0.1-0.1h0.4c0.2,0,0.3,0,0.4,0.1c0.1,0.1,0.1,0.2,0.1,0.3v0
				c0,0.2-0.1,0.3-0.3,0.4l0.2,0.2c0,0,0,0.1,0,0.1c0,0.1-0.1,0.1-0.1,0.1c-0.1,0-0.1,0-0.1-0.1l-0.3-0.3h-0.2v0.3
				c0,0.1-0.1,0.1-0.1,0.1c-0.1,0-0.1-0.1-0.1-0.1V79.1z M148.3,79.6c0.1,0,0.2-0.1,0.2-0.2v0c0-0.1-0.1-0.2-0.2-0.2h-0.3v0.4H148.3
				z"/>
		</g>
	</g>
	<g>
		<path class="st0" d="M80,95.7l-5.5-15.4c-0.1-0.2-0.2-0.5-0.2-0.7c0-0.7,0.6-1.3,1.4-1.3c0.7,0,1.2,0.5,1.4,1.1l4.6,13.3l4.6-13.3
			c0.2-0.6,0.6-1.1,1.3-1.1h0.1c0.7,0,1.2,0.5,1.4,1.1l4.6,13.3l4.7-13.4c0.2-0.6,0.6-1.1,1.3-1.1c0.8,0,1.3,0.6,1.3,1.3
			c0,0.2-0.1,0.5-0.2,0.7l-5.6,15.5C95,96.5,94.5,97,93.8,97h-0.1c-0.7,0-1.2-0.4-1.5-1.2l-4.6-13.1l-4.6,13.1
			c-0.2,0.8-0.8,1.2-1.5,1.2h-0.1C80.9,97,80.3,96.5,80,95.7"/>
		<path class="st0" d="M120.4,79.6c0-0.7,0.6-1.4,1.3-1.4c0.8,0,1.4,0.6,1.4,1.4v3.1c1.3-3,4.3-4.5,6.3-4.5c0.8,0,1.3,0.6,1.3,1.4
			c0,0.7-0.5,1.3-1.2,1.4c-3.5,0.4-6.4,3.1-6.4,8.4v6.2c0,0.7-0.6,1.4-1.3,1.4c-0.8,0-1.4-0.6-1.4-1.4V79.6"/>
		<path class="st0" d="M139.5,97.1c-4.9,0-8.9-3.8-8.9-9.4v-0.1c0-5.2,3.6-9.4,8.6-9.4c5.3,0,8.3,4.4,8.3,9.2c0,0.7-0.6,1.3-1.2,1.3
			h-13c0.4,3.9,3.1,6.1,6.3,6.1c2.2,0,3.8-0.9,5.2-2.1c0.2-0.2,0.4-0.3,0.8-0.3c0.7,0,1.2,0.5,1.2,1.2c0,0.3-0.1,0.6-0.4,0.9
			C144.6,96,142.6,97.1,139.5,97.1 M144.8,86.6c-0.3-3.3-2.2-6.2-5.7-6.2c-3.1,0-5.5,2.6-5.8,6.2H144.8z"/>
		<path class="st0" d="M101.1,91.4L101.1,91.4c0-3.9,3.2-6,7.8-6c2.3,0,4,0.3,5.6,0.8v-0.6c0-3.3-2-5-5.4-5c-1.8,0-2.9,0.2-4.2,0.8
			c-0.2,0.1-0.4,0.1-0.5,0.1c-0.6,0-1.2-0.5-1.2-1.2c0-0.6,0.2-0.9,0.7-1.1c1.8-0.8,3.2-1,5.5-1c2.6,0,4.5,0.7,5.9,2
			c1.2,1.2,1.9,3,1.9,5.3v10.1c0,0.8-0.6,1.3-1.3,1.3c-0.8,0-1.3-0.6-1.3-1.3V94c-1.3,1.7-3.4,3.1-6.6,3.1
			C104.5,97.1,101.1,95.2,101.1,91.4 M114.6,90v-1.8c-1.3-0.4-3.1-0.8-5.4-0.8c-3.4,0-5.3,1.5-5.3,3.8v0.1c0,2.3,2.1,3.6,4.6,3.6
			C111.8,95,114.6,92.9,114.6,90z"/>
	</g>
	<path class="st0" d="M30.6,79.4c-0.6-1.3-2.1-1.9-3.5-1.3c-1.4,0.6-1.9,2.1-1.3,3.5l5.8,12.6c0.9,2,1.9,3,3.7,3
		c1.9,0,2.8-1.1,3.7-3c0,0,5-11,5.1-11.1c0.1-0.1,0.2-0.5,0.7-0.5c0.4,0,0.8,0.4,0.8,0.8v10.7c0,1.7,0.9,3,2.7,3
		c1.8,0,2.7-1.4,2.7-3v-8.8c0-1.7,1.2-2.8,2.9-2.8c1.7,0,2.8,1.1,2.8,2.8v8.8c0,1.7,0.9,3,2.7,3s2.7-1.4,2.7-3v-8.8
		c0-1.7,1.2-2.8,2.9-2.8c1.7,0,2.8,1.1,2.8,2.8v8.8c0,1.7,0.9,3,2.7,3c1.8,0,2.7-1.4,2.7-3v-10c0-3.7-3-6.3-6.5-6.3
		c-3.6,0-5.8,2.5-5.8,2.5c-1.2-1.5-2.8-2.5-5.6-2.5c-2.9,0-5.5,2.5-5.5,2.5c-1.2-1.5-3.2-2.5-4.9-2.5c-2.6,0-4.6,1.1-5.9,4l-3.7,8.7
		L30.6,79.4"/>
</g>
</svg>
