<?xml version="1.0" standalone="no"?>
<!DOCTYPE svg PUBLIC "-//W3C//DTD SVG 20010904//EN"
 "http://www.w3.org/TR/2001/REC-SVG-20010904/DTD/svg10.dtd">
<svg version="1.0" xmlns="http://www.w3.org/2000/svg"
 width="700.000000pt" height="700.000000pt" viewBox="0 0 700.000000 700.000000"
 preserveAspectRatio="xMidYMid meet">
<metadata>
Created by potrace 1.11, written by Peter Selinger 2001-2013
</metadata>
<g transform="translate(0.000000,700.000000) scale(0.100000,-0.100000)"
fill="#000000" stroke="none">
<path d="M1413 4521 c-98 -98 -382 -384 -631 -635 l-454 -456 469 -471 c257
-259 542 -545 631 -635 l164 -164 204 205 205 205 -98 99 c-54 54 -246 248
-426 430 l-328 331 333 336 c183 185 375 378 426 430 l94 93 -206 205 -205
206 -178 -179z"/>
<path d="M5222 4484 l-202 -204 106 -108 c58 -59 250 -252 426 -429 l320 -323
-350 -352 c-193 -194 -385 -388 -426 -430 l-76 -78 205 -205 204 -205 58 59
c586 594 1085 1100 1137 1154 l65 68 -630 630 c-346 346 -630 629 -632 628 -1
0 -93 -92 -205 -205z"/>
<path d="M2205 3941 c-95 -28 -165 -69 -236 -140 -168 -168 -205 -410 -97
-626 53 -104 165 -203 278 -245 112 -42 277 -37 395 13 250 104 382 390 299
647 -22 67 -87 173 -137 220 -50 47 -151 107 -212 126 -75 23 -217 26 -290 5z"/>
<path d="M3435 3953 c-129 -24 -213 -67 -302 -158 -108 -110 -160 -249 -150
-400 3 -44 11 -96 17 -115 77 -236 278 -384 514 -379 124 3 219 35 314 106
211 159 270 442 143 683 -35 66 -146 172 -219 209 -96 48 -226 71 -317 54z"/>
<path d="M4545 3941 c-186 -53 -330 -200 -379 -386 -23 -88 -15 -221 17 -309
83 -224 283 -357 517 -343 233 13 404 142 486 367 23 64 27 211 8 285 -45 172
-180 320 -345 375 -86 30 -222 35 -304 11z"/>
</g>
</svg>
