<?xml version="1.0" encoding="utf-8"?>
<!-- Generator: Adobe Illustrator 15.1.0, SVG Export Plug-In . SVG Version: 6.00 Build 0)  -->
<!DOCTYPE svg PUBLIC "-//W3C//DTD SVG 1.1//EN" "http://www.w3.org/Graphics/SVG/1.1/DTD/svg11.dtd">
<svg version="1.1" id="Layer_1" xmlns="http://www.w3.org/2000/svg" xmlns:xlink="http://www.w3.org/1999/xlink" x="0px" y="0px"
	 width="14400px" height="14400px" viewBox="0 0 14400 14400" enable-background="new 0 0 14400 14400" xml:space="preserve">
<g>
	<path fill="#D31145" d="M7199.58,7089.453c-61.062,0-110.569,49.495-110.569,110.548c0,61.07,49.507,110.564,110.569,110.564
		c61.054,0,110.553-49.494,110.553-110.564C7310.133,7138.947,7260.634,7089.453,7199.58,7089.453z M7134.635,7160.405l64.938-22.65
		l64.941,22.65v8.354h-129.879V7160.405z M7142.8,7179.502v-7.22h20.482v7.22H7142.8z M7160.976,7183.035v55.456h-15.865v-55.456
		H7160.976z M7261.257,7242.031v8.346h-123.36v-8.346H7261.257z M7189.337,7179.502v-7.22h20.474v7.22H7189.337z M7207.513,7183.035
		v55.456h-15.868v-55.456H7207.513z M7235.866,7179.502v-7.22h20.486v7.22H7235.866z M7254.033,7183.035v55.456h-15.86v-55.456
		H7254.033z M7270.013,7262.264h-140.881v-8.342h140.881V7262.264z"/>
	<polygon fill="#D31145" points="7168.445,7160.405 7230.703,7160.405 7199.572,7149.551 	"/>
</g>
</svg>
