<svg xmlns="http://www.w3.org/2000/svg" width="13.886" height="11.207" viewBox="0 0 13.886 11.207">
  <path id="Path_125" data-name="Path 125" d="M8.694,22.014H19.515l-3.724,3.724a.694.694,0,1,0,.982.982l4.909-4.909h0a.7.7,0,0,0,.086-.106c.012-.018.02-.036.03-.055a.7.7,0,0,0,.034-.065.617.617,0,0,0,.022-.072c.006-.019.013-.038.017-.057a.694.694,0,0,0,.014-.136h0v0a.7.7,0,0,0-.014-.134c0-.021-.012-.04-.018-.061a.645.645,0,0,0-.021-.069.719.719,0,0,0-.036-.069c-.009-.017-.017-.034-.028-.051a.684.684,0,0,0-.087-.107L16.773,15.92a.694.694,0,1,0-.982.982l3.724,3.724H8.694a.694.694,0,1,0,0,1.389Z" transform="translate(-8 -15.716)" fill="#ef3a2c"/>
</svg>
