<?xml version="1.0" encoding="utf-8"?>
<!-- Generator: Adobe Illustrator 23.0.4, SVG Export Plug-In . SVG Version: 6.00 Build 0)  -->
<svg version="1.1" id="Layer_1" xmlns="http://www.w3.org/2000/svg" xmlns:xlink="http://www.w3.org/1999/xlink" x="0px" y="0px"
	 viewBox="0 0 175.2 175" style="enable-background:new 0 0 175.2 175;" xml:space="preserve">
<style type="text/css">
	.st0{fill:#FFFFFF;}
	.st1{fill:#57575D;}
</style>
<g transform="translate(328.539 -1182.5) rotate(90)">
	<circle class="st0" cx="1270" cy="240.8" r="87.5"/>
</g>
<g>
	<path class="st1" d="M-113,27.8c-42.9,0-77.7,34.8-77.7,77.7s34.8,77.7,77.7,77.7s77.7-34.8,77.7-77.7S-70,27.8-113,27.8z"/>
	<path class="st0" d="M-60.5,117.5L-60.5,117.5L-60.5,117.5C-60.6,117.5-60.6,117.5-60.5,117.5h-0.1c-0.1,0-0.2,0-0.2-0.1
		c-0.2,0-0.4-0.1-0.6-0.1c-0.7-0.1-1.4-0.2-2-0.2c-0.3,0-0.6,0-1-0.1h-0.1c-2.2-0.2-4-0.4-5.6-0.9c-0.7-0.3-0.9-0.7-1.1-1.1
		c0-0.1-0.1-0.1-0.1-0.2l0,0l-1.4-0.4c0.6-4.8,0.4-9.8-0.7-14.7c-1.1-4.9-3.1-9.5-5.8-13.6l1-0.9v-0.2c0-0.5,0.1-1,0.5-1.6
		c1.3-1.1,2.8-2.1,4.7-3.2l0,0c0.3-0.2,0.6-0.3,0.9-0.5c0.6-0.3,1.1-0.6,1.8-1c0.1-0.1,0.3-0.2,0.5-0.4c0.1-0.1,0.2-0.1,0.2-0.2l0,0
		c1.5-1.3,1.8-3.3,0.7-4.7c-0.5-0.7-1.5-1.1-2.4-1.1c-0.8,0-1.6,0.3-2.3,0.8l0,0l0,0c-0.1,0.1-0.1,0.1-0.2,0.2
		c-0.2,0.1-0.3,0.3-0.5,0.4c-0.5,0.5-0.9,0.9-1.4,1.5c-0.2,0.2-0.4,0.5-0.7,0.7l0,0c-1.5,1.6-2.8,2.8-4.2,3.8
		c-0.3,0.2-0.6,0.3-0.9,0.3c-0.2,0-0.4,0-0.6-0.1h-0.2l0,0l-1.3,0.8c-1.4-1.5-2.8-2.7-4.3-4c-6.3-4.9-13.9-7.9-21.8-8.6l-0.1-1.4
		c-0.1-0.1-0.1-0.1-0.2-0.2c-0.3-0.3-0.7-0.6-0.8-1.4c-0.1-1.7,0.1-3.5,0.3-5.6v-0.1c0-0.3,0.1-0.7,0.2-1c0.1-0.6,0.2-1.3,0.3-2
		v-0.6v-0.3l0,0l0,0c0-1.9-1.5-3.4-3.2-3.4c-0.8,0-1.7,0.4-2.3,1s-0.9,1.5-0.9,2.4l0,0l0,0v0.2V56c0,0.7,0.1,1.4,0.3,2
		c0.1,0.3,0.1,0.6,0.2,1v0.1c0.2,2.1,0.5,4,0.3,5.6c-0.1,0.7-0.5,1-0.8,1.4c-0.1,0.1-0.1,0.1-0.2,0.2l0,0l-0.1,1.4
		c-1.9,0.2-3.8,0.4-5.6,0.8c-8,1.8-15.1,5.8-20.6,11.7l-1-0.7h-0.2c-0.2,0-0.4,0.1-0.6,0.1c-0.3,0-0.6-0.1-0.9-0.3
		c-1.4-0.9-2.7-2.3-4.2-3.9l0,0c-0.2-0.2-0.4-0.5-0.7-0.7c-0.4-0.5-0.8-0.9-1.4-1.5c-0.1-0.1-0.3-0.2-0.5-0.4
		c-0.1-0.1-0.2-0.1-0.2-0.2l0,0c-0.6-0.5-1.5-0.8-2.3-0.8c-0.9,0-1.9,0.4-2.4,1.1c-1,1.4-0.7,3.4,0.7,4.7l0,0l0,0
		c0.1,0,0.1,0.1,0.2,0.1c0.2,0.1,0.3,0.3,0.5,0.4c0.6,0.4,1.1,0.7,1.8,1c0.3,0.1,0.6,0.3,0.9,0.5l0,0c1.9,1.1,3.4,2.1,4.7,3.2
		c0.5,0.5,0.5,1,0.5,1.6v0.2l0,0l1,0.9c-0.2,0.3-0.4,0.5-0.5,0.8c-5.2,8.2-7.2,17.9-5.8,27.5l-1.4,0.4c0,0.1-0.1,0.1-0.1,0.2
		c-0.2,0.4-0.5,0.8-1.1,1.1c-1.6,0.5-3.4,0.7-5.6,0.9h-0.1c-0.3,0-0.7,0-1,0.1c-0.6,0-1.3,0.1-2,0.2c-0.2,0-0.4,0.1-0.6,0.1
		c-0.1,0-0.2,0-0.3,0.1l0,0l0,0c-1.9,0.4-3,2.2-2.7,3.9c0.3,1.5,1.7,2.4,3.3,2.4c0.3,0,0.5,0,0.8-0.1l0,0l0,0c0.1,0,0.2,0,0.2-0.1
		c0.2,0,0.4-0.1,0.6-0.1c0.7-0.2,1.3-0.4,1.9-0.7c0.3-0.1,0.6-0.3,0.9-0.4h0.1c2-0.7,3.8-1.4,5.4-1.6h0.2c0.6,0,1,0.3,1.4,0.5
		c0.1,0,0.1,0.1,0.2,0.1l0,0l1.5-0.2c2.5,7.7,7.3,14.6,13.6,19.6c1.5,1.1,2.9,2.1,4.5,3l-0.6,1.4c0,0.1,0.1,0.1,0.1,0.2
		c0.2,0.4,0.4,0.9,0.2,1.7c-0.6,1.6-1.6,3.1-2.7,4.9v0.1c-0.2,0.3-0.4,0.5-0.6,0.8c-0.4,0.5-0.7,1-1.1,1.7c-0.1,0.1-0.2,0.3-0.3,0.5
		c0,0.1-0.1,0.2-0.1,0.2l0,0l0,0c-0.8,1.8-0.2,3.8,1.4,4.5c0.4,0.2,0.8,0.3,1.3,0.3c1.3,0,2.5-0.8,3.1-2l0,0l0,0
		c0-0.1,0.1-0.2,0.1-0.2c0.1-0.2,0.2-0.4,0.3-0.5c0.3-0.7,0.4-1.3,0.6-1.9c0.1-0.3,0.2-0.6,0.3-0.9l0,0c0.7-2.1,1.3-3.8,2.2-5.2
		c0.4-0.6,0.9-0.7,1.4-0.9c0.1,0,0.1,0,0.2-0.1l0,0l0.7-1.4c4.6,1.8,9.6,2.7,14.6,2.7c3,0,6.1-0.3,9.1-1c1.9-0.4,3.6-0.9,5.4-1.6
		l0.6,1.1c0.1,0,0.1,0,0.2,0.1c0.5,0.1,0.9,0.3,1.4,0.9c0.8,1.5,1.5,3.2,2.2,5.2v0.1c0.1,0.3,0.2,0.6,0.3,0.9
		c0.2,0.6,0.3,1.3,0.6,1.9c0.1,0.2,0.2,0.3,0.3,0.5c0,0.1,0.1,0.2,0.1,0.2l0,0l0,0c0.6,1.3,1.9,2,3.1,2c0.4,0,0.8-0.1,1.3-0.3
		c0.7-0.4,1.4-1,1.6-1.9s0.2-1.8-0.2-2.6l0,0l0,0c0-0.1-0.1-0.1-0.1-0.2c-0.1-0.2-0.2-0.4-0.3-0.5c-0.3-0.6-0.7-1.1-1.1-1.7
		c-0.2-0.3-0.4-0.5-0.6-0.8v-0.1c-1.1-1.8-2.2-3.3-2.7-4.9c-0.2-0.7,0-1.1,0.1-1.7c0-0.1,0.1-0.1,0.1-0.2l0,0l-0.5-1.3
		c5.5-3.2,10.2-7.8,13.8-13.4c1.9-2.9,3.3-6.1,4.4-9.4l1.3,0.2c0.1,0,0.1-0.1,0.2-0.1c0.4-0.2,0.7-0.5,1.4-0.5h0.2
		c1.7,0.2,3.4,0.8,5.4,1.6h0.1c0.3,0.1,0.6,0.3,0.9,0.4c0.6,0.3,1.1,0.5,1.9,0.7c0.2,0,0.4,0.1,0.6,0.1c0.1,0,0.2,0,0.3,0.1l0,0
		c0.3,0.1,0.5,0.1,0.8,0.1c1.6,0,2.9-1,3.3-2.4C-57.5,119.7-58.6,118-60.5,117.5L-60.5,117.5z M-108.7,112.4l-4.6,2.2l-4.6-2.2
		l-1.1-4.9l3.1-4h5.1l3.1,4L-108.7,112.4L-108.7,112.4z M-81.5,101.6c0.8,3.5,1,7.1,0.7,10.5l-15.9-4.6c-1.5-0.4-2.3-1.9-2-3.3
		c0.1-0.4,0.3-0.8,0.6-1.1l12.6-11.4C-83.7,94.6-82.4,97.9-81.5,101.6L-81.5,101.6z M-90.5,85.4l-13.6,9.7c-1.1,0.7-2.7,0.5-3.6-0.6
		c-0.3-0.3-0.4-0.7-0.5-1.1l-0.9-17C-102.1,77.2-95.5,80.4-90.5,85.4L-90.5,85.4z M-120.7,76.9c1.1-0.2,2.2-0.4,3.3-0.6l-0.9,16.7
		c-0.1,1.5-1.3,2.7-2.8,2.7c-0.4,0-0.9-0.1-1.3-0.3l-13.9-9.9C-132,81.1-126.6,78.2-120.7,76.9L-120.7,76.9z M-141.2,91.7l12.4,11
		c1.1,0.9,1.3,2.7,0.3,3.9c-0.3,0.4-0.7,0.7-1.3,0.8l-16.1,4.7C-146.5,105-145,97.8-141.2,91.7L-141.2,91.7z M-144,119.9l16.6-2.8
		c1.4-0.1,2.6,0.8,2.9,2.2c0.1,0.6,0.1,1.1-0.1,1.7l0,0l-6.4,15.3C-136.9,132.5-141.5,126.8-144,119.9L-144,119.9z M-106,140.6
		c-2.4,0.5-4.8,0.8-7.3,0.8c-3.6,0-7.2-0.6-10.5-1.7l8.2-14.9c0.8-0.9,2.2-1.4,3.3-0.7c0.5,0.3,0.9,0.7,1.3,1.1l0,0l8,14.5
		C-103.9,140.1-105,140.3-106,140.6L-106,140.6z M-85.7,126.2c-2.6,4.2-6,7.5-10,10.1l-6.6-15.7c-0.3-1.3,0.2-2.6,1.5-3.2
		c0.4-0.2,0.9-0.3,1.5-0.3l16.7,2.8C-83.3,122.1-84.3,124.2-85.7,126.2L-85.7,126.2z"/>
</g>
<g>
	<path class="st1" d="M32.2,285.2c-6.8,0-12.3,5.5-12.3,12.3l0,0v6.9h24.5v-6.9C44.4,290.7,39,285.2,32.2,285.2z"/>
	<path class="st1" d="M-12.4,264.7c-6.2,0-11.1,5-11.1,11.1v5.8h22.3v-5.8C-1.3,269.7-6.3,264.8-12.4,264.7z"/>
	<path class="st1" d="M32.2,317.4c-3.6,0-6.5,2.8-6.6,6.4c0,2.5,1.4,4.8,3.7,5.9v10.2h5.5v-10.2c3.2-1.5,4.6-5.4,3.1-8.6
		c-1.1-2.3-3.4-3.7-5.9-3.7H32.2z"/>
	<path class="st1" d="M9.9,229.4c-42.9,0-77.7,34.8-77.7,77.7s34.8,77.7,77.7,77.7s77.7-34.8,77.7-77.7S52.8,229.4,9.9,229.4z
		 M-3.3,332.6h-32.9c-4.8,0-8.6-3.9-8.6-8.6v-42.3h10.7v-5.8c0-11.9,9.7-21.6,21.6-21.6c11.9,0,21.6,9.7,21.6,21.6c0,0,0,0,0,0v5.8
		h4c-0.6,0.7-1.2,1.5-1.7,2.3H7v-8.1c0-10.7-8.6-19.3-19.3-19.3s-19.3,8.6-19.3,19.3v8.2h-10.8V324c0.1,3.4,2.8,6.1,6.2,6.2h32.9
		V332.6z M1,284.1h-26.9V276c0-7.4,6-13.4,13.4-13.4c7.4,0,13.4,6,13.4,13.4V284.1z M63.3,343.8c0,5.1-4.2,9.3-9.3,9.3c0,0,0,0,0,0
		H10.3c-5.1,0-9.3-4.2-9.3-9.3l0,0v-39.4h10.7v-6.9c0-11.3,9.2-20.4,20.4-20.4s20.4,9.2,20.4,20.4v6.9h10.7L63.3,343.8z"/>
</g>
<path class="st1" d="M214.9,282.4c-42.9,0-77.7,34.8-77.7,77.7s34.8,77.7,77.7,77.7s77.7-34.8,77.7-77.7S257.8,282.4,214.9,282.4z"
	/>
<path class="st1" d="M-195.1,226.7c-42.9,0-77.7,34.8-77.7,77.7s34.8,77.7,77.7,77.7s77.7-34.8,77.7-77.7S-152.2,226.7-195.1,226.7z
	 M-161.4,332.1h-77.2c-9.7-1.6-16.8-9.9-16.8-19.7c0-10.8,8.7-19.7,19.6-19.7c1.1,0,2.2,0.1,3.3,0.2c0.5-9.7,8.5-17.2,18.2-17.3
	c2,0,3.9,0.3,5.8,0.9c4.1-13.1,18-20.4,31.2-16.3c8.5,2.7,14.9,9.6,16.9,18.3c14.8,0.6,26.3,13.2,25.6,28
	c-0.6,14.2-12.2,25.4-26.4,25.7L-161.4,332.1z"/>
<g id="yrimZZ_1_">
	<path class="st1" d="M-179.5,305.7h-6.6l10.9-13.6l10.7,13.6h-2.2c-1.2,0-2.3,0-3.5,0c-0.4,0-0.6,0.1-0.7,0.6
		c-0.8,11.3-9.4,20.5-20.6,22.2c-6.4,1-12.9-0.6-18.1-4.4l-0.4-0.3c0-0.1-0.1-0.1-0.1-0.2l5.2-6.7c6.1,4.2,12.3,4.5,18.5,0.4
		C-182.4,314.7-179.9,310.4-179.5,305.7z"/>
	<path class="st1" d="M-210.7,303.3h6.5l-10.8,13.7l-10.7-13.6h6.1c1.3-11.1,6.9-18.8,17.6-22.1c7.8-2.4,15.2-0.8,21.8,4.2l-5.4,6.7
		c-5.7-3.9-11.5-4.4-17.5-1.1C-207.5,293.6-210.4,298.2-210.7,303.3z"/>
</g>
<g>
	<path class="st0" d="M271.7,350.2c-1.3-0.3-2.6,0.3-3.2,1.4l-7.8,15.1c-0.2,0.4-0.6,0.7-1.1,0.7l0,0c-0.5,0-0.9-0.3-1.1-0.7
		l-7.8-15.1c-0.6-1.2-1.9-1.8-3.2-1.4c-1.3,0.3-2.2,1.5-2.1,2.8v15.9c0,0.7,0.6,1.4,1.4,1.4c0.7,0,1.4-0.6,1.4-1.4c0,0,0,0,0,0
		v-16.2c0-0.1,0-0.1,0.1-0.2c0.1,0,0.1,0.1,0.1,0.1l7.8,15.2c1,1.9,3.4,2.7,5.3,1.7c0.7-0.4,1.3-1,1.7-1.7l7.8-15.2
		c0-0.1,0.1-0.1,0.1-0.1c0.1,0,0.1,0.1,0.1,0.2v16.2c0,0.7,0.6,1.4,1.4,1.4s1.4-0.6,1.4-1.4V353C273.9,351.6,273,350.5,271.7,350.2z
		"/>
	<path class="st0" d="M178.5,350.3c-0.7-0.3-1.5-0.1-1.8,0.5c0,0,0,0,0,0l-8.5,16.4c-0.2,0.3-0.4,0.5-0.7,0.5
		c-0.2,0-0.5-0.2-0.7-0.5l-8.5-16.4c-0.3-0.7-1.1-0.9-1.8-0.6c0,0,0,0,0,0c-0.7,0.4-0.9,1.2-0.6,1.8l8.5,16.2c0.6,1.2,1.8,2,3.1,2
		s2.4-0.7,3.1-2l8.5-16.2C179.5,351.5,179.2,350.6,178.5,350.3z"/>
	<path class="st0" d="M188.8,349.7c-5.6,0-10.2,4.7-10.2,10.4c0,5.7,4.6,10.4,10.2,10.4c3.2,0,6.3-1.6,8.2-4.2
		c0.4-0.6,0.3-1.5-0.3-1.9c-0.6-0.4-1.4-0.3-1.9,0.3c0,0,0,0,0,0c-1.4,2-3.6,3.2-6,3.2c-3.7,0-6.8-2.9-7.4-6.4h16.3
		c0.7,0,1.3-0.6,1.3-1.4C199,354.4,194.4,349.7,188.8,349.7z M181.4,359c0.6-3.6,3.7-6.7,7.4-6.7c3.7,0,6.8,3.1,7.4,6.7H181.4z"/>
	<path class="st0" d="M211,349.7c-5.6,0-10.2,4.7-10.2,10.4c0,5.7,4.6,10.4,10.2,10.4c3.2,0,6.3-1.6,8.2-4.2
		c0.4-0.6,0.3-1.5-0.3-1.9c-0.6-0.4-1.4-0.3-1.9,0.3c0,0,0,0,0,0c-1.4,2-3.6,3.2-6,3.2c-3.7,0-6.8-2.9-7.4-6.4h16.3
		c0.7,0,1.3-0.6,1.3-1.4C221.2,354.4,216.6,349.7,211,349.7z M203.6,359c0.6-3.6,3.7-6.7,7.4-6.7c3.7,0,6.8,3.1,7.4,6.7H203.6z"/>
	<path class="st0" d="M235,352c-0.6-1.2-1.7-1.9-3-1.9s-2.3,0.7-3,1.9l-8.5,16.2c-0.4,0.7-0.1,1.5,0.6,1.8c0,0,0,0,0,0
		c0.2,0.1,0.4,0.2,0.6,0.2c0.5,0,1-0.3,1.2-0.7l2.4-4.6h9.8c0.7,0,1.3-0.6,1.3-1.4c0,0,0,0,0,0c0-0.8-0.7-1.3-1.4-1.3l-8.4,0
		l4.7-9.4c0.2-0.3,0.4-0.5,0.6-0.5c0.2,0,0.4,0.2,0.6,0.5l8.5,16.5c0.3,0.7,1.1,0.9,1.8,0.6c0,0,0,0,0,0c0.7-0.4,0.8-1.3,0.5-2
		L235,352z"/>
</g>
<g>
	<polygon class="st1" points="387.5,-74.3 387.6,-80.1 385.6,-74.3 	"/>
	<path class="st1" d="M380.7-138c-42.9,0-77.7,34.8-77.7,77.7s34.8,77.7,77.7,77.7s77.7-34.8,77.7-77.7S423.6-138,380.7-138z
		 M370.8-86.9v4.7h-5.6v-6.6c-0.2-1.6,0.9-3,2.4-3.3c0.3,0,0.6,0,0.8,0h7.5c1.6-0.2,3,0.9,3.2,2.5c0,0.2,0,0.5,0,0.7v5
		c0,1.2-0.4,2.3-1,3.3l-6.3,10.9h7.2v5.1h-14.2v-3.7l8.6-15.2v-3.6H370.8z M393-82v7.7h2v5h-2v4.8h-5.6v-4.9h-8.4v-3.4l6.8-19.3h5.4
		v1.2l-2.9,8.6L393-82z M365.6-59.9v-2.2l29.3,0.2v4.5l-29.3-0.2V-59.9z M378.2-50.5v3.7h-5.5v-8.8h14.4v3.6l-6.2,23.8h-5.8
		l5.8-22.3H378.2z M429.1-40.6c-1.1,1.3-2.7,2.1-4.4,2h-6l-7.8,23.4c-0.8,2.5-3.1,4.1-5.8,4.1h-10.4c-1,1.8-2.9,2.9-4.9,2.9h-13.2
		c-3.1,0.2-5.7-2.1-5.9-5.1c-0.2-3.1,2.1-5.7,5.1-5.9c0.3,0,0.5,0,0.8,0h13.2c2.3-0.1,4.4,1.3,5.3,3.5h10.2c0.6,0,1.1-0.4,1.3-0.9
		l7.3-22h-9.2c-1.5,0-2.6-1.2-2.6-2.6c0,0,0,0,0,0l0.2-30c0-1.5,1.2-2.6,2.7-2.6h6.6c0-16.6-13.4-30.1-30-30.2h-1.6
		c-16.6-0.1-30.2,13.3-30.3,29.9h6.6c1.5,0,2.6,1.2,2.6,2.6c0,0,0,0,0,0l-0.2,30c0,1.5-1.2,2.6-2.6,2.6c0,0,0,0,0,0h-8.6l0,0h-11.5
		c-1.7,0-3.3-0.7-4.3-2c-6-9.6-6-21.7,0-31.2c1.1-1.3,2.7-2.1,4.4-2h2.9c0.1-22.5,18.4-40.7,40.9-40.7c0.1,0,0.2,0,0.3,0h1.6
		c22.5,0.1,40.7,18.5,40.5,41c0,0,0,0,0,0h2.9c1.7,0,3.3,0.7,4.4,2.1C435.3-62.2,435.2-50.1,429.1-40.6L429.1-40.6z"/>
</g>
<g>
	<path class="st1" d="M-198.1-164.7c19.8,0,32-5.4,32-9.2s-12.1-9.2-32-9.2s-31.9,5.4-31.9,9.2S-217.9-164.7-198.1-164.7z"/>
	<path class="st1" d="M-194.1-115c-1.3,0-2.6,0.2-4,0.2c-14.4,0-26.8-3.5-32.8-9v10c0,6.1,13.5,12.8,32.8,12.8
		c3.1,0,6.2-0.2,9.3-0.6c-0.8-1-1.5-2.1-2.1-3.3C-192.6-108.1-193.7-111.5-194.1-115z"/>
	<path class="st1" d="M-198.1-143.3c19.3,0,32.8-6.8,32.8-12.8v-8.8c-5.8,5-19.6,7.6-32.8,7.6c-13.2,0-26.9-2.6-32.8-7.6v8.8
		C-231-150.1-217.4-143.3-198.1-143.3z"/>
	<path class="st1" d="M-198.1-122c1.4,0,2.6,0,4-0.2c0.1-1.1,0.3-2.3,0.5-3.4c1-3.9,2.7-7.7,5.2-10.9c-3.2,0.4-6.5,0.6-9.8,0.7
		c-14.4,0-26.8-3.5-32.8-9.1v10C-231-128.8-217.4-122-198.1-122z"/>
	<path class="st1" d="M-190.7-215.8c-42.9,0-77.7,34.8-77.7,77.7s34.8,77.7,77.7,77.7S-113-95.1-113-138S-147.8-215.8-190.7-215.8z
		 M-164.8-89.1c-8.4,0-16.5-3.6-22.1-10c0.2,0.3,0.4,0.7,0.7,1c-4,0.6-8,0.9-12,0.9c-20.6,0-36.8-7.4-36.8-16.8v-10.4
		c0-1.6,0.5-3.2,1.3-4.5l0.4-0.7c-1.1-1.5-1.7-3.3-1.8-5.2v-10.6c0-1.6,0.5-3.2,1.3-4.5l0.5-0.9c-1.1-1.5-1.8-3.4-1.8-5.3v-10.7
		c0-1.5,0.4-3,1.2-4.3l0.2-0.5c-0.3-0.7-0.5-1.5-0.5-2.4c0-8.6,18.5-13.2,35.9-13.2s35.9,4.6,35.9,13.2c0,0.8-0.2,1.6-0.6,2.4
		l0.3,0.5c0.8,1.3,1.2,2.8,1.2,4.3v10.7c0,1.9-0.7,3.8-1.8,5.3l0.5,0.9c0.3,0.6,0.6,1.2,0.8,1.8c16.2,2.1,27.7,17,25.6,33.2
		C-138.1-100.5-150.2-89.5-164.8-89.1z"/>
	<path class="st1" d="M-163.8-142.4h-1c-1,0-2,0.1-3.1,0.2c-8.9,1.2-16.3,7.2-19.3,15.6c-0.4,1.1-0.7,2.3-0.9,3.5
		c-0.2,1.3-0.4,2.7-0.4,4c0,0,0,0,0,0.2c0,13.1,10.6,23.8,23.7,23.8c13.1,0,23.8-10.6,23.8-23.7c0-12.8-10.1-23.2-22.8-23.7V-142.4z
		 M-147.8-112.1c0,1.4-0.9,1.1-0.9,1.1h-18.6v6c0,1.8-1.5,0.1-1.5,0.1l-12.8-13c-0.5-0.4-0.5-1.2-0.1-1.7c0,0,0.1-0.1,0.1-0.1
		c1.2-1.2,13.2-12.8,13.2-12.8s1.6-1.6,1.6,0.5v5.4h18.4c0,0,0.7,0,0.7,0.9L-147.8-112.1z"/>
</g>
<g>
	<path class="st1" d="M25.6-196.5c-42.9,0-77.7,34.8-77.7,77.7S-17.3-41,25.6-41s77.7-34.8,77.7-77.7S68.6-196.5,25.6-196.5z
		 M25.6-60.2c-36.1-19-56.1-58.9-49.8-99.2c0,0,35.8-4.2,49.8-17.9c15,13.3,49.9,17.9,49.9,17.9c0.8,4.8,1.1,9.7,1.2,14.6
		C76.7-109.3,57-76.8,25.6-60.2z"/>
	<polygon class="st1" points="18.8,-115.6 7.6,-127.6 -0.7,-119.9 18.1,-99.7 18.4,-99.4 57,-135.4 49.1,-143.8 	"/>
	<path class="st1" d="M68.8-153.2c-9.7-1.7-29.9-6.2-43.2-15c-13,9.2-33.4,13.4-43.4,15.1c-0.3,2.9-0.4,5.6-0.4,8.3
		c0,31.4,16.7,60.5,43.8,76.3c27.1-15.8,43.7-44.8,43.7-76.2C69.4-147.5,69.2-150.4,68.8-153.2z M25.6-75.2
		c-23.6-15.2-37.9-41.4-38-69.4c0-1.1,0-2.2,0-3.4c10.7-2,26.3-6,38.1-13.2c11.8,6.2,24.5,10.6,37.7,13c0,1.2,0,2.4,0,3.5
		C63.4-116.6,49.2-90.5,25.6-75.2z"/>
</g>
<g>
	<path class="st1" d="M87.6,9.8C44.7,9.8,9.9,44.6,9.9,87.5s34.8,77.7,77.7,77.7s77.7-34.8,77.7-77.7S130.5,9.8,87.6,9.8z M139.1,77
		c-3.1-0.9-6.3-1.3-9.6-1.3c-2.5,0-5.1,0.2-7.6,0.5c-0.7-1.1-1.8-1.8-3.1-1.9v-0.4c-1.7-6.4-4.2-12.5-7.4-18.3
		c0.1-0.1,0.2-0.3,0.3-0.4l2.9,0.7c7.6,1.9,14.8,5.4,21.1,10.1C137.2,69.6,138.4,73.2,139.1,77z M76.8,55l0.7-0.2
		c4-0.8,8-1.3,12.1-1.5c2.2,4.6,3.8,9.4,4.8,14.4c1,4.7,1.5,9.4,1.5,14.2c-1.8,0.6-3,2.3-2.9,4.1c-2,1-4,2.1-5.9,3.3
		c-1.5,0.9-2.9,1.8-4.4,2.9l-0.5-0.3c-1.7-1-3.8-0.6-5.1,0.8l-1.2-0.5c-2.8-1.3-5.5-2.9-8-4.7c0.5-1.8-0.3-3.7-1.9-4.7l0,0
		c0.6-3.9,1.5-7.9,2.6-11.7c1.3-4.3,2.8-8.5,4.6-12.7C74.9,58,76.2,56.7,76.8,55z M76.1,51.8c1.7-3.4,3.6-6.6,5.6-9.6h0.5
		c1.9,2.1,3.6,4.5,5.1,7l0.7,1.2c-3.7,0.2-7.4,0.7-11.1,1.5L76.1,51.8L76.1,51.8z M92.9,53.3c3.7,0,7.4,0.2,11.1,0.7
		c0.8,1.6,2.4,2.7,4.3,2.9c3.2,5.7,5.6,11.7,7.3,17.9v0.5l-0.2,0.1c-0.6,0.6-0.9,1.4-0.9,2.2c-5,1.3-10,3-14.7,5.1
		c-0.2-0.2-0.5-0.4-0.7-0.5h-0.2c0-5.1-0.5-10.1-1.6-15.1c-0.9-4.7-2.3-9.4-4.2-13.8L92.9,53.3z M95.4,89.6c0,0.2,0,0.5,0,0.7
		c-0.2,1.7-0.5,3.4-0.9,5.1c-1.1,0.2-2.1,0.9-2.6,1.9c-2.6-0.5-5.1-1.2-7.6-2c0-0.2,0-0.3,0-0.5c1.5-0.9,2.9-1.9,4.5-2.9
		c1.6-1,3.8-2.1,5.8-3.1c0.2,0.2,0.4,0.4,0.7,0.5L95.4,89.6z M65.5,70.2c-1.2,4-2.1,8.1-2.7,12.2c-0.3,0.1-0.5,0.2-0.8,0.3
		c-1.3-1.2-2.6-2.5-3.8-3.9c-2.7-3.2-5-6.8-6.5-10.7c0.2-0.2,0.3-0.5,0.5-0.8c0.4-0.8,0.7-1.6,0.7-2.5c4.9-3.3,10.3-5.9,15.9-7.7
		c0.3,0.4,0.6,0.7,1,0.9C68.1,62,66.7,66.1,65.5,70.2z M65.1,90.4c0.3-0.1,0.6-0.2,0.9-0.4c2.7,1.9,5.6,3.5,8.6,5l1.4,0.7
		c0,0.4,0.1,0.7,0.2,1.1c-3.4,2.5-6.6,5.2-9.6,8.1c-0.3-0.2-0.7-0.4-1.1-0.5C65,99.6,64.8,95,65.1,90.4z M68.3,113.4
		c4.3,2,8.5,4.1,12.6,6.6c-0.2,0.9,0,1.8,0.5,2.6c-1.9,2.2-3.9,4.3-6.1,6.3c-3.2-4.6-5.7-9.6-7.4-14.9c0.1-0.2,0.3-0.5,0.4-0.7
		V113.4z M69.3,110.5c0-1-0.2-2-0.6-2.9c3-3.1,6.2-6,9.6-8.6c1.6,0.8,3.5,0.5,4.7-0.8c2.8,0.9,5.6,1.6,8.4,2.2
		c0.2,0.8,0.6,1.5,1.2,2c-1.7,5.1-4.1,9.9-7.1,14.4c-1-0.2-2-0.1-2.9,0.4c-4.3-2.6-8.8-4.9-13.4-7V110.5z M95.6,103.9
		c1.4-0.1,2.6-0.8,3.3-2c5.8,0.6,11.6,0.5,17.3-0.4c0.3,1.2,1.1,2.1,2.3,2.4c0,1.8-0.1,3.6-0.4,5.4c-1.2,0.4-2.2,1.4-2.6,2.6
		c-2.3,1.1-4.6,2.3-6.7,3.7c-4.7,3-8.9,6.6-12.5,10.9l0,0c-2.2-1.8-4.6-3.5-7.2-5.3c0.1-1-0.2-1.9-0.7-2.7c3.1-4.6,5.6-9.7,7.3-14.9
		L95.6,103.9z M116.7,98.4c-5.7,0.9-11.5,1.1-17.3,0.5c-0.2-1-0.9-1.9-1.8-2.5c0.4-1.8,0.7-3.5,0.9-5.3c0-0.3,0-0.7,0-1
		c1.7-0.6,2.7-2.3,2.6-4c4.7-2,9.5-3.7,14.4-5c0.1,0.2,0.3,0.3,0.4,0.5c0.4,0.3,0.8,0.6,1.2,0.8c0.8,4.5,1.3,9,1.4,13.6
		c-0.8,0.5-1.5,1.2-2,2.1V98.4z M113.8,42.3c7.7,4.4,14.1,10.6,18.7,18.2c-5.3-3.3-11.1-5.8-17.2-7.5c-1.2-0.3-2.4-0.6-3.6-0.9
		c-0.8-2-2.6-3.3-4.7-3.4c-3.3-4.8-7.3-9.3-11.7-13.2c6.5,0.9,12.7,3.1,18.4,6.3L113.8,42.3z M84.7,37.9c0.7-1,1.4-2,2.2-2.9h2.9
		c5.5,4.3,10.4,9.4,14.4,15.1c-0.1,0.2-0.2,0.4-0.3,0.6c-4.1-0.5-8.2-0.7-12.4-0.6c-0.5-0.9-0.9-1.8-1.4-2.6
		c-1.5-2.7-3.3-5.1-5.3-7.4c0-0.2,0-0.3,0-0.5C85,39.1,85,38.5,84.7,37.9z M82.8,35.2l-1.2,1.6h-0.4c-0.6-0.5-1.2-0.9-1.8-1.3
		C80.6,35.4,81.7,35.3,82.8,35.2z M49.2,51.7c6.8-7.3,15.6-12.5,25.3-15c1.6,0.6,3.1,1.4,4.5,2.5l0,0c-0.2,0.5-0.2,1.1,0,1.6
		c-2,3.1-3.9,6.4-5.8,9.8c-2.1,0.1-3.9,1.4-4.7,3.3c-6.1,1.9-11.9,4.7-17.3,8.2c-0.4-0.2-0.9-0.3-1.4-0.3
		C49.1,58.5,48.9,55.1,49.2,51.7z M42,61.4c1.2-2,2.5-3.9,3.9-5.8c0.1,2.7,0.4,5.4,1.1,8c-0.2,0.2-0.3,0.4-0.4,0.6
		c-0.4,0.6-0.6,1.3-0.6,2c-1.1,0.9-2.1,1.9-3.1,2.9c-2.5,2.5-4.7,5.2-6.6,8.1C37.2,71.7,39.2,66.3,42,61.4L42,61.4z M35.1,85.2
		c2.5-5.2,5.8-9.9,9.8-13.9c0.7-0.7,1.5-1.4,2.2-2l0,0c0.5,0.3,1.1,0.4,1.6,0.3c1.8,4.1,4.2,7.9,7.1,11.3c1.3,1.5,2.7,2.9,4.1,4.2
		C59.5,87,60.3,89,62,90l0,0c-0.3,4.7-0.1,9.5,0.5,14.2c-1,0.4-1.9,1.1-2.4,2.1v0.3c-8.5-2.9-16.4-3.9-22.2-2.3
		C35.8,98.1,34.9,91.7,35.1,85.2z M51.9,126c-5.7-5.2-10.1-11.7-13-18.9c5.1-1.4,12.5-0.2,20.5,2.5c0.1,0.8,0.3,1.6,0.7,2.4
		c-2.3,2.8-4.3,5.8-6,9C53.3,122.6,52.5,124.3,51.9,126z M61.5,133.1c-2.5-1.4-4.8-3-7.1-4.8c0.7-2,1.5-3.9,2.5-5.8
		c1.5-2.8,3.3-5.5,5.3-8.1c0.9,0.6,1.9,0.8,2.9,0.7c1.7,5.1,4,9.9,7,14.4c-0.2,0.2-0.4,0.5-0.5,0.7c-0.2,0.5-0.2,1,0,1.5
		c-1.7,1.3-3.5,2.6-5.4,3.8C64.6,134.8,63,134,61.5,133.1z M69.8,136.9c1.4-1,2.9-2,4.1-2.9l0,0c0.5,0.2,1.1,0.3,1.6,0.3
		c1.5,1.9,3.1,3.7,4.9,5.4C76.8,139.1,73.2,138.2,69.8,136.9z M92.9,131.2c-1.6,2.6-2.6,5.6-3.1,8.6c-1.5,0-2.9,0-4.4,0
		c-2.7-2.3-5.1-4.9-7.4-7.6c0.1-0.5,0-1.1-0.2-1.5c2.2-2,4.3-4.1,6.2-6.4c1.1,0.3,2.3,0.1,3.3-0.4c2.1,1.4,4.1,2.9,6,4.3
		c-0.5,0.7-0.7,1.7-0.4,2.5c0.1,0.1,0.1,0.3,0.2,0.4L92.9,131.2z M93,139.8c0.4-2.5,1.3-4.8,2.6-6.9l0.1-0.2c0.5,0,0.9-0.1,1.4-0.2
		c0.2-0.1,0.4-0.2,0.6-0.3l1.6,1.5c1.3,1.3,2.6,2.7,3.7,4.1C99.8,138.7,96.5,139.4,93,139.8L93,139.8z M112.1,134.1
		c-1.9,1-4,1.9-6,2.7l0,0c-0.9,0.3-1.9,0.7-2.9,1c0.9-0.3,1.9-0.7,2.9-1c-1.3-1.9-2.9-3.7-4.5-5.3c-0.6-0.6-1.3-1.2-2-1.8
		c0.1-0.4,0.1-0.8,0-1.2c-0.1-0.2-0.2-0.3-0.3-0.5c4.5-5.4,10.2-9.8,16.5-12.8c0.3,0.5,0.8,0.9,1.4,1.1c-0.9,5.1-2.3,10.2-4,15.1
		c-0.3,0.9-0.7,1.7-1,2.6L112.1,134.1z M133.1,113.7c-4.1,7.1-9.8,13.2-16.7,17.7c1.8-5.2,3.1-10.6,4.1-16.1
		c0.9-0.7,1.4-1.8,1.6-2.9c2.5-0.8,5.2-1.3,7.8-1.4c1.5,0,3,0.1,4.5,0.4c-0.3,0.7-0.7,1.4-1.1,2.1L133.1,113.7z M135.7,108.6
		c-1.9-0.5-3.8-0.7-5.8-0.7c-2.9,0.1-5.7,0.6-8.5,1.4c0.2-2.1,0.4-4.3,0.5-6.4c1.1-0.8,1.8-2,2.1-3.3c5.7-1.6,11.2-4.1,16-7.6
		c-0.5,5.6-1.9,11.2-4.2,16.4L135.7,108.6z M123.4,96.6c-0.4-0.6-1-1.1-1.6-1.4c-0.2-4.4-0.6-8.8-1.4-13.1c1.1-0.5,1.9-1.5,2.1-2.7
		c2.3-0.4,4.7-0.6,7-0.6c3.5-0.1,6.9,0.5,10.2,1.7c0.3,2.4,0.5,4.9,0.5,7.4c-4.9,4-10.6,6.9-16.6,8.6L123.4,96.6z"/>
</g>
</svg>
