<?xml version="1.0" encoding="utf-8"?>
<!-- Generator: Adobe Illustrator 23.0.6, SVG Export Plug-In . SVG Version: 6.00 Build 0)  -->
<svg version="1.1" id="Layer_1" xmlns="http://www.w3.org/2000/svg" xmlns:xlink="http://www.w3.org/1999/xlink" x="0px" y="0px"
	 viewBox="0 0 175.2 175" style="enable-background:new 0 0 175.2 175;" xml:space="preserve">
<style type="text/css">
	.st0{fill:#FFFFFF;}
	.st1{fill:#57575D;}
</style>
<g transform="translate(328.539 -1182.5) rotate(90)">
	<circle class="st0" cx="1270" cy="240.8" r="87.5"/>
</g>
<g>
	<rect x="87.7" y="87.9" class="st1" width="16.8" height="1.7"/>
	<rect x="87.7" y="85.7" class="st1" width="16.8" height="1.7"/>
	<circle class="st1" cx="85.8" cy="86.2" r="0.4"/>
	<path class="st1" d="M106.4,75H68.8v6.6h37.7L106.4,75L106.4,75z M105.2,80.7H70v-5h35.2V80.7z"/>
	<path class="st1" d="M106.4,56.3H68.8v6.6h37.7L106.4,56.3L106.4,56.3z M105.2,62H70v-5h35.2V62z"/>
	<rect x="85.2" y="87.3" class="st1" width="1.2" height="0.7"/>
	<path class="st1" d="M106.4,46.9H68.8v6.6h37.7L106.4,46.9L106.4,46.9z M105.2,52.7H70v-5h35.2V52.7z"/>
	<path class="st1" d="M106.4,65.6H68.8v6.6h37.7L106.4,65.6L106.4,65.6z M105.2,71.4H70v-5h35.2V71.4z"/>
	<circle class="st1" cx="84.4" cy="86.2" r="0.4"/>
	<rect x="85.2" y="88.7" class="st1" width="1.2" height="0.7"/>
	<rect x="80.1" y="85.7" class="st1" width="0.8" height="3.9"/>
	<rect x="75.4" y="85.7" class="st1" width="0.8" height="3.9"/>
	<rect x="81.7" y="85.7" class="st1" width="0.8" height="3.9"/>
	<rect x="78.5" y="85.7" class="st1" width="0.8" height="3.9"/>
	<path class="st1" d="M106.4,37.6H68.8v6.6h37.7L106.4,37.6L106.4,37.6z M105.2,43.3H70v-5h35.2V43.3z"/>
	<circle class="st1" cx="84.4" cy="89.1" r="0.4"/>
	<circle class="st1" cx="84.4" cy="87.7" r="0.4"/>
	<rect x="77" y="85.7" class="st1" width="0.8" height="3.9"/>
	<rect x="85.2" y="40.6" class="st1" width="1.2" height="0.7"/>
	<circle class="st1" cx="84.4" cy="42.4" r="0.4"/>
	<circle class="st1" cx="84.4" cy="39.4" r="0.4"/>
	<circle class="st1" cx="84.4" cy="41" r="0.4"/>
	<rect x="85.2" y="42" class="st1" width="1.2" height="0.7"/>
	<circle class="st1" cx="85.8" cy="39.4" r="0.4"/>
	<rect x="87.7" y="38.9" class="st1" width="16.8" height="1.7"/>
	<rect x="70.8" y="38.9" class="st1" width="0.8" height="3.9"/>
	<rect x="87.7" y="41.2" class="st1" width="16.8" height="1.7"/>
	<rect x="73.9" y="38.9" class="st1" width="0.8" height="3.9"/>
	<rect x="72.3" y="38.9" class="st1" width="0.8" height="3.9"/>
	<rect x="81.7" y="38.9" class="st1" width="0.8" height="3.9"/>
	<rect x="75.5" y="38.9" class="st1" width="0.8" height="3.9"/>
	<rect x="77" y="38.9" class="st1" width="0.8" height="3.9"/>
	<rect x="80.2" y="38.9" class="st1" width="0.8" height="3.9"/>
	<rect x="78.6" y="38.9" class="st1" width="0.8" height="3.9"/>
	<rect x="75.4" y="132.4" class="st1" width="0.8" height="3.9"/>
	<rect x="81.7" y="132.4" class="st1" width="0.8" height="3.9"/>
	<circle class="st1" cx="84.4" cy="134.5" r="0.4"/>
	<rect x="78.5" y="132.4" class="st1" width="0.8" height="3.9"/>
	<rect x="80.1" y="132.4" class="st1" width="0.8" height="3.9"/>
	<circle class="st1" cx="84.4" cy="135.9" r="0.4"/>
	<circle class="st1" cx="85.8" cy="132.9" r="0.4"/>
	<rect x="85.2" y="134.1" class="st1" width="1.2" height="0.7"/>
	<rect x="85.2" y="135.5" class="st1" width="1.2" height="0.7"/>
	<circle class="st1" cx="84.4" cy="132.9" r="0.4"/>
	<path class="st1" d="M110.3,33.6H65v107.9h45.3V33.6z M108.3,139.8H66.9V35.4h41.3v104.4H108.3z"/>
	<path class="st1" d="M87.6,9.8C44.7,9.8,9.9,44.6,9.9,87.5s34.8,77.7,77.7,77.7s77.7-34.8,77.7-77.7S130.5,9.8,87.6,9.8z
		 M115.2,145.9H60.1V29.1h55.1V145.9z"/>
	<rect x="77" y="132.4" class="st1" width="0.8" height="3.9"/>
	<path class="st1" d="M106.4,131.1H68.8v6.6h37.7L106.4,131.1L106.4,131.1z M105.2,136.8H70v-5h35.2V136.8z"/>
	<rect x="73.9" y="132.4" class="st1" width="0.8" height="3.9"/>
	<rect x="72.3" y="132.4" class="st1" width="0.8" height="3.9"/>
	<rect x="70.7" y="132.4" class="st1" width="0.8" height="3.9"/>
	<rect x="70.7" y="85.7" class="st1" width="0.8" height="3.9"/>
	<path class="st1" d="M106.4,84.3H68.8v6.6h37.7L106.4,84.3L106.4,84.3z M105.2,90.1H70v-5h35.2V90.1z"/>
	<path class="st1" d="M106.4,93.7H68.8v6.6h37.7L106.4,93.7L106.4,93.7z M105.2,99.5H70v-5h35.2V99.5z"/>
	<path class="st1" d="M106.4,112.4H68.8v6.6h37.7L106.4,112.4L106.4,112.4z M105.2,118.1H70v-5h35.2V118.1z"/>
	<path class="st1" d="M106.4,121.7H68.8v6.6h37.7L106.4,121.7L106.4,121.7z M105.2,127.5H70v-5h35.2V127.5z"/>
	<rect x="72.3" y="85.7" class="st1" width="0.8" height="3.9"/>
	<rect x="73.9" y="85.7" class="st1" width="0.8" height="3.9"/>
	<path class="st1" d="M106.4,103H68.8v6.6h37.7L106.4,103L106.4,103z M105.2,108.8H70v-5.1h35.2V108.8z"/>
	<rect x="87.7" y="134.7" class="st1" width="16.8" height="1.7"/>
	<rect x="87.7" y="132.4" class="st1" width="16.8" height="1.7"/>
</g>
</svg>
