<svg xmlns="http://www.w3.org/2000/svg" width="175" height="175" viewBox="0 0 175 175"><g transform="translate(328.539 -1182.5) rotate(90)"><circle cx="87.5" cy="87.5" r="87.5" transform="translate(1182.5 328.539) rotate(-90)" fill="#fff"/><g transform="translate(1190.914 319.539) rotate(-90)"><path d="M70.886,20.678a1.9,1.9,0,0,0-2.676-.064L38.571,48.873a1.9,1.9,0,0,1-2.644-.032L25.512,38.423a1.9,1.9,0,0,0-2.676,0L17.163,44.1a1.89,1.89,0,0,0,0,2.676L35.869,65.477a1.894,1.894,0,0,0,2.65.029L76.367,29.16a1.9,1.9,0,0,0,.058-2.674Z" transform="translate(31.602 38.233)" fill="#57575d"/><path d="M78.377,0a78.377,78.377,0,1,0,78.377,78.377A78.376,78.376,0,0,0,78.377,0Zm2.778,135.438a6.47,6.47,0,0,1-2.586.775v.006l-.023,0-.017,0-.006-.006a6.47,6.47,0,0,1-2.586-.775C37.258,115.591,25.914,78.711,30.111,43.723c.078-.644.18-1.286.293-1.927a4.173,4.173,0,0,1,3.962-3.408c15.075-.642,29.449-2.952,42.01-11.33a4.243,4.243,0,0,1,2.145-.7l.006-.006.017,0,.023-.006v.009a4.243,4.243,0,0,1,2.145.7c12.561,8.378,26.936,10.688,42.013,11.33a4.173,4.173,0,0,1,3.959,3.408c.113.642.215,1.283.293,1.927C131.177,78.711,119.833,115.591,81.155,135.438Z" fill="#57575d"/></g></g></svg>