<?xml version="1.0" encoding="utf-8"?>
<!-- Generator: Adobe Illustrator 23.0.3, SVG Export Plug-In . SVG Version: 6.00 Build 0)  -->
<svg version="1.1" id="Layer_1" xmlns="http://www.w3.org/2000/svg" xmlns:xlink="http://www.w3.org/1999/xlink" x="0px" y="0px"
	 viewBox="0 0 175.2 175" style="enable-background:new 0 0 175.2 175;" xml:space="preserve">
<style type="text/css">
	.st0{fill:#FFFFFF;}
	.st1{fill:#57575D;}
	.st2{fill:#EB2027;}
</style>
<g transform="translate(328.539 -1182.5) rotate(90)">
	<circle class="st0" cx="1270" cy="240.8" r="87.5"/>
</g>
<g>
	<path class="st1" d="M87.5,9.5C44.6,9.5,9.8,44.3,9.8,87.3S44.6,165,87.5,165s77.7-34.8,77.7-77.7S130.4,9.5,87.5,9.5z"/>
	<path class="st0" d="M580.3,99.2L580.3,99.2L580.3,99.2C580.2,99.2,580.2,99.2,580.3,99.2h-0.1c-0.1,0-0.2,0-0.2-0.1
		c-0.2,0-0.4-0.1-0.6-0.1c-0.7-0.1-1.4-0.2-2-0.2c-0.3,0-0.6,0-1-0.1h-0.1c-2.2-0.2-4-0.4-5.6-0.9c-0.7-0.3-0.9-0.7-1.1-1.1
		c0-0.1-0.1-0.1-0.1-0.2l0,0l-1.4-0.4c0.6-4.8,0.4-9.8-0.7-14.7c-1.1-4.9-3.1-9.5-5.8-13.6l1-0.9v-0.2c0-0.5,0.1-1,0.5-1.6
		c1.3-1.1,2.8-2.1,4.7-3.2l0,0c0.3-0.2,0.6-0.3,0.9-0.5c0.6-0.3,1.1-0.6,1.8-1c0.1-0.1,0.3-0.2,0.5-0.4c0.1-0.1,0.2-0.1,0.2-0.2l0,0
		c1.5-1.3,1.8-3.3,0.7-4.7c-0.5-0.7-1.5-1.1-2.4-1.1c-0.8,0-1.6,0.3-2.3,0.8l0,0l0,0c-0.1,0.1-0.1,0.1-0.2,0.2
		c-0.2,0.1-0.3,0.3-0.5,0.4c-0.5,0.5-0.9,0.9-1.4,1.5c-0.2,0.2-0.4,0.5-0.7,0.7l0,0c-1.5,1.6-2.8,2.8-4.2,3.8
		c-0.3,0.2-0.6,0.3-0.9,0.3c-0.2,0-0.4,0-0.6-0.1h-0.2l0,0l-1.3,0.8c-1.4-1.5-2.8-2.7-4.3-4c-6.3-4.9-13.9-7.9-21.8-8.6l-0.1-1.4
		c-0.1-0.1-0.1-0.1-0.2-0.2c-0.3-0.3-0.7-0.6-0.8-1.4c-0.1-1.7,0.1-3.5,0.3-5.6v-0.1c0-0.3,0.1-0.7,0.2-1c0.1-0.6,0.2-1.3,0.3-2
		v-0.6v-0.3l0,0l0,0c0-1.9-1.5-3.4-3.2-3.4c-0.8,0-1.7,0.4-2.3,1c-0.6,0.6-0.9,1.5-0.9,2.4l0,0l0,0v0.2v0.6c0,0.7,0.1,1.4,0.3,2
		c0.1,0.3,0.1,0.6,0.2,1v0.1c0.2,2.1,0.5,4,0.3,5.6c-0.1,0.7-0.5,1-0.8,1.4c-0.1,0.1-0.1,0.1-0.2,0.2l0,0l-0.1,1.4
		c-1.9,0.2-3.8,0.4-5.6,0.8c-8,1.8-15.1,5.8-20.6,11.7l-1-0.7h-0.2c-0.2,0-0.4,0.1-0.6,0.1c-0.3,0-0.6-0.1-0.9-0.3
		c-1.4-0.9-2.7-2.3-4.2-3.9l0,0c-0.2-0.2-0.4-0.5-0.7-0.7c-0.4-0.5-0.8-0.9-1.4-1.5c-0.1-0.1-0.3-0.2-0.5-0.4
		c-0.1-0.1-0.2-0.1-0.2-0.2l0,0c-0.6-0.5-1.5-0.8-2.3-0.8c-0.9,0-1.9,0.4-2.4,1.1c-1,1.4-0.7,3.4,0.7,4.7l0,0l0,0
		c0.1,0,0.1,0.1,0.2,0.1c0.2,0.1,0.3,0.3,0.5,0.4c0.6,0.4,1.1,0.7,1.8,1c0.3,0.1,0.6,0.3,0.9,0.5l0,0c1.9,1.1,3.4,2.1,4.7,3.2
		c0.5,0.5,0.5,1,0.5,1.6v0.2l0,0l1,0.9c-0.2,0.3-0.4,0.5-0.5,0.8c-5.2,8.2-7.2,17.9-5.8,27.5l-1.4,0.4c0,0.1-0.1,0.1-0.1,0.2
		c-0.2,0.4-0.5,0.8-1.1,1.1c-1.6,0.5-3.4,0.7-5.6,0.9h-0.1c-0.3,0-0.7,0-1,0.1c-0.6,0-1.3,0.1-2,0.2c-0.2,0-0.4,0.1-0.6,0.1
		c-0.1,0-0.2,0-0.3,0.1l0,0l0,0c-1.9,0.4-3,2.2-2.7,3.9c0.3,1.5,1.7,2.4,3.3,2.4c0.3,0,0.5,0,0.8-0.1l0,0l0,0c0.1,0,0.2,0,0.2-0.1
		c0.2,0,0.4-0.1,0.6-0.1c0.7-0.2,1.3-0.4,1.9-0.7c0.3-0.1,0.6-0.3,0.9-0.4h0.1c2-0.7,3.8-1.4,5.4-1.6h0.2c0.6,0,1,0.3,1.4,0.5
		c0.1,0,0.1,0.1,0.2,0.1l0,0l1.5-0.2c2.5,7.7,7.3,14.6,13.6,19.6c1.5,1.1,2.9,2.1,4.5,3l-0.6,1.4c0,0.1,0.1,0.1,0.1,0.2
		c0.2,0.4,0.4,0.9,0.2,1.7c-0.6,1.6-1.6,3.1-2.7,4.9v0.1c-0.2,0.3-0.4,0.5-0.6,0.8c-0.4,0.5-0.7,1-1.1,1.7c-0.1,0.1-0.2,0.3-0.3,0.5
		c0,0.1-0.1,0.2-0.1,0.2l0,0l0,0c-0.8,1.8-0.2,3.8,1.4,4.5c0.4,0.2,0.8,0.3,1.3,0.3c1.3,0,2.5-0.8,3.1-2l0,0l0,0
		c0-0.1,0.1-0.2,0.1-0.2c0.1-0.2,0.2-0.4,0.3-0.5c0.3-0.7,0.4-1.3,0.6-1.9c0.1-0.3,0.2-0.6,0.3-0.9l0,0c0.7-2.1,1.3-3.8,2.2-5.2
		c0.4-0.6,0.9-0.7,1.4-0.9c0.1,0,0.1,0,0.2-0.1l0,0l0.7-1.4C518,130,523,131,528,131c3,0,6.1-0.3,9.1-1c1.9-0.4,3.6-0.9,5.4-1.6
		l0.6,1.1c0.1,0,0.1,0,0.2,0.1c0.5,0.1,0.9,0.3,1.4,0.9c0.8,1.5,1.5,3.2,2.2,5.2v0.1c0.1,0.3,0.2,0.6,0.3,0.9
		c0.2,0.6,0.3,1.3,0.6,1.9c0.1,0.2,0.2,0.3,0.3,0.5c0,0.1,0.1,0.2,0.1,0.2l0,0l0,0c0.6,1.3,1.9,2,3.1,2c0.4,0,0.8-0.1,1.3-0.3
		c0.7-0.4,1.4-1,1.6-1.9c0.2-0.8,0.2-1.8-0.2-2.6l0,0l0,0c0-0.1-0.1-0.1-0.1-0.2c-0.1-0.2-0.2-0.4-0.3-0.5c-0.3-0.6-0.7-1.1-1.1-1.7
		c-0.2-0.3-0.4-0.5-0.6-0.8v-0.1c-1.1-1.8-2.2-3.3-2.7-4.9c-0.2-0.7,0-1.1,0.1-1.7c0-0.1,0.1-0.1,0.1-0.2l0,0l-0.5-1.3
		c5.5-3.2,10.2-7.8,13.8-13.4c1.9-2.9,3.3-6.1,4.4-9.4l1.3,0.2c0.1,0,0.1-0.1,0.2-0.1c0.4-0.2,0.7-0.5,1.4-0.5h0.2
		c1.7,0.2,3.4,0.8,5.4,1.6h0.1c0.3,0.1,0.6,0.3,0.9,0.4c0.6,0.3,1.1,0.5,1.9,0.7c0.2,0,0.4,0.1,0.6,0.1c0.1,0,0.2,0,0.3,0.1l0,0
		c0.3,0.1,0.5,0.1,0.8,0.1c1.6,0,2.9-1,3.3-2.4C583.4,101.4,582.2,99.7,580.3,99.2L580.3,99.2z M532.1,94.1l-4.6,2.2l-4.6-2.2
		l-1.1-4.9l3.1-4h5.1l3.1,4L532.1,94.1L532.1,94.1z M559.3,83.3c0.8,3.5,1,7.1,0.7,10.5l-15.9-4.6c-1.5-0.4-2.3-1.9-2-3.3
		c0.1-0.4,0.3-0.8,0.6-1.1l12.6-11.4C557.1,76.3,558.5,79.6,559.3,83.3L559.3,83.3z M550.3,67.1l-13.6,9.7c-1.1,0.7-2.7,0.5-3.6-0.6
		c-0.3-0.3-0.4-0.7-0.5-1.1l-0.9-17C538.8,58.9,545.3,62.1,550.3,67.1L550.3,67.1z M520.1,58.6c1.1-0.2,2.2-0.4,3.3-0.6l-0.9,16.7
		c-0.1,1.5-1.3,2.7-2.8,2.7c-0.4,0-0.9-0.1-1.3-0.3l-13.9-9.9C508.9,62.8,514.2,59.9,520.1,58.6L520.1,58.6z M499.6,73.4l12.4,11
		c1.1,0.9,1.3,2.7,0.3,3.9c-0.3,0.4-0.7,0.7-1.3,0.8l-16.1,4.7C494.3,86.7,495.9,79.5,499.6,73.4L499.6,73.4z M496.8,101.6l16.6-2.8
		c1.4-0.1,2.6,0.8,2.9,2.2c0.1,0.6,0.1,1.1-0.1,1.7l0,0l-6.4,15.3C504,114.2,499.3,108.5,496.8,101.6L496.8,101.6z M534.8,122.3
		c-2.4,0.5-4.8,0.8-7.3,0.8c-3.6,0-7.2-0.6-10.5-1.7l8.2-14.9c0.8-0.9,2.2-1.4,3.3-0.7c0.5,0.3,0.9,0.7,1.3,1.1l0,0l8,14.5
		C536.9,121.8,535.9,122,534.8,122.3L534.8,122.3z M555.1,107.9c-2.6,4.2-6,7.5-10,10.1l-6.6-15.7c-0.3-1.3,0.2-2.6,1.5-3.2
		c0.4-0.2,0.9-0.3,1.5-0.3l16.7,2.8C557.5,103.8,556.5,105.9,555.1,107.9L555.1,107.9z"/>
	<g>
		<path class="st0" d="M45.4,58.3h8l5.2,14.4c0.6,1.9,1.2,4,1.9,6h0.2c0.6-2,1.2-4.1,1.8-6l5.1-14.4h8v32.4H69V78.9
			c0-3.2,0.6-7.9,0.9-11h-0.2l-2.6,7.7l-4.6,12.4h-4l-4.6-12.4l-2.6-7.7H51c0.3,3.1,0.9,7.9,0.9,11v11.9h-6.6V58.3z"/>
		<path class="st0" d="M80.5,86.7l4.2-5c2.3,2,5.3,3.4,8,3.4c3,0,4.5-1.2,4.5-3.1c0-2-1.8-2.7-4.7-3.9l-4.2-1.8
			c-3.3-1.3-6.5-4.1-6.5-8.9c0-5.4,4.8-9.7,11.5-9.7c3.7,0,7.7,1.5,10.4,4.3l-3.7,4.6C98,65,96,64,93.4,64c-2.5,0-4.1,1.1-4.1,2.9
			c0,2,2.1,2.7,4.9,3.8l4.2,1.7c3.9,1.6,6.4,4.2,6.4,8.8c0,5.4-4.5,10.1-12.2,10.1C88.3,91.4,83.8,89.8,80.5,86.7z"/>
		<path class="st0" d="M109.7,58.3h11.1c7.1,0,12.9,2.6,12.9,10.4c0,7.6-5.8,11-12.7,11h-4v11h-7.3V58.3z M120.6,73.9
			c4,0,6-1.8,6-5.2c0-3.4-2.2-4.6-6.2-4.6H117v9.8H120.6z"/>
	</g>
	<g>
		<path class="st0" d="M69.6,103.7H54.5l-0.8,6c0.8-0.1,1.6-0.1,2.5-0.1c3.7,0,7.5,0.8,10.2,2.8c2.9,2,4.7,5.2,4.7,9.7
			c0,7.2-6.2,13.6-16.7,13.6c-4.7,0-8.7-1.1-10.8-2.2l1.6-6.8c1.7,0.8,5.3,1.9,8.8,1.9c3.8,0,7.8-1.8,7.8-5.9c0-4-3.2-6.5-10.9-6.5
			c-2.2,0-3.6,0.1-5.3,0.4l2.6-20.4h21.4V103.7z"/>
		<path class="st0" d="M103.7,115.5c0,12-4.8,20.3-14.8,20.3c-10,0-14.5-9-14.5-20c0-11.2,4.8-20.2,14.8-20.2
			C99.6,95.6,103.7,104.8,103.7,115.5z M83.6,115.7c-0.1,8.9,2.1,13.2,5.6,13.2c3.5,0,5.4-4.4,5.4-13.3c0-8.6-1.9-13.2-5.5-13.2
			C85.8,102.4,83.5,106.7,83.6,115.7z"/>
		<path class="st0" d="M135.1,115.5c0,12-4.8,20.3-14.8,20.3c-10,0-14.5-9-14.5-20c0-11.2,4.8-20.2,14.8-20.2
			C131,95.6,135.1,104.8,135.1,115.5z M114.9,115.7c-0.1,8.9,2.1,13.2,5.6,13.2c3.5,0,5.4-4.4,5.4-13.3c0-8.6-1.9-13.2-5.5-13.2
			C117.2,102.4,114.9,106.7,114.9,115.7z"/>
	</g>
	<g>
		<path class="st2" d="M63.3,41.3L63.3,41.3L63.3,41.3c0-5,3.8-9,9-9c3.5,0,5.7,1.5,7.3,3.6L76,38.6c-1-1.2-2.1-2-3.7-2
			c-2.4,0-4.1,2-4.1,4.5v0.1c0,2.6,1.7,4.6,4.1,4.6c1.8,0,2.8-0.8,3.9-2.1l3.6,2.5c-1.6,2.2-3.8,3.9-7.6,3.9
			C67.2,50.1,63.3,46.4,63.3,41.3z"/>
		<path class="st2" d="M80.5,32.6L80.5,32.6l8.1,0c2.6,0,4.4,0.7,5.6,1.9c1,1,1.5,2.3,1.5,4v0.1c0,2.6-1.4,4.4-3.5,5.3l4.1,6l-5.5,0
			l-3.4-5.2h-0.1h-2v5.2h-4.7V32.6z M88.4,40.9L88.4,40.9c1.6,0,2.5-0.8,2.5-2v0c0-1.4-1-2-2.5-2h-3.1v4.1H88.4z"/>
		<polygon class="st2" points="97,32.6 97,32.6 101.4,32.6 108.4,41.7 108.4,32.6 113.1,32.6 113.1,49.8 109,49.8 101.7,40.4 
			101.7,49.8 97,49.8 		"/>
	</g>
</g>
<path class="st1" d="M305,8.4c-42.9,0-77.7,34.8-77.7,77.7s34.8,77.7,77.7,77.7s77.7-34.8,77.7-77.7S347.9,8.4,305,8.4z"/>
</svg>
