<?xml version="1.0" encoding="utf-8"?>
<!-- Generator: Adobe Illustrator 23.0.3, SVG Export Plug-In . SVG Version: 6.00 Build 0)  -->
<svg version="1.1" id="Layer_1" xmlns="http://www.w3.org/2000/svg" xmlns:xlink="http://www.w3.org/1999/xlink" x="0px" y="0px"
	 viewBox="0 0 110 61" style="enable-background:new 0 0 110 61;" xml:space="preserve">
<style type="text/css">
	.st0{clip-path:url(#SVGID_2_);fill:#F15A22;}
	.st1{fill:#FFFFFF;}
	.st2{clip-path:url(#SVGID_4_);fill:#E84425;}
	.st3{clip-path:url(#SVGID_6_);fill:#DA223B;}
	.st4{clip-path:url(#SVGID_8_);fill:#CE1F41;}
	.st5{fill:#F1C71C;}
	.st6{clip-path:url(#SVGID_10_);}
	.st7{clip-path:url(#SVGID_12_);}
</style>
<g>
	<defs>
		<rect id="SVGID_1_" x="-182" y="-94.5" width="104.7" height="61"/>
	</defs>
	<clipPath id="SVGID_2_">
		<use xlink:href="#SVGID_1_"  style="overflow:visible;"/>
	</clipPath>
	<path class="st0" d="M-89-56.5c6.5,0,11.7-5.3,11.7-11.7c0-6.5-5.3-11.7-11.7-11.7c-6.5,0-11.7,5.3-11.7,11.7
		C-100.8-61.7-95.5-56.5-89-56.5"/>
</g>
<g>
	<path class="st1" d="M-95.5-63.6l0.9-1.3c0.5,0.4,1,0.7,1.6,0.7c0.7,0,1.2-0.3,1.2-1c0-0.7-0.4-1-1.1-1c-0.4,0-0.6,0.1-1.1,0.4
		l-0.9-0.6l0.2-4.1h4.7v1.8h-2.8l-0.1,1.1c0.3-0.1,0.5-0.1,0.7-0.1c1.4,0,2.5,0.8,2.5,2.4c0,1.8-1.4,2.8-3,2.8
		C-93.9-62.5-94.8-63-95.5-63.6z"/>
	<path class="st1" d="M-88.5-64.7c0-0.9,0.5-1.5,1.3-1.9v0c-0.6-0.5-1-1-1-1.9c0-1.4,1.1-2.2,2.6-2.2c1.5,0,2.5,0.8,2.5,2.2
		c0,0.7-0.4,1.3-1,1.7v0c0.8,0.4,1.4,1,1.4,2.1c0,1.3-1.2,2.2-2.9,2.2C-87.3-62.5-88.5-63.4-88.5-64.7z M-84.8-64.8
		c0-0.6-0.5-0.8-1.5-1.2c-0.2,0.3-0.4,0.7-0.4,1.1c0,0.6,0.5,0.9,1,0.9C-85.2-64-84.8-64.2-84.8-64.8z M-84.9-68.4
		c0-0.5-0.3-0.9-0.8-0.9c-0.4,0-0.7,0.2-0.7,0.8c0,0.5,0.4,0.8,1.2,1.1C-85-67.7-84.9-68-84.9-68.4z"/>
</g>
<g>
	<path class="st1" d="M-91-73.2c0.4-0.4,0.6-0.6,0.6-0.8c0-0.2-0.1-0.3-0.3-0.3c-0.1,0-0.2,0.1-0.3,0.2l-0.1-0.1
		c0.1-0.1,0.2-0.2,0.4-0.2c0.2,0,0.4,0.2,0.4,0.4c0,0.2-0.2,0.5-0.5,0.8c0.1,0,0.2,0,0.2,0h0.4v0.1H-91V-73.2z"/>
	<path class="st1" d="M-90-73.7c0-0.4,0.2-0.7,0.4-0.7c0.3,0,0.4,0.2,0.4,0.7c0,0.4-0.2,0.7-0.4,0.7C-89.8-73-90-73.3-90-73.7z
		 M-89.3-73.7c0-0.4-0.1-0.5-0.3-0.5c-0.2,0-0.3,0.2-0.3,0.5c0,0.4,0.1,0.6,0.3,0.6C-89.4-73.2-89.3-73.3-89.3-73.7z"/>
	<path class="st1" d="M-88.9-73.2h0.3v-1h-0.2v-0.1c0.1,0,0.2-0.1,0.3-0.1h0.1v1.2h0.3v0.1h-0.7V-73.2z"/>
	<path class="st1" d="M-87.9-73.2l0.1-0.1c0.1,0.1,0.2,0.2,0.3,0.2c0.2,0,0.3-0.1,0.3-0.3c0-0.2-0.1-0.3-0.3-0.3
		c-0.1,0-0.1,0-0.2,0.1l-0.1-0.1l0-0.6h0.7v0.1h-0.5l0,0.4c0.1,0,0.1-0.1,0.2-0.1c0.2,0,0.4,0.1,0.4,0.4s-0.2,0.4-0.4,0.4
		C-87.7-73-87.9-73.1-87.9-73.2z"/>
</g>
<g>
	<defs>
		<rect id="SVGID_3_" x="-182" y="-94.5" width="104.7" height="61"/>
	</defs>
	<clipPath id="SVGID_4_">
		<use xlink:href="#SVGID_3_"  style="overflow:visible;"/>
	</clipPath>
	<path class="st2" d="M-107.1-37c8.1,0,14.7-6.6,14.7-14.7c0-8.1-6.6-14.7-14.7-14.7s-14.7,6.6-14.7,14.7
		C-121.8-43.6-115.2-37-107.1-37"/>
</g>
<g>
	<path class="st1" d="M-114.9-49.6c0-3.6,2-5.3,4.1-5.3c1.4,0,2.4,0.6,3.1,1.2l-1.4,1.6c-0.3-0.3-0.9-0.7-1.5-0.7
		c-1,0-1.7,0.7-1.8,2.7c0.5-0.6,1.3-1,1.9-1c1.7,0,3,0.9,3,3.1c0,2.1-1.6,3.4-3.4,3.4C-112.9-44.6-114.9-46-114.9-49.6z M-110-48
		c0-1-0.5-1.2-1.1-1.2c-0.5,0-1,0.2-1.3,0.8c0.2,1.4,0.8,1.7,1.3,1.7C-110.5-46.6-110-46.9-110-48z"/>
	<path class="st1" d="M-106.5-46.3c2.3-2.2,4.1-3.8,4.1-5.1c0-0.9-0.5-1.3-1.2-1.3c-0.7,0-1.2,0.5-1.6,0.9l-1.4-1.4
		c1-1.1,2-1.6,3.4-1.6c2,0,3.4,1.3,3.4,3.2c0,1.6-1.5,3.3-2.8,4.7c0.5-0.1,1.2-0.1,1.7-0.1h1.7v2.2h-7.2V-46.3z"/>
</g>
<g>
	<path class="st1" d="M-109.6-57.9c0.5-0.5,0.8-0.8,0.8-1.1c0-0.2-0.1-0.3-0.3-0.3c-0.1,0-0.3,0.1-0.4,0.2l-0.1-0.1
		c0.1-0.2,0.3-0.3,0.5-0.3c0.3,0,0.5,0.2,0.5,0.5c0,0.3-0.3,0.6-0.7,1c0.1,0,0.2,0,0.3,0h0.5v0.2h-1.1V-57.9z"/>
	<path class="st1" d="M-108.3-58.6c0-0.6,0.2-0.9,0.5-0.9c0.3,0,0.5,0.3,0.5,0.9c0,0.6-0.2,0.9-0.5,0.9
		C-108.1-57.8-108.3-58.1-108.3-58.6z M-107.4-58.6c0-0.5-0.1-0.7-0.3-0.7c-0.2,0-0.3,0.2-0.3,0.7c0,0.5,0.1,0.7,0.3,0.7
		C-107.5-57.9-107.4-58.1-107.4-58.6z"/>
	<path class="st1" d="M-106.9-58h0.4v-1.2h-0.3v-0.1c0.2,0,0.3-0.1,0.3-0.1h0.2v1.5h0.3v0.2h-0.9V-58z"/>
	<path class="st1" d="M-105.7-58.6c0-0.7,0.3-0.9,0.6-0.9c0.2,0,0.3,0.1,0.4,0.2l-0.1,0.1c-0.1-0.1-0.2-0.1-0.3-0.1
		c-0.2,0-0.4,0.2-0.4,0.7c0.1-0.1,0.3-0.2,0.4-0.2c0.3,0,0.5,0.2,0.5,0.5c0,0.3-0.2,0.5-0.5,0.5C-105.4-57.8-105.7-58-105.7-58.6z
		 M-104.8-58.3c0-0.2-0.1-0.3-0.3-0.3c-0.1,0-0.2,0.1-0.3,0.2c0,0.3,0.2,0.5,0.4,0.5C-104.9-57.9-104.8-58.1-104.8-58.3z"/>
</g>
<g>
	<defs>
		<rect id="SVGID_5_" x="-182" y="-94.5" width="104.7" height="61"/>
	</defs>
	<clipPath id="SVGID_6_">
		<use xlink:href="#SVGID_5_"  style="overflow:visible;"/>
	</clipPath>
	<path class="st3" d="M-125.6-57.7c10.1,0,18.4-8.2,18.4-18.4s-8.2-18.4-18.4-18.4S-144-86.2-144-76.1S-135.7-57.7-125.6-57.7"/>
</g>
<g>
	<path class="st1" d="M-135.4-73.4c0-4.5,2.5-6.6,5.1-6.6c1.8,0,3,0.7,3.9,1.6l-1.8,2c-0.4-0.4-1.2-0.9-1.9-0.9
		c-1.2,0-2.1,0.8-2.3,3.3c0.6-0.8,1.7-1.2,2.3-1.2c2.1,0,3.7,1.2,3.7,3.8c0,2.6-1.9,4.2-4.3,4.2C-132.9-67.2-135.4-68.9-135.4-73.4z
		 M-129.3-71.4c0-1.2-0.7-1.5-1.4-1.5c-0.6,0-1.2,0.3-1.6,1.1c0.3,1.7,1,2.1,1.6,2.1C-129.9-69.7-129.3-70.1-129.3-71.4z"/>
	<path class="st1" d="M-125.2-69l1.5-2.1c0.7,0.7,1.6,1.2,2.5,1.2c1.2,0,1.8-0.5,1.8-1.6c0-1.1-0.7-1.6-1.7-1.6
		c-0.7,0-1,0.1-1.7,0.6l-1.4-0.9l0.3-6.3h7.3v2.8h-4.4l-0.2,1.8c0.4-0.2,0.8-0.2,1.2-0.2c2.1,0,4,1.2,4,3.8c0,2.8-2.2,4.4-4.7,4.4
		C-122.7-67.2-124.2-67.9-125.2-69z"/>
</g>
<g>
	<path class="st1" d="M-128.7-83.8c0.6-0.6,1-1,1-1.3c0-0.2-0.1-0.4-0.4-0.4c-0.2,0-0.3,0.1-0.4,0.3l-0.2-0.2
		c0.2-0.2,0.4-0.3,0.6-0.3c0.4,0,0.6,0.2,0.6,0.6c0,0.4-0.4,0.8-0.8,1.3c0.1,0,0.2,0,0.3,0h0.6v0.2h-1.3V-83.8z"/>
	<path class="st1" d="M-127.1-84.7c0-0.7,0.2-1.1,0.7-1.1c0.4,0,0.7,0.4,0.7,1.1c0,0.7-0.3,1.1-0.7,1.1
		C-126.8-83.6-127.1-84-127.1-84.7z M-126-84.7c0-0.6-0.2-0.9-0.4-0.9c-0.2,0-0.4,0.2-0.4,0.9c0,0.6,0.2,0.9,0.4,0.9
		C-126.2-83.9-126-84.1-126-84.7z"/>
	<path class="st1" d="M-125.3-83.9h0.5v-1.5h-0.4v-0.2c0.2,0,0.3-0.1,0.4-0.2h0.2v1.9h0.4v0.2h-1.2V-83.9z"/>
	<path class="st1" d="M-122.8-85.5h-1v-0.2h1.3v0.2c-0.5,0.6-0.6,1.1-0.6,1.9h-0.3C-123.4-84.5-123.2-85-122.8-85.5z"/>
</g>
<g>
	<defs>
		<rect id="SVGID_7_" x="-182" y="-94.5" width="104.7" height="61"/>
	</defs>
	<clipPath id="SVGID_8_">
		<use xlink:href="#SVGID_7_"  style="overflow:visible;"/>
	</clipPath>
	<path class="st4" d="M-159-33.4c12.7,0,22.9-10.3,22.9-22.9s-10.3-22.9-22.9-22.9S-182-69.1-182-56.4S-171.7-33.4-159-33.4"/>
</g>
<g>
	<path class="st1" d="M-172.8-53.2c0-6.7,3.7-9.9,7.7-9.9c2.6,0,4.6,1.1,5.8,2.3l-2.6,3c-0.6-0.6-1.8-1.3-2.8-1.3
		c-1.8,0-3.2,1.3-3.4,5c0.9-1.2,2.5-1.8,3.5-1.8c3.2,0,5.6,1.8,5.6,5.7s-2.9,6.3-6.4,6.3C-169.2-43.9-172.8-46.5-172.8-53.2z
		 M-163.7-50.2c0-1.8-1-2.2-2-2.2c-0.9,0-1.8,0.5-2.4,1.6c0.4,2.6,1.5,3.2,2.4,3.2C-164.7-47.6-163.7-48.3-163.7-50.2z"/>
	<path class="st1" d="M-148.9-58.6h-7.9v-4.2h13.3v3.1c-4.3,5-4.7,8.2-5.1,15.4h-5C-153.4-50.1-152.4-53.8-148.9-58.6z"/>
</g>
<g>
	<path class="st1" d="M-162.8-68.9c0.9-0.9,1.5-1.5,1.5-2c0-0.4-0.2-0.6-0.6-0.6c-0.3,0-0.5,0.2-0.7,0.4l-0.2-0.2
		c0.3-0.3,0.5-0.5,0.9-0.5c0.6,0,0.9,0.4,0.9,0.9c0,0.6-0.5,1.2-1.3,1.9c0.2,0,0.4,0,0.5,0h0.9v0.3h-2V-68.9z"/>
	<path class="st1" d="M-160.4-70.2c0-1,0.4-1.6,1-1.6c0.6,0,1,0.6,1,1.6s-0.4,1.6-1,1.6C-160-68.6-160.4-69.1-160.4-70.2z
		 M-158.8-70.2c0-0.9-0.2-1.3-0.6-1.3c-0.4,0-0.6,0.4-0.6,1.3s0.2,1.3,0.6,1.3C-159-68.9-158.8-69.3-158.8-70.2z"/>
	<path class="st1" d="M-157.8-69h0.7v-2.3h-0.6v-0.3c0.3,0,0.5-0.1,0.7-0.2h0.3v2.8h0.6v0.3h-1.8V-69z"/>
	<path class="st1" d="M-155.6-69.4c0-0.4,0.3-0.7,0.6-0.8v0c-0.2-0.2-0.4-0.4-0.4-0.7c0-0.5,0.4-0.8,0.9-0.8c0.5,0,0.9,0.3,0.9,0.8
		c0,0.3-0.2,0.6-0.4,0.7v0c0.3,0.2,0.5,0.4,0.5,0.8c0,0.5-0.4,0.8-1,0.8C-155.1-68.6-155.6-68.9-155.6-69.4z M-153.9-69.4
		c0-0.4-0.4-0.5-0.8-0.7c-0.2,0.2-0.4,0.4-0.4,0.7c0,0.3,0.3,0.6,0.7,0.6C-154.2-68.9-153.9-69.1-153.9-69.4z M-154-70.9
		c0-0.3-0.2-0.6-0.5-0.6c-0.3,0-0.5,0.2-0.5,0.5c0,0.4,0.3,0.5,0.7,0.7C-154.1-70.5-154-70.7-154-70.9z"/>
</g>
<polygon class="st5" points="53.8,44.1 60.5,48.3 58.8,40.5 64.7,35.2 56.9,34.6 53.8,27.2 50.8,34.6 43,35.2 48.9,40.5 47.1,48.3 
	"/>
<polygon class="st5" points="41.4,24.6 48.1,28.8 46.3,21 52.2,15.8 44.4,15.1 41.4,7.7 38.3,15.1 30.5,15.8 36.4,21 34.7,28.8 "/>
<polygon class="st5" points="28.9,44.1 35.6,48.3 33.9,40.5 39.8,35.2 32,34.6 28.9,27.2 25.9,34.6 18.1,35.2 24,40.5 22.2,48.3 "/>
<polygon class="st5" points="16.8,24.6 23.5,28.8 21.7,21 27.6,15.8 19.8,15.1 16.8,7.7 13.7,15.1 5.9,15.8 11.8,21 10.1,28.8 "/>
<polygon class="st5" points="4,44.1 10.7,48.3 8.9,40.5 14.8,35.2 7,34.6 4,27.2 1,34.6 -6.8,35.2 -0.9,40.5 -2.7,48.3 "/>
<g>
	<defs>
		<rect id="SVGID_9_" x="-89.8" y="-3.2" width="199.8" height="61.6"/>
	</defs>
	<clipPath id="SVGID_10_">
		<use xlink:href="#SVGID_9_"  style="overflow:visible;"/>
	</clipPath>
	<g class="st6">
		<path class="st1" d="M68.5,26.3H55.3v-5.8L65.8,2.4h10.4V20h3.3v6.3h-3.3v6.9h-7.8V26.3z M68.5,20v-3.5c0-2.1,0.2-5.2,0.3-7.3
			h-0.2c-0.8,1.8-1.7,3.7-2.5,5.5L63.2,20H68.5z"/>
	</g>
</g>
<g>
	<path class="st1" d="M77.2,36.5c0-1.9,1.4-3.5,3.3-3.5c1.9,0,3.3,1.5,3.3,3.5c0,1.9-1.4,3.5-3.3,3.5C78.6,40,77.2,38.4,77.2,36.5z"
		/>
</g>
<g>
	<defs>
		<rect id="SVGID_11_" x="-89.8" y="-3.2" width="199.8" height="61.6"/>
	</defs>
	<clipPath id="SVGID_12_">
		<use xlink:href="#SVGID_11_"  style="overflow:visible;"/>
	</clipPath>
	<g class="st7">
		<path class="st1" d="M83.8,48.6c0-3.6,2.1-5.7,5.1-7.3v-0.2c-2.4-1.8-4.1-4.1-4.1-7.3c0-5.4,4.3-8.8,10.3-8.8
			c5.7,0,9.6,3.3,9.6,8.6c0,2.8-1.8,5.1-3.9,6.5v0.2c3,1.6,5.3,4,5.3,8.1c0,5-4.5,8.7-11.3,8.7C88.5,57.1,83.8,53.7,83.8,48.6z
			 M98.3,48.1c0-2.2-2.1-3.1-5.8-4.7c-0.9,1.1-1.6,2.6-1.6,4.2c0,2.4,1.9,3.7,4,3.7C96.8,51.3,98.3,50.5,98.3,48.1z M98,34.2
			c0-2.1-1.2-3.4-3.1-3.4c-1.5,0-2.8,0.9-2.8,3c0,2,1.7,3.1,4.6,4.3C97.5,36.8,98,35.6,98,34.2z"/>
	</g>
</g>
</svg>
