<svg xmlns="http://www.w3.org/2000/svg" width="640.364" height="510.179" viewBox="0 0 640.364 510.179"><g transform="translate(-250.98 -3228.907)"><g transform="translate(-302.677 -3328.687)"><line transform="translate(695.19 6877.827)" fill="none" stroke="#131312" stroke-miterlimit="10" stroke-width="19.819"/><g transform="translate(559.676 6612.75)"><path d="M803.97,6866.045c0,.2.012.393.014.592,0,.129-.01.256-.009.386,0,.619.048,1.229.06,1.845.031,1.335.068,2.668.132,4q.047.9.106,1.8c3.279,55.062,35.152,103.57,68.411,139.785l168.7-15.607c27.574-34.489,51.39-77.686,53.765-125.628.035-.6.063-1.2.089-1.8.051-1.329.074-2.663.092-4,.007-.617.045-1.227.042-1.846,0-.129-.012-.256-.013-.386,0-.2.009-.393.008-.591h-.027a122.3,122.3,0,0,0-20.868-66.526c-32.48-25.869-91.394-26.613-125.134-26.445-77.462.386-89.333,7.743-139.725,58.376A120.569,120.569,0,0,0,804,6866.045Z" transform="translate(-622.414 -6661.564)" fill="#131312"/><path d="M1075.545,6730.537a114.9,114.9,0,0,0-16.361,2.729c-13.507-68.554-73.312-115.723-144.81-109.109-49.75,4.6-93.565,34.194-119.953,75.673a80.042,80.042,0,0,0-25.163-1.6c-40.01,3.7-73.508,35.479-83.111,75.273a107.9,107.9,0,0,0-13.5.376c-59.4,5.495-134.843-3.9-107.012,117.546,13.16,57.428,47.87,102.364,106.57,97.748l106.031-9.81c-20.518-30.092-36.3-65.124-38.572-103.254q-.061-.913-.108-1.829c-.065-1.348-.1-2.7-.134-4.057-.013-.626-.059-1.245-.062-1.874,0-.131.009-.261.009-.392l-.323-68.09q4.072-4.113,7.832-7.894c17.378-54.985,73.11-95.379,139.4-95.709,53.192-.265,99.837,25.337,125.458,63.779,13.807,11,22.84,26.534,23.126,48.474h.028c0,.2.278,57.765.279,57.965,0,.132.012.261.013.393,0,.627-.036,1.248-.043,1.874-.017,1.355-.042,2.71-.093,4.058-.026.61-.055,1.221-.09,1.83-1.481,29.888-11.174,57.957-24.914,83.282l68.121-6.3c60.365-6.4,108.814-60.089,108.512-120.679C1185.973,6690.388,1136.615,6724.886,1075.545,6730.537Z" transform="translate(-559.676 -6623.539)" fill="#131312"/></g><path d="M810.225,6910.564c0,.125-.01.248-.009.375,0,.6.047,1.192.059,1.791.03,1.295.065,2.589.128,3.877.03.583.064,1.165.1,1.747C817.369,7033.6,953.377,7119.3,953.377,7119.3s133.567-87.041,139.28-202.354c.033-.583.061-1.165.086-1.748.049-1.289.072-2.583.088-3.878.006-.6.044-1.19.041-1.791,0-.125-.011-.25-.012-.375,0-.193-.265-55.193-.266-55.386h-.027c-.916-70.278-95.717-71.814-141.662-71.585-77.7.389-86.33,8.114-140.989,63.322Z" transform="translate(-64.265 -51.528)" fill="#131312"/><path d="M816.97,6903.231c0,.12-.009.239-.008.36,0,.579.045,1.15.057,1.727.028,1.249.063,2.5.122,3.738.031.563.063,1.124.1,1.685,6.617,111.138,137.772,193.776,137.772,193.776s128.8-83.935,134.31-195.133q.048-.841.083-1.687c.047-1.241.07-2.489.086-3.738.006-.577.042-1.147.039-1.727,0-.121-.011-.241-.012-.362,0-.186-.256-53.224-.256-53.409h-.025c-.884-67.77-92.3-69.25-136.607-69.029-74.93.374-83.25,7.825-135.958,61.062Z" transform="translate(-66 -50.821)" fill="#dc171b"/><path d="M1001.761,6892.233l1.2,241.012c4.079-2.686,128.785-85.684,134.2-195.063.032-.561.059-1.123.083-1.686.047-1.243.069-2.49.085-3.74.006-.577.042-1.147.039-1.727,0-.121-.011-.241-.012-.362s-.112-23.332-.187-39.11Z" transform="translate(-113.533 -79.62)" fill="#131312"/><path d="M1068.3,6691.594a109.742,109.742,0,0,0-15.609,2.6c-12.887-65.4-69.943-110.4-138.154-104.094-47.463,4.392-89.265,32.624-114.44,72.2a76.308,76.308,0,0,0-24.006-1.529c-38.172,3.531-70.13,33.848-79.292,71.813a102.888,102.888,0,0,0-12.88.357c-56.667,5.244-102.376,55.452-102.094,112.144.28,56.208,45.67,97.659,101.672,93.255l76-7.144c-7.363-17.651-7.849-36.736-9.019-56.382-.039-.582-.073-1.164-.1-1.748-.062-1.288-.1-2.581-.127-3.876-.013-.6-.056-1.189-.059-1.79,0-.126.009-.25.009-.375l-.308-65.058c54.659-55.206,63.287-62.933,140.99-63.32,45.945-.229,140.746,1.306,141.662,71.583h.027c0,.192.265,55.194.265,55.385,0,.126.012.249.013.375,0,.6-.035,1.192-.041,1.791-.017,1.3-.04,2.589-.089,3.878-.025.583-.053,1.166-.086,1.747a164.038,164.038,0,0,1-5.155,33.111l43.326-4.008c57.59-6.1,103.812-57.328,103.524-115.132C1174.032,6729.087,1126.565,6686.2,1068.3,6691.594Z" transform="translate(-5.688 -2.051)" fill="none" stroke="#131312" stroke-miterlimit="10" stroke-width="31.651"/><g transform="translate(-6.19)" fill="#fff" stroke-miterlimit="10"><path d="M 673.4869995117188 6943.51416015625 L 673.4869995117188 6942.57421875 C 616.4515991210938 6940.609375 572.1036987304688 6895.01416015625 571.815185546875 6837.1572265625 C 571.50244140625 6774.50830078125 622.1749877929688 6718.8291015625 684.7726440429688 6713.0390625 C 686.439208984375 6712.884765625 688.0963745117188 6712.77099609375 689.7442016601562 6712.69384765625 C 702.9158325195312 6673.5087890625 737.5989990234375 6644.5078125 776.9446411132812 6640.86669921875 C 779.7617797851562 6640.6064453125 782.5471801757812 6640.4794921875 785.30078125 6640.4794921875 C 789.0350341796875 6640.4794921875 792.7594604492188 6640.71533203125 796.4415893554688 6641.18359375 C 824.7757568359375 6600.8681640625 868.6910400390625 6574.52099609375 915.3912353515625 6570.20068359375 C 920.0385131835938 6569.7705078125 924.6354370117188 6569.560546875 929.1785278320312 6569.560546875 C 992.7652587890625 6569.560546875 1046.506958007812 6611.251953125 1063.633056640625 6672.33349609375 C 1065.475463867188 6672.07568359375 1067.316650390625 6671.861328125 1069.1513671875 6671.69140625 C 1072.842529296875 6671.35009765625 1076.490844726562 6671.18310546875 1080.095092773438 6671.18310546875 C 1140.437133789062 6671.18310546875 1187.942016601562 6718.6865234375 1188.244384765625 6779.32958984375 C 1188.542358398438 6839.083984375 1142.995849609375 6893.18798828125 1084.719848632812 6904.791015625 L 1084.719848632812 6905.4306640625 L 1073.857543945312 6906.4736328125 L 1072.41357421875 6906.607421875 L 686.5557861328125 6942.30517578125 L 673.4869995117188 6943.51416015625 Z" stroke="none"/><path d="M 677.330810546875 6930.673828125 C 680.0106811523438 6930.673828125 682.7189331054688 6930.56787109375 685.4534301757812 6930.35302734375 L 685.4534301757812 6930.3896484375 L 1071.307861328125 6894.69189453125 L 1071.308471679688 6894.69189453125 L 1071.309326171875 6894.69189453125 L 1072.753295898438 6894.55810546875 L 1072.753295898438 6894.52197265625 C 1130.344482421875 6888.41552734375 1176.56640625 6837.193359375 1176.277954101562 6779.38916015625 C 1176.003784179688 6724.41943359375 1133.770141601562 6683.14990234375 1080.095092773438 6683.14990234375 C 1076.853881835938 6683.14990234375 1073.5732421875 6683.2998046875 1070.25537109375 6683.60693359375 C 1064.949096679688 6684.0986328125 1059.738647460938 6684.98193359375 1054.646240234375 6686.21044921875 C 1042.56787109375 6624.9072265625 991.6809692382812 6581.52685546875 929.1783447265625 6581.52685546875 C 924.9984741210938 6581.52685546875 920.7692260742188 6581.720703125 916.4935302734375 6582.1162109375 C 869.0299682617188 6586.50732421875 827.2278442382812 6614.73828125 802.0530395507812 6654.3115234375 C 796.6771240234375 6653.09033203125 791.0723876953125 6652.44580078125 785.30078125 6652.44580078125 C 782.909912109375 6652.44580078125 780.49169921875 6652.55615234375 778.0473022460938 6652.7822265625 C 739.8763427734375 6656.314453125 707.9177856445312 6686.630859375 698.7556762695312 6724.59619140625 C 697.5508422851562 6724.556640625 696.3399047851562 6724.53564453125 695.1237182617188 6724.53564453125 C 692.0767822265625 6724.53564453125 688.994384765625 6724.666015625 685.8748779296875 6724.95458984375 C 629.2073974609375 6730.1962890625 583.4984741210938 6780.4052734375 583.7815551757812 6837.09765625 C 584.0481567382812 6890.560546875 625.127197265625 6930.673828125 677.330810546875 6930.673828125 M 661.5205078125 6956.63916015625 L 661.5205078125 6953.5888671875 C 603.6672973632812 6946.0634765625 560.150146484375 6897.6513671875 559.848876953125 6837.216796875 C 559.5099487304688 6769.34375 613.7294921875 6708.9326171875 681.2119140625 6701.375 C 697.6109619140625 6661.630859375 734.39599609375 6632.7861328125 775.8419189453125 6628.951171875 C 779.0316772460938 6628.65625 782.18408203125 6628.51318359375 785.3007202148438 6628.51318359375 C 787.1285400390625 6628.51318359375 788.9545288085938 6628.56298828125 790.7759399414062 6628.662109375 C 821.165283203125 6588.6884765625 866.3300170898438 6562.72216796875 914.2887573242188 6558.28515625 C 919.2468872070312 6557.826171875 924.25634765625 6557.59375 929.1783447265625 6557.59375 C 994.83740234375 6557.59375 1050.818359375 6598.4833984375 1072.12646484375 6659.4619140625 C 1074.804077148438 6659.29736328125 1077.460327148438 6659.216796875 1080.094970703125 6659.216796875 C 1147.11376953125 6659.216796875 1199.874877929688 6711.9501953125 1200.210571289062 6779.27001953125 C 1200.525756835938 6842.44873046875 1156.49853515625 6898.05615234375 1096.686157226562 6914.3046875 L 1096.686157226562 6916.3388671875 L 1074.962524414062 6918.388671875 L 1073.518432617188 6918.52294921875 L 687.658203125 6954.220703125 L 661.5205078125 6956.63916015625 Z" stroke="none" fill="#131311"/></g><path d="M1098.154,6804.149c.006-.636.046-1.264.043-1.9,0-.134-.012-.266-.013-.4,0-.2.009-.406.007-.61h-.027c-.974-74.641-68.223-134.655-150.75-134.244s-149.174,61.094-149.4,135.741h-.028c0,.2.013.4.014.608,0,.134-.01.265-.009.4,0,.638.05,1.266.063,1.9.031,1.376.07,2.75.135,4.118.034.62.068,1.238.11,1.854,7.289,122.407,151.743,213.426,151.743,213.426s141.861-92.446,147.929-214.92q.053-.926.092-1.855C1098.111,6806.9,1098.136,6805.525,1098.154,6804.149Z" transform="translate(-61.2 -21.949)" fill="#131312"/><g transform="translate(895.631 6983.916)"><path d="M1014.886,7147.738l.074-.055Z" transform="translate(-1012.534 -7129.312)" fill="none"/><path d="M1014.148,7145.386l-.074.055q-1.249.913-2.348,1.7l0,0,.225,45.119c2.941-2.109,6.76-4.928,11.243-8.414l-.225-45.113h0C1019.636,7141.319,1016.67,7143.541,1014.148,7145.386Z" transform="translate(-1011.722 -7127.013)" fill="#dc171b"/><path d="M1031.18,7134.457l-.008.006.225,45.1c1.045-.83,2.111-1.681,3.211-2.573l-.225-45.1h0C1033.291,7132.777,1032.218,7133.635,1031.18,7134.457Z" transform="translate(-1016.717 -7125.257)" fill="#dc171b"/><path d="M1041.974,7125.657h0l.225,45.082q1.579-1.317,3.211-2.706l-.224-45.07h0Q1043.553,7124.344,1041.974,7125.657Z" transform="translate(-1019.491 -7122.963)" fill="#dc171b"/></g><g transform="translate(801.764 6931.396)"><path d="M905.052,7074.3l.273,54.761c4.517,3.442,8.365,6.223,11.326,8.3l-.257-51.567Q910.759,7080.3,905.052,7074.3Z" transform="translate(-890.461 -7057.946)" fill="#131312"/><path d="M896.611,7121.6c1.11.879,2.183,1.721,3.237,2.541l-.278-55.734q-1.623-1.757-3.242-3.556Z" transform="translate(-888.221 -7055.519)" fill="#131312"/><path d="M885.705,7109.686q1.646,1.372,3.238,2.673l-.281-56.254q-1.628-1.885-3.243-3.81Z" transform="translate(-885.419 -7052.295)" fill="#131312"/></g><path d="M1091.73,6801.837c.006-.581.043-1.156.04-1.739,0-.122-.011-.241-.012-.363,0-.187.008-.371.007-.558h-.026c-.89-68.228-62.359-123.084-137.793-122.707s-136.353,55.843-136.562,124.075h-.026c0,.187.011.37.013.556,0,.123-.009.243-.009.366,0,.582.045,1.155.057,1.736.029,1.258.064,2.514.124,3.765q.045.848.1,1.694c6.663,111.888,138.7,195.083,138.7,195.083s129.669-84.5,135.214-196.448c.033-.564.06-1.13.084-1.7C1091.691,6804.351,1091.714,6803.095,1091.73,6801.837Z" transform="translate(-66.176 -24.382)" fill="#dc171b"/><g transform="translate(-73.3 -32.576)" fill="none" stroke-miterlimit="10"><path d="M1075.291,6813.558c.005-.487.036-.969.033-1.459,0-.1-.009-.2-.01-.305,0-.156.007-.311.006-.467h-.022c-.746-57.24-52.317-103.263-115.6-102.948s-114.4,46.851-114.572,104.1H845.1c0,.156.01.311.01.467,0,.1-.007.2-.007.305,0,.489.038.971.048,1.458.025,1.056.054,2.108.1,3.158q.038.712.085,1.422c5.589,93.869,116.366,163.669,116.366,163.669s108.789-70.9,113.441-164.816c.027-.473.05-.948.071-1.423C1075.259,6815.667,1075.277,6814.614,1075.291,6813.558Z" stroke="none"/><path d="M 960.3394165039062 6708.37646484375 L 959.74658203125 6718.73583984375 C 902.41162109375 6719.02294921875 855.637939453125 6761.087890625 855.48046875 6812.50537109375 L 855.4700927734375 6814.46142578125 L 855.507568359375 6814.4658203125 L 855.5997314453125 6817.3134765625 L 855.6806640625 6818.669921875 C 860.1807861328125 6894.24560546875 939.56787109375 6954.94091796875 961.6091918945312 6970.38671875 C 983.290283203125 6954.67919921875 1061.05859375 6893.21728515625 1064.8076171875 6817.54052734375 L 1064.868408203125 6816.32080078125 L 1064.93359375 6813.44873046875 L 1064.959228515625 6812.779296875 L 1064.942016601562 6811.4609375 C 1064.275390625 6760.3330078125 1017.350830078125 6718.73583984375 960.339111328125 6718.734375 L 960.3394165039062 6708.37646484375 M 960.33935546875 6708.37646484375 C 1023.330383300781 6708.37841796875 1074.555419921875 6754.2822265625 1075.299072265625 6811.326171875 L 1075.320678710938 6811.326171875 C 1075.321411132812 6811.48291015625 1075.31396484375 6811.6376953125 1075.314575195312 6811.79345703125 C 1075.3154296875 6811.8955078125 1075.324340820312 6811.99560546875 1075.324340820312 6812.0986328125 C 1075.327392578125 6812.58837890625 1075.296020507812 6813.0703125 1075.290893554688 6813.5576171875 C 1075.277465820312 6814.61376953125 1075.2587890625 6815.66748046875 1075.218872070312 6816.7158203125 C 1075.197998046875 6817.19140625 1075.175659179688 6817.66650390625 1075.148315429688 6818.13916015625 C 1070.495849609375 6912.06005859375 961.7071533203125 6982.955078125 961.7071533203125 6982.955078125 C 961.7071533203125 6982.955078125 850.9305419921875 6913.15478515625 845.341064453125 6819.28564453125 C 845.30908203125 6818.8115234375 845.2816162109375 6818.337890625 845.25634765625 6817.86328125 C 845.205810546875 6816.8134765625 845.1767578125 6815.76123046875 845.15234375 6814.705078125 C 845.142578125 6814.2177734375 845.10693359375 6813.73583984375 845.104736328125 6813.2470703125 C 845.10400390625 6813.14501953125 845.1121826171875 6813.0439453125 845.111328125 6812.94189453125 C 845.110595703125 6812.78515625 845.101806640625 6812.63037109375 845.10107421875 6812.474609375 L 845.12255859375 6812.4736328125 C 845.2979736328125 6755.22900390625 896.406982421875 6708.69482421875 959.6947021484375 6708.3779296875 C 959.9110107421875 6708.376953125 960.1233520507812 6708.37646484375 960.33935546875 6708.37646484375 Z" stroke="none" fill="#131312"/></g><path d="M930.173,6990.417l-15.838,19.348,66.252,58.589,71.916-68.912-23.8-17.668Z" transform="translate(-91.081 -102.788)" fill="#dc171b"/><path d="M860.865,6779.7l-26.68.2,18.288-48.079,82.419-43.4s50.419,4.566,53.015,4.923,73.93,37.8,73.93,37.8l26.607,47.113-35.848.643Z" transform="translate(-70.497 -27.45)" fill="#dc171b"/><g transform="translate(896.328 6884.132)"><path d="M1012.66,7041.08l4.164-3.554a5.031,5.031,0,0,1,3.855-1.47,5.807,5.807,0,0,1,3.6,2.26l7.23,8.474a5.8,5.8,0,0,1,1.666,3.916,5.033,5.033,0,0,1-2.058,3.574l-4.165,3.556Zm4.675.146,10.213,11.969,1.483-1.267a1.74,1.74,0,0,0,.675-1.2,2.335,2.335,0,0,0-.723-1.575l-7.434-8.712a2.33,2.33,0,0,0-1.442-.962,1.747,1.747,0,0,0-1.288.478Z" transform="translate(-1012.66 -7000.854)" fill="#fff"/><path d="M1046.938,7040.15c-.13-.078-.255-.15-.371-.214a3.01,3.01,0,0,1-.4-.271,5.63,5.63,0,0,1-.538-.488c-.208-.207-.462-.473-.761-.795l-2.354-2.539a3.389,3.389,0,0,0-1.868-1.227,2.158,2.158,0,0,0-1.7.716l-.876.814,6.1,6.572-2.538,2.355-14.983-16.146,3.83-3.553a5.246,5.246,0,0,1,3.728-1.742,5.306,5.306,0,0,1,3.478,1.967l1.176,1.268q2.312,2.493,1.379,4.816a3.112,3.112,0,0,1,2.515.05,7.947,7.947,0,0,1,2.359,1.826l2.312,2.492a14.143,14.143,0,0,0,1.019,1.006,4.533,4.533,0,0,0,1.076.7Zm-15.61-11.271,4.6,4.959.991-.92a2.184,2.184,0,0,0,.776-1.407,2.413,2.413,0,0,0-.839-1.713l-1.476-1.592a2.814,2.814,0,0,0-1.49-.979,1.6,1.6,0,0,0-1.344.518Z" transform="translate(-1016.253 -6997.669)" fill="#fff"/><path d="M1064.123,7023.916l-2.455,2.484-3.263-2.383-2.986,3.022,2.423,3.235-2.234,2.26-13.192-17.987,3.56-3.6Zm-10.521.709,2.344-2.373-9.1-6.642Z" transform="translate(-1020.302 -6994.411)" fill="#fff"/><path d="M1074.957,7012.193l-2.358,2.578-3.352-2.257-2.867,3.135,2.545,3.139-2.146,2.345-13.874-17.467,3.419-3.738Zm-10.485,1.115,2.251-2.462-9.346-6.288Z" transform="translate(-1022.996 -6991.583)" fill="#fff"/><path d="M1064.927,6998.167a5.987,5.987,0,0,1-2.316-3.624,5.823,5.823,0,0,1,4.934-5.842,5.983,5.983,0,0,1,3.959,1.676l.528.447-2.11,2.5-.7-.589a2.465,2.465,0,0,0-1.58-.737,1.908,1.908,0,0,0-1.645,1.947,2.442,2.442,0,0,0,.991,1.434,3.892,3.892,0,0,0,1.851.9,8.228,8.228,0,0,0,2.063.095c.717-.054,1.459-.133,2.223-.243a15.437,15.437,0,0,1,2.331-.151,8.586,8.586,0,0,1,2.4.378,6.831,6.831,0,0,1,2.416,1.382,5.874,5.874,0,0,1,2.3,3.646,5.906,5.906,0,0,1-4.974,5.89,5.888,5.888,0,0,1-3.979-1.651l-1.035-.873,2.111-2.5,1.2,1.015a2.277,2.277,0,0,0,1.589.7,2.043,2.043,0,0,0,1.685-2,2.284,2.284,0,0,0-.96-1.449,3.9,3.9,0,0,0-1.851-.9,8.453,8.453,0,0,0-2.062-.095q-1.074.081-2.224.245a15.491,15.491,0,0,1-2.331.152,8.6,8.6,0,0,1-2.4-.378A6.85,6.85,0,0,1,1064.927,6998.167Z" transform="translate(-1025.478 -6988.699)" fill="#fff"/></g><g transform="translate(620.628 6602.226)"><path d="M790.3,6705.509a80.133,80.133,0,0,1,25.21,1.606,172.138,172.138,0,0,1,9.974-14.053c-1.389.054-2.785.132-4.191.263a84.464,84.464,0,0,0-37.6,13.071C785.882,6706.021,788.081,6705.715,790.3,6705.509Z" transform="translate(-678.16 -6630.87)" fill="#131311"/><path d="M670.566,6807.118a101.219,101.219,0,0,1,3.738-12.059,111.683,111.683,0,0,0-32.614,14.963,111.845,111.845,0,0,1,15.349-2.528A108.225,108.225,0,0,1,670.566,6807.118Z" transform="translate(-641.69 -6657.064)" fill="#131311"/><path d="M1120.28,6614a80.154,80.154,0,0,1,14.41,20.748q8.587-.9,17.209-.919c-.906-1.055-1.834-2.1-2.811-3.121a84.485,84.485,0,0,0-33.605-21.329C1117.13,6610.854,1118.737,6612.387,1120.28,6614Z" transform="translate(-763.365 -6609.379)" fill="#131311"/><path d="M1225.431,6743.025a80.166,80.166,0,0,1,24.721,5.2q5.629-6.546,11.882-12.481c-1.383-.144-2.775-.268-4.186-.34a84.477,84.477,0,0,0-39.078,7.559C1220.981,6742.9,1223.2,6742.911,1225.431,6743.025Z" transform="translate(-789.891 -6641.715)" fill="#131311"/></g><g transform="translate(771.358 6671.129)"><path d="M847.367,6790.3a5.749,5.749,0,0,1-2.736-3.347,6.037,6.037,0,0,1,4.194-6.582,5.76,5.76,0,0,1,4.19,1.065l9.66,6.156a5.752,5.752,0,0,1,2.735,3.346,6.032,6.032,0,0,1-4.193,6.582,5.751,5.751,0,0,1-4.19-1.065Zm11.705,3.356a2.325,2.325,0,0,0,1.682.491,1.99,1.99,0,0,0,1.4-2.2,2.337,2.337,0,0,0-1.158-1.316l-10.031-6.392a2.346,2.346,0,0,0-1.682-.494,1.992,1.992,0,0,0-1.4,2.2,2.338,2.338,0,0,0,1.158,1.316Z" transform="translate(-844.506 -6722.176)" fill="#fff"/><path d="M861.149,6770.448l12.192,10.29-2.009,2.382L854.5,6768.912l2.8-3.316,12.37,5.785-10.076-8.5,1.989-2.356,16.832,14.206-2.293,2.719Z" transform="translate(-847.072 -6717.097)" fill="#fff"/><path d="M877.905,6763.061l4.565-4.333,2.166,2.282-4.565,4.332Z" transform="translate(-853.083 -6716.637)" fill="#fff"/><path d="M884.006,6747.757a5.975,5.975,0,0,1-1.507-4.026,5.822,5.822,0,0,1,6.045-4.683,5.986,5.986,0,0,1,3.522,2.468l.424.546-2.588,2-.558-.721a2.448,2.448,0,0,0-1.392-1.05,1.908,1.908,0,0,0-2.016,1.559,2.452,2.452,0,0,0,.67,1.611,3.9,3.9,0,0,0,1.622,1.271,8.367,8.367,0,0,0,2,.523q1.07.147,2.226.226a15.4,15.4,0,0,1,2.312.339,8.657,8.657,0,0,1,2.267.871,6.869,6.869,0,0,1,2.074,1.856,5.893,5.893,0,0,1,1.483,4.047,5.905,5.905,0,0,1-6.1,4.721,5.876,5.876,0,0,1-3.546-2.447l-.829-1.07,2.587-2,.963,1.244a2.275,2.275,0,0,0,1.407,1.02,2.04,2.04,0,0,0,2.065-1.6,2.274,2.274,0,0,0-.636-1.616,3.889,3.889,0,0,0-1.622-1.271,8.336,8.336,0,0,0-2-.523q-1.069-.145-2.225-.226a15.216,15.216,0,0,1-2.312-.34,8.471,8.471,0,0,1-2.266-.87A6.843,6.843,0,0,1,884.006,6747.757Z" transform="translate(-854.26 -6711.566)" fill="#fff"/><path d="M896.349,6732.6l2.91-1.874,11.922,18.522-2.91,1.875Z" transform="translate(-857.82 -6709.445)" fill="#fff"/><path d="M904.951,6726l9.443-5.027,1.479,2.776-3.195,1.7,8.874,16.667-3.054,1.627-8.875-16.667-3.194,1.7Z" transform="translate(-860.029 -6706.943)" fill="#fff"/><path d="M929.9,6724.536l4.4-1.782,1.18,2.917-4.4,1.782,2.421,5.979,5.541-2.244,1.181,2.918-8.75,3.541-8.264-20.416,8.75-3.542,1.18,2.916-5.542,2.243Z" transform="translate(-864.717 -6705.07)" fill="#fff"/><path d="M955.487,6707.148a5.028,5.028,0,0,1,4.1.461,5.8,5.8,0,0,1,2.167,3.662l.654,2.787a5.8,5.8,0,0,1-.315,4.242,5.03,5.03,0,0,1-3.468,2.235l-1.595.373,1.889,8.057-3.37.79-5.026-21.444Zm-.874,3.438,1.7,7.26,1.593-.373a1.712,1.712,0,0,0,1.125-.716,2.313,2.313,0,0,0,.055-1.693l-.754-3.218a2.314,2.314,0,0,0-.8-1.492,1.707,1.707,0,0,0-1.327-.143Z" transform="translate(-871.732 -6703.335)" fill="#fff"/><path d="M980,6725.3c-.06-.139-.119-.27-.175-.39a3.3,3.3,0,0,1-.168-.455,6.082,6.082,0,0,1-.151-.711c-.047-.291-.1-.655-.15-1.09l-.427-3.436a3.4,3.4,0,0,0-.8-2.088,2.162,2.162,0,0,0-1.8-.413l-1.185.148,1.1,8.9-3.433.425-2.713-21.857,5.184-.643a5.236,5.236,0,0,1,4.042.767,5.3,5.3,0,0,1,1.672,3.628l.213,1.718q.418,3.371-1.7,4.713a3.1,3.1,0,0,1,2.01,1.51,7.867,7.867,0,0,1,.846,2.859l.418,3.373a14.178,14.178,0,0,0,.239,1.414,4.594,4.594,0,0,0,.465,1.193Zm-6.072-18.271.835,6.714,1.341-.167a2.177,2.177,0,0,0,1.454-.687,2.419,2.419,0,0,0,.32-1.879l-.265-2.154a2.8,2.8,0,0,0-.635-1.666,1.609,1.609,0,0,0-1.394-.365Z" transform="translate(-876.761 -6702.482)" fill="#fff"/><path d="M990.591,6702.468l3.459-.142.9,22.009-3.457.14Z" transform="translate(-882.022 -6702.152)" fill="#fff"/><path d="M1006.306,6720.291l3.361-17.847,3.175.127-4.279,21.873-5.156-.208-2.513-22.144,3.489.14Z" transform="translate(-884.668 -6702.092)" fill="#fff"/><path d="M1029.648,6726.979l-3.453-.52,0-4.041-4.2-.634-1.187,3.863-3.144-.473,6.767-21.255,5.01.755Zm-6.769-8.083,3.3.5.012-11.263Z" transform="translate(-888.976 -6702.562)" fill="#fff"/><path d="M1042.2,6706.653l10.353,2.7-.794,3.045-3.5-.912-4.758,18.271-3.349-.873,4.758-18.27-3.5-.913Z" transform="translate(-894.751 -6703.263)" fill="#fff"/><path d="M1059.95,6722.068l4.453,1.662-1.1,2.948-4.451-1.662-2.258,6.042,5.6,2.092-1.1,2.948-8.843-3.3,7.7-20.634,8.843,3.3-1.1,2.948-5.6-2.091Z" transform="translate(-897.857 -6704.678)" fill="#fff"/><path d="M1088.009,6741l-1.447,2.544a5.884,5.884,0,0,1-3.164,2.925,5.9,5.9,0,0,1-6.7-3.811,5.886,5.886,0,0,1,.892-4.216l5.661-9.956a5.882,5.882,0,0,1,3.164-2.926,5.9,5.9,0,0,1,6.7,3.812,5.89,5.89,0,0,1-.894,4.215l-1.056,1.859-2.847-1.616,1.167-2.053a2.34,2.34,0,0,0,.406-1.706,1.988,1.988,0,0,0-2.27-1.289,2.341,2.341,0,0,0-1.256,1.224l-5.877,10.339a2.288,2.288,0,0,0-.4,1.691,2.044,2.044,0,0,0,2.27,1.29,2.277,2.277,0,0,0,1.249-1.209l1.553-2.735Z" transform="translate(-904.108 -6708.068)" fill="#fff"/><path d="M1102.469,6734.039l2.809,2.025-11.039,15.314,4.619,3.331-1.838,2.552-7.429-5.354Z" transform="translate(-907.446 -6710.296)" fill="#fff"/><path d="M1113.451,6749.462a5.746,5.746,0,0,1,3.762-2.132,6.033,6.033,0,0,1,5.78,5.241,5.757,5.757,0,0,1-1.758,3.951l-7.7,8.483a5.746,5.746,0,0,1-3.76,2.13A6.031,6.031,0,0,1,1104,6761.9a5.752,5.752,0,0,1,1.757-3.952Zm-5.28,10.971a2.325,2.325,0,0,0-.771,1.574,1.992,1.992,0,0,0,1.935,1.755,2.338,2.338,0,0,0,1.492-.92l7.992-8.809a2.332,2.332,0,0,0,.77-1.574,1.988,1.988,0,0,0-1.933-1.754,2.334,2.334,0,0,0-1.492.918Z" transform="translate(-911.146 -6713.707)" fill="#fff"/><path d="M1134.111,6762.276l-12.89,11.07a2.279,2.279,0,0,0-.948,1.457,1.806,1.806,0,0,0,.494,1.3,1.787,1.787,0,0,0,1.208.682,2.281,2.281,0,0,0,1.583-.716L1136.447,6765l2.134,2.484-12.725,10.926a5.878,5.878,0,0,1-3.965,1.684,5.9,5.9,0,0,1-5.023-5.848,5.889,5.889,0,0,1,2.264-3.667l12.723-10.927Z" transform="translate(-914.444 -6716.873)" fill="#fff"/><path d="M1144.417,6776.424l2.995,4.583a5.038,5.038,0,0,1,.965,4.012,5.8,5.8,0,0,1-2.7,3.287l-9.325,6.091a5.8,5.8,0,0,1-4.1,1.154,5.032,5.032,0,0,1-3.283-2.5l-2.994-4.583Zm-.742,4.619-13.172,8.6,1.067,1.634a1.747,1.747,0,0,0,1.1.823,2.342,2.342,0,0,0,1.654-.518l9.59-6.265a2.329,2.329,0,0,0,1.137-1.307,1.744,1.744,0,0,0-.311-1.338Z" transform="translate(-916.791 -6721.182)" fill="#fff"/></g><path d="M1074.221,7012.79l-18.306,19.73-17.268-19.8,14.257-14.276Z" transform="translate(-123.005 -107.069)" fill="#dc171b"/><g transform="translate(830.132 6890.318)"><path d="M936.2,7010.26l-9.3,7.263-3.306-3.414,14.113-17.087,2.341,2.418-11.183,13.419,13.635-10.888,2.321,2.4-11.363,13.417,13.815-10.886,2.1,2.17-17.529,13.563-3.2-3.3Z" transform="translate(-923.589 -6997.022)" fill="#fff"/><path d="M955.671,7015.564l2.511,2.384-15.161,15.978-2.511-2.382Z" transform="translate(-927.935 -7001.784)" fill="#fff"/><path d="M962.59,7021.109l7.979,7.126-2.1,2.348-2.7-2.412L953.2,7042.252l-2.581-2.307,12.578-14.078-2.7-2.412Z" transform="translate(-930.53 -7003.208)" fill="#fff"/><path d="M963.785,7052.048l-2.671-2.2,14-17,2.672,2.2-6,7.286,3.037,2.5,6-7.286,2.719,2.242-14,17-2.722-2.241,6-7.287-3.035-2.5Z" transform="translate(-933.226 -7006.223)" fill="#fff"/></g><g transform="translate(922.006 6897.597)"><path d="M1063.549,7027.672l-1.857,1.867-2.453-1.8-2.258,2.271,1.818,2.443-1.688,1.7-9.9-13.587,2.693-2.708Zm-7.931.51,1.773-1.783-6.841-5.028Z" transform="translate(-1047.21 -7009.65)" fill="#fff"/><path d="M1074.384,7016.115l-1.784,1.937-2.522-1.711-2.169,2.354,1.908,2.374-1.623,1.759-10.407-13.2,2.589-2.808Zm-7.905.809,1.7-1.849-7.025-4.765Z" transform="translate(-1049.927 -7006.816)" fill="#fff"/></g><rect width="10.029" height="10.029" transform="translate(888.253 6941.651) rotate(44.714)" fill="#131312"/><g transform="translate(804.036 6708.595)"><path d="M1055.756,6828.938c0-.354.026-.7.025-1.06,0-.074-.007-.146-.008-.221,0-.114.005-.226,0-.34h-.016c-.543-41.6-38.019-75.042-84.011-74.813s-83.132,34.047-83.26,75.647h-.016c0,.113.007.226.008.339,0,.074-.006.148-.005.222,0,.355.028.705.035,1.06.017.766.039,1.532.075,2.294q.028.519.062,1.034c4.062,68.216,84.564,118.939,84.564,118.939s79.057-51.52,82.439-119.772c.02-.344.036-.689.051-1.035C1055.733,6830.472,1055.746,6829.706,1055.756,6828.938Z" transform="translate(-888.475 -6752.503)" fill="#131312"/><circle cx="58.976" cy="58.976" r="58.976" transform="translate(9.644 18.8)" fill="none" stroke="#dc171b" stroke-miterlimit="10" stroke-width="1.994"/><circle cx="58.976" cy="58.976" r="58.976" transform="translate(39.289 18.652)" fill="none" stroke="#dc171b" stroke-miterlimit="10" stroke-width="1.994"/><circle cx="58.976" cy="58.976" r="58.976" transform="translate(24.467 18.726)" fill="none" stroke="#dc171b" stroke-miterlimit="10" stroke-width="1.994"/><path d="M1022.971,6833.707l-22.23.015-.174-22.065-23.472.184.169,22.065-22.065.18.183,23.472,22.073-.169.172,22.084,23.47-.186-.169-22.082,22.229-.014Z" transform="translate(-905.611 -6767.695)" fill="#fff"/><path d="M1004.469,6777.349a3.379,3.379,0,1,1-3.4-3.39,3.395,3.395,0,0,1,3.4,3.39m9.415-.046-7.973,8.151-2.636-2.632,5.371-5.493-5.425-5.441,2.609-2.657Zm-24.368.122a3.38,3.38,0,1,1-3.4-3.391,3.393,3.393,0,0,1,3.4,3.391m7.476-.037A3.379,3.379,0,1,1,993.6,6774a3.393,3.393,0,0,1,3.395,3.392m-23.651.117,7.974-8.153,2.636,2.632-5.369,5.5,5.423,5.439-2.609,2.657Z" transform="translate(-910.27 -6756.799)" fill="#fff" stroke="#131311" stroke-miterlimit="10" stroke-width="5.983"/><path d="M1004.218,6777.019a3.379,3.379,0,1,1-3.4-3.391,3.4,3.4,0,0,1,3.4,3.391m9.415-.047-7.973,8.151-2.636-2.632L1008.4,6777l-5.425-5.442,2.609-2.657Zm-24.368.122a3.38,3.38,0,1,1-3.4-3.392,3.393,3.393,0,0,1,3.4,3.392m7.476-.038a3.379,3.379,0,1,1-3.395-3.391,3.393,3.393,0,0,1,3.395,3.391m-23.651.118,7.974-8.153,2.636,2.631-5.369,5.5,5.423,5.439-2.609,2.658Z" transform="translate(-910.205 -6756.714)" fill="#dc171b"/></g></g><g transform="translate(670.193 3714.148)"><path d="M59.133-12.4a.922.922,0,0,0-.066-.2c-.016-.066-.033-.131-.049-.229a1.881,1.881,0,0,1-.033-.344V-15.33a1.532,1.532,0,0,0-.262-1.032,1.021,1.021,0,0,0-.82-.295h-.574V-12.4h-1.64V-22.848h2.477a2.559,2.559,0,0,1,1.87.59,2.527,2.527,0,0,1,.574,1.8v.819a2.112,2.112,0,0,1-1.082,2.129,1.39,1.39,0,0,1,.853.835,3.864,3.864,0,0,1,.23,1.392v1.621c0,.262.016.491.033.688a1.946,1.946,0,0,0,.148.59H59.133Zm-1.788-8.959v3.21h.64a.988.988,0,0,0,.722-.246,1.122,1.122,0,0,0,.262-.868v-1.032a1.335,1.335,0,0,0-.2-.819.779.779,0,0,0-.64-.262h-.787Z" transform="translate(39.062 0.334)" fill="#333131"/><path d="M65.66-12.392H64l-.279-1.9H61.707l-.279,1.9H59.92l1.673-10.465H64ZM61.9-15.7H63.5l-.787-5.29Z" transform="translate(42.31 0.327)" fill="#333131"/><path d="M66.128-19.965V-12.4H64.652V-22.848h2.067l1.689,6.256v-6.256h1.46v10.465H68.178Z" transform="translate(45.942 0.334)" fill="#333131"/><path d="M71.476-16.559l-.508.95v3.21h-1.64V-22.848h1.64v4.553l2.149-4.553h1.64l-2.3,4.668,2.3,5.8H73.067Z" transform="translate(49.532 0.334)" fill="#333131"/><path d="M75.54-18.442H77.8v1.49H75.54v3.063h2.837v1.49H73.883V-22.848h4.494v1.49H75.54Z" transform="translate(53.03 0.334)" fill="#333131"/><path d="M78.059-22.848h2.608a2.413,2.413,0,0,1,1.853.655,2.734,2.734,0,0,1,.607,1.933v5.29a2.734,2.734,0,0,1-.607,1.933,2.389,2.389,0,0,1-1.853.655H78.059Zm1.657,1.49v7.468h.935a.817.817,0,0,0,.607-.229,1.1,1.1,0,0,0,.23-.786v-5.437a1.1,1.1,0,0,0-.23-.786.843.843,0,0,0-.607-.229Z" transform="translate(56.235 0.334)" fill="#333131"/><path d="M87.781-15.372h-.968L86.5-12.392H85.156l.312-2.981H84.73l.115-1.163h.738l.279-2.735h-.754l.115-1.163h.754l.262-2.408h1.345l-.246,2.391h.968l.262-2.408h1.345L89.65-20.45h.771l-.115,1.163h-.771l-.279,2.735h.771l-.115,1.163h-.787l-.312,2.981H87.469Zm-.853-1.163H87.9l.279-2.735h-.968Z" transform="translate(61.356 0.327)" fill="#333131"/><path d="M94.336-22.848v1.441L91.925-12.4h-1.64L92.7-21.358h-3.28v-1.49Z" transform="translate(64.953 0.334)" fill="#333131"/><path d="M55.614-10.149a2.738,2.738,0,0,1,.64-1.949,2.415,2.415,0,0,1,1.853-.688,2.415,2.415,0,0,1,1.853.688,2.738,2.738,0,0,1,.64,1.949v5.437a2.738,2.738,0,0,1-.64,1.949,2.407,2.407,0,0,1-1.853.671,2.469,2.469,0,0,1-1.853-.671,2.738,2.738,0,0,1-.64-1.949ZM57.271-4.6a1.173,1.173,0,0,0,.23.8.856.856,0,0,0,.623.229.884.884,0,0,0,.623-.229,1.144,1.144,0,0,0,.23-.8v-5.65a1.173,1.173,0,0,0-.23-.8.856.856,0,0,0-.623-.229.884.884,0,0,0-.623.229,1.144,1.144,0,0,0-.23.8Z" transform="translate(39.005 8.059)" fill="#333131"/><path d="M61.706-12.712v8.074a1.1,1.1,0,0,0,.23.786.856.856,0,0,0,.623.229.884.884,0,0,0,.623-.229,1.1,1.1,0,0,0,.23-.786v-8.074H64.97v7.96A2.809,2.809,0,0,1,64.347-2.8a2.33,2.33,0,0,1-1.837.688A2.353,2.353,0,0,1,60.673-2.8a2.809,2.809,0,0,1-.623-1.949v-7.96Z" transform="translate(42.409 8.116)" fill="#333131"/><path d="M64.262-12.712h5.084v1.49H67.624v8.959h-1.64v-8.959H64.262Z" transform="translate(45.643 8.116)" fill="#333131"/><path d="M70.9-10.149a2.738,2.738,0,0,1,.64-1.949,2.415,2.415,0,0,1,1.853-.688,2.415,2.415,0,0,1,1.853.688,2.738,2.738,0,0,1,.64,1.949v5.437a2.738,2.738,0,0,1-.64,1.949,2.407,2.407,0,0,1-1.853.671,2.469,2.469,0,0,1-1.853-.671,2.738,2.738,0,0,1-.64-1.949ZM72.536-4.6a1.172,1.172,0,0,0,.23.8.856.856,0,0,0,.623.229.884.884,0,0,0,.623-.229,1.144,1.144,0,0,0,.23-.8v-5.65a1.172,1.172,0,0,0-.23-.8.856.856,0,0,0-.623-.229.884.884,0,0,0-.623.229,1.144,1.144,0,0,0-.23.8Z" transform="translate(50.736 8.059)" fill="#333131"/><path d="M77.017-8.06H79.15v1.49H77.017v4.324h-1.64V-12.712H79.74v1.49H77.034V-8.06Z" transform="translate(54.176 8.116)" fill="#333131"/><path d="M83.235-5.627v.966a1.1,1.1,0,0,0,.23.786.856.856,0,0,0,.623.229.884.884,0,0,0,.623-.229,1.1,1.1,0,0,0,.23-.786V-6.954a1.172,1.172,0,0,0-.23-.8.856.856,0,0,0-.623-.229.884.884,0,0,0-.623.229,1.144,1.144,0,0,0-.23.8v.311H81.677l.3-6.06h4.346v1.49H83.465l-.131,2.489a1.575,1.575,0,0,1,1.443-.77,1.567,1.567,0,0,1,1.361.606A2.9,2.9,0,0,1,86.6-7.1v2.326a2.81,2.81,0,0,1-.623,1.949,2.323,2.323,0,0,1-1.837.671A2.4,2.4,0,0,1,82.3-2.827a2.809,2.809,0,0,1-.623-1.949v-.868h1.558Z" transform="translate(59.013 8.123)" fill="#333131"/><path d="M86.047-10.149a2.738,2.738,0,0,1,.64-1.949,2.415,2.415,0,0,1,1.853-.688,2.415,2.415,0,0,1,1.853.688,2.738,2.738,0,0,1,.64,1.949v5.437a2.738,2.738,0,0,1-.64,1.949,2.407,2.407,0,0,1-1.853.671,2.469,2.469,0,0,1-1.853-.671,2.737,2.737,0,0,1-.64-1.949ZM87.7-4.6a1.173,1.173,0,0,0,.23.8.856.856,0,0,0,.623.229.884.884,0,0,0,.623-.229,1.144,1.144,0,0,0,.23-.8v-5.65a1.172,1.172,0,0,0-.23-.8.856.856,0,0,0-.623-.229.884.884,0,0,0-.623.229,1.144,1.144,0,0,0-.23.8Z" transform="translate(62.368 8.059)" fill="#333131"/><path d="M91.113-11.4a2.713,2.713,0,0,0,.787-.1,1.512,1.512,0,0,0,.508-.278,1.363,1.363,0,0,0,.312-.426,4.713,4.713,0,0,0,.213-.508h1.115V-2.246h-1.64v-7.976h-1.3Z" transform="translate(66.257 8.116)" fill="#333131"/><path d="M97.311-12.712h1.64V-2.246h-1.64Z" transform="translate(71.015 8.116)" fill="#333131"/><path d="M101.45-9.822v7.567H99.974V-12.721h2.067l1.689,6.256v-6.256h1.46V-2.256H103.5Z" transform="translate(73.059 8.109)" fill="#333131"/><path d="M110.28-10.084a1.452,1.452,0,0,0-.23-.95.8.8,0,0,0-.623-.246.884.884,0,0,0-.623.229,1.144,1.144,0,0,0-.23.8v1.114h-1.558v-1.015a2.809,2.809,0,0,1,.623-1.949,2.33,2.33,0,0,1,1.837-.688,2.353,2.353,0,0,1,1.837.688,2.809,2.809,0,0,1,.623,1.949,4.3,4.3,0,0,1-.246,1.49,5.585,5.585,0,0,1-.607,1.212,9.845,9.845,0,0,1-.787,1.015q-.418.467-.787.884a6.164,6.164,0,0,0-.607.819,1.548,1.548,0,0,0-.246.835.867.867,0,0,0,.016.229h3.116v1.49h-4.756V-3.451a3.444,3.444,0,0,1,.246-1.343,4.853,4.853,0,0,1,.607-1.065,10.561,10.561,0,0,1,.787-.917,10.34,10.34,0,0,0,.787-.9,4.736,4.736,0,0,0,.607-1.048A3.943,3.943,0,0,0,110.28-10.084Z" transform="translate(78.465 8.059)" fill="#333131"/><path d="M111.359-10.149A2.738,2.738,0,0,1,112-12.1a2.415,2.415,0,0,1,1.853-.688,2.415,2.415,0,0,1,1.853.688,2.737,2.737,0,0,1,.64,1.949v5.437a2.737,2.737,0,0,1-.64,1.949,2.407,2.407,0,0,1-1.853.671A2.469,2.469,0,0,1,112-2.763a2.738,2.738,0,0,1-.64-1.949ZM113-4.6a1.173,1.173,0,0,0,.23.8.856.856,0,0,0,.623.229.883.883,0,0,0,.623-.229,1.143,1.143,0,0,0,.23-.8v-5.65a1.172,1.172,0,0,0-.23-.8.856.856,0,0,0-.623-.229.884.884,0,0,0-.623.229,1.144,1.144,0,0,0-.23.8Z" transform="translate(81.799 8.059)" fill="#333131"/><path d="M116.415-11.4a2.713,2.713,0,0,0,.787-.1,1.511,1.511,0,0,0,.508-.278,1.361,1.361,0,0,0,.312-.426,4.738,4.738,0,0,0,.213-.508h1.115V-2.246h-1.64v-7.976h-1.279V-11.4Z" transform="translate(85.681 8.116)" fill="#333131"/><path d="M125.277-4.712a2.671,2.671,0,0,1-.656,1.949,2.539,2.539,0,0,1-1.919.671,2.6,2.6,0,0,1-1.919-.671,2.671,2.671,0,0,1-.656-1.949v-.819a3.3,3.3,0,0,1,.246-1.327,1.775,1.775,0,0,1,.771-.852,2.177,2.177,0,0,1-1.017-2.113v-.328a2.671,2.671,0,0,1,.656-1.949,2.546,2.546,0,0,1,1.919-.688,2.546,2.546,0,0,1,1.919.688,2.671,2.671,0,0,1,.656,1.949v.328a2.21,2.21,0,0,1-1.017,2.113,1.691,1.691,0,0,1,.771.852,3.3,3.3,0,0,1,.246,1.327Zm-3.493-4.782a1.122,1.122,0,0,0,.263.868.944.944,0,0,0,.672.246.932.932,0,0,0,.656-.246,1.122,1.122,0,0,0,.262-.868v-.59a1.266,1.266,0,0,0-.262-.95.932.932,0,0,0-.656-.246.932.932,0,0,0-.656.246,1.267,1.267,0,0,0-.262.95v.59Zm0,4.75a1.2,1.2,0,0,0,.263.934.932.932,0,0,0,.656.246.931.931,0,0,0,.656-.246,1.315,1.315,0,0,0,.279-.934v-.966a1.316,1.316,0,0,0-.246-.9.889.889,0,0,0-.689-.278.914.914,0,0,0-.689.278,1.345,1.345,0,0,0-.246.9v.966Z" transform="translate(88.53 8.059)" fill="#333131"/><path d="M16.134-10.171l.1.033c0,.18.016.377,0,.557A73.977,73.977,0,0,0,15.888-.05c0,.328.082.459.426.442C17.1.36,17.889.376,18.66.393c.3,0,.41-.066.41-.409q-.025-7.37,0-14.74c0-.311-.082-.426-.41-.409q-1.5.025-3,0a.444.444,0,0,0-.508.36c-.968,2.932-2.1,5.814-2.952,8.811-.049.18-.115.344-.213.622a1.713,1.713,0,0,1-.131-.377c-.886-3.03-2.034-5.962-3.051-8.942a.562.562,0,0,0-.656-.475c-.9.033-1.821.033-2.739,0-.443-.016-.574.1-.574.573.016,2.866.016,5.732.016,8.6,0,1.982.016,3.947,0,5.929,0,.36.1.475.459.475.771-.033,1.525-.016,2.3,0,.246,0,.361-.049.361-.344-.049-2.424.1-4.848-.1-7.255-.082-1-.18-2-.279-3.03.2.082.2.229.23.328.787,2.539,1.722,5.012,2.624,7.5.525,1.458.525,1.441,2.017,1.441a.516.516,0,0,0,.574-.426c.705-2.014,1.443-4.013,2.165-6.011.328-.934.623-1.851.935-2.784" transform="translate(0.021 6.23)" fill="#333131"/><path d="M34.84-9.389c.082-.868.18-1.654.213-2.457.016-.409.164-.475.525-.475,1.624.016,3.247,0,4.871.016.377,0,.508-.115.492-.508-.033-.753-.016-1.49,0-2.244.016-.344-.082-.491-.459-.491-2.723.016-5.429.016-8.135,0-.328,0-.426.1-.443.442-.1,2.1-.131,4.209-.361,6.289a1.948,1.948,0,0,0,1.23,2.342.638.638,0,0,0,.771-.016,3.245,3.245,0,0,1,2.116-.573,2.235,2.235,0,0,1,2.28,2.326,2.287,2.287,0,0,1-2.181,2.6,4.522,4.522,0,0,1-3.543-1.294c-.262-.229-.394-.229-.59.066-.377.59-.787,1.163-1.2,1.736a.37.37,0,0,0,.066.59A7.351,7.351,0,0,0,35.185.946c3.149.246,6-1.507,6.38-4.848.23-1.933-.131-3.718-1.821-4.9a5.344,5.344,0,0,0-4.9-.59" transform="translate(19.58 5.939)" fill="#333131"/><path d="M20.259-15.343a6.854,6.854,0,0,0-2.345.328,4.6,4.6,0,0,0-3.379,4.193,4.461,4.461,0,0,0,2.837,4.291c.443.213.9.377,1.361.59A17.248,17.248,0,0,1,21.161-4.8,1.286,1.286,0,0,1,21-2.5a2.722,2.722,0,0,1-.951.246,5.157,5.157,0,0,1-3.018-.786c-.41-.229-.771-.8-1.164-.688-.377.115-.623.688-.935,1.048C13.8-1.291,13.78-1.258,15.322-.374a7.479,7.479,0,0,0,7.659.311,4.325,4.325,0,0,0,2.313-4.291,4.123,4.123,0,0,0-2.608-3.734c-.705-.328-1.443-.606-2.165-.917a9.485,9.485,0,0,1-1.968-.95,1.2,1.2,0,0,1,.082-2.014,1.813,1.813,0,0,1,.82-.278,4.376,4.376,0,0,1,3.28.934c.312.246.476.2.689-.115.377-.524.771-1.032,1.2-1.523.246-.278.2-.442-.066-.655a6.972,6.972,0,0,0-4.3-1.736" transform="translate(7.148 6.096)" fill="#333131"/><path d="M52.137-8.914v-6.093c0-.2.115-.524-.246-.508-1.1.066-2.247-.295-3.28.442a6.148,6.148,0,0,1-1.509.639c-.525.2-1.3.082-1.525.524-.246.459-.049,1.163-.082,1.752-.016.344.1.459.443.442.689-.016,1.378,0,2.083-.016.328-.016.492.066.476.459-.016,2.817-.016,5.618,0,8.435,0,.344-.1.459-.426.442-.869-.016-1.755,0-2.624-.016-.3,0-.426.049-.426.393.016.77.016,1.523,0,2.293,0,.262.082.36.344.36,3.133,0,6.265-.016,9.4,0,.312,0,.361-.147.344-.409-.016-.753-.016-1.49,0-2.244,0-.328-.115-.409-.41-.409-.656.016-1.312-.016-1.968.016-.443.033-.59-.115-.59-.59.016-1.933,0-3.914,0-5.912" transform="translate(30.87 5.94)" fill="#333131"/><path d="M30.526-19.2v2.784c0,1.245,0,1.228,1.2,1.212.344,0,.443-.1.426-.442-.016-.819,0-1.638-.016-2.457,0-.311.1-.426.41-.426.8.016,1.607,0,2.411,0,1,0,.984,0,.968-1.048,0-.36-.131-.442-.443-.442-.722.016-1.46.016-2.181,0-1.345-.033-1.115.278-1.148-1.228-.016-.344.1-.459.443-.442.82.016,1.64,0,2.46,0,1.017,0,1,0,1-1.048,0-.36-.1-.475-.459-.475-1.525.016-3.067.016-4.592,0-.394,0-.476.131-.476.508.016,1.2,0,2.358,0,3.5" transform="translate(19.745 0.057)" fill="#333131"/><path d="M10.9-20.3v-1.851c0-1.048,0-1.032-1.017-1.048-.377,0-.492.1-.492.491.016,2.162.016,4.307.016,6.469,0,1.065,0,1.048,1.033,1.065.394,0,.476-.147.476-.508-.016-1-.016-2.014,0-3.014a1.158,1.158,0,0,1,1.3-1.032.863.863,0,0,1,.984.983c.016.819,0,1.638,0,2.457,0,1.2,0,1.2,1.181,1.13.246-.016.344-.082.344-.36-.016-1.343.016-2.686-.016-4.013a1.485,1.485,0,0,0-1.312-1.523A2.787,2.787,0,0,0,10.9-20.3" transform="translate(3.519 0.064)" fill="#333131"/><path d="M18.266-21.268c.164-.622-.164-.622-.541-.606a2.986,2.986,0,0,1-.541,0c-.344-.049-.426.115-.426.442.016,1.409,0,2.833,0,4.242,0,1.146,0,1.13,1.1,1.114.361,0,.41-.147.41-.475-.016-.983-.016-1.965,0-2.964a1.141,1.141,0,0,1,1.263-1.13c.722-.016,1.033.311,1.033,1.114v3.014c0,.164-.082.409.213.426.361.016.722,0,1.1,0,.2,0,.23-.147.23-.295,0-1.376.016-2.751-.033-4.127a1.473,1.473,0,0,0-1.329-1.458,2.991,2.991,0,0,0-2.477.7" transform="translate(9.174 0.966)" fill="#333131"/><path d="M21.94-21.234c.082-.606-.18-.7-.59-.639a2.469,2.469,0,0,1-.492,0c-.344-.049-.426.1-.426.442.016,1.441,0,2.866,0,4.291,0,1.1,0,1.081,1.082,1.065.344,0,.443-.115.443-.442-.016-.983,0-1.982,0-2.964a1.108,1.108,0,0,1,1.23-1.146c.705,0,1.033.328,1.05,1.114s0,1.556,0,2.342c0,1.179,0,1.163,1.164,1.1.246-.016.361-.082.344-.36-.016-1.343.016-2.686-.016-4.013A1.5,1.5,0,0,0,24.4-21.971a2.792,2.792,0,0,0-2.46.737" transform="translate(11.995 0.965)" fill="#333131"/><path d="M43.714-16.9c-.23.737.1.77.492.737a1.585,1.585,0,0,1,.279,0c.476.066.672-.082.656-.622-.049-1.359-.016-2.719-.016-4.078,0-1.065,0-1.048-1.033-1.048-.377,0-.443.147-.443.491.016.983.016,1.982,0,2.964,0,.655-.525,1.081-1.3,1.1-.705,0-1.033-.328-1.05-1.065-.016-.8,0-1.605,0-2.408,0-1.179,0-1.179-1.164-1.081-.23.016-.312.1-.312.344,0,1.327-.033,2.637.016,3.963a1.563,1.563,0,0,0,1.64,1.589,3.079,3.079,0,0,0,2.231-.884" transform="translate(26.877 1.021)" fill="#333131"/><path d="M37.849-16.8c-.033.59.262.688.656.622a.8.8,0,0,1,.279,0c.443.066.59-.082.574-.573-.033-1.392-.016-2.784-.016-4.193,0-1,0-.983-.968-1-.377,0-.508.1-.492.491.033.966.016,1.933.016,2.9A1.139,1.139,0,0,1,36.652-17.4c-.738.016-1.066-.295-1.066-1.065-.016-.819,0-1.638,0-2.457,0-1.015,0-1-1.017-1.015-.377,0-.443.131-.443.491.016,1.228,0,2.457,0,3.685a1.567,1.567,0,0,0,1.657,1.72,3.028,3.028,0,0,0,2.067-.753" transform="translate(22.508 1.031)" fill="#333131"/><path d="M51.343-15.975a3.085,3.085,0,0,0,1.279-.2,1.687,1.687,0,0,0,1.2-1.671,1.526,1.526,0,0,0-1.181-1.54c-.525-.18-1.082-.295-1.64-.442-.246-.066-.541-.131-.508-.475.033-.295.262-.426.541-.475a2.1,2.1,0,0,1,1.706.393c.3.229.394.131.508-.147A2.771,2.771,0,0,1,53.525-21c.1-.164.049-.246-.082-.377a3.4,3.4,0,0,0-3.657-.18,1.636,1.636,0,0,0-.689,1.589,1.423,1.423,0,0,0,.951,1.245,7.727,7.727,0,0,0,1.05.311c.312.082.64.147.951.246a.428.428,0,0,1,.344.442.515.515,0,0,1-.344.459,1.487,1.487,0,0,1-.8.115,3.147,3.147,0,0,1-1.46-.573c-.262-.2-.361-.115-.476.115a1.447,1.447,0,0,1-.23.377c-.279.328-.115.508.18.688a4.235,4.235,0,0,0,2.083.573" transform="translate(33.878 0.978)" fill="#333131"/><path d="M38.324-18.288c0,.409-.016.819,0,1.228.033,1.245.64,1.785,1.853,1.687.9-.066,1.066-.311.771-1.179-.049-.164-.082-.262-.328-.213-.59.115-.787-.066-.82-.7-.033-.606.033-1.228-.016-1.851-.033-.524.148-.721.64-.639.476.082.59-.147.558-.59-.033-.377.1-.835-.558-.7-.722.147-.64-.36-.64-.8,0-.868.115-.753-.705-.753-.853,0-.738-.131-.754.77a1.575,1.575,0,0,0,0,.278c.049.377-.082.573-.476.508-.377-.066-.492.115-.443.475a3.157,3.157,0,0,1,0,.557c0,.18.066.295.262.262.656-.115.722.246.672.77a8.332,8.332,0,0,0-.016.9" transform="translate(25.018 0.36)" fill="#333131"/><path d="M27.557-19.661v2.85c0,1.294.574,1.834,1.821,1.769.968-.049,1.214-.475.787-1.343-.049-.115-.1-.147-.246-.131-.771.082-.836,0-.836-.786v-4.75c0-1.179,0-1.163-1.132-1.146-.3,0-.41.082-.394.409.016,1.048,0,2.08,0,3.128" transform="translate(17.465 0.062)" fill="#333131"/><path d="M44.922-21.118c.148-.671-.1-.819-.558-.737a1.452,1.452,0,0,1-.377,0c-.426-.066-.508.115-.508.524.033,1.376.016,2.751.016,4.127,0,1.146,0,1.13,1.115,1.081.3-.016.361-.115.361-.393-.016-.917,0-1.818,0-2.735,0-.8.3-1.277,1.082-1.277.771,0,.787-.393.738-.934a1.071,1.071,0,0,1,0-.229c.016-.278-.082-.36-.361-.295a3.409,3.409,0,0,0-1.509.868" transform="translate(29.688 0.979)" fill="#333131"/><path d="M52.181-19.2c.476.213.082.753.377,1.048.131-.377-.1-.835.377-1.048Z" transform="translate(36.369 3.137)" fill="#333131"/><path d="M9.923-23.234a4.529,4.529,0,0,1,2.067,1.441c.279.36.3.606-.164.753l-.1.049c-.492.344-.853.459-1.378-.147a2.054,2.054,0,0,0-3.1.213,2.7,2.7,0,0,0-.41,2.964,2.246,2.246,0,0,0,2.247,1.441,1.943,1.943,0,0,0,1.575-.884c.164-.229.3-.262.525-.115a2.94,2.94,0,0,0,.394.2c.82.377.82.393.246,1.065a3.576,3.576,0,0,1-3.871,1.13,3.813,3.813,0,0,1-2.936-2.833c-.066-.229-.016-.524-.213-.721v-.9c.115-.033.1-.131.115-.229A3.879,3.879,0,0,1,7.758-23.12c.115-.033.262,0,.328-.164H9.923Z" transform="translate(0 0)" fill="#333131"/><path d="M53.815-18.092c-.328-.1-.131-.409-.246-.655-.18.147-.394.442-.607-.115-.033.328-.049.508-.066.819a1.7,1.7,0,0,1-.131-1.032.109.109,0,0,1,.2-.066c.246.459.443.229.656-.033.033-.049.131-.033.213-.033v1.114Z" transform="translate(36.802 3.128)" fill="#333131"/><path d="M16.134-10.164c-.312.917-.607,1.851-.935,2.768-.722,2.014-1.46,4.013-2.165,6.011a.522.522,0,0,1-.574.426c-1.493,0-1.476.016-2.017-1.441C9.541-4.89,8.606-7.38,7.819-9.9c-.033-.115-.033-.262-.23-.328.1,1.032.2,2.031.279,3.03.213,2.424.049,4.831.1,7.255,0,.278-.115.344-.361.344C6.835.383,6.081.383,5.31.4,4.949.416,4.85.3,4.85-.075c.016-1.982,0-3.947,0-5.929,0-2.866.016-5.732-.016-8.6,0-.475.131-.59.574-.573.9.033,1.821.033,2.739,0A.574.574,0,0,1,8.8-14.7c1.017,2.981,2.165,5.912,3.051,8.942.033.082.066.164.131.377.1-.278.164-.442.213-.622.836-2.981,1.985-5.863,2.952-8.811a.44.44,0,0,1,.508-.36q1.5.025,3,0c.312,0,.41.1.41.409q-.025,7.37,0,14.74c0,.328-.115.409-.41.409-.787-.016-1.575-.033-2.345,0-.344.016-.426-.115-.426-.442a68.518,68.518,0,0,1,.344-9.532,3.156,3.156,0,0,0,0-.557Z" transform="translate(0.021 6.223)" fill="#333131"/><path d="M45.464-7.384c0-.557.033-1.114,0-1.671a6.357,6.357,0,0,0-.705-2.9,1.617,1.617,0,0,0-2.788-.066A2.95,2.95,0,0,0,41.528-11a16.354,16.354,0,0,0,.033,7.4c.279,1.179.935,1.769,1.771,1.769.853,0,1.476-.622,1.8-1.8a12.5,12.5,0,0,0,.328-3.751M37.69-7.434a11.746,11.746,0,0,1,.9-5.044,4.927,4.927,0,0,1,4.74-3.226,4.911,4.911,0,0,1,4.756,3.292,13.922,13.922,0,0,1,.8,6.846,9.739,9.739,0,0,1-.968,3.636A4.911,4.911,0,0,1,43.168,1.1a4.925,4.925,0,0,1-4.527-3.145,12.594,12.594,0,0,1-.951-5.388" transform="translate(25.242 5.818)" fill="#333131"/><path d="M34.836-9.4a5.3,5.3,0,0,1,4.92.622c1.673,1.179,2.034,2.964,1.821,4.9C41.2-.559,38.346,1.193,35.2.964a7.438,7.438,0,0,1-4.691-1.982c-.213-.2-.262-.344-.066-.59.426-.557.82-1.146,1.2-1.736.2-.295.328-.295.59-.066a4.465,4.465,0,0,0,3.543,1.294,2.315,2.315,0,0,0,2.181-2.6,2.235,2.235,0,0,0-2.28-2.326,3.418,3.418,0,0,0-2.116.573.7.7,0,0,1-.771.016A1.978,1.978,0,0,1,31.556-8.8c.246-2.08.262-4.193.361-6.289.016-.344.115-.442.443-.442,2.723.016,5.429.016,8.135,0,.377,0,.459.131.459.491-.016.753-.016,1.49,0,2.244.016.377-.1.508-.492.508-1.624-.016-3.247,0-4.871-.016-.361,0-.508.066-.525.475-.049.77-.148,1.556-.23,2.424" transform="translate(19.584 5.953)" fill="#333131"/><path d="M25.071-10.033v2.014c0,.213.033.36.3.36a11.691,11.691,0,0,0,2.395-.131,2.216,2.216,0,0,0,1.788-2.391,1.962,1.962,0,0,0-1.8-2.08,14.576,14.576,0,0,0-2.395-.082c-.3-.016-.262.18-.262.377-.016.622-.016,1.277-.016,1.933M21.577-7.38c0-2.424.016-4.848-.016-7.272,0-.409.1-.54.508-.524,1.755.016,3.493,0,5.248.016a7.053,7.053,0,0,1,3.313.786,3.814,3.814,0,0,1,2.05,2.686c.787,3.849-1.164,6.273-4.56,6.748a11.761,11.761,0,0,1-2.395.082c-.59-.033-.705.18-.689.737.033,1.359,0,2.719.016,4.078,0,.377-.1.475-.459.459-.853-.033-1.706-.033-2.575,0-.41.016-.476-.147-.476-.508.049-2.44.033-4.864.033-7.288" transform="translate(12.85 6.223)" fill="#333131"/><path d="M20.254-15.343a6.943,6.943,0,0,1,4.314,1.752c.262.213.312.377.066.655-.426.491-.82,1-1.2,1.523-.213.295-.377.344-.689.115a4.376,4.376,0,0,0-3.28-.934,2.033,2.033,0,0,0-.82.278,1.2,1.2,0,0,0-.082,2.014,9.486,9.486,0,0,0,1.968.95c.722.311,1.46.573,2.165.917a4.106,4.106,0,0,1,2.608,3.734A4.325,4.325,0,0,1,22.993-.046a7.476,7.476,0,0,1-7.659-.311c-1.558-.884-1.525-.917-.394-2.309.3-.377.558-.934.935-1.048.394-.115.754.459,1.164.688a5.189,5.189,0,0,0,3.018.786,2.722,2.722,0,0,0,.951-.246,1.292,1.292,0,0,0,.164-2.293,15.679,15.679,0,0,0-2.427-1.146c-.443-.213-.9-.377-1.361-.59a4.461,4.461,0,0,1-2.837-4.291A4.6,4.6,0,0,1,17.925-15a6.238,6.238,0,0,1,2.329-.344" transform="translate(7.153 6.096)" fill="#333131"/><path d="M52.144-8.943c0,2,.016,3.98-.016,5.978,0,.475.131.606.59.59.656-.033,1.312,0,1.968-.016.3,0,.426.082.41.409-.016.737-.016,1.49,0,2.244,0,.262-.033.409-.344.409q-4.7-.025-9.4,0c-.262,0-.344-.1-.344-.36.016-.77.016-1.523,0-2.293-.016-.344.131-.393.426-.393.869.016,1.755,0,2.624.016.328.016.443-.1.426-.442-.016-2.817-.016-5.618,0-8.435,0-.393-.148-.475-.476-.459-.689.016-1.378-.016-2.083.016-.344.016-.443-.115-.443-.442.033-.59-.164-1.294.082-1.752.246-.442,1.017-.344,1.525-.524a6.849,6.849,0,0,0,1.509-.639c1.033-.737,2.181-.377,3.28-.442.361-.016.246.311.246.508.016,1.965.016,4,.016,6.027" transform="translate(30.863 5.968)" fill="#333131"/><path d="M30.533-19.218c0-1.163.016-2.309-.016-3.456,0-.377.066-.508.476-.508,1.525.016,3.067.016,4.592,0,.361,0,.459.115.459.475,0,1.048.016,1.048-1,1.048-.82,0-1.64.016-2.46,0-.328-.016-.443.1-.443.442.033,1.507-.2,1.2,1.148,1.228.722.016,1.46.016,2.181,0,.328-.016.443.082.443.442.016,1.048.033,1.048-.968,1.048-.8,0-1.607.016-2.411,0-.312,0-.41.1-.41.426.016.819-.016,1.638.016,2.457.016.344-.1.442-.426.442-1.2.016-1.2.033-1.2-1.212v-2.833Z" transform="translate(19.737 0.078)" fill="#333131"/><path d="M10.906-20.293a2.756,2.756,0,0,1,2.477-.77,1.483,1.483,0,0,1,1.312,1.523c.016,1.343,0,2.686.016,4.013,0,.262-.1.344-.344.36-1.181.066-1.181.082-1.181-1.13v-2.457a.876.876,0,0,0-.984-.983,1.159,1.159,0,0,0-1.3,1.032c0,1-.016,2.014,0,3.014.016.377-.066.524-.476.508C9.4-15.2,9.4-15.167,9.4-16.248c0-2.162.016-4.307-.016-6.469,0-.393.115-.508.492-.491,1.017.016,1.017,0,1.017,1.048v1.867Z" transform="translate(3.512 0.056)" fill="#333131"/><path d="M17.1-19.05c-.049-.459.2-1.032-.443-1.376a1.471,1.471,0,0,0-1.722.131,2.008,2.008,0,0,0-.312,2.178,1.339,1.339,0,0,0,1.591.737c.672-.164.886-.442.886-1.277Zm.033-2.129c-.2-.786.213-.7.574-.688.918,0,.918,0,.918.934,0,1.441-.016,2.9.016,4.357.016.426-.131.573-.525.508a2.471,2.471,0,0,0-.492,0c-.41.049-.623-.082-.508-.639a2.935,2.935,0,0,1-1.476.77,2.418,2.418,0,0,1-2.591-1.7,4.348,4.348,0,0,1-.082-2.424,2.392,2.392,0,0,1,4.166-1.114" transform="translate(6.16 0.975)" fill="#333131"/><path d="M26.8-19.549c.344,0,.689-.016,1.033,0,.361.016.344-.147.23-.409a1.293,1.293,0,0,0-1.263-.8,1.288,1.288,0,0,0-1.263.786c-.148.328-.049.426.279.409.328,0,.656.016.984.016m.689,1.065c-.558,0-1.132.016-1.689,0-.344-.016-.361.131-.23.393a1.481,1.481,0,0,0,1.033.835,2.577,2.577,0,0,0,1.443-.164c.2-.082.377-.377.558-.229a2.893,2.893,0,0,1,.558.819c.082.115-.049.2-.131.262a3.506,3.506,0,0,1-3.526.344,2.729,2.729,0,0,1-1.624-2.735,2.858,2.858,0,0,1,1.722-2.8,2.892,2.892,0,0,1,4.051,3c-.033.262-.131.295-.344.295-.623-.016-1.214-.016-1.821-.016" transform="translate(14.644 0.966)" fill="#333131"/><path d="M48.392-19.535c.328,0,.656-.016.984,0,.492.033.459-.213.3-.54A1.3,1.3,0,0,0,48.36-20.8a1.282,1.282,0,0,0-1.214.786c-.148.295-.131.491.279.475.312-.016.64,0,.968,0m.771,1.015h-1.64c-.476,0-.541.131-.3.573a1.685,1.685,0,0,0,1.821.7,1.376,1.376,0,0,0,.672-.229c.377-.311.574-.147.787.213.328.54.328.573-.213.868a3.384,3.384,0,0,1-3.969-.442,3.049,3.049,0,0,1-.64-3.21,2.682,2.682,0,0,1,2.378-1.933,2.6,2.6,0,0,1,2.657,1.2,3.7,3.7,0,0,1,.525,1.916c.016.295-.1.393-.377.377-.59-.049-1.148-.033-1.706-.033" transform="translate(31.236 0.985)" fill="#333131"/><path d="M18.273-21.268a2.971,2.971,0,0,1,2.46-.7,1.46,1.46,0,0,1,1.329,1.458c.049,1.376.016,2.751.033,4.127,0,.164-.016.295-.23.295-.361,0-.722.016-1.1,0-.3-.016-.213-.246-.213-.426v-3.014c0-.786-.312-1.114-1.033-1.114a1.159,1.159,0,0,0-1.263,1.13c0,.983-.016,1.982,0,2.964,0,.311-.049.459-.41.475-1.1.016-1.1.033-1.1-1.114v-4.242c0-.328.082-.491.426-.442a2.986,2.986,0,0,0,.541,0c.394-.016.705-.016.558.606" transform="translate(9.167 0.966)" fill="#333131"/><path d="M21.947-21.234a2.727,2.727,0,0,1,2.444-.737,1.5,1.5,0,0,1,1.329,1.523c.033,1.343,0,2.686.016,4.013,0,.262-.1.344-.344.36-1.164.066-1.164.082-1.164-1.1,0-.786.016-1.556,0-2.342s-.328-1.13-1.05-1.114a1.116,1.116,0,0,0-1.23,1.146c0,.983-.016,1.965,0,2.964,0,.344-.1.442-.443.442-1.082.016-1.082.033-1.082-1.065,0-1.425.016-2.866,0-4.291,0-.344.082-.475.426-.442a2.469,2.469,0,0,0,.492,0c.426-.049.689.033.607.639" transform="translate(11.988 0.964)" fill="#333131"/><path d="M43.714-16.9a3.148,3.148,0,0,1-2.231.884,1.563,1.563,0,0,1-1.64-1.589c-.049-1.327-.016-2.637-.016-3.963,0-.229.082-.311.312-.344,1.164-.1,1.164-.115,1.164,1.081,0,.8-.016,1.605,0,2.408.016.737.344,1.065,1.05,1.065a1.147,1.147,0,0,0,1.3-1.1c0-.983.016-1.982,0-2.964,0-.344.066-.491.443-.491,1.033,0,1.033-.016,1.033,1.048,0,1.359-.033,2.719.016,4.078.016.54-.164.7-.656.622a.8.8,0,0,0-.279,0c-.394.049-.722,0-.492-.737" transform="translate(26.877 1.021)" fill="#333131"/><path d="M37.849-16.8a3.1,3.1,0,0,1-2.067.77,1.567,1.567,0,0,1-1.657-1.72c0-1.228.016-2.457,0-3.685,0-.344.066-.491.443-.491,1.017,0,1.017-.016,1.017,1.015,0,.819-.016,1.638,0,2.457.016.77.344,1.1,1.066,1.065A1.121,1.121,0,0,0,37.9-18.54c0-.966.016-1.933-.016-2.9-.016-.393.115-.508.492-.491.968.016.968,0,.968,1,0,1.392-.016,2.784.016,4.193.016.491-.148.639-.574.573a.8.8,0,0,0-.279,0c-.41.049-.689-.033-.656-.639" transform="translate(22.508 1.038)" fill="#333131"/><path d="M51.343-15.975a4.235,4.235,0,0,1-2.083-.573c-.3-.18-.459-.36-.18-.688a1.781,1.781,0,0,0,.23-.377c.115-.246.213-.311.476-.115a2.921,2.921,0,0,0,1.46.573,1.367,1.367,0,0,0,.8-.115.534.534,0,0,0,.344-.459.428.428,0,0,0-.344-.442c-.312-.1-.64-.147-.951-.246-.344-.1-.705-.2-1.05-.311a1.376,1.376,0,0,1-.951-1.245,1.609,1.609,0,0,1,.689-1.589,3.4,3.4,0,0,1,3.657.18c.131.115.18.213.082.377s-.2.311-.279.475c-.115.278-.213.36-.508.147a2.1,2.1,0,0,0-1.706-.393c-.262.049-.508.18-.541.475-.033.344.262.409.508.475.541.147,1.1.246,1.64.442a1.521,1.521,0,0,1,1.181,1.54,1.674,1.674,0,0,1-1.2,1.671,3.377,3.377,0,0,1-1.279.2" transform="translate(33.878 0.978)" fill="#333131"/><path d="M38.329-18.288c0-.295-.016-.606,0-.9.049-.524-.016-.9-.672-.77-.18.033-.262-.082-.262-.262s.016-.377,0-.557c-.033-.36.082-.524.443-.475.394.066.525-.131.476-.508a1.579,1.579,0,0,1,0-.278c.016-.9-.1-.77.754-.77.82,0,.705-.115.705.753,0,.459-.082.966.64.8.64-.131.508.328.558.7.033.442-.082.671-.558.59-.492-.082-.672.115-.64.639.049.606-.016,1.228.016,1.851.033.639.23.819.82.7.246-.049.279.049.328.213.3.868.148,1.114-.771,1.179-1.214.1-1.8-.442-1.853-1.687.016-.409.016-.819.016-1.228" transform="translate(25.013 0.36)" fill="#333131"/><path d="M27.557-19.661c0-1.048.016-2.08,0-3.128,0-.328.1-.393.394-.409,1.132-.016,1.132-.033,1.132,1.146v4.75c0,.786.082.868.836.786.148-.016.18.016.246.131.426.868.18,1.294-.787,1.343-1.263.066-1.821-.475-1.821-1.769v-2.85" transform="translate(17.465 0.062)" fill="#333131"/><path d="M44.929-21.121a3.451,3.451,0,0,1,1.493-.868c.279-.049.377.016.361.295v.229c.049.557.049.95-.738.934-.787,0-1.082.459-1.082,1.277,0,.917-.016,1.818,0,2.735,0,.278-.066.377-.361.393-1.115.049-1.115.066-1.115-1.081,0-1.376.016-2.751-.016-4.127,0-.409.082-.606.508-.524a1.454,1.454,0,0,0,.377,0c.459-.082.705.066.574.737" transform="translate(29.681 0.982)" fill="#333131"/><path d="M52.181-19.2h.738c-.459.213-.246.671-.377,1.048-.279-.295.115-.835-.361-1.048" transform="translate(36.369 3.137)" fill="#333131"/></g></g></svg>