<svg xmlns="http://www.w3.org/2000/svg" width="175" height="175" viewBox="0 0 175 175"><g transform="translate(328.539 -1182.5) rotate(90)"><circle cx="87.5" cy="87.5" r="87.5" transform="translate(1182.5 328.539) rotate(-90)" fill="#fff"/><g transform="translate(1190.914 319.539) rotate(-90)"><path d="M78.377,0a78.377,78.377,0,1,0,78.377,78.377A78.376,78.376,0,0,0,78.377,0Zm.372,20.625c6.633,8.247,13.182,16.387,19.989,24.848H88.58v1.811c0,6.894-.017,13.789.02,20.683a3,3,0,0,1-1.112,2.517c-3.083,2.769-6.064,5.652-8.952,8.372-3.126-2.909-6.383-5.9-9.568-8.961a2.717,2.717,0,0,1-.482-1.774c-.032-6.894-.02-13.786-.02-20.68V45.453H58.3C65.256,37.011,71.9,28.933,78.749,20.625ZM63.474,109.812C59.183,98.8,51.54,91.324,41.238,86c-1.242,3-2.462,5.942-3.814,9.2-5.115-9.426-10.1-18.616-15.217-28.039,10.087-3.077,20.073-6.125,30.439-9.289-1.312,3.263-2.5,6.209-3.739,9.289,1.82,1.01,3.637,1.98,5.414,3.019A67.567,67.567,0,0,1,72.287,85.071a1.923,1.923,0,0,1,.215,2.685,73.9,73.9,0,0,0-8.4,20.021C63.944,108.346,63.752,108.906,63.474,109.812Zm56.141-14.6c-1.315-3.2-2.514-6.11-3.762-9.147-.523.232-.967.4-1.376.618-12.526,6.717-20.4,17.034-23.217,30.933-1.231,6.081-1.611,12.334-2.377,18.509H68.856c.328-4.465.482-8.949,1.022-13.388A79.651,79.651,0,0,1,77.57,96.09C83.858,83.669,93.7,74.879,105.835,68.44c.72-.383,1.437-.769,2.314-1.24-1.213-3-2.412-5.96-3.771-9.318,10.215,3.237,20.1,6.372,30.169,9.565C129.557,76.731,124.651,85.849,119.615,95.216Z" transform="translate(-0.754)" fill="#57575d"/></g></g></svg>