<?xml version="1.0" encoding="utf-8"?>
<!-- Generator: Adobe Illustrator 23.0.3, SVG Export Plug-In . SVG Version: 6.00 Build 0)  -->
<svg version="1.1" id="Layer_1" xmlns="http://www.w3.org/2000/svg" xmlns:xlink="http://www.w3.org/1999/xlink" x="0px" y="0px"
	 viewBox="0 0 139.5 61.4" style="enable-background:new 0 0 139.5 61.4;" xml:space="preserve">
<style type="text/css">
	.st0{clip-path:url(#SVGID_2_);fill:#CCCCCB;}
	.st1{fill:#FFFFFF;}
	.st2{clip-path:url(#SVGID_4_);fill:#999999;}
	.st3{clip-path:url(#SVGID_6_);fill:#666766;}
	.st4{clip-path:url(#SVGID_8_);fill:#57575D;}
	.st5{fill:#ED1C24;}
</style>
<g>
	<g>
		<defs>
			<rect id="SVGID_1_" x="34.6" y="0.4" width="104.7" height="61"/>
		</defs>
		<clipPath id="SVGID_2_">
			<use xlink:href="#SVGID_1_"  style="overflow:visible;"/>
		</clipPath>
		<path class="st0" d="M127.6,38.4c6.5,0,11.7-5.3,11.7-11.7c0-6.5-5.3-11.7-11.7-11.7s-11.7,5.3-11.7,11.7
			C115.8,33.1,121.1,38.4,127.6,38.4"/>
	</g>
	<g>
		<path class="st1" d="M121.1,31.2l0.9-1.3c0.5,0.4,1,0.7,1.6,0.7c0.7,0,1.2-0.3,1.2-1c0-0.7-0.4-1-1.1-1c-0.4,0-0.6,0.1-1.1,0.4
			l-0.9-0.6l0.2-4.1h4.7v1.8h-2.8l-0.1,1.1c0.3-0.1,0.5-0.1,0.7-0.1c1.4,0,2.5,0.8,2.5,2.4c0,1.8-1.4,2.8-3,2.8
			C122.7,32.3,121.8,31.9,121.1,31.2z"/>
		<path class="st1" d="M128.1,30.2c0-0.9,0.5-1.5,1.3-1.9v0c-0.6-0.5-1-1-1-1.9c0-1.4,1.1-2.2,2.6-2.2c1.5,0,2.5,0.8,2.5,2.2
			c0,0.7-0.4,1.3-1,1.7v0c0.8,0.4,1.4,1,1.4,2.1c0,1.3-1.2,2.2-2.9,2.2C129.3,32.3,128.1,31.5,128.1,30.2z M131.8,30
			c0-0.6-0.5-0.8-1.5-1.2c-0.2,0.3-0.4,0.7-0.4,1.1c0,0.6,0.5,0.9,1,0.9C131.5,30.9,131.8,30.6,131.8,30z M131.8,26.5
			c0-0.5-0.3-0.9-0.8-0.9c-0.4,0-0.7,0.2-0.7,0.8c0,0.5,0.4,0.8,1.2,1.1C131.6,27.1,131.8,26.8,131.8,26.5z"/>
	</g>
	<g>
		<path class="st1" d="M125.6,21.7c0.4-0.4,0.6-0.6,0.6-0.8c0-0.2-0.1-0.3-0.3-0.3c-0.1,0-0.2,0.1-0.3,0.2l-0.1-0.1
			c0.1-0.1,0.2-0.2,0.4-0.2c0.2,0,0.4,0.2,0.4,0.4c0,0.2-0.2,0.5-0.5,0.8c0.1,0,0.2,0,0.2,0h0.4v0.1h-0.9V21.7z"/>
		<path class="st1" d="M126.6,21.1c0-0.4,0.2-0.7,0.4-0.7c0.3,0,0.4,0.2,0.4,0.7c0,0.4-0.2,0.7-0.4,0.7
			C126.8,21.8,126.6,21.6,126.6,21.1z M127.3,21.1c0-0.4-0.1-0.5-0.3-0.5c-0.2,0-0.3,0.2-0.3,0.5c0,0.4,0.1,0.6,0.3,0.6
			C127.2,21.7,127.3,21.5,127.3,21.1z"/>
		<path class="st1" d="M127.8,21.6h0.3v-1h-0.2v-0.1c0.1,0,0.2-0.1,0.3-0.1h0.1v1.2h0.3v0.1h-0.7V21.6z"/>
		<path class="st1" d="M128.7,21.6l0.1-0.1c0.1,0.1,0.2,0.2,0.3,0.2c0.2,0,0.3-0.1,0.3-0.3c0-0.2-0.1-0.3-0.3-0.3
			c-0.1,0-0.1,0-0.2,0.1l-0.1-0.1l0-0.6h0.7v0.1H129l0,0.4c0.1,0,0.1-0.1,0.2-0.1c0.2,0,0.4,0.1,0.4,0.4s-0.2,0.4-0.4,0.4
			C128.9,21.8,128.8,21.7,128.7,21.6z"/>
	</g>
	<g>
		<defs>
			<rect id="SVGID_3_" x="34.6" y="0.4" width="104.7" height="61"/>
		</defs>
		<clipPath id="SVGID_4_">
			<use xlink:href="#SVGID_3_"  style="overflow:visible;"/>
		</clipPath>
		<path class="st2" d="M109.5,57.8c8.1,0,14.7-6.6,14.7-14.7c0-8.1-6.6-14.7-14.7-14.7S94.8,35,94.8,43.1
			C94.8,51.2,101.4,57.8,109.5,57.8"/>
	</g>
	<g>
		<path class="st1" d="M101.7,45.3c0-3.6,2-5.3,4.1-5.3c1.4,0,2.4,0.6,3.1,1.2l-1.4,1.6c-0.3-0.3-0.9-0.7-1.5-0.7
			c-1,0-1.7,0.7-1.8,2.7c0.5-0.6,1.3-1,1.9-1c1.7,0,3,0.9,3,3.1c0,2.1-1.6,3.4-3.4,3.4C103.7,50.2,101.7,48.9,101.7,45.3z
			 M106.6,46.9c0-1-0.5-1.2-1.1-1.2c-0.5,0-1,0.2-1.3,0.8c0.2,1.4,0.8,1.7,1.3,1.7C106.1,48.3,106.6,47.9,106.6,46.9z"/>
		<path class="st1" d="M110.1,48.5c2.3-2.2,4.1-3.8,4.1-5.1c0-0.9-0.5-1.3-1.2-1.3c-0.7,0-1.2,0.5-1.6,0.9l-1.4-1.4
			c1-1.1,2-1.6,3.4-1.6c2,0,3.4,1.3,3.4,3.2c0,1.6-1.5,3.3-2.8,4.7c0.5-0.1,1.2-0.1,1.7-0.1h1.7v2.2h-7.2V48.5z"/>
	</g>
	<g>
		<path class="st1" d="M107.1,36.9c0.5-0.5,0.8-0.8,0.8-1.1c0-0.2-0.1-0.3-0.3-0.3c-0.1,0-0.3,0.1-0.4,0.2l-0.1-0.1
			c0.1-0.2,0.3-0.3,0.5-0.3c0.3,0,0.5,0.2,0.5,0.5c0,0.3-0.3,0.6-0.7,1c0.1,0,0.2,0,0.3,0h0.5v0.2h-1.1V36.9z"/>
		<path class="st1" d="M108.4,36.2c0-0.6,0.2-0.9,0.5-0.9c0.3,0,0.5,0.3,0.5,0.9c0,0.6-0.2,0.9-0.5,0.9
			C108.6,37.1,108.4,36.8,108.4,36.2z M109.2,36.2c0-0.5-0.1-0.7-0.3-0.7c-0.2,0-0.3,0.2-0.3,0.7c0,0.5,0.1,0.7,0.3,0.7
			C109.1,36.9,109.2,36.7,109.2,36.2z"/>
		<path class="st1" d="M109.7,36.9h0.4v-1.2h-0.3v-0.1c0.2,0,0.3-0.1,0.3-0.1h0.2v1.5h0.3v0.2h-0.9V36.9z"/>
		<path class="st1" d="M110.9,36.3c0-0.7,0.3-0.9,0.6-0.9c0.2,0,0.3,0.1,0.4,0.2l-0.1,0.1c-0.1-0.1-0.2-0.1-0.3-0.1
			c-0.2,0-0.4,0.2-0.4,0.7c0.1-0.1,0.3-0.2,0.4-0.2c0.3,0,0.5,0.2,0.5,0.5c0,0.3-0.2,0.5-0.5,0.5C111.2,37.1,110.9,36.8,110.9,36.3z
			 M111.8,36.6c0-0.2-0.1-0.3-0.3-0.3c-0.1,0-0.2,0.1-0.3,0.2c0,0.3,0.2,0.5,0.4,0.5C111.7,36.9,111.8,36.8,111.8,36.6z"/>
	</g>
	<g>
		<defs>
			<rect id="SVGID_5_" x="34.6" y="0.4" width="104.7" height="61"/>
		</defs>
		<clipPath id="SVGID_6_">
			<use xlink:href="#SVGID_5_"  style="overflow:visible;"/>
		</clipPath>
		<path class="st3" d="M91,37.1c10.1,0,18.4-8.2,18.4-18.4S101.2,0.4,91,0.4S72.7,8.6,72.7,18.8S80.9,37.1,91,37.1"/>
	</g>
	<g>
		<path class="st1" d="M81.2,21.5c0-4.5,2.5-6.6,5.1-6.6c1.8,0,3,0.7,3.9,1.6l-1.8,2c-0.4-0.4-1.2-0.9-1.9-0.9
			c-1.2,0-2.1,0.8-2.3,3.3c0.6-0.8,1.7-1.2,2.3-1.2c2.1,0,3.7,1.2,3.7,3.8c0,2.6-1.9,4.2-4.3,4.2C83.7,27.6,81.2,25.9,81.2,21.5z
			 M87.3,23.4c0-1.2-0.7-1.5-1.4-1.5c-0.6,0-1.2,0.3-1.6,1.1c0.3,1.7,1,2.1,1.6,2.1C86.7,25.2,87.3,24.7,87.3,23.4z"/>
		<path class="st1" d="M91.4,25.9l1.5-2.1c0.7,0.7,1.6,1.2,2.5,1.2c1.2,0,1.8-0.5,1.8-1.6c0-1.1-0.7-1.6-1.7-1.6
			c-0.7,0-1,0.1-1.7,0.6l-1.4-0.9l0.3-6.3h7.3v2.8h-4.4l-0.2,1.8c0.4-0.2,0.8-0.2,1.2-0.2c2.1,0,4,1.2,4,3.8c0,2.8-2.2,4.4-4.7,4.4
			C93.9,27.6,92.5,26.9,91.4,25.9z"/>
	</g>
	<g>
		<path class="st1" d="M87.9,11c0.6-0.6,1-1,1-1.3c0-0.2-0.1-0.4-0.4-0.4c-0.2,0-0.3,0.1-0.4,0.3l-0.2-0.2c0.2-0.2,0.4-0.3,0.6-0.3
			c0.4,0,0.6,0.2,0.6,0.6c0,0.4-0.4,0.8-0.8,1.3c0.1,0,0.2,0,0.3,0h0.6v0.2h-1.3V11z"/>
		<path class="st1" d="M89.5,10.1c0-0.7,0.2-1.1,0.7-1.1c0.4,0,0.7,0.4,0.7,1.1c0,0.7-0.3,1.1-0.7,1.1
			C89.8,11.2,89.5,10.8,89.5,10.1z M90.6,10.1c0-0.6-0.2-0.9-0.4-0.9c-0.2,0-0.4,0.2-0.4,0.9c0,0.6,0.2,0.9,0.4,0.9
			C90.5,11,90.6,10.7,90.6,10.1z"/>
		<path class="st1" d="M91.3,11h0.5V9.4h-0.4V9.3c0.2,0,0.3-0.1,0.4-0.2H92V11h0.4v0.2h-1.2V11z"/>
		<path class="st1" d="M93.8,9.3h-1V9.1h1.3v0.2c-0.5,0.6-0.6,1.1-0.6,1.9h-0.3C93.2,10.4,93.4,9.9,93.8,9.3z"/>
	</g>
	<g>
		<defs>
			<rect id="SVGID_7_" x="34.6" y="0.4" width="104.7" height="61"/>
		</defs>
		<clipPath id="SVGID_8_">
			<use xlink:href="#SVGID_7_"  style="overflow:visible;"/>
		</clipPath>
		<path class="st4" d="M57.6,61.4c12.7,0,22.9-10.3,22.9-22.9S70.3,15.5,57.6,15.5S34.6,25.8,34.6,38.5S44.9,61.4,57.6,61.4"/>
	</g>
	<g>
		<path class="st1" d="M43.8,41.7c0-6.7,3.7-9.9,7.7-9.9c2.6,0,4.6,1.1,5.8,2.3l-2.6,3c-0.6-0.6-1.8-1.3-2.8-1.3
			c-1.8,0-3.2,1.3-3.4,5c0.9-1.2,2.5-1.8,3.5-1.8c3.2,0,5.6,1.8,5.6,5.7s-2.9,6.3-6.4,6.3C47.5,50.9,43.8,48.4,43.8,41.7z
			 M52.9,44.6c0-1.8-1-2.2-2-2.2c-0.9,0-1.8,0.5-2.4,1.6c0.4,2.6,1.5,3.2,2.4,3.2C52,47.2,52.9,46.6,52.9,44.6z"/>
		<path class="st1" d="M67.7,36.3h-7.9v-4.2H73v3.1c-4.3,5-4.7,8.2-5.1,15.4h-5C63.2,44.8,64.2,41,67.7,36.3z"/>
	</g>
	<g>
		<path class="st1" d="M53.8,26c0.9-0.9,1.5-1.5,1.5-2c0-0.4-0.2-0.6-0.6-0.6c-0.3,0-0.5,0.2-0.7,0.4l-0.2-0.2
			c0.3-0.3,0.5-0.5,0.9-0.5c0.6,0,0.9,0.4,0.9,0.9c0,0.6-0.5,1.2-1.3,1.9c0.2,0,0.4,0,0.5,0h0.9v0.3h-2V26z"/>
		<path class="st1" d="M56.2,24.7c0-1,0.4-1.6,1-1.6c0.6,0,1,0.6,1,1.6s-0.4,1.6-1,1.6C56.6,26.3,56.2,25.7,56.2,24.7z M57.8,24.7
			c0-0.9-0.2-1.3-0.6-1.3c-0.4,0-0.6,0.4-0.6,1.3s0.2,1.3,0.6,1.3C57.6,26,57.8,25.6,57.8,24.7z"/>
		<path class="st1" d="M58.8,25.9h0.7v-2.3H59v-0.3c0.3,0,0.5-0.1,0.7-0.2h0.3v2.8h0.6v0.3h-1.8V25.9z"/>
		<path class="st1" d="M61.1,25.4c0-0.4,0.3-0.7,0.6-0.8v0c-0.2-0.2-0.4-0.4-0.4-0.7c0-0.5,0.4-0.8,0.9-0.8c0.5,0,0.9,0.3,0.9,0.8
			c0,0.3-0.2,0.6-0.4,0.7v0c0.3,0.2,0.5,0.4,0.5,0.8c0,0.5-0.4,0.8-1,0.8C61.5,26.3,61.1,25.9,61.1,25.4z M62.7,25.4
			c0-0.4-0.4-0.5-0.8-0.7c-0.2,0.2-0.4,0.4-0.4,0.7c0,0.3,0.3,0.6,0.7,0.6C62.5,26,62.7,25.8,62.7,25.4z M62.6,23.9
			c0-0.3-0.2-0.6-0.5-0.6c-0.3,0-0.5,0.2-0.5,0.5c0,0.4,0.3,0.5,0.7,0.7C62.5,24.3,62.6,24.1,62.6,23.9z"/>
	</g>
</g>
<g>
	<path class="st5" d="M22.9,45.9c12.7,0,22.9-10.3,22.9-22.9S35.6,0,22.9,0S0,10.3,0,22.9S10.3,45.9,22.9,45.9"/>
	<g>
		<path class="st1" d="M15.6,21.8H8.2V17h15.6l-9.5,19.5H8.4L15.6,21.8z"/>
		<path class="st1" d="M38.1,31.9v4.7H25.4v-4.7h3.9V22c-0.1,0.2-0.4,0.5-0.8,0.7c-0.4,0.3-0.8,0.5-1.2,0.8
			c-0.4,0.2-0.9,0.5-1.3,0.6c-0.5,0.2-0.9,0.2-1.2,0.2v-4.8c0.5,0,1-0.1,1.5-0.4c0.5-0.3,1-0.6,1.5-0.9c0.4-0.3,0.8-0.6,1.1-0.9
			c0.3-0.3,0.4-0.4,0.5-0.5h5.3v14.9H38.1z"/>
	</g>
	<g>
		<path class="st1" d="M17.7,12.3c0-0.2,0-0.4,0.1-0.6s0.1-0.3,0.2-0.4s0.2-0.2,0.3-0.3c0.1-0.1,0.2-0.2,0.4-0.2
			c0.1,0,0.2-0.1,0.3-0.1c0.1,0,0.2-0.1,0.3-0.2s0.2-0.1,0.2-0.2c0.1-0.1,0.1-0.2,0.1-0.3c0-0.1,0-0.2,0-0.2c0-0.1-0.1-0.1-0.1-0.2
			s-0.1-0.1-0.2-0.1c-0.1,0-0.2,0-0.3,0c-0.1,0-0.2,0-0.3,0c-0.1,0-0.2,0.1-0.3,0.1s-0.1,0.1-0.2,0.1C18.1,9.6,18,9.7,18,9.7
			l-0.3-0.3c0,0,0.1-0.1,0.1-0.1c0.1-0.1,0.1-0.1,0.2-0.2C18.2,9.1,18.3,9,18.5,9c0.1,0,0.3-0.1,0.5-0.1c0.2,0,0.3,0,0.5,0.1
			c0.1,0.1,0.2,0.1,0.3,0.2c0.1,0.1,0.2,0.2,0.2,0.3C20,9.6,20,9.7,20,9.9c0,0.2,0,0.3-0.1,0.4c-0.1,0.1-0.1,0.2-0.2,0.3
			s-0.2,0.2-0.3,0.2c-0.1,0.1-0.2,0.1-0.3,0.2c-0.2,0.1-0.3,0.1-0.4,0.2c-0.1,0.1-0.2,0.1-0.3,0.2s-0.1,0.2-0.1,0.2
			c0,0.1,0,0.2,0,0.3H20v0.4H17.7z"/>
		<path class="st1" d="M21.9,12.3c-0.2,0-0.4-0.1-0.6-0.2s-0.3-0.2-0.4-0.4c-0.1-0.2-0.2-0.3-0.3-0.5s-0.1-0.4-0.1-0.6
			c0-0.2,0-0.4,0.1-0.6c0.1-0.2,0.2-0.4,0.3-0.5s0.3-0.3,0.4-0.4s0.4-0.2,0.6-0.2c0.2,0,0.4,0.1,0.6,0.2c0.2,0.1,0.3,0.2,0.4,0.4
			c0.1,0.2,0.2,0.3,0.3,0.5c0.1,0.2,0.1,0.4,0.1,0.6c0,0.2,0,0.4-0.1,0.6c-0.1,0.2-0.2,0.4-0.3,0.5s-0.3,0.3-0.4,0.4
			C22.3,12.3,22.1,12.3,21.9,12.3z M20.9,10.6c0,0.2,0,0.3,0.1,0.5c0,0.2,0.1,0.3,0.2,0.4c0.1,0.1,0.2,0.2,0.3,0.3
			c0.1,0.1,0.3,0.1,0.4,0.1c0.2,0,0.3,0,0.4-0.1s0.2-0.2,0.3-0.3c0.1-0.1,0.1-0.3,0.2-0.4c0-0.2,0.1-0.3,0.1-0.4
			c0-0.2,0-0.3-0.1-0.5c0-0.2-0.1-0.3-0.2-0.4c-0.1-0.1-0.2-0.2-0.3-0.3c-0.1-0.1-0.3-0.1-0.4-0.1c-0.2,0-0.3,0-0.4,0.1
			s-0.2,0.2-0.3,0.3C21.1,9.9,21,10,21,10.2C20.9,10.4,20.9,10.5,20.9,10.6z"/>
		<path class="st1" d="M25.5,11.9v0.4h-1.7v-0.4h0.6V9.3c0,0-0.1,0.1-0.1,0.1c-0.1,0-0.1,0.1-0.2,0.1S24,9.7,23.9,9.7
			c-0.1,0-0.1,0-0.2,0V9.4c0.1,0,0.2,0,0.3-0.1c0.1,0,0.2-0.1,0.2-0.2C24.3,9.1,24.3,9,24.4,9c0,0,0.1-0.1,0.1-0.1h0.4v3H25.5z"/>
		<path class="st1" d="M25.8,10.1c0-0.2,0-0.3,0.1-0.5c0.1-0.1,0.1-0.3,0.3-0.4c0.1-0.1,0.2-0.2,0.4-0.2s0.3-0.1,0.5-0.1
			c0.2,0,0.3,0,0.5,0.1c0.1,0.1,0.3,0.2,0.4,0.3s0.2,0.3,0.2,0.4s0.1,0.4,0.1,0.6c0,0.3,0,0.6-0.1,0.9s-0.1,0.5-0.3,0.6
			c-0.1,0.2-0.2,0.3-0.4,0.4c-0.2,0.1-0.3,0.1-0.5,0.1c-0.2,0-0.4-0.1-0.6-0.2c-0.2-0.1-0.3-0.3-0.4-0.4l0.3-0.2
			c0.1,0.1,0.2,0.3,0.3,0.3c0.1,0.1,0.3,0.1,0.5,0.1c0.3,0,0.5-0.1,0.6-0.3c0.2-0.2,0.2-0.5,0.2-1c-0.1,0.2-0.2,0.3-0.3,0.4
			c-0.2,0.1-0.3,0.1-0.5,0.1c-0.2,0-0.3,0-0.5-0.1c-0.1-0.1-0.3-0.1-0.4-0.2c-0.1-0.1-0.2-0.2-0.2-0.4S25.8,10.2,25.8,10.1z M27,9.3
			c-0.1,0-0.2,0-0.3,0.1c-0.1,0-0.2,0.1-0.2,0.2c-0.1,0.1-0.1,0.2-0.2,0.3c0,0.1-0.1,0.2-0.1,0.3c0,0.1,0,0.2,0.1,0.3
			c0,0.1,0.1,0.2,0.2,0.2c0.1,0.1,0.2,0.1,0.3,0.2c0.1,0,0.2,0.1,0.3,0.1c0.1,0,0.2,0,0.3-0.1c0.1,0,0.2-0.1,0.3-0.2
			c0.1-0.1,0.1-0.2,0.2-0.2c0-0.1,0.1-0.2,0.1-0.3s0-0.2-0.1-0.3c0-0.1-0.1-0.2-0.2-0.3c-0.1-0.1-0.2-0.1-0.3-0.2
			C27.2,9.3,27.1,9.3,27,9.3z"/>
	</g>
</g>
</svg>
