<?xml version="1.0" encoding="utf-8"?>
<!-- Generator: Adobe Illustrator 23.0.3, SVG Export Plug-In . SVG Version: 6.00 Build 0)  -->
<svg version="1.1" id="Layer_1" xmlns="http://www.w3.org/2000/svg" xmlns:xlink="http://www.w3.org/1999/xlink" x="0px" y="0px"
	 viewBox="0 0 595.3 516.2" style="enable-background:new 0 0 595.3 516.2;" xml:space="preserve">
<style type="text/css">
	.st0{fill:#191816;}
	.st1{fill:#FFFFFF;}
	.st2{fill:#F20505;}
	.st3{fill:#F20505;stroke:#191816;stroke-width:9.2572;stroke-miterlimit:10;}
	.st4{fill:none;stroke:#191816;stroke-width:9.2386;stroke-miterlimit:10;}
	.st5{fill:#FFFFFF;stroke:#191816;stroke-width:9.514;stroke-miterlimit:10;}
	.st6{fill:#FFFFFF;stroke:#191816;stroke-width:9.2386;stroke-miterlimit:10;}
	.st7{fill:#F20505;stroke:#191816;stroke-width:9.2547;stroke-miterlimit:10;}
	.st8{fill:#181715;}
	.st9{fill:none;stroke:#F20505;stroke-width:0.631;stroke-miterlimit:10;}
</style>
<g>
	<g>
		<path class="st0" d="M728.7,235.6l0.1-0.9c6.3-47,38.8-85.1,81-96.7c0.4-30.4,11.5-56.1,32.4-74.5c19.5-17.2,46.7-26.8,76.5-26.9
			h0.5c26.9,0,50.9,6.8,69.3,19.8c15.8,11.1,27.2,26.4,33.7,45c11-3.9,22.6-6,34.2-6h0.3c28.3,0,54.4,11.5,73.5,32.3
			c20.5,22.3,30.5,53.6,27.7,85.7l-1.1,12.9h-5.5c0.7,3.7,1.2,7.7,0.3,11.8l-2.3,11.2l-196.1,0.7l-14.2,0.1L817.3,450.9l-88.9,1.3
			L728.7,235.6z"/>
		<g>
			<path class="st0" d="M919.3,50.6c46.7,0,85.5,22.4,93.5,70.4c13.1-7.4,27.9-11.6,43.7-11.7c0.1,0,0.2,0,0.3,0
				c52.5,0,92.2,45.9,87.2,102.7c0,0,0,0,0,0c-14.3,0-4.5,15.6-6.1,23.1l-173.8,0.6l-10.8,0l-22.1,0.1l-121.9,201l-59.1,0.9
				l-7.7,0.1l0.3-201.4c6-45.4,39.4-81.2,81.6-87.2c-0.3-3.1-0.4-6.2-0.4-9.4c-0.2-56.9,42.3-89.1,94.9-89.3
				C919,50.6,919.1,50.6,919.3,50.6 M919.3,22.4h-0.6c-33.3,0.1-63.7,10.9-85.8,30.4c-11.9,10.5-21.2,23.3-27.5,37.9
				c-4.9,11.4-8,23.7-9.2,36.8c-17.5,6.5-33.6,17.3-46.8,31.3c-18.9,20.2-30.8,45.8-34.6,73.9l-0.2,1.8v1.9l-0.3,201.3l0,28.6
				l28.6-0.4l7.7-0.1l59.2-0.9l15.6-0.2l8.1-13.3L947.1,264l6.3,0l10.8,0l173.8-0.6l22.8-0.1l4.7-22.4c0-0.2,0.1-0.4,0.1-0.6h4.2
				l2.3-25.7c1.6-18.3-0.4-36.1-5.9-52.9c-5.4-16.4-14-31.1-25.4-43.6c-21.8-23.8-51.6-36.9-83.9-36.9h-0.4c-8.7,0-17.5,1.1-26,3
				C1011.4,45.4,971.3,22.4,919.3,22.4L919.3,22.4z"/>
		</g>
	</g>
	<g>
		<path class="st1" d="M749,230.2l0-0.2c6-48.8,39.2-87.6,81-95.6c-0.1-2.5-0.2-4.8-0.2-7.2c-0.1-29.6,9.8-54,28.7-70.5
			c17.3-15.1,41.3-23.2,69.3-23.3h0.6c25.6,0,46.8,5.5,62.9,16.5c17.2,11.6,28.2,29,32.8,51.8c12.8-6.8,26.9-10.4,41-10.5h0.3
			c54.1,0,98.3,50.8,98.5,113.2c0,8.4-0.8,16.9-2.4,25.3l-0.5,2.8l-220.2,0.7l-191.8,54.6L749,230.2z"/>
		<g>
			<path class="st0" d="M928.4,36.9c46.5,0,85.1,18.9,93.2,70.2c13-7.9,27.8-12.4,43.5-12.4c0.1,0,0.2,0,0.3,0
				c52.3,0,94.8,49.1,95,109.8c0,8.5-0.8,16.7-2.3,24.6l-185,0.6l-10.8,0l-22,0.1l-187.9,53.4l0.1-52.8c6-48.5,39.3-86.7,81.3-93.2
				c-0.3-3.3-0.4-6.6-0.4-10C833,66.4,875.4,37,927.8,36.9C928,36.9,928.2,36.9,928.4,36.9 M928.4,30h-0.6
				c-28.9,0.1-53.6,8.4-71.5,24.1c-19.7,17.2-30,42.5-29.9,73.1c0,1.4,0,2.9,0.1,4.4c-19.6,4.5-37.9,15.6-52.1,31.9
				c-15.7,18-25.7,40.9-28.8,66l0,0.4v0.4l-0.1,52.8l0,9.2l8.8-2.5l187-53.2l21-0.1l10.8,0l185-0.6l5.7,0l1.1-5.6
				c1.7-8.6,2.5-17.3,2.5-26c-0.1-31-10.6-60.2-29.7-82.2c-19.3-22.3-44.9-34.5-72.3-34.5h-0.3c-13.2,0-26.4,3.1-38.6,8.9
				C1015.9,53.5,981.4,30,928.4,30L928.4,30z"/>
		</g>
	</g>
	<g>
		<g>
			<path class="st0" d="M905.2,52.1l2,7.9c9.9-3.9,20.7-6,31.9-6c13.2,0,25.8,3,37,8.2c-13.5-8.5-29.5-13.5-46.6-13.5
				C921.1,48.7,913,49.9,905.2,52.1z"/>
		</g>
		<g>
			<path class="st0" d="M1063.7,105.2c0.8,2.8,1.4,5.6,1.9,8.5c9.2-2.2,18.9-2.2,28.7,0.2c8.5,2.1,16.2,5.9,22.8,10.9
				c-8-8.7-18.5-15.3-30.8-18.3C1078.7,104.6,1071.1,104.3,1063.7,105.2z"/>
		</g>
	</g>
	<g>
		<path class="st0" d="M876.9,249.9v-15.5l137.2-82.1c0.4,27.2,1.7,116.3,2.1,140.9L876.9,249.9z"/>
		<path class="st0" d="M1009.6,160.3c0.4,27.8,1.3,85.8,1.9,126.6l-129.9-40.4V237L1009.6,160.3 M1018.5,144.1
			C1018.5,144.1,1018.5,144.1,1018.5,144.1l-146.3,87.6v21.6l148.6,46.2C1020.9,299.5,1018.6,144.1,1018.5,144.1L1018.5,144.1z"/>
	</g>
	<path class="st2" d="M1018.5,155.6l-146.3,87.6v21.6l148.6,46.2C1020.9,310.9,1018.5,153.8,1018.5,155.6z"/>
	<g>
		<polygon class="st0" points="1004.7,166.6 858.4,254.1 858.4,275.7 1004.7,321.2 		"/>
	</g>
	<polygon class="st3" points="867,206.5 720.7,272.7 720.7,432.9 867,432.9 1164.2,432.9 1164.2,318.9 	"/>
	<polygon class="st1" points="1015.8,264.2 869.6,208.5 867.7,430.5 1014.4,431.2 	"/>
	<line class="st4" x1="867" y1="430.5" x2="867" y2="209.2"/>
	<polyline class="st5" points="1164.9,428.2 1164.9,198.3 1164.2,197.5 1019.2,149.3 1014.8,152.7 1014.8,462.9 	"/>
	<line class="st4" x1="811.6" y1="430.5" x2="811.6" y2="232.3"/>
	<line class="st4" x1="765.4" y1="435.2" x2="765.4" y2="250.8"/>
	<line class="st4" x1="961" y1="430.5" x2="961" y2="241.5"/>
	<line class="st4" x1="911.1" y1="435.2" x2="911.1" y2="225.4"/>
	<line class="st4" x1="1074" y1="465.2" x2="1074" y2="165"/>
	<line class="st4" x1="1015" y1="465.2" x2="1015" y2="261.6"/>
	<line class="st4" x1="1123.2" y1="465.2" x2="1123.2" y2="181.6"/>
	<line class="st4" x1="868.9" y1="289.3" x2="1163.4" y2="354.3"/>
	<line class="st4" x1="868.9" y1="360.4" x2="1163.4" y2="395.2"/>
	<line class="st4" x1="867.4" y1="208.8" x2="1161.9" y2="312.3"/>
	<path class="st6" d="M1163.4,405.1"/>
	<path class="st6" d="M867,338.2"/>
	<g>
		<polygon class="st0" points="755.1,424.1 726.9,423.9 726.9,277.7 755.1,265.2 		"/>
	</g>
	<g>
		<polygon class="st0" points="801.4,423.6 771.8,423.9 771.8,257.6 801.4,243.8 		"/>
	</g>
	<g>
		<polygon class="st0" points="856.6,423.9 818.1,423.2 818.1,236.8 856.6,219.3 		"/>
	</g>
	<path class="st1" d="M844.2,238.7c0.3,1.3-0.5,2.7-1.9,3.2c-1.3,0.5-2.7-0.1-3-1.3s0.5-2.7,1.9-3.2
		C842.6,236.8,843.9,237.4,844.2,238.7 M851,236l-4.5,7.7l-2.3-1l3-5.2l-4.8-2.1l1.5-2.5L851,236z M833.4,242.9
		c0.3,1.3-0.5,2.7-1.9,3.2c-1.4,0.5-2.7-0.1-3-1.3c-0.3-1.3,0.5-2.7,1.9-3.2C831.7,241.1,833.1,241.7,833.4,242.9 M838.8,240.8
		c0.3,1.3-0.5,2.7-1.9,3.2c-1.3,0.5-2.7-0.1-3-1.3c-0.3-1.3,0.5-2.7,1.9-3.2C837.1,239,838.5,239.6,838.8,240.8 M821.6,247.5
		l4.5-7.7l2.3,1l-3,5.2l4.8,2.1l-1.5,2.5L821.6,247.5z"/>
	<path class="st7" d="M718.9,431.1v52.1h27.7c37-4.5,110.8-7.6,195.9-7.6s158.8,3.1,195.9,7.6h26.7v-52.1H718.9z"/>
	<g>
		<polygon class="st2" points="834.2,270.8 824.7,275 824.7,268.6 834.2,264.5 		"/>
		<polygon class="st2" points="834.2,334.2 824.7,338.4 824.7,323.6 834.2,319.5 		"/>
		<polygon class="st2" points="848.3,285.2 838.8,289.3 838.8,274.6 848.3,270.5 		"/>
		<polygon class="st2" points="834.4,313.4 825,317.5 825,295.9 834.4,291.7 		"/>
		<polygon class="st2" points="848.3,328.5 838.8,332.7 838.8,314.1 848.3,310 		"/>
		<polygon class="st2" points="834.2,356.2 824.7,360.3 824.7,345.6 834.2,341.5 		"/>
		<polygon class="st2" points="848.3,264.7 838.8,268.8 838.8,262.5 848.3,258.3 		"/>
	</g>
	<g>
		<polygon class="st2" points="743.1,335.6 750.8,332.2 750.8,362.7 743.1,366.1 		"/>
		<polygon class="st2" points="743.1,318.8 750.8,315.4 750.8,327.5 743.1,330.9 		"/>
		<polygon class="st2" points="731.5,314.6 739.2,311.2 739.2,326.5 731.5,329.9 		"/>
		<polygon class="st2" points="743.1,283.9 750.8,280.5 750.8,292.6 743.1,296 		"/>
	</g>
	<g>
		<polygon class="st2" points="784.7,281.3 776.3,284.9 776.3,279.3 784.7,275.7 		"/>
		<polygon class="st2" points="784.7,319.1 776.3,322.7 776.3,290 784.7,286.4 		"/>
		<polygon class="st2" points="784.7,337.2 776.3,340.8 776.3,327.8 784.7,324.2 		"/>
		<polygon class="st2" points="784.7,374.7 776.3,378.3 776.3,365.3 784.7,361.7 		"/>
	</g>
	<rect x="726.4" y="438.2" class="st8" width="430.6" height="40.9"/>
	<g>
		<g>
			<path class="st1" d="M767.9,455.2c1.8,0,2.7-0.1,4.5-0.1c0,1.2,0,1.8,0,3c-1.8,0.1-2.7,0.1-4.5,0.2c0,2.5,0,3.7,0,6.1
				c2.3-0.1,3.4-0.2,5.7-0.3c0,1.2,0,1.8,0,2.9c-3.6,0.2-5.4,0.3-9,0.5c0-8.4,0-12.7,0-21.1c3.6,0,5.4,0,9,0c0,1.2,0,1.8,0,2.9
				c-2.3,0-3.4,0-5.7,0C767.9,451.7,767.9,452.8,767.9,455.2z"/>
			<path class="st1" d="M790,446.4c-1.4,3.8-2.1,5.7-3.5,9.6c1.5,4,2.2,6,3.7,10c-1.4,0.1-2.1,0.1-3.5,0.2c-1.1-3.1-1.6-4.6-2.7-7.8
				c0,0,0,0-0.1,0c-1.1,3.2-1.6,4.8-2.7,8c-1.2,0.1-1.9,0.1-3.1,0.2c1.5-4.3,2.2-6.4,3.7-10.5c-1.4-3.9-2.1-5.8-3.5-9.8
				c1.4,0,2.1,0,3.4,0c1,3,1.5,4.4,2.5,7.4c0,0,0,0,0.1,0c1-3,1.5-4.4,2.5-7.4C788.2,446.4,788.8,446.4,790,446.4z"/>
			<path class="st1" d="M805,451c0,1,0,1.5,0,2.5c0,3-1.6,4.7-5,4.8c-0.6,0-0.9,0-1.6,0c0,2.9,0,4.3,0,7.2c-1.3,0.1-2,0.1-3.3,0.2
				c0-7.8,0-11.6,0-19.4c2,0,2.9,0,4.9,0C803.4,446.3,805,448,805,451z M798.5,449.1c0,2.6,0,3.9,0,6.5c0.6,0,0.9,0,1.6,0
				c1.1,0,1.6-0.5,1.6-1.8c0-1.1,0-1.7,0-2.9c0-1.4-0.6-1.8-1.6-1.8C799.5,449.1,799.2,449.1,798.5,449.1z"/>
			<path class="st1" d="M813.2,454.1c1.8,0,2.7,0,4.5-0.1c0,1,0,1.6,0,2.6c-1.8,0-2.7,0.1-4.5,0.1c0,2.2,0,3.2,0,5.4
				c2.3-0.1,3.4-0.1,5.7-0.2c0,1,0,1.6,0,2.6c-3.6,0.2-5.4,0.2-9,0.4c0-7.5,0-11.2,0-18.7c3.6,0,5.4,0,9,0c0,1,0,1.6,0,2.6
				c-2.3,0-3.4,0-5.7,0C813.2,451,813.2,452.1,813.2,454.1z"/>
			<path class="st1" d="M824.3,446.3c2.1,0,3.1,0,5.2,0c3.3,0,4.9,1.5,4.9,4.4c0,3.6,0,5.4,0,8.9c0,2.8-1.6,4.4-4.9,4.5
				c-2.1,0.1-3.2,0.1-5.2,0.2C824.3,457.2,824.3,453.5,824.3,446.3z M827.6,448.9c0,5.1,0,7.7,0,12.8c0.8,0,1.1,0,1.9-0.1
				c1,0,1.7-0.5,1.7-1.8c0-3.7,0-5.5,0-9.2c0-1.3-0.6-1.7-1.7-1.7C828.7,448.9,828.3,448.9,827.6,448.9z"/>
			<path class="st1" d="M839.9,446.3c1.3,0,2,0,3.3,0c0,6.9,0,10.4,0,17.3c-1.3,0-2,0.1-3.3,0.1
				C839.9,456.8,839.9,453.3,839.9,446.3z"/>
			<path class="st1" d="M852.2,453.5c1.8,0,2.7,0,4.5-0.1c0,1,0,1.5,0,2.4c-1.8,0-2.7,0-4.5,0.1c0,2,0,3,0,5
				c2.3-0.1,3.4-0.1,5.7-0.1c0,1,0,1.5,0,2.4c-3.6,0.1-5.4,0.2-9,0.3c0-6.9,0-10.3,0-17.1c3.6,0,5.4,0,9,0c0,1,0,1.5,0,2.4
				c-2.3,0-3.4,0-5.7,0C852.2,450.6,852.2,451.6,852.2,453.5z"/>
			<path class="st1" d="M866.3,450.9C866.3,450.9,866.3,450.9,866.3,450.9c-0.1,4.8-0.1,7.2-0.1,12c-1.2,0-1.8,0-3,0.1
				c0-6.7,0-10,0-16.7c1.7,0,2.5,0,4.2,0c1.3,4,2,6,3.3,9.9c0,0,0,0,0.1,0c0-4,0-5.9,0-9.9c1.2,0,1.8,0,2.9,0c0,6.6,0,9.9,0,16.4
				c-1.4,0-2,0-3.4,0.1C868.8,458.1,868,455.7,866.3,450.9z"/>
			<path class="st1" d="M878.5,446.3c4.1,0,6.1,0,10.2,0c0,0.9,0,1.4,0,2.3c-1.4,0-2.1,0-3.5,0c0,5.5,0,8.3,0,13.9
				c-1.3,0-2,0-3.3,0.1c0-5.6,0-8.4,0-13.9c-1.4,0-2.1,0-3.5,0C878.5,447.7,878.5,447.2,878.5,446.3z"/>
			<path class="st1" d="M904.8,453c1.8,0,2.7,0,4.5,0c0,0.9,0,1.4,0,2.3c-1.8,0-2.7,0-4.5,0c0,1.9,0,2.8,0,4.6c2.3,0,3.4,0,5.7-0.1
				c0,0.9,0,1.4,0,2.3c-3.6,0-5.4,0.1-9,0.1c0-6.4,0-9.5,0-15.9c3.6,0,5.4,0,9,0c0,0.9,0,1.4,0,2.3c-2.3,0-3.4,0-5.7,0
				C904.8,450.3,904.8,451.2,904.8,453z"/>
			<path class="st1" d="M918.9,450.6C918.9,450.6,918.9,450.6,918.9,450.6c-0.1,4.5-0.1,6.8-0.1,11.4c-1.2,0-1.8,0-3,0
				c0-6.3,0-9.5,0-15.8c1.7,0,2.5,0,4.2,0c1.3,3.8,2,5.6,3.3,9.4c0,0,0,0,0.1,0c0-3.8,0-5.6,0-9.4c1.2,0,1.8,0,3,0
				c0,6.3,0,9.4,0,15.7c-1.4,0-2,0-3.4,0C921.4,457.5,920.6,455.2,918.9,450.6z"/>
			<path class="st1" d="M931.1,446.3c4.1,0,6.2,0,10.2,0c0,0.9,0,1.3,0,2.2c-1.4,0-2.1,0-3.5,0c0,5.4,0,8,0,13.4c-1.3,0-2,0-3.3,0
				c0-5.4,0-8,0-13.4c-1.4,0-2.1,0-3.5,0C931.1,447.6,931.1,447.2,931.1,446.3z"/>
			<path class="st1" d="M949.5,452.9c1.8,0,2.7,0,4.5,0c0,0.9,0,1.3,0,2.2c-1.8,0-2.7,0-4.5,0c0,1.8,0,2.8,0,4.6c2.3,0,3.4,0,5.7,0
				c0,0.9,0,1.3,0,2.2c-3.6,0-5.4,0-9,0c0-6.2,0-9.4,0-15.6c3.6,0,5.4,0,9,0c0,0.9,0,1.3,0,2.2c-2.3,0-3.4,0-5.7,0
				C949.5,450.3,949.5,451.1,949.5,452.9z"/>
			<path class="st1" d="M967.5,462c-0.2-0.4-0.3-0.6-0.3-1.9c0-1,0-1.5,0-2.5c0-1.5-0.7-2-2.2-2c-0.5,0-0.7,0-1.1,0
				c0,2.6,0,3.8,0,6.4c-1.3,0-2,0-3.3,0c0-6.3,0-9.4,0-15.7c2,0,3,0,5,0c3.4,0,4.9,1.2,4.9,3.6c0,0.5,0,0.7,0,1.2
				c0,1.6-0.7,2.6-2.2,3.2c0,0,0,0,0,0c1.7,0.5,2.2,1.7,2.2,3.3c0,1,0,1.5,0,2.4c0,0.8,0,1.3,0.4,1.9C969.5,462,968.8,462,967.5,462
				z M963.9,448.5c0,1.9,0,2.9,0,4.8c0.5,0,0.8,0,1.3,0c1.2,0,2-0.4,2-1.6c0-0.6,0-0.9,0-1.5c0-1.1-0.5-1.6-1.7-1.6
				C964.8,448.5,964.5,448.5,963.9,448.5z"/>
			<path class="st1" d="M985.8,450.2c0,0.8,0,1.2,0,2.1c0,2.5-1.6,3.9-4.9,3.9c-0.6,0-0.9,0-1.6,0c0,2.4,0,3.6,0,6c-1.3,0-2,0-3.3,0
				c0-6.3,0-9.5,0-15.8c2,0,2.9,0,4.9,0C984.2,446.3,985.8,447.7,985.8,450.2z M979.3,448.6c0,2.1,0,3.2,0,5.4c0.6,0,0.9,0,1.6,0
				c1,0,1.6-0.4,1.6-1.5c0-1,0-1.4,0-2.4c0-1.1-0.6-1.5-1.6-1.5C980.2,448.6,979.9,448.6,979.3,448.6z"/>
			<path class="st1" d="M997.6,462.4c-0.2-0.4-0.3-0.7-0.3-2c0-1,0-1.5,0-2.5c0-1.5-0.7-2.1-2.2-2.1c-0.5,0-0.7,0-1.1,0
				c0,2.6,0,3.9,0,6.5c-1.3,0-2,0-3.3-0.1c0-6.4,0-9.6,0-16c2,0,3,0,5,0c3.4,0,4.9,1.2,4.9,3.7c0,0.5,0,0.8,0,1.3
				c0,1.7-0.7,2.7-2.2,3.2c0,0,0,0,0,0c1.7,0.5,2.2,1.8,2.2,3.5c0,1,0,1.5,0,2.5c0,0.8,0,1.4,0.4,2
				C999.6,462.5,999,462.5,997.6,462.4z M994,448.6c0,2,0,3,0,4.9c0.5,0,0.8,0,1.3,0c1.2,0,2-0.4,2-1.7c0-0.6,0-1,0-1.6
				c0-1.1-0.5-1.7-1.7-1.7C994.9,448.6,994.6,448.6,994,448.6z"/>
			<path class="st1" d="M1006.1,446.3c1.3,0,2,0,3.3,0c0,6.5,0,9.8,0,16.4c-1.3,0-2,0-3.3-0.1
				C1006.1,456.1,1006.1,452.8,1006.1,446.3z"/>
			<path class="st1" d="M1019.6,446.1c3.2,0,4.9,1.5,4.9,4.2c0,0.2,0,0.3,0,0.5c-1.2,0-1.9,0-3.1,0c0-0.3,0-0.4,0-0.7
				c0-1.2-0.6-1.6-1.7-1.6c-1,0-1.7,0.4-1.6,1.6c0,1.2,0.7,2.1,2.8,3.6c2.8,2,3.7,3.4,3.7,5.3c0,2.7-1.7,4.2-4.9,4.1
				c-3.3-0.1-5-1.6-5-4.3c0-0.4,0-0.6,0-1c1.2,0,1.9,0,3.1,0.1c0,0.5,0,0.7,0,1.2c0,1.2,0.7,1.6,1.7,1.6s1.7-0.4,1.7-1.6
				c0-1.2-0.7-2.1-2.8-3.7c-2.8-2-3.6-3.3-3.7-5.2C1014.7,447.6,1016.3,446.1,1019.6,446.1z"/>
			<path class="st1" d="M1033,453.5c1.8,0,2.7,0,4.5,0.1c0,1,0,1.5,0,2.5c-1.8,0-2.7,0-4.5-0.1c0,2,0,3,0,5c2.3,0.1,3.4,0.1,5.7,0.2
				c0,1,0,1.5,0,2.5c-3.6-0.1-5.4-0.2-9-0.3c0-6.8,0-10.1,0-16.9c3.6,0,5.4,0,9,0c0,1,0,1.5,0,2.5c-2.3,0-3.4,0-5.7,0
				C1033,450.6,1033,451.6,1033,453.5z"/>
			<path class="st1" d="M1061.7,457.6c0,1,0,1.4,0,2.4c0,2.9-1.7,4.5-4.9,4.3s-4.9-1.8-5-4.6c0-3.7,0-5.5,0-9.2
				c0-2.8,1.7-4.4,4.9-4.4s4.9,1.6,4.9,4.5c0,0.7,0,1,0,1.8c-1.2,0-1.9,0-3.1,0c0-0.8,0-1.1,0-1.9c0-1.3-0.7-1.8-1.7-1.8
				c-1,0-1.7,0.5-1.7,1.7c0,3.8,0,5.8,0,9.6c0,1.3,0.7,1.8,1.7,1.8c1,0,1.7-0.4,1.7-1.7c0-1,0-1.5,0-2.6
				C1059.8,457.6,1060.5,457.6,1061.7,457.6z"/>
			<path class="st1" d="M1067,446.3c1.3,0,2,0,3.3,0c0,6.3,0,9.5,0,15.8c2.2,0.1,3.3,0.1,5.4,0.2c0,1.1,0,1.6,0,2.7
				c-3.5-0.2-5.3-0.2-8.8-0.4C1067,457.3,1067,453.6,1067,446.3z"/>
			<path class="st1" d="M1080.3,450.9c0-3,1.8-4.7,5-4.7c3.2,0,5,1.8,5,4.9c0,4,0,6,0,10.1c0,3.1-1.8,4.8-5,4.6s-5-2-5-5
				C1080.3,456.8,1080.3,454.8,1080.3,450.9z M1083.6,461c0,1.4,0.7,1.9,1.7,2c1.1,0.1,1.7-0.5,1.7-1.8c0-4.1,0-6.2,0-10.4
				c0-1.4-0.7-1.9-1.7-1.9c-1,0-1.7,0.5-1.7,1.9C1083.6,454.8,1083.6,456.9,1083.6,461z"/>
			<path class="st1" d="M1099,446.4c0,6.1,0,9.2,0,15.3c0,1.4,0.7,2,1.7,2c1.1,0,1.7-0.4,1.7-1.9c0-6.2,0-9.2,0-15.4
				c1.2,0,1.9,0,3.1,0c0,6.1,0,9.2,0,15.4c0,3.2-1.7,5-4.9,4.8s-4.9-2.1-4.9-5.2c0-6,0-9,0-15C1097,446.4,1097.6,446.4,1099,446.4z"
				/>
			<path class="st1" d="M1111.1,446.4c2.1,0,3.2,0,5.2,0c3.3,0,4.9,1.8,4.9,5.2c0,4.3,0,6.4,0,10.7c0,3.4-1.6,5.1-4.9,4.9
				c-2.1-0.1-3.1-0.2-5.2-0.3C1111.1,458.6,1111.1,454.5,1111.1,446.4z M1114.4,449.3c0,5.9,0,8.9,0,14.8c0.8,0,1.1,0.1,1.9,0.1
				c1.1,0,1.7-0.5,1.7-1.9c0-4.4,0-6.5,0-10.9c0-1.5-0.6-2-1.7-2C1115.5,449.3,1115.2,449.3,1114.4,449.3z"/>
		</g>
	</g>
	<rect x="729.6" y="437.1" class="st2" width="10" height="40.4"/>
	<rect x="743" y="437.1" class="st2" width="2.9" height="40.4"/>
	<rect x="749" y="437.1" class="st2" width="2.9" height="39.1"/>
	<rect x="1136.5" y="437.1" class="st2" width="2.9" height="40.4"/>
	<rect x="1142.6" y="437.1" class="st2" width="2.9" height="40.4"/>
	<path class="st2" d="M940.5,471.1c-106.6,0-195.6,2.9-216.9,6.7v2c21.4-3.8,110.4-6.7,216.9-6.7c112.9,0,206.1,3.2,220,7.4v-2
		C1146.5,474.3,1053.3,471.1,940.5,471.1z"/>
</g>
<path class="st2" d="M420,121.8l-244.8,44.4c-8.9,0-16.2,7.2-16.2,16.2v157.2c0,8.9,7.2,16.2,16.2,16.2L420,385.3
	c8.9,0,16.2-7.2,16.2-16.2V138C436.2,129,428.9,121.8,420,121.8z M285.5,157L415,134v239.2l-249.6-29.6V178.4L285.2,157
	 M295.4,366.7"/>
<line class="st9" x1="282.9" y1="166.8" x2="282.9" y2="347.2"/>
<line class="st9" x1="404.8" y1="252.3" x2="179.6" y2="261.8"/>
</svg>
