<?xml version="1.0" encoding="utf-8"?>
<!-- Generator: Adobe Illustrator 23.0.3, SVG Export Plug-In . SVG Version: 6.00 Build 0)  -->
<svg version="1.1" id="Layer_1" xmlns="http://www.w3.org/2000/svg" xmlns:xlink="http://www.w3.org/1999/xlink" x="0px" y="0px"
	 viewBox="0 0 175 175" style="enable-background:new 0 0 175 175;" xml:space="preserve">
<style type="text/css">
	.st0{fill:#FFFFFF;}
	.st1{fill:#57575D;}
</style>
<g transform="translate(328.539 -1182.5) rotate(90)">
	<circle class="st0" cx="1270" cy="241" r="87.5"/>
</g>
<path class="st1" d="M87.5,8.4C44.6,8.4,9.8,43.2,9.8,86.1s34.8,77.7,77.7,77.7s77.7-34.8,77.7-77.7S130.4,8.4,87.5,8.4z M94.7,130
	v9.6c0,2.5-2,4.5-4.5,4.5h-4.1c-2.5,0-4.5-2-4.5-4.5v-9c-6.7-0.8-14.5-3.4-20.5-7.7c-2-1.4-2.4-4.1-1.1-6.1l3.9-6
	c1.4-2.1,4.2-2.7,6.3-1.3c5.4,3.5,10.3,5.3,15.6,5.3c7.6,0,11-3.1,11-9.4c0-14-35.8-13.7-35.8-38.1c0-13.3,7.9-22.5,20.6-25.1v-9.4
	c0-2.5,2-4.5,4.5-4.5h4.1c2.5,0,4.5,2,4.5,4.5v9.2c7,1,12.4,4,17,8c1.8,1.6,2,4.5,0.3,6.3l-4.2,4.7c-1.6,1.8-4.3,2.2-6.2,0.7
	c-3.7-2.7-7.2-4.1-11.6-4.1c-6.5,0-10,2.6-10,8.7c0,12.9,35.8,11.8,35.8,37.7C115.8,117,108.7,127,94.7,130z"/>
</svg>
