<?xml version="1.0" encoding="utf-8"?>
<!-- Generator: Adobe Illustrator 23.0.3, SVG Export Plug-In . SVG Version: 6.00 Build 0)  -->
<svg version="1.1" id="Layer_1" xmlns="http://www.w3.org/2000/svg" xmlns:xlink="http://www.w3.org/1999/xlink" x="0px" y="0px"
	 viewBox="0 0 175.2 175" style="enable-background:new 0 0 175.2 175;" xml:space="preserve">
<style type="text/css">
	.st0{fill:#FFFFFF;}
	.st1{fill:#57575D;}
	.st2{fill:#EB2027;}
</style>
<g transform="translate(328.539 -1182.5) rotate(90)">
	<circle class="st0" cx="1270" cy="240.8" r="87.5"/>
</g>
<g>
	<path class="st1" d="M87.5,9.5C44.6,9.5,9.8,44.3,9.8,87.3S44.6,165,87.5,165s77.7-34.8,77.7-77.7S130.4,9.5,87.5,9.5z"/>
	<g>
		<path class="st2" d="M61.4,40.3L61.4,40.3L61.4,40.3c0-5,3.8-9,9-9c3.5,0,5.7,1.5,7.3,3.6l-3.6,2.8c-1-1.2-2.1-2-3.7-2
			c-2.4,0-4.1,2-4.1,4.5v0.1c0,2.6,1.7,4.6,4.1,4.6c1.8,0,2.8-0.8,3.9-2.1l3.6,2.5c-1.6,2.2-3.8,3.9-7.6,3.9
			C65.4,49.1,61.4,45.4,61.4,40.3z"/>
		<path class="st2" d="M78.7,31.6L78.7,31.6l8.1,0c2.6,0,4.4,0.7,5.6,1.9c1,1,1.5,2.3,1.5,4v0.1c0,2.6-1.4,4.4-3.5,5.3l4.1,6l-5.5,0
			l-3.4-5.2h-0.1h-2v5.2h-4.7V31.6z M86.6,39.9L86.6,39.9c1.6,0,2.5-0.8,2.5-2v0c0-1.4-1-2-2.5-2h-3.1v4.1H86.6z"/>
		<polygon class="st2" points="95.1,31.6 95.1,31.6 99.6,31.6 106.6,40.7 106.6,31.6 111.3,31.6 111.3,48.8 107.1,48.8 99.8,39.4 
			99.8,48.8 95.1,48.8 		"/>
	</g>
	<g>
		<path class="st0" d="M42.5,71.7h2.9c3.1,0,5.1,1.5,5.1,5s-2,5.1-5,5.1h-3V71.7z M45.2,80c1.7,0,2.9-0.8,2.9-3.3
			c0-2.4-1.2-3.2-2.9-3.2h-0.4V80H45.2z"/>
		<path class="st0" d="M54.1,71.7h2.8L60,81.9h-2.4L57,79.5h-3.1l-0.6,2.4h-2.3L54.1,71.7z M54.3,77.7h2.2l-0.2-0.9
			c-0.3-1-0.6-2.2-0.8-3.3h-0.1c-0.2,1.1-0.5,2.3-0.8,3.3L54.3,77.7z"/>
		<path class="st0" d="M62.9,73.6h-2.8v-1.9H68v1.9h-2.8v8.2h-2.3V73.6z"/>
		<path class="st0" d="M71.3,71.7H74l3.2,10.2h-2.4l-0.6-2.4h-3.1l-0.6,2.4h-2.3L71.3,71.7z M71.5,77.7h2.2l-0.2-0.9
			c-0.3-1-0.6-2.2-0.8-3.3h-0.1c-0.2,1.1-0.5,2.3-0.8,3.3L71.5,77.7z"/>
		<path class="st0" d="M80.6,76.9c0-3.4,2.2-5.3,4.8-5.3c1.3,0,2.4,0.6,3.1,1.3l-1.2,1.5c-0.5-0.5-1.1-0.8-1.8-0.8
			c-1.4,0-2.5,1.2-2.5,3.3c0,2.1,1,3.3,2.5,3.3c0.8,0,1.5-0.4,2-1l1.2,1.4c-0.8,1-2,1.5-3.3,1.5C82.7,82.1,80.6,80.3,80.6,76.9z"/>
		<path class="st0" d="M89.9,71.7h6.4v1.9h-4.1v2h3.5v1.9h-3.5v2.3h4.2v1.9h-6.5V71.7z"/>
		<path class="st0" d="M98.3,71.7h2.4l2.7,5.1l1,2.2h0.1c-0.1-1.1-0.3-2.5-0.3-3.7v-3.6h2.2v10.2h-2.4l-2.7-5.1l-1-2.2h-0.1
			c0.1,1.1,0.3,2.5,0.3,3.7v3.6h-2.2V71.7z"/>
		<path class="st0" d="M110.4,73.6h-2.8v-1.9h7.9v1.9h-2.8v8.2h-2.3V73.6z"/>
		<path class="st0" d="M116.9,71.7h6.4v1.9h-4.1v2h3.5v1.9h-3.5v2.3h4.2v1.9h-6.5V71.7z"/>
		<path class="st0" d="M125.2,71.7h3.7c2.2,0,3.9,0.7,3.9,3.2c0,1.5-0.7,2.4-1.8,2.9l2.3,4.1h-2.6l-2-3.7h-1.3v3.7h-2.3V71.7z
			 M128.7,76.4c1.2,0,1.9-0.5,1.9-1.5s-0.7-1.3-1.9-1.3h-1.2v2.9H128.7z"/>
	</g>
	<g>
		<path class="st0" d="M53.8,95.5h-0.1l-8.1,3.9l-1.6-7.5l11.3-5.2h8.2v42.6h-9.6V95.5z"/>
		<path class="st0" d="M99.7,107.8c0,13.2-5.3,22.2-16.2,22.2c-11,0-15.8-9.9-15.9-21.9c0-12.3,5.2-22.1,16.2-22.1
			C95.3,86,99.7,96.1,99.7,107.8z M77.7,108.1c-0.1,9.8,2.3,14.4,6.2,14.4s6-4.8,6-14.5c0-9.4-2-14.4-6-14.4
			C80.1,93.5,77.6,98.2,77.7,108.1z"/>
		<path class="st0" d="M134.1,107.8c0,13.2-5.3,22.2-16.2,22.2c-11,0-15.8-9.9-15.9-21.9c0-12.3,5.2-22.1,16.2-22.1
			C129.7,86,134.1,96.1,134.1,107.8z M112,108.1c-0.1,9.8,2.3,14.4,6.2,14.4s6-4.8,6-14.5c0-9.4-2-14.4-6-14.4
			C114.5,93.5,112,98.2,112,108.1z"/>
	</g>
</g>
<path class="st1" d="M305,8.4c-42.9,0-77.7,34.8-77.7,77.7s34.8,77.7,77.7,77.7s77.7-34.8,77.7-77.7S347.9,8.4,305,8.4z"/>
</svg>
