<?xml version="1.0" encoding="utf-8"?>
<!-- Generator: Adobe Illustrator 23.0.3, SVG Export Plug-In . SVG Version: 6.00 Build 0)  -->
<svg version="1.1" id="Layer_1" xmlns="http://www.w3.org/2000/svg" xmlns:xlink="http://www.w3.org/1999/xlink" x="0px" y="0px"
	 viewBox="0 0 175 175" style="enable-background:new 0 0 175 175;" xml:space="preserve">
<style type="text/css">
	.st0{fill:#FFFFFF;}
	.st1{fill:#57575D;}
</style>
<g transform="translate(328.539 -1182.5) rotate(90)">
	<circle class="st0" cx="1270.3" cy="241" r="87.5"/>
</g>
<path class="st1" d="M462.7,10.1c-42.9,0-77.7,34.8-77.7,77.7s34.8,77.7,77.7,77.7s77.7-34.8,77.7-77.7S505.6,10.1,462.7,10.1z
	 M469.9,131.7v9.6c0,2.5-2,4.5-4.5,4.5h-4.1c-2.5,0-4.5-2-4.5-4.5v-9c-6.7-0.8-14.5-3.4-20.5-7.7c-2-1.4-2.4-4.1-1.1-6.1l3.9-6
	c1.4-2.1,4.2-2.7,6.3-1.3c5.4,3.5,10.3,5.3,15.6,5.3c7.6,0,11-3.1,11-9.4c0-14-35.8-13.7-35.8-38.1c0-13.3,7.9-22.5,20.6-25.1v-9.4
	c0-2.5,2-4.5,4.5-4.5h4.1c2.5,0,4.5,2,4.5,4.5v9.2c7,1,12.4,4,17,8c1.8,1.6,2,4.5,0.3,6.3l-4.2,4.7c-1.6,1.8-4.3,2.2-6.2,0.7
	c-3.7-2.7-7.2-4.1-11.6-4.1c-6.5,0-10,2.6-10,8.7c0,12.9,35.8,11.8,35.8,37.7C491,118.7,483.9,128.7,469.9,131.7z"/>
<path class="st1" d="M-136.6,9.8c-42.9,0-77.7,34.8-77.7,77.7s34.8,77.7,77.7,77.7s77.7-34.8,77.7-77.7S-93.7,9.8-136.6,9.8z"/>
<path class="st0" d="M-86.7,115.3L-86.7,115.3V49c0-1.1-0.9-2-1.9-2h-96.1c-1.1,0-1.9,0.9-1.9,2v66.3c0,1.1,0.9,1.9,1.9,1.9h36.5
	V129h-15.4c-1.1,0-1.9,0.9-1.9,2c0,1.1,0.9,2,1.9,2h0h53.8c1.1,0,1.9-0.9,1.9-2c0-1.1-0.9-2-1.9-2h-15.4v-11.7h36.5
	C-87.5,117.3-86.7,116.4-86.7,115.3"/>
<rect x="-182.8" y="51" class="st1" width="92.2" height="62.4"/>
<path class="st0" d="M-140.3,83.6c0-1.8-0.6-3.4-1.9-4.7c-1.3-1.3-2.8-1.9-4.7-1.9s-3.4,0.6-4.7,1.9c-1.3,1.3-1.9,2.8-1.9,4.7
	c0,1.8,0.6,3.4,1.9,4.7s2.8,1.9,4.7,1.9s3.4-0.6,4.7-1.9C-140.9,87-140.3,85.5-140.3,83.6z M-120.5,96.8c0-0.9-0.3-1.7-1-2.3
	s-1.4-1-2.3-1s-1.7,0.3-2.3,1s-1,1.4-1,2.3c0,0.9,0.3,1.7,1,2.3s1.4,1,2.3,1c0.9,0,1.7-0.3,2.3-1S-120.5,97.7-120.5,96.8z
	 M-120.5,70.5c0-0.9-0.3-1.7-1-2.3s-1.4-1-2.3-1s-1.7,0.3-2.3,1s-1,1.4-1,2.3c0,0.9,0.3,1.7,1,2.3c0.6,0.6,1.4,1,2.3,1
	c0.9,0,1.7-0.3,2.3-1C-120.9,72.1-120.5,71.4-120.5,70.5z M-130.4,81.3v4.8c0,0.2-0.1,0.3-0.2,0.5s-0.3,0.3-0.4,0.3l-4,0.6
	c-0.2,0.6-0.5,1.3-0.8,2c0.6,0.8,1.4,1.8,2.3,3c0.1,0.2,0.2,0.3,0.2,0.5c0,0.2-0.1,0.4-0.2,0.5c-0.4,0.5-1.1,1.3-2.1,2.3
	c-1,1-1.7,1.5-2,1.5c-0.2,0-0.4-0.1-0.5-0.2l-3-2.3c-0.6,0.3-1.3,0.6-2,0.8c-0.2,1.9-0.4,3.2-0.6,4c-0.1,0.4-0.4,0.6-0.8,0.6h-4.8
	c-0.2,0-0.4-0.1-0.5-0.2c-0.2-0.1-0.2-0.3-0.3-0.5l-0.6-3.9c-0.6-0.2-1.2-0.4-1.9-0.8l-3,2.3c-0.1,0.1-0.3,0.2-0.5,0.2
	c-0.2,0-0.4-0.1-0.5-0.2c-2.5-2.3-3.7-3.7-3.7-4.1c0-0.2,0.1-0.3,0.2-0.5c0.2-0.2,0.5-0.7,1.1-1.4c0.5-0.7,0.9-1.2,1.2-1.6
	c-0.4-0.8-0.7-1.5-0.9-2.1l-3.9-0.6c-0.2,0-0.3-0.1-0.4-0.2c-0.1-0.1-0.2-0.3-0.2-0.5v-4.8c0-0.2,0.1-0.3,0.2-0.5s0.3-0.3,0.4-0.3
	l4-0.6c0.2-0.6,0.5-1.3,0.8-2c-0.6-0.8-1.4-1.8-2.3-3c-0.1-0.2-0.2-0.4-0.2-0.5c0-0.2,0.1-0.4,0.2-0.5c0.4-0.5,1.1-1.3,2.1-2.3
	c1-1,1.7-1.5,2-1.5c0.2,0,0.4,0.1,0.5,0.2l3,2.3c0.6-0.3,1.2-0.6,2-0.8c0.2-1.9,0.4-3.2,0.6-4c0.1-0.4,0.4-0.6,0.8-0.6h4.8
	c0.2,0,0.4,0.1,0.5,0.2c0.2,0.1,0.2,0.3,0.3,0.5l0.6,3.9c0.6,0.2,1.2,0.4,1.9,0.8l3-2.3c0.1-0.1,0.3-0.2,0.5-0.2
	c0.2,0,0.4,0.1,0.5,0.2c2.5,2.3,3.7,3.7,3.7,4.1c0,0.2-0.1,0.3-0.2,0.5c-0.2,0.3-0.6,0.7-1.1,1.4s-0.9,1.2-1.2,1.5
	c0.4,0.8,0.7,1.5,0.9,2.1l3.9,0.6c0.2,0,0.3,0.1,0.4,0.3S-130.4,81.1-130.4,81.3z M-114,95v3.6c0,0.3-1.3,0.5-3.8,0.8
	c-0.2,0.5-0.5,0.9-0.8,1.3c0.9,1.9,1.3,3.1,1.3,3.5c0,0.1,0,0.1-0.1,0.2c-2.1,1.2-3.2,1.8-3.2,1.8c-0.1,0-0.5-0.4-1.2-1.2
	s-1.1-1.4-1.3-1.7c-0.3,0-0.6,0.1-0.8,0.1c-0.2,0-0.4,0-0.8-0.1c-0.2,0.4-0.7,0.9-1.3,1.7s-1,1.2-1.2,1.2c0,0-1.1-0.6-3.2-1.8
	c-0.1-0.1-0.1-0.1-0.1-0.2c0-0.4,0.4-1.6,1.3-3.5c-0.3-0.4-0.6-0.9-0.8-1.3c-2.6-0.3-3.8-0.5-3.8-0.8V95c0-0.3,1.3-0.5,3.8-0.8
	c0.2-0.5,0.5-0.9,0.8-1.3c-0.9-1.9-1.3-3.1-1.3-3.5c0-0.1,0-0.1,0.1-0.2c0.1,0,0.4-0.2,0.9-0.5c0.5-0.3,1-0.6,1.5-0.9
	s0.7-0.4,0.8-0.4c0.1,0,0.5,0.4,1.2,1.2s1.1,1.4,1.3,1.7c0.3,0,0.6-0.1,0.8-0.1c0.2,0,0.4,0,0.8,0.1c0.9-1.2,1.7-2.2,2.4-2.9
	l0.2-0.1c0.1,0,1.1,0.6,3.2,1.8c0.1,0.1,0.1,0.1,0.1,0.2c0,0.4-0.4,1.6-1.3,3.5c0.3,0.4,0.5,0.8,0.8,1.3
	C-115.2,94.5-114,94.7-114,95z M-114,68.7v3.6c0,0.3-1.3,0.5-3.8,0.8c-0.2,0.5-0.5,0.9-0.8,1.3c0.9,1.9,1.3,3.1,1.3,3.5
	c0,0.1,0,0.1-0.1,0.2c-2.1,1.2-3.2,1.8-3.2,1.8c-0.1,0-0.5-0.4-1.2-1.2s-1.1-1.4-1.3-1.7c-0.3,0-0.6,0.1-0.8,0.1
	c-0.2,0-0.4,0-0.8-0.1c-0.2,0.4-0.7,0.9-1.3,1.7s-1,1.2-1.2,1.2c0,0-1.1-0.6-3.2-1.8c-0.1-0.1-0.1-0.1-0.1-0.2
	c0-0.4,0.4-1.6,1.3-3.5c-0.3-0.4-0.6-0.9-0.8-1.3c-2.6-0.3-3.8-0.5-3.8-0.8v-3.6c0-0.3,1.3-0.5,3.8-0.8c0.2-0.5,0.5-0.9,0.8-1.3
	c-0.9-1.9-1.3-3.1-1.3-3.5c0-0.1,0-0.1,0.1-0.2c0.1,0,0.4-0.2,0.9-0.5c0.5-0.3,1-0.6,1.5-0.9s0.7-0.4,0.8-0.4c0.1,0,0.5,0.4,1.2,1.2
	s1.1,1.4,1.3,1.7c0.3,0,0.6-0.1,0.8-0.1c0.2,0,0.4,0,0.8,0.1c0.9-1.2,1.7-2.2,2.4-2.9l0.2-0.1c0.1,0,1.1,0.6,3.2,1.8
	c0.1,0.1,0.1,0.1,0.1,0.2c0,0.4-0.4,1.6-1.3,3.5c0.3,0.4,0.5,0.8,0.8,1.3C-115.2,68.1-114,68.4-114,68.7z"/>
<g>
	<path class="st1" d="M75.6,113.5c3.9,3.5,8,6.8,12.3,9.8l0,0l0,0c11.6-8.3,28-22.9,29.7-34.1c0,0,0-1.3,0-1.9V74.6
		c0.1-0.8,0-1.5-0.4-2.2L75.6,113.5z"/>
	<path class="st1" d="M101.1,57.7c-0.9-1.5-2.5-2.5-4.2-2.5h-18c-1.8,0-3.4,1-4.2,2.5c-3.4,5.5-8.2,9.9-14,12.8
		c-1.6,0.7-2.6,2.3-2.6,4v13c0,0.6,0,1.1,0,1.7l0,0l0,0c0.7,3.3,2,6.4,3.9,9.1l39.9-39.4C101.6,58.4,101.3,58.1,101.1,57.7z"/>
	<path class="st1" d="M87.5,9.9C43.2,9.9,7.3,45.8,7.3,90.2s35.9,80.2,80.2,80.2s80.2-35.9,80.2-80.2S131.8,9.9,87.5,9.9z
		 M137.8,86.9c0,25.1-37.8,52.1-47.8,58.9c-0.7,0.5-1.6,0.8-2.4,0.8c-0.9,0-1.7-0.3-2.4-0.7c-10-6.7-47.8-33.7-47.8-58.9V59.5
		c0-1.6,1.3-3,3-3c10.6-2,19.3-9.6,22.6-19.9c0.3-1.6,1.6-2.9,3.3-3h43c1.7,0.1,3,1.3,3.3,3c3.2,10.4,12,18.2,22.8,20
		c1.6,0.1,2.8,1.4,2.8,3L137.8,86.9z"/>
</g>
</svg>
