<svg xmlns="http://www.w3.org/2000/svg" xmlns:xlink="http://www.w3.org/1999/xlink" width="175" height="175" viewBox="0 0 175 175"><defs><clipPath id="a"><rect width="157.011" height="157.008" fill="#57575d"/></clipPath><clipPath id="b"><rect width="157.011" height="157.008" fill="none"/></clipPath></defs><g transform="translate(486.099 -1474.5) rotate(90)"><circle cx="87.5" cy="87.5" r="87.5" transform="translate(1474.5 486.099) rotate(-90)" fill="#fff"/><g transform="translate(1483.457 477.143) rotate(-90)"><g transform="translate(0 0)"><g clip-path="url(#a)"><path d="M157.011,78.5A78.506,78.506,0,1,1,78.507,0a78.5,78.5,0,0,1,78.5,78.5" transform="translate(0 -0.002)" fill="#57575d"/></g></g><path d="M9.185,71.654h93.949V102.97H9.185Zm0-31.313h93.949V71.657H9.185Zm0-31.32h93.949V40.337H9.185Z" transform="translate(22.918 22.507)" fill="none" stroke="#fff" stroke-linejoin="round" stroke-width="2"/><g transform="translate(0 0)"><g clip-path="url(#b)"><path d="M44.83,17.182,39.608,22.47,37.9,20.747l3.516-3.565L37.9,13.62,39.608,11.9Zm-15.413,0a2.2,2.2,0,1,1,2.2,2.219,2.212,2.212,0,0,1-2.2-2.219m4.872,0a2.2,2.2,0,1,1,2.2,2.219,2.212,2.212,0,0,1-2.2-2.219m-15.882,0L23.632,11.9l1.709,1.723-3.52,3.562,3.52,3.565L23.632,22.47Zm6.137,0a2.2,2.2,0,1,1,2.2,2.219,2.212,2.212,0,0,1-2.2-2.219" transform="translate(45.928 29.683)" fill="#fff"/><path d="M44.83,26.217,39.608,31.5,37.9,29.782l3.516-3.565L37.9,22.655l1.709-1.723Zm-15.413,0a2.2,2.2,0,1,1,2.2,2.219,2.212,2.212,0,0,1-2.2-2.219m4.872,0a2.2,2.2,0,1,1,2.2,2.219,2.212,2.212,0,0,1-2.2-2.219m-15.882,0,5.225-5.285,1.709,1.723-3.52,3.562,3.52,3.565L23.632,31.5Zm6.137,0a2.2,2.2,0,1,1,2.2,2.219,2.212,2.212,0,0,1-2.2-2.219" transform="translate(45.928 52.226)" fill="#fff"/><path d="M44.83,35.252,39.608,40.54,37.9,38.817l3.516-3.565L37.9,31.69l1.709-1.723Zm-15.413,0a2.2,2.2,0,1,1,2.2,2.219,2.212,2.212,0,0,1-2.2-2.219m4.872,0a2.2,2.2,0,1,1,2.2,2.219,2.212,2.212,0,0,1-2.2-2.219m-15.882,0,5.225-5.285,1.709,1.723-3.52,3.562,3.52,3.565L23.632,40.54Zm6.137,0a2.2,2.2,0,1,1,2.2,2.219,2.212,2.212,0,0,1-2.2-2.219" transform="translate(45.928 74.77)" fill="#fff"/></g></g></g></g></svg>