<?xml version="1.0" encoding="utf-8"?>
<!-- Generator: Adobe Illustrator 23.0.3, SVG Export Plug-In . SVG Version: 6.00 Build 0)  -->
<svg version="1.1" id="Layer_1" xmlns="http://www.w3.org/2000/svg" xmlns:xlink="http://www.w3.org/1999/xlink" x="0px" y="0px"
	 viewBox="0 0 110 61" style="enable-background:new 0 0 110 61;" xml:space="preserve">
<style type="text/css">
	.st0{fill:#FFFFFF;}
	.st1{clip-path:url(#SVGID_2_);fill:#F15A22;}
	.st2{clip-path:url(#SVGID_4_);fill:#E84425;}
	.st3{clip-path:url(#SVGID_6_);fill:#DA223B;}
	.st4{clip-path:url(#SVGID_8_);fill:#CE1F41;}
</style>
<rect y="-25.2" class="st0" width="110" height="110"/>
<g>
	<defs>
		<rect id="SVGID_1_" x="2.5" width="104.7" height="61"/>
	</defs>
	<clipPath id="SVGID_2_">
		<use xlink:href="#SVGID_1_"  style="overflow:visible;"/>
	</clipPath>
	<path class="st1" d="M95.5,38c6.5,0,11.7-5.3,11.7-11.7c0-6.5-5.3-11.7-11.7-11.7c-6.5,0-11.7,5.3-11.7,11.7
		C83.7,32.7,89,38,95.5,38"/>
</g>
<g>
	<path class="st0" d="M89,30.8l0.9-1.3c0.5,0.4,1,0.7,1.6,0.7c0.7,0,1.2-0.3,1.2-1c0-0.7-0.4-1-1.1-1c-0.4,0-0.6,0.1-1.1,0.4
		l-0.9-0.6l0.2-4.1h4.7v1.8h-2.8l-0.1,1.1c0.3-0.1,0.5-0.1,0.7-0.1c1.4,0,2.5,0.8,2.5,2.4c0,1.8-1.4,2.8-3,2.8
		C90.6,31.9,89.7,31.5,89,30.8z"/>
	<path class="st0" d="M96,29.8c0-0.9,0.5-1.5,1.3-1.9v0c-0.6-0.5-1-1-1-1.9c0-1.4,1.1-2.2,2.6-2.2c1.5,0,2.5,0.8,2.5,2.2
		c0,0.7-0.4,1.3-1,1.7v0c0.8,0.4,1.4,1,1.4,2.1c0,1.3-1.2,2.2-2.9,2.2C97.2,31.9,96,31.1,96,29.8z M99.7,29.6c0-0.6-0.5-0.8-1.5-1.2
		c-0.2,0.3-0.4,0.7-0.4,1.1c0,0.6,0.5,0.9,1,0.9C99.3,30.5,99.7,30.2,99.7,29.6z M99.6,26.1c0-0.5-0.3-0.9-0.8-0.9
		c-0.4,0-0.7,0.2-0.7,0.8c0,0.5,0.4,0.8,1.2,1.1C99.5,26.7,99.6,26.4,99.6,26.1z"/>
</g>
<g>
	<path class="st0" d="M93.5,21.3c0.4-0.4,0.6-0.6,0.6-0.8c0-0.2-0.1-0.3-0.3-0.3c-0.1,0-0.2,0.1-0.3,0.2l-0.1-0.1
		c0.1-0.1,0.2-0.2,0.4-0.2c0.2,0,0.4,0.2,0.4,0.4c0,0.2-0.2,0.5-0.5,0.8c0.1,0,0.2,0,0.2,0h0.4v0.1h-0.9V21.3z"/>
	<path class="st0" d="M94.5,20.7c0-0.4,0.2-0.7,0.4-0.7c0.3,0,0.4,0.2,0.4,0.7c0,0.4-0.2,0.7-0.4,0.7C94.7,21.4,94.5,21.2,94.5,20.7
		z M95.2,20.7c0-0.4-0.1-0.5-0.3-0.5c-0.2,0-0.3,0.2-0.3,0.5c0,0.4,0.1,0.6,0.3,0.6C95.1,21.3,95.2,21.1,95.2,20.7z"/>
	<path class="st0" d="M95.6,21.2h0.3v-1h-0.2v-0.1c0.1,0,0.2-0.1,0.3-0.1h0.1v1.2h0.3v0.1h-0.7V21.2z"/>
	<path class="st0" d="M96.6,21.2l0.1-0.1c0.1,0.1,0.2,0.2,0.3,0.2c0.2,0,0.3-0.1,0.3-0.3c0-0.2-0.1-0.3-0.3-0.3
		c-0.1,0-0.1,0-0.2,0.1l-0.1-0.1l0-0.6h0.7v0.1h-0.5l0,0.4c0.1,0,0.1-0.1,0.2-0.1c0.2,0,0.4,0.1,0.4,0.4s-0.2,0.4-0.4,0.4
		C96.8,21.4,96.7,21.3,96.6,21.2z"/>
</g>
<g>
	<defs>
		<rect id="SVGID_3_" x="2.5" width="104.7" height="61"/>
	</defs>
	<clipPath id="SVGID_4_">
		<use xlink:href="#SVGID_3_"  style="overflow:visible;"/>
	</clipPath>
	<path class="st2" d="M77.4,57.4c8.1,0,14.7-6.6,14.7-14.7c0-8.1-6.6-14.7-14.7-14.7s-14.7,6.6-14.7,14.7
		C62.7,50.8,69.3,57.4,77.4,57.4"/>
</g>
<g>
	<path class="st0" d="M69.6,44.9c0-3.6,2-5.3,4.1-5.3c1.4,0,2.4,0.6,3.1,1.2l-1.4,1.6c-0.3-0.3-0.9-0.7-1.5-0.7
		c-1,0-1.7,0.7-1.8,2.7c0.5-0.6,1.3-1,1.9-1c1.7,0,3,0.9,3,3.1c0,2.1-1.6,3.4-3.4,3.4C71.6,49.9,69.6,48.5,69.6,44.9z M74.5,46.5
		c0-1-0.5-1.2-1.1-1.2c-0.5,0-1,0.2-1.3,0.8c0.2,1.4,0.8,1.7,1.3,1.7C74,47.9,74.5,47.5,74.5,46.5z"/>
	<path class="st0" d="M78,48.1c2.3-2.2,4.1-3.8,4.1-5.1c0-0.9-0.5-1.3-1.2-1.3c-0.7,0-1.2,0.5-1.6,0.9l-1.4-1.4c1-1.1,2-1.6,3.4-1.6
		c2,0,3.4,1.3,3.4,3.2c0,1.6-1.5,3.3-2.8,4.7c0.5-0.1,1.2-0.1,1.7-0.1h1.7v2.2H78V48.1z"/>
</g>
<g>
	<path class="st0" d="M74.9,36.5c0.5-0.5,0.8-0.8,0.8-1.1c0-0.2-0.1-0.3-0.3-0.3c-0.1,0-0.3,0.1-0.4,0.2l-0.1-0.1
		c0.1-0.2,0.3-0.3,0.5-0.3c0.3,0,0.5,0.2,0.5,0.5c0,0.3-0.3,0.6-0.7,1c0.1,0,0.2,0,0.3,0H76v0.2h-1.1V36.5z"/>
	<path class="st0" d="M76.2,35.8c0-0.6,0.2-0.9,0.5-0.9c0.3,0,0.5,0.3,0.5,0.9c0,0.6-0.2,0.9-0.5,0.9C76.4,36.7,76.2,36.4,76.2,35.8
		z M77.1,35.8c0-0.5-0.1-0.7-0.3-0.7c-0.2,0-0.3,0.2-0.3,0.7c0,0.5,0.1,0.7,0.3,0.7C77,36.5,77.1,36.3,77.1,35.8z"/>
	<path class="st0" d="M77.6,36.5H78v-1.2h-0.3v-0.1c0.2,0,0.3-0.1,0.3-0.1h0.2v1.5h0.3v0.2h-0.9V36.5z"/>
	<path class="st0" d="M78.8,35.9c0-0.7,0.3-0.9,0.6-0.9c0.2,0,0.3,0.1,0.4,0.2l-0.1,0.1c-0.1-0.1-0.2-0.1-0.3-0.1
		c-0.2,0-0.4,0.2-0.4,0.7c0.1-0.1,0.3-0.2,0.4-0.2c0.3,0,0.5,0.2,0.5,0.5c0,0.3-0.2,0.5-0.5,0.5C79.1,36.7,78.8,36.4,78.8,35.9z
		 M79.7,36.2c0-0.2-0.1-0.3-0.3-0.3c-0.1,0-0.2,0.1-0.3,0.2c0,0.3,0.2,0.5,0.4,0.5C79.6,36.5,79.7,36.4,79.7,36.2z"/>
</g>
<g>
	<defs>
		<rect id="SVGID_5_" x="2.5" width="104.7" height="61"/>
	</defs>
	<clipPath id="SVGID_6_">
		<use xlink:href="#SVGID_5_"  style="overflow:visible;"/>
	</clipPath>
	<path class="st3" d="M58.9,36.7c10.1,0,18.4-8.2,18.4-18.4S69,0,58.9,0S40.6,8.2,40.6,18.4S48.8,36.7,58.9,36.7"/>
</g>
<g>
	<path class="st0" d="M49.1,21.1c0-4.5,2.5-6.6,5.1-6.6c1.8,0,3,0.7,3.9,1.6l-1.8,2c-0.4-0.4-1.2-0.9-1.9-0.9
		c-1.2,0-2.1,0.8-2.3,3.3c0.6-0.8,1.7-1.2,2.3-1.2c2.1,0,3.7,1.2,3.7,3.8c0,2.6-1.9,4.2-4.3,4.2C51.6,27.3,49.1,25.5,49.1,21.1z
		 M55.2,23c0-1.2-0.7-1.5-1.4-1.5c-0.6,0-1.2,0.3-1.6,1.1c0.3,1.7,1,2.1,1.6,2.1C54.6,24.8,55.2,24.4,55.2,23z"/>
	<path class="st0" d="M59.3,25.5l1.5-2.1c0.7,0.7,1.6,1.2,2.5,1.2c1.2,0,1.8-0.5,1.8-1.6c0-1.1-0.7-1.6-1.7-1.6
		c-0.7,0-1,0.1-1.7,0.6L60.3,21l0.3-6.3h7.3v2.8h-4.4l-0.2,1.8c0.4-0.2,0.8-0.2,1.2-0.2c2.1,0,4,1.2,4,3.8c0,2.8-2.2,4.4-4.7,4.4
		C61.8,27.3,60.3,26.5,59.3,25.5z"/>
</g>
<g>
	<path class="st0" d="M55.8,10.6c0.6-0.6,1-1,1-1.3c0-0.2-0.1-0.4-0.4-0.4c-0.2,0-0.3,0.1-0.4,0.3L55.8,9c0.2-0.2,0.4-0.3,0.6-0.3
		c0.4,0,0.6,0.2,0.6,0.6c0,0.4-0.4,0.8-0.8,1.3c0.1,0,0.2,0,0.3,0h0.6v0.2h-1.3V10.6z"/>
	<path class="st0" d="M57.4,9.7c0-0.7,0.2-1.1,0.7-1.1c0.4,0,0.7,0.4,0.7,1.1c0,0.7-0.3,1.1-0.7,1.1C57.7,10.8,57.4,10.4,57.4,9.7z
		 M58.5,9.7c0-0.6-0.2-0.9-0.4-0.9c-0.2,0-0.4,0.2-0.4,0.9c0,0.6,0.2,0.9,0.4,0.9C58.3,10.6,58.5,10.3,58.5,9.7z"/>
	<path class="st0" d="M59.2,10.6h0.5V9h-0.4V8.9c0.2,0,0.3-0.1,0.4-0.2h0.2v1.9h0.4v0.2h-1.2V10.6z"/>
	<path class="st0" d="M61.7,8.9h-1V8.7H62v0.2c-0.5,0.6-0.6,1.1-0.6,1.9h-0.3C61.1,10,61.3,9.5,61.7,8.9z"/>
</g>
<g>
	<defs>
		<rect id="SVGID_7_" x="2.5" width="104.7" height="61"/>
	</defs>
	<clipPath id="SVGID_8_">
		<use xlink:href="#SVGID_7_"  style="overflow:visible;"/>
	</clipPath>
	<path class="st4" d="M25.5,61c12.7,0,22.9-10.3,22.9-22.9S38.1,15.1,25.5,15.1S2.5,25.4,2.5,38.1S12.8,61,25.5,61"/>
</g>
<g>
	<path class="st0" d="M11.7,41.3c0-6.7,3.7-9.9,7.7-9.9c2.6,0,4.6,1.1,5.8,2.3l-2.6,3c-0.6-0.6-1.8-1.3-2.8-1.3
		c-1.8,0-3.2,1.3-3.4,5c0.9-1.2,2.5-1.8,3.5-1.8c3.2,0,5.6,1.8,5.6,5.7s-2.9,6.3-6.4,6.3C15.4,50.5,11.7,48,11.7,41.3z M20.8,44.2
		c0-1.8-1-2.2-2-2.2c-0.9,0-1.8,0.5-2.4,1.6c0.4,2.6,1.5,3.2,2.4,3.2C19.9,46.8,20.8,46.2,20.8,44.2z"/>
	<path class="st0" d="M35.6,35.9h-7.9v-4.2h13.3v3.1c-4.3,5-4.7,8.2-5.1,15.4h-5C31.1,44.4,32.1,40.6,35.6,35.9z"/>
</g>
<g>
	<path class="st0" d="M21.7,25.6c0.9-0.9,1.5-1.5,1.5-2c0-0.4-0.2-0.6-0.6-0.6c-0.3,0-0.5,0.2-0.7,0.4l-0.2-0.2
		c0.3-0.3,0.5-0.5,0.9-0.5c0.6,0,0.9,0.4,0.9,0.9c0,0.6-0.5,1.2-1.3,1.9c0.2,0,0.4,0,0.5,0h0.9v0.3h-2V25.6z"/>
	<path class="st0" d="M24.1,24.3c0-1,0.4-1.6,1-1.6c0.6,0,1,0.6,1,1.6s-0.4,1.6-1,1.6C24.5,25.9,24.1,25.3,24.1,24.3z M25.7,24.3
		c0-0.9-0.2-1.3-0.6-1.3c-0.4,0-0.6,0.4-0.6,1.3s0.2,1.3,0.6,1.3C25.5,25.6,25.7,25.2,25.7,24.3z"/>
	<path class="st0" d="M26.7,25.5h0.7v-2.3h-0.6V23c0.3,0,0.5-0.1,0.7-0.2h0.3v2.8h0.6v0.3h-1.8V25.5z"/>
	<path class="st0" d="M29,25c0-0.4,0.3-0.7,0.6-0.8v0c-0.2-0.2-0.4-0.4-0.4-0.7c0-0.5,0.4-0.8,0.9-0.8c0.5,0,0.9,0.3,0.9,0.8
		c0,0.3-0.2,0.6-0.4,0.7v0c0.3,0.2,0.5,0.4,0.5,0.8c0,0.5-0.4,0.8-1,0.8C29.4,25.9,29,25.5,29,25z M30.6,25.1c0-0.4-0.4-0.5-0.8-0.7
		c-0.2,0.2-0.4,0.4-0.4,0.7c0,0.3,0.3,0.6,0.7,0.6C30.3,25.6,30.6,25.4,30.6,25.1z M30.5,23.5c0-0.3-0.2-0.6-0.5-0.6
		c-0.3,0-0.5,0.2-0.5,0.5c0,0.4,0.3,0.5,0.7,0.7C30.4,24,30.5,23.7,30.5,23.5z"/>
</g>
</svg>
