<svg xmlns="http://www.w3.org/2000/svg" width="81.613" height="81.756" viewBox="0 0 81.613 81.756"><g transform="translate(-2 -0.043)"><path d="M-3215.652,0a40.842,40.842,0,0,0-40.807,40.878,40.842,40.842,0,0,0,40.807,40.878,40.842,40.842,0,0,0,40.807-40.878A40.842,40.842,0,0,0-3215.652,0Zm3.773,63.952v5.031a2.382,2.382,0,0,1-2.38,2.385h-2.143a2.383,2.383,0,0,1-2.382-2.385V64.236a24.65,24.65,0,0,1-10.781-4.023,2.363,2.363,0,0,1-.579-3.211l2.052-3.182a2.388,2.388,0,0,1,3.3-.693,14.917,14.917,0,0,0,8.209,2.765c3.987,0,5.768-1.64,5.768-4.921,0-7.347-18.8-7.2-18.8-20.041,0-6.99,4.129-11.84,10.822-13.195V12.774a2.383,2.383,0,0,1,2.382-2.385h2.143a2.382,2.382,0,0,1,2.38,2.385v4.819a16.7,16.7,0,0,1,8.929,4.224,2.37,2.37,0,0,1,.176,3.335l-2.189,2.489a2.419,2.419,0,0,1-3.245.391,9.642,9.642,0,0,0-6.091-2.167c-3.417,0-5.268,1.355-5.268,4.565,0,6.775,18.8,6.2,18.8,19.827C-3200.772,57.1-3204.546,62.38-3211.879,63.952Z" transform="translate(3258.458 0.043)" fill="#333132"/></g></svg>