<?xml version="1.0" encoding="utf-8"?>
<!-- Generator: Adobe Illustrator 23.0.3, SVG Export Plug-In . SVG Version: 6.00 Build 0)  -->
<svg version="1.1" id="Layer_1" xmlns="http://www.w3.org/2000/svg" xmlns:xlink="http://www.w3.org/1999/xlink" x="0px" y="0px"
	 viewBox="0 0 440.6 418.6" style="enable-background:new 0 0 440.6 418.6;" xml:space="preserve">
<style type="text/css">
	.st0{fill:#191816;}
	.st1{fill:#FFFFFF;}
	.st2{fill:#F20505;}
	.st3{fill:#F20505;stroke:#191816;stroke-width:9.2572;stroke-miterlimit:10;}
	.st4{fill:none;stroke:#191816;stroke-width:9.2386;stroke-miterlimit:10;}
	.st5{fill:#FFFFFF;stroke:#191816;stroke-width:9.514;stroke-miterlimit:10;}
	.st6{fill:#FFFFFF;stroke:#191816;stroke-width:9.2386;stroke-miterlimit:10;}
	.st7{fill:#F20505;stroke:#191816;stroke-width:9.2547;stroke-miterlimit:10;}
	.st8{fill:#181715;}
	.st9{fill:none;stroke:#F20505;stroke-miterlimit:10;}
</style>
<g>
	<g>
		<path class="st0" d="M650.6,191.3l0.1-0.9c6.3-47,38.8-85.1,81-96.7c0.4-30.4,11.5-56.1,32.4-74.5c19.5-17.2,46.7-26.8,76.5-26.9
			h0.5c26.9,0,50.9,6.8,69.3,19.8c15.8,11.1,27.2,26.4,33.7,45c11-3.9,22.6-6,34.2-6h0.3c28.3,0,54.4,11.5,73.5,32.3
			c20.4,22.3,30.5,53.6,27.7,85.7l-1.1,12.9h-5.5c0.7,3.7,1.2,7.7,0.3,11.8l-2.3,11.2l-196.1,0.7l-14.2,0.1L739.2,406.6l-88.9,1.3
			L650.6,191.3z"/>
		<g>
			<path class="st0" d="M841.2,6.4c46.7,0,85.5,22.4,93.5,70.4c13.1-7.4,27.9-11.6,43.7-11.7c0.1,0,0.2,0,0.3,0
				c52.5,0,92.2,45.9,87.2,102.7c0,0,0,0,0,0c-14.3,0-4.6,15.6-6.1,23.1l-173.8,0.6l-10.8,0l-22.1,0.1l-121.9,201l-59.1,0.9
				l-7.7,0.1l0.3-201.3c6-45.4,39.4-81.2,81.6-87.2c-0.3-3.1-0.4-6.2-0.4-9.4c-0.2-56.9,42.3-89.1,94.9-89.3
				C840.9,6.4,841.1,6.4,841.2,6.4 M841.2-21.8h-0.6c-33.3,0.1-63.7,10.9-85.8,30.4c-11.9,10.5-21.2,23.3-27.5,37.9
				c-4.9,11.4-8,23.7-9.2,36.8c-17.5,6.5-33.6,17.3-46.8,31.3c-18.9,20.2-30.8,45.8-34.6,73.9l-0.2,1.8v1.9l-0.3,201.3l0,28.6
				l28.6-0.4l7.7-0.1l59.2-0.9l15.6-0.2l8.1-13.3L869,219.8l6.3,0l10.8,0l173.8-0.6l22.8-0.1l4.7-22.4c0-0.2,0.1-0.4,0.1-0.6h4.2
				l2.3-25.7c1.6-18.3-0.4-36.1-5.9-52.9c-5.4-16.4-14-31.1-25.4-43.6c-21.8-23.8-51.6-36.9-83.9-36.9h-0.4c-8.7,0-17.5,1.1-26,3
				C933.4,1.2,893.2-21.8,841.2-21.8L841.2-21.8z"/>
		</g>
	</g>
	<g>
		<path class="st1" d="M670.9,185.9l0-0.2c6-48.8,39.2-87.6,81-95.6c-0.1-2.5-0.2-4.8-0.2-7.2c-0.1-29.6,9.8-54,28.7-70.5
			c17.3-15.1,41.3-23.2,69.3-23.3h0.6c25.6,0,46.8,5.5,62.9,16.5c17.2,11.6,28.2,29,32.8,51.8c12.8-6.8,26.9-10.4,41-10.5h0.3
			c54.1,0,98.3,50.8,98.5,113.2c0,8.4-0.8,16.9-2.4,25.3l-0.5,2.8L862.6,189l-191.8,54.6L670.9,185.9z"/>
		<g>
			<path class="st0" d="M850.3-7.4c46.5,0,85.1,18.9,93.2,70.2c13-7.9,27.8-12.4,43.5-12.4c0.1,0,0.2,0,0.3,0
				c52.3,0,94.8,49.1,95,109.8c0,8.5-0.8,16.7-2.3,24.6l-185,0.6l-10.8,0l-22,0.1l-187.9,53.4l0.1-52.8c6-48.5,39.3-86.7,81.3-93.2
				c-0.3-3.3-0.4-6.6-0.4-10C755,22.1,797.3-7.2,849.8-7.4C849.9-7.4,850.1-7.4,850.3-7.4 M850.3-14.3h-0.6
				c-28.9,0.1-53.6,8.4-71.5,24.1c-19.7,17.2-30,42.5-29.9,73.1c0,1.4,0,2.9,0.1,4.4c-19.6,4.5-37.9,15.6-52.1,31.9
				c-15.7,18-25.7,40.9-28.8,66l0,0.4v0.4l-0.1,52.8l0,9.2l8.8-2.5l187-53.2l21-0.1l10.8,0l185-0.6l5.7,0l1.1-5.6
				c1.7-8.6,2.5-17.3,2.5-26c-0.1-31-10.6-60.2-29.7-82.2c-19.3-22.3-44.9-34.5-72.3-34.5H987c-13.2,0-26.4,3.1-38.6,8.9
				C937.8,9.3,903.3-14.3,850.3-14.3L850.3-14.3z"/>
		</g>
	</g>
	<g>
		<g>
			<path class="st0" d="M827.2,7.9l2,7.9c9.9-3.9,20.7-6,31.9-6c13.2,0,25.8,3,37,8.2c-13.5-8.5-29.5-13.5-46.6-13.5
				C843.1,4.4,834.9,5.6,827.2,7.9z"/>
		</g>
		<g>
			<path class="st0" d="M985.7,61c0.8,2.8,1.4,5.6,1.9,8.5c9.2-2.2,19-2.2,28.7,0.2c8.5,2.1,16.2,5.9,22.8,10.9
				c-7.9-8.7-18.5-15.3-30.8-18.3C1000.6,60.4,993,60,985.7,61z"/>
		</g>
	</g>
	<g>
		<path class="st0" d="M798.8,205.6v-15.5L936,108c0.4,27.2,1.7,116.3,2.1,140.9L798.8,205.6z"/>
		<path class="st0" d="M931.5,116.1c0.4,27.8,1.3,85.8,1.9,126.6l-129.9-40.4v-9.5L931.5,116.1 M940.5,99.9
			C940.5,99.9,940.5,99.9,940.5,99.9l-146.3,87.6V209l148.6,46.2C942.8,255.2,940.5,99.9,940.5,99.9L940.5,99.9z"/>
	</g>
	<path class="st2" d="M940.5,111.3l-146.3,87.6v21.6l148.6,46.2C942.8,266.6,940.5,109.6,940.5,111.3z"/>
	<g>
		<polygon class="st0" points="926.6,122.3 780.4,209.9 780.4,231.4 926.6,276.9 		"/>
	</g>
	<polygon class="st3" points="788.9,162.2 642.7,228.5 642.7,388.6 788.9,388.6 1086.1,388.6 1086.1,274.7 	"/>
	<polygon class="st1" points="937.7,219.9 791.5,164.2 789.6,386.3 936.4,386.9 	"/>
	<line class="st4" x1="788.9" y1="386.3" x2="788.9" y2="164.9"/>
	<polyline class="st5" points="1086.9,383.9 1086.9,154.1 1086.1,153.3 941.1,105.1 936.8,108.4 936.8,418.6 	"/>
	<line class="st4" x1="733.5" y1="386.3" x2="733.5" y2="188"/>
	<line class="st4" x1="687.3" y1="390.9" x2="687.3" y2="206.5"/>
	<line class="st4" x1="882.9" y1="386.3" x2="882.9" y2="197.3"/>
	<line class="st4" x1="833" y1="390.9" x2="833" y2="181.1"/>
	<line class="st4" x1="995.9" y1="420.9" x2="995.9" y2="120.8"/>
	<line class="st4" x1="936.9" y1="420.9" x2="936.9" y2="217.4"/>
	<line class="st4" x1="1045.1" y1="420.9" x2="1045.1" y2="137.3"/>
	<line class="st4" x1="790.8" y1="245.1" x2="1085.3" y2="310"/>
	<line class="st4" x1="790.8" y1="316.2" x2="1085.3" y2="350.9"/>
	<line class="st4" x1="789.3" y1="164.6" x2="1083.8" y2="268"/>
	<path class="st6" d="M1085.3,360.9"/>
	<path class="st6" d="M788.9,294"/>
	<g>
		<polygon class="st0" points="677,379.9 648.8,379.7 648.8,233.4 677,220.9 		"/>
	</g>
	<g>
		<polygon class="st0" points="723.3,379.3 693.8,379.7 693.8,213.3 723.3,199.5 		"/>
	</g>
	<g>
		<polygon class="st0" points="778.5,379.7 740.1,379 740.1,192.5 778.5,175.1 		"/>
	</g>
	<path class="st1" d="M766.2,194.4c0.3,1.3-0.5,2.7-1.9,3.2c-1.4,0.5-2.7-0.1-3-1.3s0.5-2.7,1.9-3.2
		C764.5,192.6,765.8,193.2,766.2,194.4 M773,191.8l-4.5,7.7l-2.3-1l3-5.2l-4.8-2.1l1.5-2.5L773,191.8z M755.3,198.7
		c0.3,1.3-0.5,2.7-1.9,3.2c-1.3,0.5-2.7-0.1-3-1.3c-0.3-1.3,0.5-2.7,1.9-3.2C753.6,196.8,755,197.4,755.3,198.7 M760.7,196.6
		c0.3,1.3-0.5,2.7-1.9,3.2c-1.3,0.5-2.7-0.1-3-1.3c-0.3-1.3,0.5-2.7,1.9-3.2C759.1,194.7,760.4,195.3,760.7,196.6 M743.6,203.3
		l4.5-7.7l2.3,1l-3,5.2l4.8,2.1l-1.5,2.5L743.6,203.3z"/>
	<path class="st7" d="M640.9,386.9V439h27.7c37-4.5,110.8-7.6,195.9-7.6s158.8,3.1,195.9,7.6h26.7v-52.1H640.9z"/>
	<g>
		<polygon class="st2" points="756.1,226.6 746.6,230.7 746.6,224.4 756.1,220.2 		"/>
		<polygon class="st2" points="756.1,290 746.6,294.1 746.6,279.4 756.1,275.3 		"/>
		<polygon class="st2" points="770.2,240.9 760.8,245.1 760.8,230.3 770.2,226.2 		"/>
		<polygon class="st2" points="756.4,269.1 746.9,273.2 746.9,251.6 756.4,247.5 		"/>
		<polygon class="st2" points="770.2,284.3 760.8,288.4 760.8,269.9 770.2,265.7 		"/>
		<polygon class="st2" points="756.1,311.9 746.6,316.1 746.6,301.3 756.1,297.2 		"/>
		<polygon class="st2" points="770.2,220.4 760.8,224.6 760.8,218.2 770.2,214.1 		"/>
	</g>
	<g>
		<polygon class="st2" points="665,291.4 672.8,288 672.8,318.4 665,321.8 		"/>
		<polygon class="st2" points="665,274.5 672.8,271.1 672.8,283.2 665,286.6 		"/>
		<polygon class="st2" points="653.4,270.4 661.2,267 661.2,282.2 653.4,285.6 		"/>
		<polygon class="st2" points="665,239.6 672.8,236.2 672.8,248.3 665,251.7 		"/>
	</g>
	<g>
		<polygon class="st2" points="706.6,237 698.3,240.6 698.3,235.1 706.6,231.4 		"/>
		<polygon class="st2" points="706.6,274.8 698.3,278.5 698.3,245.7 706.6,242.1 		"/>
		<polygon class="st2" points="706.6,292.9 698.3,296.6 698.3,283.6 706.6,279.9 		"/>
		<polygon class="st2" points="706.6,330.4 698.3,334.1 698.3,321.1 706.6,317.4 		"/>
	</g>
	<rect x="648.4" y="394" class="st8" width="430.6" height="40.9"/>
	<g>
		<g>
			<path class="st1" d="M689.8,410.9c1.8,0,2.7-0.1,4.5-0.1c0,1.2,0,1.8,0,3c-1.8,0.1-2.7,0.1-4.5,0.2c0,2.5,0,3.7,0,6.1
				c2.3-0.1,3.4-0.2,5.7-0.3c0,1.2,0,1.8,0,2.9c-3.6,0.2-5.4,0.3-9,0.5c0-8.4,0-12.7,0-21.1c3.6,0,5.4,0,9,0c0,1.2,0,1.8,0,2.9
				c-2.3,0-3.4,0-5.7,0C689.8,407.4,689.8,408.6,689.8,410.9z"/>
			<path class="st1" d="M711.9,402.1c-1.4,3.8-2.1,5.7-3.5,9.6c1.5,4,2.2,6,3.7,10c-1.4,0.1-2.1,0.1-3.5,0.2
				c-1.1-3.1-1.6-4.6-2.7-7.8c0,0,0,0-0.1,0c-1.1,3.2-1.6,4.8-2.7,8c-1.2,0.1-1.9,0.1-3.1,0.2c1.5-4.3,2.2-6.4,3.7-10.5
				c-1.4-3.9-2.1-5.8-3.5-9.8c1.4,0,2.1,0,3.4,0c1,3,1.5,4.4,2.5,7.4c0,0,0,0,0.1,0c1-3,1.5-4.4,2.5-7.4
				C710.1,402.1,710.7,402.1,711.9,402.1z"/>
			<path class="st1" d="M727,406.8c0,1,0,1.5,0,2.5c0,3-1.6,4.7-4.9,4.8c-0.6,0-0.9,0-1.6,0c0,2.9,0,4.3,0,7.2
				c-1.3,0.1-2,0.1-3.3,0.2c0-7.8,0-11.6,0-19.4c1.9,0,2.9,0,4.9,0C725.3,402.1,727,403.7,727,406.8z M720.5,404.8
				c0,2.6,0,3.9,0,6.5c0.6,0,0.9,0,1.6,0c1,0,1.6-0.5,1.6-1.8c0-1.1,0-1.7,0-2.9c0-1.4-0.6-1.8-1.6-1.8
				C721.4,404.8,721.1,404.8,720.5,404.8z"/>
			<path class="st1" d="M735.1,409.9c1.8,0,2.7,0,4.5-0.1c0,1,0,1.6,0,2.6c-1.8,0-2.7,0.1-4.5,0.1c0,2.2,0,3.2,0,5.4
				c2.3-0.1,3.4-0.1,5.7-0.2c0,1,0,1.6,0,2.6c-3.6,0.2-5.4,0.2-9,0.4c0-7.5,0-11.2,0-18.7c3.6,0,5.4,0,9,0c0,1,0,1.6,0,2.6
				c-2.3,0-3.4,0-5.7,0C735.1,406.8,735.1,407.8,735.1,409.9z"/>
			<path class="st1" d="M746.2,402.1c2.1,0,3.2,0,5.2,0c3.3,0,4.9,1.5,4.9,4.4c0,3.6,0,5.4,0,8.9c0,2.8-1.6,4.4-5,4.5
				c-2.1,0.1-3.2,0.1-5.2,0.2C746.2,412.9,746.2,409.3,746.2,402.1z M749.5,404.6c0,5.1,0,7.7,0,12.8c0.8,0,1.1,0,1.9-0.1
				c1.1,0,1.7-0.5,1.7-1.8c0-3.7,0-5.5,0-9.2c0-1.3-0.6-1.7-1.7-1.7C750.7,404.6,750.3,404.6,749.5,404.6z"/>
			<path class="st1" d="M761.8,402.1c1.3,0,2,0,3.3,0c0,6.9,0,10.4,0,17.3c-1.3,0-2,0.1-3.3,0.1C761.8,412.5,761.8,409,761.8,402.1z
				"/>
			<path class="st1" d="M774.2,409.2c1.8,0,2.7,0,4.5-0.1c0,1,0,1.5,0,2.4c-1.8,0-2.7,0-4.5,0.1c0,2,0,3,0,5
				c2.3-0.1,3.4-0.1,5.7-0.1c0,1,0,1.5,0,2.4c-3.6,0.1-5.4,0.2-9,0.3c0-6.9,0-10.3,0-17.1c3.6,0,5.4,0,9,0c0,1,0,1.5,0,2.4
				c-2.3,0-3.4,0-5.7,0C774.2,406.4,774.2,407.3,774.2,409.2z"/>
			<path class="st1" d="M788.3,406.6C788.3,406.6,788.2,406.6,788.3,406.6c-0.1,4.8-0.1,7.2-0.1,12c-1.2,0-1.8,0-3,0.1
				c0-6.7,0-10,0-16.7c1.7,0,2.5,0,4.2,0c1.3,4,2,6,3.3,9.9c0,0,0,0,0.1,0c0-4,0-5.9,0-9.9c1.2,0,1.8,0,3,0c0,6.6,0,9.9,0,16.4
				c-1.4,0-2,0-3.4,0.1C790.7,413.8,789.9,411.5,788.3,406.6z"/>
			<path class="st1" d="M800.5,402.1c4.1,0,6.2,0,10.2,0c0,0.9,0,1.4,0,2.3c-1.4,0-2.1,0-3.5,0c0,5.5,0,8.3,0,13.9
				c-1.3,0-2,0-3.3,0.1c0-5.6,0-8.4,0-13.9c-1.4,0-2.1,0-3.5,0C800.5,403.5,800.5,403,800.5,402.1z"/>
			<path class="st1" d="M826.8,408.7c1.8,0,2.7,0,4.5,0c0,0.9,0,1.4,0,2.3c-1.8,0-2.7,0-4.5,0c0,1.9,0,2.8,0,4.6
				c2.3,0,3.4,0,5.7-0.1c0,0.9,0,1.4,0,2.3c-3.6,0-5.4,0.1-9,0.1c0-6.4,0-9.5,0-15.9c3.6,0,5.4,0,9,0c0,0.9,0,1.4,0,2.3
				c-2.3,0-3.4,0-5.7,0C826.8,406.1,826.8,407,826.8,408.7z"/>
			<path class="st1" d="M840.9,406.4C840.9,406.4,840.8,406.4,840.9,406.4c-0.1,4.5-0.1,6.8-0.1,11.4c-1.2,0-1.8,0-3,0
				c0-6.3,0-9.5,0-15.8c1.7,0,2.5,0,4.2,0c1.3,3.8,2,5.6,3.3,9.4c0,0,0,0,0.1,0c0-3.8,0-5.6,0-9.4c1.2,0,1.8,0,3,0
				c0,6.3,0,9.4,0,15.7c-1.4,0-2,0-3.4,0C843.3,413.2,842.5,410.9,840.9,406.4z"/>
			<path class="st1" d="M853.1,402c4.1,0,6.2,0,10.2,0c0,0.9,0,1.3,0,2.2c-1.4,0-2.1,0-3.5,0c0,5.4,0,8,0,13.4c-1.3,0-2,0-3.3,0
				c0-5.4,0-8,0-13.4c-1.4,0-2.1,0-3.5,0C853.1,403.4,853.1,402.9,853.1,402z"/>
			<path class="st1" d="M871.4,408.6c1.8,0,2.7,0,4.5,0c0,0.9,0,1.3,0,2.2c-1.8,0-2.7,0-4.5,0c0,1.8,0,2.8,0,4.6c2.3,0,3.4,0,5.7,0
				c0,0.9,0,1.3,0,2.2c-3.6,0-5.4,0-9,0c0-6.2,0-9.4,0-15.6c3.6,0,5.4,0,9,0c0,0.9,0,1.3,0,2.2c-2.3,0-3.4,0-5.7,0
				C871.4,406,871.4,406.9,871.4,408.6z"/>
			<path class="st1" d="M889.4,417.8c-0.2-0.4-0.3-0.6-0.3-1.9c0-1,0-1.5,0-2.5c0-1.5-0.7-2-2.2-2c-0.5,0-0.7,0-1.1,0
				c0,2.6,0,3.8,0,6.4c-1.3,0-2,0-3.3,0c0-6.3,0-9.4,0-15.7c2,0,3,0,5,0c3.4,0,4.9,1.2,4.9,3.6c0,0.5,0,0.7,0,1.2
				c0,1.6-0.7,2.6-2.2,3.2c0,0,0,0,0,0c1.7,0.5,2.2,1.7,2.2,3.3c0,1,0,1.5,0,2.4c0,0.8,0,1.3,0.4,1.9
				C891.5,417.8,890.8,417.8,889.4,417.8z M885.8,404.3c0,1.9,0,2.9,0,4.8c0.5,0,0.8,0,1.3,0c1.2,0,2-0.4,2-1.6c0-0.6,0-0.9,0-1.5
				c0-1.1-0.5-1.6-1.7-1.6C886.8,404.3,886.4,404.3,885.8,404.3z"/>
			<path class="st1" d="M907.7,406c0,0.8,0,1.2,0,2.1c0,2.5-1.6,3.9-4.9,3.9c-0.6,0-0.9,0-1.6,0c0,2.4,0,3.6,0,6c-1.3,0-2,0-3.3,0
				c0-6.3,0-9.5,0-15.8c2,0,2.9,0,4.9,0C906.1,402.1,907.7,403.4,907.7,406z M901.2,404.3c0,2.1,0,3.2,0,5.4c0.6,0,0.9,0,1.6,0
				c1,0,1.6-0.4,1.6-1.5c0-1,0-1.4,0-2.4c0-1.1-0.6-1.5-1.6-1.5C902.2,404.3,901.9,404.3,901.2,404.3z"/>
			<path class="st1" d="M919.5,418.2c-0.2-0.4-0.3-0.7-0.3-2c0-1,0-1.5,0-2.5c0-1.5-0.7-2.1-2.2-2.1c-0.5,0-0.7,0-1.1,0
				c0,2.6,0,3.9,0,6.5c-1.3,0-2,0-3.3-0.1c0-6.4,0-9.6,0-16c2,0,3,0,5,0c3.4,0,4.9,1.2,4.9,3.7c0,0.5,0,0.8,0,1.3
				c0,1.7-0.7,2.7-2.2,3.2c0,0,0,0,0,0c1.7,0.5,2.2,1.8,2.2,3.5c0,1,0,1.5,0,2.5c0,0.8,0,1.4,0.4,2
				C921.6,418.2,920.9,418.2,919.5,418.2z M915.9,404.3c0,2,0,3,0,4.9c0.5,0,0.8,0,1.3,0c1.2,0,2-0.4,2-1.7c0-0.6,0-1,0-1.6
				c0-1.1-0.5-1.7-1.7-1.7C916.9,404.4,916.5,404.4,915.9,404.3z"/>
			<path class="st1" d="M928,402.1c1.3,0,2,0,3.3,0c0,6.5,0,9.8,0,16.4c-1.3,0-2,0-3.3-0.1C928,411.8,928,408.6,928,402.1z"/>
			<path class="st1" d="M941.5,401.9c3.2,0,4.9,1.5,4.9,4.2c0,0.2,0,0.3,0,0.5c-1.2,0-1.9,0-3.1,0c0-0.3,0-0.4,0-0.7
				c0-1.2-0.6-1.6-1.7-1.6c-1,0-1.7,0.4-1.6,1.6c0,1.2,0.7,2.1,2.8,3.6c2.8,2,3.7,3.4,3.7,5.3c0,2.7-1.7,4.2-4.9,4.1
				c-3.3-0.1-5-1.6-5-4.3c0-0.4,0-0.6,0-1c1.2,0,1.9,0,3.1,0.1c0,0.5,0,0.7,0,1.2c0,1.2,0.7,1.6,1.7,1.6s1.7-0.4,1.7-1.6
				c0-1.2-0.7-2.1-2.8-3.7c-2.8-2-3.6-3.3-3.7-5.2C936.6,403.4,938.3,401.9,941.5,401.9z"/>
			<path class="st1" d="M955,409.2c1.8,0,2.7,0,4.5,0.1c0,1,0,1.5,0,2.5c-1.8,0-2.7,0-4.5-0.1c0,2,0,3,0,5c2.3,0.1,3.4,0.1,5.7,0.2
				c0,1,0,1.5,0,2.5c-3.6-0.1-5.4-0.2-9-0.3c0-6.8,0-10.1,0-16.9c3.6,0,5.4,0,9,0c0,1,0,1.5,0,2.5c-2.3,0-3.4,0-5.7,0
				C955,406.4,955,407.3,955,409.2z"/>
			<path class="st1" d="M983.6,413.4c0,1,0,1.4,0,2.4c0,2.9-1.7,4.5-4.9,4.3s-4.9-1.8-5-4.6c0-3.7,0-5.5,0-9.2
				c0-2.8,1.7-4.4,4.9-4.4s4.9,1.6,5,4.5c0,0.7,0,1,0,1.8c-1.2,0-1.9,0-3.1,0c0-0.8,0-1.1,0-1.9c0-1.3-0.7-1.8-1.7-1.8
				s-1.7,0.5-1.7,1.7c0,3.8,0,5.8,0,9.6c0,1.3,0.7,1.8,1.7,1.8s1.7-0.4,1.7-1.7c0-1,0-1.5,0-2.6
				C981.8,413.3,982.4,413.4,983.6,413.4z"/>
			<path class="st1" d="M989,402.1c1.3,0,2,0,3.3,0c0,6.3,0,9.5,0,15.8c2.2,0.1,3.3,0.1,5.5,0.2c0,1.1,0,1.6,0,2.7
				c-3.5-0.2-5.3-0.2-8.8-0.4C989,413,989,409.4,989,402.1z"/>
			<path class="st1" d="M1002.2,406.6c0-3,1.8-4.7,5-4.7c3.2,0,5,1.8,5,4.9c0,4,0,6,0,10.1c0,3.1-1.8,4.8-5,4.6s-5-2-5-5
				C1002.2,412.5,1002.2,410.5,1002.2,406.6z M1005.5,416.7c0,1.4,0.7,1.9,1.7,2s1.7-0.5,1.7-1.8c0-4.1,0-6.2,0-10.4
				c0-1.4-0.7-1.9-1.7-1.9s-1.7,0.5-1.7,1.9C1005.5,410.6,1005.5,412.6,1005.5,416.7z"/>
			<path class="st1" d="M1020.9,402.1c0,6.1,0,9.2,0,15.3c0,1.4,0.7,2,1.7,2c1,0,1.7-0.4,1.7-1.9c0-6.2,0-9.2,0-15.4
				c1.2,0,1.9,0,3.1,0c0,6.1,0,9.2,0,15.4c0,3.2-1.7,5-4.9,4.8c-3.2-0.2-4.9-2.1-4.9-5.2c0-6,0-9,0-15
				C1018.9,402.1,1019.6,402.1,1020.9,402.1z"/>
			<path class="st1" d="M1033,402.1c2.1,0,3.1,0,5.2,0c3.3,0,4.9,1.8,4.9,5.2c0,4.3,0,6.4,0,10.7c0,3.4-1.6,5.1-4.9,4.9
				c-2.1-0.1-3.1-0.2-5.2-0.3C1033,414.4,1033,410.3,1033,402.1z M1036.4,405.1c0,5.9,0,8.9,0,14.8c0.8,0,1.1,0.1,1.9,0.1
				c1,0,1.7-0.5,1.7-1.9c0-4.4,0-6.5,0-10.9c0-1.5-0.6-2-1.7-2C1037.5,405.1,1037.1,405.1,1036.4,405.1z"/>
		</g>
	</g>
	<rect x="651.5" y="392.9" class="st2" width="10" height="40.4"/>
	<rect x="664.9" y="392.9" class="st2" width="2.9" height="40.4"/>
	<rect x="671" y="392.9" class="st2" width="2.9" height="39.1"/>
	<rect x="1058.5" y="392.9" class="st2" width="2.9" height="40.4"/>
	<rect x="1064.5" y="392.9" class="st2" width="2.9" height="40.4"/>
	<path class="st2" d="M862.5,426.8c-106.6,0-195.6,2.9-216.9,6.7v2c21.4-3.8,110.4-6.7,216.9-6.7c112.9,0,206.1,3.2,220,7.4v-2
		C1068.4,430.1,975.3,426.8,862.5,426.8z"/>
</g>
<path class="st2" d="M413.5,0.5L25.6,70.8C11.5,70.8,0,82.3,0,96.5v249.1c0,14.2,11.5,25.6,25.6,25.6l387.9,46.9
	c14.2,0,25.6-11.5,25.6-25.6V26.1C439.2,12,427.7,0.5,413.5,0.5z M200.3,56.2l205.3-36.5v379.1L10.1,352V90.1l189.7-33.9
	 M216.1,388.5"/>
<line class="st9" x1="196.2" y1="71.8" x2="196.2" y2="357.8"/>
<line class="st9" x1="389.4" y1="207.2" x2="32.5" y2="222.3"/>
</svg>
