<svg xmlns="http://www.w3.org/2000/svg" width="41.876" height="25.283" viewBox="0 0 41.876 25.283">
  <path id="Path_39" data-name="Path 39" d="M-3439.1-31.044l-14.922,0c-.043,0-.086,0-.13,0s-.087,0-.13,0l-.061,0h-11.571a6.94,6.94,0,0,1-5.819-6.855,6.835,6.835,0,0,1,6.8-6.854,6.706,6.706,0,0,1,1.167.1,6.365,6.365,0,0,1,6.321-5.968,6.238,6.238,0,0,1,1.966.314,8.661,8.661,0,0,1,8.234-6.017,8.685,8.685,0,0,1,8.411,6.645,9.3,9.3,0,0,1,8.978,9.315A9.291,9.291,0,0,1-3439.1-31.044Z" transform="translate(3471.73 56.322)" fill="#333132"/>
</svg>
