<svg xmlns="http://www.w3.org/2000/svg" width="26.64" height="25.283" viewBox="0 0 26.64 25.283">
  <g id="Group_22" data-name="Group 22" transform="translate(-208.055 -141.877)">
    <path id="Path_50" data-name="Path 50" d="M220.433,146.631v-.179a1.009,1.009,0,0,1,1-1.008l3.425-.01a1.007,1.007,0,0,1,1.007,1v.195h3.715l0-1.412a3.351,3.351,0,0,0-3.361-3.342l-6.163.018a3.354,3.354,0,0,0-3.345,3.363l0,1.373Z" transform="translate(-2.018)" fill="#333132"/>
    <path id="Path_51" data-name="Path 51" d="M227.846,159.6l-2.538-.011-.007-2.519-2.68.008.007,2.519-2.519.008.007,2.68,2.52-.007.007,2.521,2.68-.008-.007-2.521,2.538.011Z" transform="translate(-2.811 -3.543)" fill="#333132"/>
    <path id="Path_52" data-name="Path 52" d="M232.623,149.032l-22.552.066a2.019,2.019,0,0,0-2.015,2.027l.045,15.689a2.021,2.021,0,0,0,2.028,2.015l22.552-.063a2.026,2.026,0,0,0,2.015-2.03l-.046-15.688A2.022,2.022,0,0,0,232.623,149.032ZM221.18,165.8a6.741,6.741,0,1,1,6.722-6.759A6.738,6.738,0,0,1,221.18,165.8Z" transform="translate(0 -1.669)" fill="#333132"/>
  </g>
</svg>
