<?xml version="1.0" encoding="utf-8"?>
<!-- Generator: Adobe Illustrator 23.1.1, SVG Export Plug-In . SVG Version: 6.00 Build 0)  -->
<svg version="1.1" id="Layer_1" xmlns="http://www.w3.org/2000/svg" xmlns:xlink="http://www.w3.org/1999/xlink" x="0px" y="0px"
	 viewBox="0 0 30.7 31.6" style="enable-background:new 0 0 30.7 31.6;" xml:space="preserve">
<style type="text/css">
	.st0{fill:#F6F6F6;}
</style>
<g>
	<polygon class="st0" points="20.5,13.3 22.7,11.2 24.8,9.1 26.9,6.9 27,6.8 30.4,10.2 30.7,0.4 20.9,0.7 24.4,4.1 24.3,4.2 
		22.1,6.4 20,8.5 17.8,10.7 17.5,11 20.2,13.7 	"/>
	<polygon class="st0" points="10.8,8.5 8.6,6.4 6.5,4.2 6.4,4.1 9.8,0.7 0,0.4 0.3,10.2 3.7,6.8 3.8,6.9 5.9,9.1 8.1,11.2 
		10.2,13.3 10.6,13.7 13.2,11 12.9,10.7 	"/>
	<polygon class="st0" points="27,24.8 26.9,24.7 24.8,22.6 22.7,20.4 20.5,18.3 20.2,17.9 17.5,20.6 17.8,20.9 20,23.1 22.1,25.2 
		24.3,27.4 24.4,27.5 20.9,30.9 30.7,31.2 30.4,21.4 	"/>
	<polygon class="st0" points="10.2,18.3 8.1,20.4 5.9,22.6 3.8,24.7 3.7,24.8 0.3,21.4 0,31.2 9.8,30.9 6.4,27.5 6.5,27.4 8.6,25.2 
		10.8,23.1 12.9,20.9 13.2,20.6 10.6,17.9 	"/>
</g>
</svg>
