<svg xmlns="http://www.w3.org/2000/svg" width="25.289" height="35.789" viewBox="0 0 25.289 35.789">
  <path id="Path_127" data-name="Path 127" d="M46.013,31.6H20.792v4.19H46.013Zm-.418-16.757a1.656,1.656,0,0,0-2.342,0l-8.215,8.216V1.657a1.657,1.657,0,1,0-3.313,0v21.4l-8.1-8.1A1.657,1.657,0,1,0,21.277,17.3L32.209,28.228a1.58,1.58,0,0,0,.121.111c.019.016.039.029.059.044s.047.036.07.052.048.029.072.044.044.027.067.039.05.025.075.037l.071.033c.025.01.049.018.074.027s.052.02.079.028l.075.019c.027.006.054.015.082.02l.087.014c.024,0,.048.008.073.011a1.684,1.684,0,0,0,.327,0c.025,0,.048-.007.073-.011s.059-.007.087-.014.055-.014.082-.02.05-.012.075-.019.052-.018.079-.028a.639.639,0,0,0,.074-.027l.071-.033c.025-.012.05-.023.075-.037s.045-.026.067-.039.049-.028.072-.044.048-.036.071-.052.039-.029.059-.044a1.764,1.764,0,0,0,.175-.169c.019-.017.039-.033.058-.051L45.594,17.186a1.658,1.658,0,0,0,0-2.344" transform="translate(-20.791 0)" fill="#f6f6f6"/>
</svg>
