<svg xmlns="http://www.w3.org/2000/svg" width="356.6" height="215.302" viewBox="0 0 356.6 215.302"><g transform="translate(572.101 -191.73)"><path d="M-291.955,248.318a73.958,73.958,0,0,0-71.623-56.588,73.733,73.733,0,0,0-70.114,51.24,53.219,53.219,0,0,0-16.751-2.677c-28.549,0-52,22.485-53.821,50.821a57.042,57.042,0,0,0-9.934-.871c-31.928,0-57.9,26.188-57.9,58.374,0,29.026,21.453,54.259,49.551,58.375h98.533l.522.013c.368.013.736.026,1.1.026s.742-.013,1.109-.026l127.075-.013c43.4,0,78.706-35.6,78.706-79.357C-215.5,284.645-249.59,249.524-291.955,248.318Zm37.043,108.1a12.161,12.161,0,0,1-12.158,12.165h-41.752v7.011h2.916c.587,0,1.1,1.348,1.38,3.361h25.188v7.3h-25.188c-.284,2.012-.794,3.354-1.38,3.354h-13.546c-.587,0-1.1-1.342-1.38-3.354h-22.44v-7.3h22.44c.284-2.012.793-3.361,1.38-3.361h3.335v-7.011h-39.43a12.161,12.161,0,0,1-12.159-12.165v-.864a12.161,12.161,0,0,1,12.159-12.165h88.478a12.16,12.16,0,0,1,12.158,12.165Zm0-31.987a12.159,12.159,0,0,1-12.158,12.159h-88.478a12.159,12.159,0,0,1-12.159-12.159v-.871A12.159,12.159,0,0,1-355.548,311.4h88.478a12.159,12.159,0,0,1,12.158,12.159Zm0-31.993A12.161,12.161,0,0,1-267.07,304.6h-88.478a12.161,12.161,0,0,1-12.159-12.165v-.871a12.159,12.159,0,0,1,12.159-12.159h88.478a12.159,12.159,0,0,1,12.158,12.159Z" transform="translate(0 0)" fill="#313133"/><path d="M-532.623,211.188a6.755,6.755,0,0,0-6.753,6.753,6.757,6.757,0,0,0,6.753,6.76,6.758,6.758,0,0,0,6.76-6.76A6.757,6.757,0,0,0-532.623,211.188Z" transform="translate(178.358 106.05)" fill="#313133"/><path d="M-532.623,216.147a6.757,6.757,0,0,0-6.753,6.76,6.757,6.757,0,0,0,6.753,6.76,6.758,6.758,0,0,0,6.76-6.76A6.758,6.758,0,0,0-532.623,216.147Z" transform="translate(178.358 133.078)" fill="#313133"/><path d="M-532.623,206.228a6.757,6.757,0,0,0-6.753,6.76,6.761,6.761,0,0,0,6.753,6.76,6.762,6.762,0,0,0,6.76-6.76A6.758,6.758,0,0,0-532.623,206.228Z" transform="translate(178.358 79.017)" fill="#313133"/></g></svg>