<?xml version="1.0" encoding="utf-8"?>
<!-- Generator: Adobe Illustrator 23.0.3, SVG Export Plug-In . SVG Version: 6.00 Build 0)  -->
<svg version="1.1" id="Layer_1" xmlns="http://www.w3.org/2000/svg" xmlns:xlink="http://www.w3.org/1999/xlink" x="0px" y="0px"
	 viewBox="0 0 2500 984" style="enable-background:new 0 0 2500 984;" xml:space="preserve">
<style type="text/css">
	.st0{fill:#08A1DA;}
	.st1{fill:#030303;}
	.st2{fill:#FDFEFE;}
</style>
<title>stanley-steemer-wordmark</title>
<g>
	<path class="st0" d="M1759.3,819.6c-97.5-1.8-193.9-11.6-286.8-43.6c-31.3-10.8-61.1-24.8-89.1-42.8
		c-51.5-33.2-79.5-80.8-88.1-140.6c-13.7-95.3,7.2-184.9,47-270.9c27.9-60.1,65.1-113.5,116.9-155.8c25.6-20.9,53.8-37.7,86.7-43.7
		c53.6-9.9,97.5,11.4,124.6,60c4.5,8.1,7.3,8.7,15.2,4.2c71.9-40.8,147.1-73.7,227.9-92.5c46.9-10.9,94.3-16.8,142.5-9.4
		c25.5,3.9,49.5,11.8,70.1,28.1c25.1,19.9,37.2,46.3,38.6,77.9c1.8,40.9-11.8,77.9-30,113.5c-4.3,8.4-3.4,10.4,5.9,11.3
		c62.2,6.1,123.4,17.1,182.4,38.2c45.4,16.2,88.2,36.9,123.4,71.2c43.1,42,51.1,99.2,20.1,150.8c-24.8,41.2-60.8,71-100.6,96.5
		c-74.9,48-157.2,78.8-242.7,101.7c-83.4,22.3-168.3,35.8-254.4,42C1832.3,818.3,1795.8,819.8,1759.3,819.6z M1392.7,725.4
		c1.9,1.4,3.7,2.9,5.7,4.1c20.5,12.2,42,22.2,64.5,30.1c93.2,33.1,190.2,40.8,288,40.5c67.6-0.2,134.8-6.5,201.5-17.9
		c102.6-17.6,202.2-44.8,294.8-93.6c45.7-24.1,88.3-52.5,120.8-93.7c42.3-53.7,38.6-110-10.6-156.8c-23.8-22.7-52.4-37.8-82.4-50.4
		c-50.2-21.1-102.8-32.7-156.4-40.2c-4.4-0.6-8.4-1.4-11.7,3.6c-43.4,65.1-97.9,120-158.3,169.3
		c-104.1,84.8-218.3,151.4-347.3,190.6c-52.3,15.9-105.6,25.9-160.7,21.9C1424.4,731.5,1408.8,727.8,1392.7,725.4z M2065.9,341.6
		c-9.5-0.8-18.1-1.6-26.7-2.1c-60.7-3.5-121.2-1.8-181.7,3.8c-51.5,4.8-102.5,12.6-153,23.2c-5.5,1.1-8.8,3.2-9.8,9.7
		c-13,89.3-46.3,170.3-100.3,242.6c-27.4,36.8-59.7,68.6-100.2,91.1c-7,3.9-14.4,7.3-23.4,11.8
		C1693,708.5,1980.4,503.4,2065.9,341.6z M2001.1,310.5c24.5,0,49-0.2,73.4,0.1c5.9,0.1,9.1-1.3,11.5-7.2
		c7.2-17.6,12.5-35.7,15.5-54.4c8.2-51.5-16.2-92.8-65.2-110.7c-31.9-11.6-65-12.6-98-9.3c-88.4,8.8-169.4,40.7-247.4,81.6
		c-4.8,2.5-5.5,5.1-4,9.7c12,38.3,14.6,77.7,11.9,117.5c-0.6,8.2,0.5,10.4,9.7,8.2C1804.7,323.4,1902.3,311.4,2001.1,310.5z
		 M1308.1,610.2c5.9-34,15.9-66.4,31.7-96.9c44-84.7,108.6-152.1,180.7-212.9c35.9-30.3,73.8-57.8,113.5-82.8
		c6.1-3.9,6.1-6.4,1.9-11.5c-10.1-12.5-21.7-23.1-36.3-30.1c-32.4-15.5-64.4-11.3-95.7,3c-46.2,21.1-80.7,56.1-109.6,96.6
		c-57.1,79.9-88.3,169.1-92.4,267.4C1300.9,565.6,1303.2,588.1,1308.1,610.2z M1529.2,672.4c5-1.5,7.2-4.7,9.9-7.3
		c77.4-79.1,118.1-175.3,132.2-283.9c0.8-6.6-1.5-6.8-6.8-5.2c-13.2,3.9-26.6,7.1-39.7,11c-74,21.7-144.9,50.2-209.2,93.7
		c-7.6,5.1-14.9,10.8-22.3,16.2C1500.3,473.7,1574.4,568,1529.2,672.4z M1351.3,516.7c3.8,0.7,5-1.2,6.3-2.6
		c40.5-42.2,89.7-71.6,141.8-96.7c52.8-25.5,108-44.7,164.5-60.3c4.5-1.3,9-1.6,9.1-8.7c0.3-36.5-3.5-72.1-16.7-106.5
		c-3.4-8.9-6.4-8.9-13.8-4.3c-21.1,13.1-42,26.3-62.2,40.7C1489.2,343.3,1408,417.7,1351.3,516.7z M1494.8,612.1
		c0.2-24-2.7-47.4-13.5-69.3c-11.3-22.8-29.5-35.3-55.1-35.1c-25.3,0.1-43.8,12.9-53.6,35.6c-18.8,43.7-18.8,88.6-1.9,132.8
		c9.8,25.5,31,38.1,57.5,37.4c27.4-0.8,45.9-14.5,56.3-39.6C1492.7,654.1,1494.6,633.3,1494.8,612.1z"/>
	<path class="st1" d="M115.4,629.9c0,16.5-0.4,33.1,0.1,49.6c0.5,16.4,6.1,22.2,22.2,26.2c11.2,2.8,22.6,1.5,33.9,2.8
		c5.6,0.6,12.4-0.3,11.8,9c-0.7,9.9-7.4,5.5-12.2,5.5c-51.7-0.5-103.4-1.2-155.2,0.3c-3.8,0.1-7.8,1.7-8.3-4.4
		c-0.5-5.5,0.6-9.6,7.2-10c8.6-0.4,17.2-0.6,25.8-1.5c17.7-1.7,22.3-7.2,23-25c2.5-66.9,1.7-133.8,1.6-200.6
		c0-22.7-0.9-45.5-1.7-68.2c-0.6-16.3-6.8-22.8-22.9-24.9c-5.8-0.7-11.7-1.6-17.5-1.4c-6,0.2-9.1-1.4-8.9-8c0.2-7.1,4.7-7.2,9.9-6.9
		c29.9,1.5,59.9,2.8,89.8,1.2c25.1-1.3,50.3-2.9,75.3,0.7c41.8,6,76.8,22.5,93.3,64.7c23.4,60.1-14.9,124.1-80,134.2
		c-27.2,4.2-54.3,3-81.3-1c-5.8-0.9-7.2,0.3-7.1,5.9c0.3,17.2,0.1,34.5,0.1,51.7C114.7,629.9,115,629.9,115.4,629.9z M115,477.4
		c-0.2,0-0.5,0-0.7,0c0,21.7,0.2,43.4-0.1,65.1c-0.1,9.4,3.9,14.7,13.1,16.8c8.2,1.9,16.5,1.8,24.6,1c35.2-3.5,64.3-17.3,77.1-52.6
		c12.9-35.6,8.6-69.5-18.1-97.9c-21-22.4-48.7-24.9-77.4-21.6c-13.4,1.5-17.9,5.4-18.4,18.9C114.4,430.6,115,454,115,477.4z"/>
	<path class="st0" d="M1125.8,738.8c-35.2-16.2-40.8-46.9-15.9-72.8c6.6-6.9,14.4-12.6,21.6-19c-34-24.5-46.2-61.2-32.6-97.8
		c12.8-34.5,52.6-58.9,90.7-55.6c41,3.5,68.1,23,78.4,56.4c15.4,50-18.5,101-70.5,105.9c-15.1,1.4-30.4,1.7-45.1-2.5
		c-6.4-1.8-10.4-0.2-14.8,3.8c-3.9,3.6-7.1,7.5-9.3,12.3c-8.3,18.4-1.1,29.8,19.1,29.9c25.5,0.2,51,0.1,76.6,0
		c8.3,0,16.6,0.8,24.6,2.6c33.3,7.7,48.2,33.9,41.7,71.5c-5.1,29.3-21.9,49.6-47.4,62.6c-38.6,19.7-80,25.3-122.6,18.6
		c-31.2-4.9-45.3-28.5-37.5-59.4c3.8-15.1,11.8-28,22.3-39C1111.1,750.1,1118.3,745.1,1125.8,738.8z M1185.3,833.9
		c18.2-0.4,37.3-2,55.1-10.8c18.9-9.4,29.4-33.1,24.6-55.4c-4.1-19.3-16.1-27.6-40.4-29.2c-24.8-1.6-49.6-0.5-74.4-1
		c-5.5-0.1-10.1,1.5-14.2,5c-9.1,7.7-16.6,16.5-21.4,27.4c-9.5,21.4-1.4,43.5,19.5,54.1C1149.8,832,1166.8,833.6,1185.3,833.9z
		 M1226.9,569c0.6-10.6-0.7-22.2-4.6-33.4c-5.5-15.7-15.6-26.9-33.1-28.5c-18.3-1.6-32.9,5.9-40.5,22.5c-13,28.6-15,58.5-4,88.3
		c6.2,16.9,19.9,25,37.8,25.3c17.1,0.3,28.4-8.7,35.4-23.7C1225.1,603.9,1227,587.2,1226.9,569z"/>
	<path class="st1" d="M871.3,704.5c-21.8,16.6-44.2,25.6-70.1,24.9c-42.3-1.3-74.6-25.1-86-65.9c-13.1-46.7-6.6-90.2,26.3-127.5
		c28.8-32.6,75.3-43.7,116.1-28.9c3.5,1.3,7,2.5,11,3.9c0-34,0.5-67.4-0.2-100.7c-0.4-16.2-6.1-21.1-22.9-23.6
		c-4.2-0.6-8.7-0.9-9.1-6.4c-0.4-5.5,3.1-7.3,8.3-8.3c20-3.6,39.2-10.3,57.7-18.5c7.6-3.3,10.4-1.2,9.3,6.7
		c-3.1,23-2.2,46.1-2.4,69.1c-0.6,80.7-0.2,161.4-0.2,242c0,3.1-0.1,6.2,0,9.3c1,17.4,3.9,20.5,21.5,22.4c4.2,0.5,8.4-0.2,8.7,6
		c0.3,6.3-4,7.3-8.5,8.3c-16.1,3.7-32.2,7.4-48.3,10.9c-10.6,2.3-12.2,1-11.9-9.5C870.7,714.7,871,710.6,871.3,704.5z M868.8,612.5
		c0-19.3,0-38.6,0-58c0-18.5-9.4-31.4-26.9-37.2c-32-10.7-64.6,2-77.8,32.9c-18.4,43.1-16.4,86.9,3.4,129.1
		c11.2,23.9,32.2,34,58.5,32.4c27.3-1.7,42.8-18.2,42.8-45.4C868.8,648.3,868.8,630.4,868.8,612.5z"/>
	<path class="st1" d="M579.1,729.3c-68.5-0.2-114.3-46.9-114.1-116.4c0.1-63.4,50.1-112.1,114.5-111.8
		c66,0.3,113.9,48.7,113.7,114.6C693,684.7,648,729.4,579.1,729.3z M646.2,624.1c0.4-27-1.6-53.6-15.1-77.9
		c-11.5-20.6-28.8-31.7-52.9-31.5c-23.7,0.2-41.4,11-51.3,32c-21.3,45.1-21.1,91.2-1.6,136.7c9.4,21.8,27.8,32.2,51.8,32.7
		c25.1,0.5,43.7-9.7,55.5-32.1C642.5,665.2,645.2,644.9,646.2,624.1z"/>
	<path class="st1" d="M369.8,542.4c13.8-14.6,26.9-26.7,43.2-34.7c11-5.4,22.5-8.2,34.9-5.1c11.2,2.8,19.3,11,20.9,21.6
		c1.6,10.3-3,20.9-11.3,26c-9.2,5.6-20.3,4.8-29.9-2.3c-22.3-16.4-29.4-15.8-49.8,3.6c-5.4,5.1-7.9,10.7-7.8,18.2
		c0.2,39.3,0,78.6,0.1,117.9c0,16.8,5.4,22.1,22.3,22.6c5.1,0.1,10.3,0.5,15.4,0.7c4.5,0.2,7,2,6.6,7c-0.4,4.6-3.2,5.8-7,5.8
		c-8.9-0.1-17.9-0.4-26.8-0.7c-27.6-0.8-55.1-1.2-82.6,0.7c-4.1,0.3-7.9-0.1-8.6-5.1c-0.7-4.9,2.5-6.9,6.7-7.4
		c6.1-0.7,12.3-1,18.5-1.5c8.4-0.6,13.5-4.8,14.3-13.3c0.5-5.1,0.9-10.3,0.9-15.5c0.1-38.3,0-76.5,0-114.8
		c0-24.8-3.4-29.2-27.3-34.2c-4.2-0.9-6.1-2.6-6.1-6.6c0-3.9,1.7-6.6,5.7-7.4c22.4-4.3,43.7-11.2,63.9-22.2c6.9-3.8,5.4,3.7,5.3,7
		c-0.5,11.3-1.5,22.6-2.3,33.9C368.8,538,369.2,539.2,369.8,542.4z"/>
	<path class="st1" d="M1014.1,723.6c-16.5,0-33,0-49.6,0c-4.2,0-8.5,0.9-8.9-5.5c-0.4-5.8,3.1-7,7.7-7.3c4.8-0.3,9.6-0.5,14.4-0.9
		c10.9-0.8,16.1-5.6,17.5-16.5c3-23,1.7-46.1,2.1-69.2c0.4-21,0.3-42.1,0-63.1c-0.3-19.5-5.9-25.9-24.8-29.1
		c-4.1-0.7-8.5-0.2-8.7-6.3c-0.1-5.9,3.9-7.5,8.5-8.4c20.6-4.1,40.7-9.9,58.9-20.8c5.7-3.5,9.2-2.8,8.7,4.9
		c-4,55-2.3,110.2-2.7,165.3c-0.1,8.9,0.4,17.9,1,26.8c0.7,11.6,5.1,15.8,16.7,16.5c3.1,0.2,6.2,0,9.3,0.1c4.6,0.2,7.8,1.6,7.6,7.3
		c-0.2,6.1-3.7,6-8.3,5.9c-16.5-0.3-33.1-0.1-49.6-0.1C1014.1,723.5,1014.1,723.5,1014.1,723.6z"/>
	<path class="st0" d="M820.9,832.9c0,15.1-0.3,30.2,0.1,45.2c0.2,7.2-1.2,10.5-9.5,10.1c-18.5-0.9-15,2-15.2-15.4
		c-0.2-23.8,0.2-47.5-0.2-71.3c-0.1-6.8,1.9-8.6,8.7-8.9c9.7-0.4,16.6,2.2,22.9,10.2c12.5,15.7,26.4,30.4,42,44.8
		c0-14.9,0.8-30-0.2-44.8c-0.9-12.5,7.2-9.3,13.9-10c8-0.9,10.6,1.8,10.4,10.1c-0.6,25.5-0.4,51-0.1,76.5c0.1,6.3-1.1,8.9-8.3,9
		c-8.9,0.2-15.2-2-21.1-9.3c-13.2-16.2-27.4-31.5-41.3-47.2C822.4,832.3,821.6,832.6,820.9,832.9z"/>
	<path class="st0" d="M219.9,890.1c-22.5-0.7-42.1-7.4-53.2-28.8c-9.9-18.9-5.1-41.2,11.2-55.1c20.3-17.4,54.9-19.9,77.3-5.3
		c15.6,10.2,24.1,24.4,22.7,43.4c-1.4,18.5-12,31-28,39.3C240.6,888.3,230.5,890.6,219.9,890.1z M252.2,840.8
		c-0.1-16.8-14.7-29.8-33.1-29.6c-18.2,0.2-31.6,12.9-31.6,29.8c0,16.8,14.5,29.8,33.1,29.7C238.4,870.7,252.3,857.5,252.2,840.8z"
		/>
	<path class="st0" d="M718.1,890c-17.4,0.3-32.6-4.7-44.7-16.5c-21.2-20.7-17.7-54.9,7.9-71.3c22.7-14.4,46.9-14.9,70.5-1.8
		c16.7,9.2,25.4,23.8,24.1,43.3c-1.2,19.1-12,31.7-28.4,40C738.2,888.4,728.1,890.6,718.1,890z M718.5,870.7
		c17.5-0.1,31.9-13.5,32.1-29.8c0.2-16.2-15.1-29.9-33.3-29.7c-17.8,0.2-31.9,13.1-32.2,29.6C684.8,856.8,700.5,870.8,718.5,870.7z"
		/>
	<path class="st0" d="M390.4,826.9c0-9,0.2-17.9-0.1-26.9c-0.2-5.3,1.5-7.7,7-7.3c2.7,0.2,5.5,0.3,8.3,0c7.2-0.9,9.5,2.1,9.2,9.3
		c-0.6,14.4-0.4,28.9-0.2,43.4c0.3,17.1,7.8,24.8,23.6,24.5c15.9-0.3,22.8-7.8,22.9-25.2c0.1-14.5,0.4-28.9-0.1-43.4
		c-0.2-6.9,1.9-9.4,8.7-8.6c2.7,0.3,5.5,0.3,8.3,0c5.7-0.6,8,1.5,7.9,7.5c-0.3,16.9,0.3,33.7-0.3,50.6
		c-0.6,19.3-11.2,32.3-30.1,36.9c-15.4,3.7-30.7,3.6-45.3-3.5c-12.7-6.2-18.7-16.9-19.5-30.5C390,844.9,390.5,835.9,390.4,826.9
		C390.4,826.9,390.4,826.9,390.4,826.9z"/>
	<path class="st0" d="M106,889.9c-15.1,0.3-28-3.7-40.3-10.5c-5.3-2.9-6.7-5-1.8-10.5c6.5-7.3,11.6-9.1,20.5-3.4
		c8.7,5.6,19.2,7.6,29.8,4.3c3.8-1.2,7.1-3,7.3-7.6c0.1-4.2-3.1-6.1-6.4-7.2c-11.8-3.7-23.8-6.6-35.4-10.9
		c-13.1-4.9-18-14.1-15.8-27.7c1.6-10.1,7.8-16.9,17.1-20.3c19.5-7.3,38.4-4.8,56.7,4.7c4.6,2.4,4.7,4.2,1.7,8.3
		c-5.5,7.5-10.2,12.9-20.3,5.9c-5.5-3.8-12.9-4.6-19.9-3.9c-5.1,0.5-10,1.6-10.8,7.5c-0.8,5.8,4,7.5,8.3,8.9
		c11.7,3.8,24.3,5,35.4,10.7c16.5,8.6,19.1,29.9,5.1,42.2c-4.2,3.7-9.2,6-14.6,7.4C116.8,889.3,111,890.3,106,889.9z"/>
	<path class="st0" d="M912.6,874.1c2.1-2.2,3.7-3.6,4.9-5.3c5.3-7.7,10.6-9.6,19.3-3.7c8.3,5.6,18.5,7.5,28.7,5.2
		c3.9-0.9,8.3-2.3,8.7-7.5c0.5-5.3-3.4-7.3-7.4-8.5c-8.9-2.7-17.9-4.7-26.8-7.4c-17.1-5.2-24.1-13.3-23.6-26.9
		c0.5-13.5,9.4-23.4,25.7-26.7c16.6-3.3,32.8-1.1,48,7c5.2,2.8,4.7,4.7,1.7,9.1c-5.2,7.6-9.9,12.2-19.5,5.6
		c-5.6-3.9-12.8-4.8-19.9-4.1c-4.8,0.5-10.1,1-11.1,7.1c-1,6.4,4.4,8,8.9,9.4c11.1,3.5,22.9,4.9,33.5,10
		c13.7,6.6,18.9,19.8,13.3,33.5c-2.8,6.7-7.9,11.1-14.3,14.2C962.9,894.9,929.6,889.7,912.6,874.1z"/>
	<path class="st0" d="M549.7,792.8c12.4,0,24.9,0.4,37.2-0.2c8.4-0.4,8.7,4.1,8.3,10.3c-0.3,5.3,1.4,10.9-7.8,10.6
		c-8.3-0.3-19.5-4.3-24.2,2.2c-4,5.5-1.1,16-1.1,24.2c0,13.1-0.3,26.2,0.1,39.3c0.2,6.5-1.4,9.9-8.6,8.8c-2-0.3-4.2-0.3-6.2,0
		c-7.9,1.2-10.7-1.6-10.4-10c0.7-18.9-0.1-37.9,0.4-56.9c0.1-6.4-1.8-8.7-8.1-8.1c-4.4,0.5-9,0.1-13.4,0.1
		c-10.6,0-15.7-7.9-11.5-17.7c1.5-3.6,4.5-2.6,7-2.7c12.8-0.1,25.5,0,38.3,0C549.7,792.9,549.7,792.8,549.7,792.8z"/>
	<path class="st0" d="M297.5,841.2c0-13.4,0.3-26.9-0.1-40.3c-0.2-6.3,1.7-9,8.1-8.1c1.7,0.2,3.5,0.3,5.2,0
		c8.9-1.4,12,1.8,11.6,11.2c-0.8,18.6,0.3,37.2-0.4,55.7c-0.3,8.1,2.5,9.8,9.9,9.5c12.4-0.6,24.8,0.4,37.2-0.4
		c8.7-0.6,7.3,4.7,7.4,9.7c0.1,5.2,1,10-7.5,9.7c-21.3-0.6-42.7-0.4-64-0.1c-6.2,0.1-7.5-2.2-7.4-7.8
		C297.7,867.4,297.5,854.3,297.5,841.2z"/>
	<path class="st1" d="M1049.7,425.5c0.2,16.7-12.6,29.9-28.8,30c-15.9,0.1-29.5-13.6-29.5-29.7c0-15.4,13.3-29.1,28.7-29.4
		C1036.4,396,1049.5,408.9,1049.7,425.5z"/>
	<path class="st0" d="M613.9,840.5c0-13.1,0.5-26.2-0.2-39.2c-0.4-7.4,2.4-9.1,8.8-8.4c2.7,0.3,5.5,0.3,8.3,0
		c5.5-0.5,8.1,1.2,8.1,7.3c-0.2,26.9-0.2,53.7,0,80.6c0.1,6.1-2.4,7.9-7.9,7.4c-2.4-0.2-4.9-0.3-7.2,0c-7.4,1.1-10.4-1.3-10-9.4
		C614.5,866,613.9,853.2,613.9,840.5z"/>
	<path class="st2" d="M115,477.4c0-23.4-0.6-46.8,0.2-70.2c0.5-13.5,5-17.4,18.4-18.9c28.7-3.3,56.4-0.8,77.4,21.6
		c26.6,28.4,31,62.3,18.1,97.9c-12.8,35.3-41.9,49.1-77.1,52.6c-8.2,0.8-16.4,0.9-24.6-1c-9.3-2.1-13.2-7.4-13.1-16.8
		c0.2-21.7,0.1-43.4,0.1-65.1C114.5,477.4,114.7,477.4,115,477.4z"/>
</g>
</svg>
